<svg width="600" height="212" viewBox="0 0 600 212" fill="none" xmlns="http://www.w3.org/2000/svg">
<g id="Logo Horizontal Branco">
<g id="LogoCompleto">
<g id="O melhor do Sushi, em Festival!">
<path d="M266.342 143.803C266.342 142.235 266.102 141.093 265.622 140.379C265.142 139.664 264.492 139.307 263.67 139.307C262.849 139.307 262.092 139.632 261.398 140.283C260.705 140.933 260.177 141.749 259.814 142.731C259.452 143.701 259.27 144.699 259.27 145.723C259.27 147.099 259.521 148.229 260.022 149.115C260.534 150 261.297 150.443 262.31 150.443C263.132 150.443 263.857 150.107 264.486 149.435C265.116 148.763 265.58 147.931 265.878 146.939C266.188 145.947 266.342 144.901 266.342 143.803ZM266.118 149.659C265.66 150.181 265.084 150.603 264.39 150.923C263.708 151.243 262.956 151.403 262.134 151.403C261.324 151.403 260.604 151.211 259.974 150.827C259.356 150.443 258.865 149.931 258.502 149.291C257.766 147.989 257.398 146.501 257.398 144.827C257.398 143.152 257.809 141.664 258.63 140.363C259.452 139.051 260.518 138.187 261.83 137.771C262.012 137.813 262.113 137.899 262.134 138.027C261.388 138.485 260.774 139.024 260.294 139.643C259.825 140.261 259.5 141.099 259.318 142.155C259.766 140.907 260.465 139.925 261.414 139.211C262.364 138.496 263.356 138.139 264.39 138.139C265.436 138.139 266.321 138.587 267.046 139.483C267.782 140.368 268.15 141.653 268.15 143.339C268.15 144.981 267.857 146.469 267.27 147.803C266.961 148.507 266.577 149.125 266.118 149.659Z" fill="white"/>
<path d="M283.892 144.939C283.615 145.44 283.38 146.08 283.188 146.859C282.996 147.637 282.9 148.373 282.9 149.067C282.9 149.76 282.932 150.405 282.996 151.003C282.719 151.024 282.553 151.035 282.5 151.035C281.572 151.035 281.108 150.581 281.108 149.675C281.108 149.344 281.22 148.523 281.444 147.211C281.679 145.899 281.796 144.917 281.796 144.267C281.796 143.605 281.551 143.275 281.06 143.275C280.452 143.275 279.833 143.861 279.204 145.035C278.575 146.208 278.26 147.632 278.26 149.307C278.26 149.84 278.292 150.405 278.356 151.003C278.079 151.024 277.913 151.035 277.86 151.035C276.932 151.035 276.468 150.581 276.468 149.675C276.468 149.557 276.575 148.763 276.788 147.291C277.012 145.819 277.124 144.656 277.124 143.803C277.124 142.939 277.033 142.149 276.852 141.435C277.492 141.68 277.935 142.032 278.18 142.491C278.436 142.949 278.564 143.515 278.564 144.187C278.564 144.528 278.527 144.96 278.452 145.483C278.815 144.416 279.316 143.531 279.956 142.827C280.596 142.123 281.183 141.771 281.716 141.771C282.911 141.771 283.508 142.693 283.508 144.539C283.903 143.685 284.356 143.013 284.868 142.523C285.391 142.021 285.876 141.771 286.324 141.771C286.975 141.771 287.433 141.968 287.7 142.363C287.967 142.747 288.1 143.275 288.1 143.947C288.1 144.608 287.993 145.541 287.78 146.747C287.577 147.952 287.476 148.832 287.476 149.387C287.476 149.931 287.545 150.331 287.684 150.587C287.823 150.832 288.057 151.045 288.388 151.227C288.249 151.237 288.052 151.243 287.796 151.243C287.113 151.243 286.607 151.104 286.276 150.827C285.956 150.539 285.796 150.053 285.796 149.371C285.796 148.976 285.903 148.181 286.116 146.987C286.329 145.781 286.436 144.896 286.436 144.331C286.436 143.627 286.191 143.275 285.7 143.275C285.423 143.275 285.124 143.424 284.804 143.723C284.484 144.021 284.18 144.427 283.892 144.939Z" fill="white"/>
<path d="M295.068 142.603C294.428 142.603 293.884 142.971 293.436 143.707C292.999 144.443 292.706 145.307 292.556 146.299H293.004C293.57 146.299 294.06 146.219 294.476 146.059C294.892 145.899 295.212 145.691 295.436 145.435C295.863 144.944 296.076 144.389 296.076 143.771C296.076 143.419 295.991 143.136 295.82 142.923C295.66 142.709 295.41 142.603 295.068 142.603ZM297.324 149.083C296.834 149.883 296.295 150.443 295.708 150.763C295.122 151.083 294.439 151.243 293.66 151.243C292.892 151.243 292.22 150.901 291.644 150.219C291.068 149.536 290.78 148.576 290.78 147.339C290.78 145.931 291.159 144.672 291.916 143.563C292.29 143.029 292.775 142.597 293.372 142.267C293.98 141.936 294.647 141.771 295.372 141.771C296.972 141.771 297.772 142.544 297.772 144.091C297.772 145.019 297.41 145.749 296.684 146.283C295.97 146.805 295.138 147.067 294.188 147.067C293.559 147.067 292.994 147.008 292.492 146.891C292.482 146.997 292.476 147.163 292.476 147.387C292.476 149.275 293.036 150.219 294.156 150.219C295.212 150.219 296.071 149.696 296.732 148.651C297.127 148.704 297.324 148.848 297.324 149.083Z" fill="white"/>
<path d="M300.044 149.835C300.034 149.664 300.028 149.392 300.028 149.019C300.028 148.635 300.204 147.013 300.556 144.155C300.919 141.296 301.1 139.333 301.1 138.267C301.1 137.2 301.036 136.507 300.908 136.187C301.506 136.411 301.927 136.741 302.172 137.179C302.418 137.616 302.54 138.144 302.54 138.763C302.54 139.381 302.386 140.981 302.076 143.563C301.767 146.144 301.612 148.224 301.612 149.803C301.612 150.144 301.634 150.624 301.676 151.243C301.09 151.2 300.674 151.061 300.428 150.827C300.226 150.635 300.098 150.304 300.044 149.835Z" fill="white"/>
<path d="M307.001 146.059C307.353 144.853 307.892 143.84 308.617 143.019C309.353 142.187 310.041 141.771 310.681 141.771C311.321 141.771 311.775 141.968 312.041 142.363C312.308 142.747 312.441 143.275 312.441 143.947C312.441 144.608 312.335 145.541 312.121 146.747C311.919 147.952 311.817 148.832 311.817 149.387C311.817 149.931 311.887 150.331 312.025 150.587C312.164 150.832 312.399 151.045 312.729 151.227C312.591 151.237 312.393 151.243 312.137 151.243C311.455 151.243 310.948 151.104 310.617 150.827C310.297 150.539 310.137 150.053 310.137 149.371C310.137 148.976 310.244 148.181 310.457 146.987C310.671 145.781 310.777 144.896 310.777 144.331C310.777 143.627 310.532 143.275 310.041 143.275C309.753 143.275 309.433 143.429 309.081 143.739C308.729 144.037 308.388 144.448 308.057 144.971C307.737 145.483 307.465 146.139 307.241 146.939C307.028 147.728 306.921 148.512 306.921 149.291C306.921 150.059 306.953 150.629 307.017 151.003C306.761 151.024 306.618 151.035 306.585 151.035C306.084 151.035 305.711 150.928 305.465 150.715C305.231 150.501 305.113 150.171 305.113 149.723C305.113 149.264 305.209 148.389 305.401 147.099C305.967 143.131 306.249 140.117 306.249 138.059C306.249 137.131 306.185 136.507 306.057 136.187C306.676 136.411 307.108 136.741 307.353 137.179C307.609 137.616 307.737 138.219 307.737 138.987C307.737 139.52 307.631 140.64 307.417 142.347C307.215 144.053 307.076 145.291 307.001 146.059Z" fill="white"/>
<path d="M321.355 145.755C321.355 144.709 321.222 143.963 320.955 143.515C320.699 143.056 320.326 142.827 319.835 142.827C319.355 142.827 318.87 143.067 318.379 143.547C317.888 144.016 317.499 144.603 317.211 145.307C316.934 146 316.795 146.725 316.795 147.483C316.795 148.229 316.939 148.88 317.227 149.435C317.515 149.979 317.952 150.251 318.539 150.251C319.371 150.251 320.048 149.76 320.571 148.779C321.094 147.797 321.355 146.789 321.355 145.755ZM316.715 145.131C317.12 143.979 317.664 143.141 318.347 142.619C319.04 142.085 319.739 141.819 320.443 141.819C321.158 141.819 321.75 142.133 322.219 142.763C322.688 143.381 322.923 144.224 322.923 145.291C322.923 146.464 322.699 147.552 322.251 148.555C321.75 149.664 321.024 150.437 320.075 150.875C319.563 151.12 318.998 151.243 318.379 151.243C317.515 151.243 316.758 150.885 316.107 150.171C315.456 149.445 315.131 148.416 315.131 147.083C315.131 145.739 315.419 144.576 315.995 143.595C316.571 142.613 317.355 141.931 318.347 141.547C318.56 141.547 318.667 141.653 318.667 141.867C317.611 142.56 316.96 143.648 316.715 145.131Z" fill="white"/>
<path d="M327.598 145.803C327.982 144.416 328.441 143.397 328.974 142.747C329.518 142.085 330.019 141.755 330.478 141.755C330.947 141.755 331.299 141.931 331.534 142.283C331.769 142.624 331.886 143.061 331.886 143.595C331.886 144.128 331.747 144.592 331.47 144.987C331.193 145.371 330.787 145.563 330.254 145.563C330.083 145.563 329.95 145.552 329.854 145.531C330.217 145.008 330.398 144.475 330.398 143.931C330.398 143.547 330.243 143.355 329.934 143.355C329.689 143.355 329.427 143.499 329.15 143.787C328.873 144.075 328.606 144.475 328.35 144.987C328.094 145.499 327.881 146.165 327.71 146.987C327.539 147.808 327.454 148.693 327.454 149.643C327.454 149.749 327.481 150.203 327.534 151.003C327.257 151.024 327.097 151.035 327.054 151.035C326.115 151.035 325.646 150.576 325.646 149.659C325.646 149.445 325.758 148.624 325.982 147.195C326.206 145.765 326.318 144.629 326.318 143.787C326.318 142.933 326.227 142.149 326.046 141.435C326.675 141.68 327.113 142.032 327.358 142.491C327.614 142.939 327.742 143.467 327.742 144.075C327.742 144.672 327.694 145.248 327.598 145.803Z" fill="white"/>
<path d="M340.157 147.771C340.157 148.379 340.275 148.875 340.509 149.259C340.744 149.643 341.107 149.835 341.597 149.835C342.099 149.835 342.552 149.616 342.957 149.179C343.373 148.731 343.704 148.133 343.949 147.387C344.205 146.629 344.424 145.829 344.605 144.987C344.798 144.133 344.936 143.227 345.021 142.267C345.182 140.485 345.261 139.072 345.261 138.027C345.261 136.981 345.219 136.203 345.133 135.691C346.232 136.043 346.781 137.147 346.781 139.003C346.781 139.76 346.6 141.285 346.237 143.579C345.885 145.872 345.709 147.547 345.709 148.603C345.709 149.659 345.757 150.555 345.853 151.291C345.245 151.088 344.829 150.725 344.605 150.203C344.382 149.68 344.269 149.013 344.269 148.203C343.939 149.12 343.448 149.845 342.797 150.379C342.147 150.912 341.469 151.179 340.765 151.179C340.072 151.179 339.507 150.912 339.069 150.379C338.643 149.835 338.429 149.04 338.429 147.995C338.429 146.256 338.883 144.827 339.789 143.707C340.707 142.587 341.843 142.027 343.197 142.027C343.581 142.027 343.992 142.085 344.429 142.203C343.704 142.32 343.053 142.587 342.477 143.003C341.901 143.408 341.453 143.888 341.133 144.443C340.483 145.573 340.157 146.683 340.157 147.771Z" fill="white"/>
<path d="M355.057 145.755C355.057 144.709 354.924 143.963 354.657 143.515C354.401 143.056 354.028 142.827 353.537 142.827C353.057 142.827 352.572 143.067 352.081 143.547C351.59 144.016 351.201 144.603 350.913 145.307C350.636 146 350.497 146.725 350.497 147.483C350.497 148.229 350.641 148.88 350.929 149.435C351.217 149.979 351.654 150.251 352.241 150.251C353.073 150.251 353.75 149.76 354.273 148.779C354.796 147.797 355.057 146.789 355.057 145.755ZM350.417 145.131C350.822 143.979 351.366 143.141 352.049 142.619C352.742 142.085 353.441 141.819 354.145 141.819C354.86 141.819 355.452 142.133 355.921 142.763C356.39 143.381 356.625 144.224 356.625 145.291C356.625 146.464 356.401 147.552 355.953 148.555C355.452 149.664 354.726 150.437 353.777 150.875C353.265 151.12 352.7 151.243 352.081 151.243C351.217 151.243 350.46 150.885 349.809 150.171C349.158 149.445 348.833 148.416 348.833 147.083C348.833 145.739 349.121 144.576 349.697 143.595C350.273 142.613 351.057 141.931 352.049 141.547C352.262 141.547 352.369 141.653 352.369 141.867C351.313 142.56 350.662 143.648 350.417 145.131Z" fill="white"/>
<path d="M367.941 143.067C368.261 143.355 368.613 143.643 368.997 143.931C369.392 144.208 369.781 144.491 370.165 144.779C370.56 145.067 370.917 145.36 371.237 145.659C371.962 146.331 372.325 147.072 372.325 147.883C372.325 148.885 371.941 149.723 371.173 150.395C370.416 151.067 369.413 151.403 368.165 151.403C366.917 151.403 365.957 151.12 365.285 150.555C364.613 149.989 364.277 149.317 364.277 148.539C364.277 147.963 364.448 147.499 364.789 147.147C365.13 146.784 365.573 146.603 366.117 146.603C366.266 146.603 366.41 146.624 366.549 146.667C366.218 147.168 366.053 147.707 366.053 148.283C366.053 148.848 366.25 149.333 366.645 149.739C367.04 150.144 367.632 150.347 368.421 150.347C368.986 150.347 369.488 150.176 369.925 149.835C370.373 149.483 370.597 148.997 370.597 148.379C370.597 147.973 370.464 147.579 370.197 147.195C369.93 146.8 369.6 146.453 369.205 146.155C368.81 145.856 368.378 145.525 367.909 145.163C367.44 144.789 367.008 144.432 366.613 144.091C366.218 143.749 365.888 143.333 365.621 142.843C365.354 142.352 365.221 141.84 365.221 141.307C365.221 140.293 365.562 139.493 366.245 138.907C366.938 138.309 367.936 138.011 369.237 138.011C370.293 138.011 371.12 138.293 371.717 138.859C372.325 139.413 372.629 139.995 372.629 140.603C372.629 141.2 372.464 141.691 372.133 142.075C371.813 142.459 371.37 142.651 370.805 142.651C370.613 142.651 370.426 142.629 370.245 142.587C370.768 142.032 371.029 141.445 371.029 140.827C371.029 140.208 370.837 139.744 370.453 139.435C370.069 139.115 369.578 138.955 368.981 138.955C368.394 138.955 367.893 139.125 367.477 139.467C367.061 139.808 366.853 140.325 366.853 141.019C366.853 141.712 367.216 142.395 367.941 143.067Z" fill="white"/>
<path d="M381.012 141.739C381.929 141.739 382.388 142.213 382.388 143.163C382.388 143.333 382.286 144.085 382.084 145.419C381.881 146.741 381.78 147.877 381.78 148.827C381.78 149.776 381.881 150.613 382.084 151.339C381.433 151.083 380.98 150.72 380.724 150.251C380.478 149.781 380.356 149.2 380.356 148.507C380.356 148.24 380.414 147.637 380.532 146.699C380.212 147.915 379.716 148.939 379.044 149.771C378.372 150.592 377.748 151.003 377.172 151.003C375.956 151.003 375.348 150.117 375.348 148.347C375.348 147.76 375.433 146.944 375.604 145.899C375.785 144.843 375.876 144.043 375.876 143.499C375.876 142.955 375.801 142.405 375.652 141.851C376.334 141.851 376.846 141.968 377.188 142.203C377.529 142.437 377.7 142.891 377.7 143.563C377.7 143.925 377.588 144.672 377.364 145.803C377.14 146.933 377.028 147.771 377.028 148.315C377.028 149.104 377.273 149.499 377.764 149.499C378.169 149.499 378.59 149.184 379.028 148.555C379.476 147.915 379.849 147.088 380.148 146.075C380.446 145.061 380.596 144.059 380.596 143.067C380.596 142.619 380.564 142.187 380.5 141.771C380.734 141.749 380.905 141.739 381.012 141.739Z" fill="white"/>
<path d="M388.523 142.555C388.171 142.555 387.851 142.667 387.563 142.891C387.285 143.115 387.147 143.424 387.147 143.819C387.147 144.203 387.275 144.565 387.531 144.907C387.797 145.248 388.117 145.552 388.491 145.819C388.864 146.085 389.243 146.357 389.627 146.635C390.523 147.296 390.971 148.005 390.971 148.763C390.971 149.52 390.667 150.139 390.059 150.619C389.451 151.088 388.672 151.323 387.723 151.323C386.784 151.323 386.053 151.136 385.531 150.763C385.019 150.389 384.763 149.952 384.763 149.451C384.763 148.939 384.891 148.539 385.147 148.251C385.403 147.963 385.712 147.819 386.075 147.819C386.267 147.819 386.448 147.861 386.619 147.947C386.384 148.245 386.267 148.597 386.267 149.003C386.267 149.408 386.389 149.749 386.635 150.027C386.891 150.304 387.237 150.443 387.675 150.443C388.123 150.443 388.501 150.331 388.811 150.107C389.12 149.872 389.275 149.579 389.275 149.227C389.275 148.875 389.184 148.565 389.003 148.299C388.821 148.032 388.592 147.803 388.315 147.611C388.048 147.419 387.755 147.205 387.435 146.971C387.115 146.736 386.816 146.507 386.539 146.283C386.272 146.048 386.048 145.76 385.867 145.419C385.685 145.067 385.595 144.683 385.595 144.267C385.595 143.509 385.883 142.891 386.459 142.411C387.035 141.92 387.76 141.675 388.635 141.675C389.509 141.675 390.149 141.856 390.555 142.219C390.96 142.581 391.163 142.992 391.163 143.451C391.163 143.899 391.051 144.272 390.827 144.571C390.603 144.859 390.315 145.003 389.963 145.003C389.792 145.003 389.595 144.955 389.371 144.859C389.648 144.517 389.787 144.149 389.787 143.755C389.787 143.36 389.664 143.061 389.419 142.859C389.184 142.656 388.885 142.555 388.523 142.555Z" fill="white"/>
<path d="M395.514 146.059C395.866 144.853 396.405 143.84 397.13 143.019C397.866 142.187 398.554 141.771 399.194 141.771C399.834 141.771 400.287 141.968 400.554 142.363C400.821 142.747 400.954 143.275 400.954 143.947C400.954 144.608 400.847 145.541 400.634 146.747C400.431 147.952 400.33 148.832 400.33 149.387C400.33 149.931 400.399 150.331 400.538 150.587C400.677 150.832 400.911 151.045 401.242 151.227C401.103 151.237 400.906 151.243 400.65 151.243C399.967 151.243 399.461 151.104 399.13 150.827C398.81 150.539 398.65 150.053 398.65 149.371C398.65 148.976 398.757 148.181 398.97 146.987C399.183 145.781 399.29 144.896 399.29 144.331C399.29 143.627 399.045 143.275 398.554 143.275C398.266 143.275 397.946 143.429 397.594 143.739C397.242 144.037 396.901 144.448 396.57 144.971C396.25 145.483 395.978 146.139 395.754 146.939C395.541 147.728 395.434 148.512 395.434 149.291C395.434 150.059 395.466 150.629 395.53 151.003C395.274 151.024 395.13 151.035 395.098 151.035C394.597 151.035 394.223 150.928 393.978 150.715C393.743 150.501 393.626 150.171 393.626 149.723C393.626 149.264 393.722 148.389 393.914 147.099C394.479 143.131 394.762 140.117 394.762 138.059C394.762 137.131 394.698 136.507 394.57 136.187C395.189 136.411 395.621 136.741 395.866 137.179C396.122 137.616 396.25 138.219 396.25 138.987C396.25 139.52 396.143 140.64 395.93 142.347C395.727 144.053 395.589 145.291 395.514 146.059Z" fill="white"/>
<path d="M405.867 151.243C405.259 151.029 404.833 150.704 404.587 150.267C404.353 149.819 404.235 149.28 404.235 148.651C404.235 148.021 404.321 147.12 404.492 145.947C404.662 144.773 404.747 143.861 404.747 143.211C404.747 142.56 404.715 142.059 404.651 141.707C404.843 141.685 404.998 141.675 405.115 141.675C405.595 141.675 405.942 141.781 406.155 141.995C406.369 142.208 406.475 142.56 406.475 143.051C406.475 143.211 406.342 144.053 406.076 145.579C405.82 147.093 405.686 148.347 405.675 149.339C405.675 150.32 405.739 150.955 405.867 151.243ZM406.107 140.091C405.212 140.091 404.763 139.787 404.763 139.179C404.763 138.965 404.843 138.667 405.003 138.283C405.238 138.24 405.441 138.219 405.611 138.219C406.507 138.219 406.955 138.523 406.955 139.131C406.955 139.344 406.876 139.643 406.715 140.027C406.481 140.069 406.278 140.091 406.107 140.091Z" fill="white"/>
<path d="M409.984 148.667C410.667 148.667 411.008 148.992 411.008 149.643C411.008 150.293 410.784 150.917 410.336 151.515C409.888 152.112 409.237 152.645 408.384 153.115L408 152.635C408.789 151.877 409.184 151.013 409.184 150.043C409.184 149.691 409.104 149.291 408.944 148.843C409.296 148.725 409.643 148.667 409.984 148.667Z" fill="white"/>
<path d="M422.657 142.603C422.017 142.603 421.473 142.971 421.025 143.707C420.588 144.443 420.294 145.307 420.145 146.299H420.593C421.158 146.299 421.649 146.219 422.065 146.059C422.481 145.899 422.801 145.691 423.025 145.435C423.452 144.944 423.665 144.389 423.665 143.771C423.665 143.419 423.58 143.136 423.409 142.923C423.249 142.709 422.998 142.603 422.657 142.603ZM424.913 149.083C424.422 149.883 423.884 150.443 423.297 150.763C422.71 151.083 422.028 151.243 421.249 151.243C420.481 151.243 419.809 150.901 419.233 150.219C418.657 149.536 418.369 148.576 418.369 147.339C418.369 145.931 418.748 144.672 419.505 143.563C419.878 143.029 420.364 142.597 420.961 142.267C421.569 141.936 422.236 141.771 422.961 141.771C424.561 141.771 425.361 142.544 425.361 144.091C425.361 145.019 424.998 145.749 424.273 146.283C423.558 146.805 422.726 147.067 421.777 147.067C421.148 147.067 420.582 147.008 420.081 146.891C420.07 146.997 420.065 147.163 420.065 147.387C420.065 149.275 420.625 150.219 421.745 150.219C422.801 150.219 423.66 149.696 424.321 148.651C424.716 148.704 424.913 148.848 424.913 149.083Z" fill="white"/>
<path d="M435.105 144.939C434.828 145.44 434.593 146.08 434.401 146.859C434.209 147.637 434.113 148.373 434.113 149.067C434.113 149.76 434.145 150.405 434.209 151.003C433.932 151.024 433.766 151.035 433.713 151.035C432.785 151.035 432.321 150.581 432.321 149.675C432.321 149.344 432.433 148.523 432.657 147.211C432.892 145.899 433.009 144.917 433.009 144.267C433.009 143.605 432.764 143.275 432.273 143.275C431.665 143.275 431.046 143.861 430.417 145.035C429.788 146.208 429.473 147.632 429.473 149.307C429.473 149.84 429.505 150.405 429.569 151.003C429.292 151.024 429.126 151.035 429.073 151.035C428.145 151.035 427.681 150.581 427.681 149.675C427.681 149.557 427.788 148.763 428.001 147.291C428.225 145.819 428.337 144.656 428.337 143.803C428.337 142.939 428.246 142.149 428.065 141.435C428.705 141.68 429.148 142.032 429.393 142.491C429.649 142.949 429.777 143.515 429.777 144.187C429.777 144.528 429.74 144.96 429.665 145.483C430.028 144.416 430.529 143.531 431.169 142.827C431.809 142.123 432.396 141.771 432.929 141.771C434.124 141.771 434.721 142.693 434.721 144.539C435.116 143.685 435.569 143.013 436.081 142.523C436.604 142.021 437.089 141.771 437.537 141.771C438.188 141.771 438.646 141.968 438.913 142.363C439.18 142.747 439.313 143.275 439.313 143.947C439.313 144.608 439.206 145.541 438.993 146.747C438.79 147.952 438.689 148.832 438.689 149.387C438.689 149.931 438.758 150.331 438.897 150.587C439.036 150.832 439.27 151.045 439.601 151.227C439.462 151.237 439.265 151.243 439.009 151.243C438.326 151.243 437.82 151.104 437.489 150.827C437.169 150.539 437.009 150.053 437.009 149.371C437.009 148.976 437.116 148.181 437.329 146.987C437.542 145.781 437.649 144.896 437.649 144.331C437.649 143.627 437.404 143.275 436.913 143.275C436.636 143.275 436.337 143.424 436.017 143.723C435.697 144.021 435.393 144.427 435.105 144.939Z" fill="white"/>
<path d="M452.939 145.563L451.515 145.547C450.992 145.547 450.592 145.557 450.315 145.579C450.144 147.115 450.059 148.352 450.059 149.291C450.059 150.219 450.091 150.869 450.155 151.243C449.877 151.264 449.728 151.275 449.707 151.275C449.216 151.275 448.848 151.168 448.603 150.955C448.368 150.741 448.251 150.379 448.251 149.867C448.251 149.355 448.405 148.005 448.715 145.819C448.416 145.893 448.16 145.973 447.947 146.059C447.925 145.867 447.915 145.712 447.915 145.595C447.915 144.944 448.245 144.539 448.907 144.379C449.152 142.587 449.285 141.163 449.307 140.107C448.891 140.107 448.608 140.053 448.459 139.947C448.309 139.829 448.235 139.611 448.235 139.291C448.235 138.96 448.277 138.677 448.363 138.443C449.461 138.592 450.656 138.667 451.947 138.667C453.237 138.667 454.469 138.549 455.643 138.315C455.504 139.179 454.901 139.696 453.835 139.867C453.205 139.973 452.251 140.048 450.971 140.091C450.971 140.592 450.805 142 450.475 144.315C451.136 144.336 451.616 144.347 451.915 144.347C452.853 144.347 453.52 144.192 453.915 143.883C453.936 144.053 453.947 144.192 453.947 144.299C453.947 145.141 453.611 145.563 452.939 145.563Z" fill="white"/>
<path d="M460.031 142.603C459.391 142.603 458.847 142.971 458.399 143.707C457.962 144.443 457.668 145.307 457.519 146.299H457.967C458.532 146.299 459.023 146.219 459.439 146.059C459.855 145.899 460.175 145.691 460.399 145.435C460.826 144.944 461.039 144.389 461.039 143.771C461.039 143.419 460.954 143.136 460.783 142.923C460.623 142.709 460.372 142.603 460.031 142.603ZM462.287 149.083C461.796 149.883 461.258 150.443 460.671 150.763C460.084 151.083 459.402 151.243 458.623 151.243C457.855 151.243 457.183 150.901 456.607 150.219C456.031 149.536 455.743 148.576 455.743 147.339C455.743 145.931 456.122 144.672 456.879 143.563C457.252 143.029 457.738 142.597 458.335 142.267C458.943 141.936 459.61 141.771 460.335 141.771C461.935 141.771 462.735 142.544 462.735 144.091C462.735 145.019 462.372 145.749 461.647 146.283C460.932 146.805 460.1 147.067 459.151 147.067C458.522 147.067 457.956 147.008 457.455 146.891C457.444 146.997 457.439 147.163 457.439 147.387C457.439 149.275 457.999 150.219 459.119 150.219C460.175 150.219 461.034 149.696 461.695 148.651C462.09 148.704 462.287 148.848 462.287 149.083Z" fill="white"/>
<path d="M468.223 142.555C467.871 142.555 467.551 142.667 467.263 142.891C466.985 143.115 466.847 143.424 466.847 143.819C466.847 144.203 466.975 144.565 467.231 144.907C467.497 145.248 467.817 145.552 468.191 145.819C468.564 146.085 468.943 146.357 469.327 146.635C470.223 147.296 470.671 148.005 470.671 148.763C470.671 149.52 470.367 150.139 469.759 150.619C469.151 151.088 468.372 151.323 467.423 151.323C466.484 151.323 465.753 151.136 465.231 150.763C464.719 150.389 464.463 149.952 464.463 149.451C464.463 148.939 464.591 148.539 464.847 148.251C465.103 147.963 465.412 147.819 465.775 147.819C465.967 147.819 466.148 147.861 466.319 147.947C466.084 148.245 465.967 148.597 465.967 149.003C465.967 149.408 466.089 149.749 466.335 150.027C466.591 150.304 466.937 150.443 467.375 150.443C467.823 150.443 468.201 150.331 468.511 150.107C468.82 149.872 468.975 149.579 468.975 149.227C468.975 148.875 468.884 148.565 468.703 148.299C468.521 148.032 468.292 147.803 468.015 147.611C467.748 147.419 467.455 147.205 467.135 146.971C466.815 146.736 466.516 146.507 466.239 146.283C465.972 146.048 465.748 145.76 465.567 145.419C465.385 145.067 465.295 144.683 465.295 144.267C465.295 143.509 465.583 142.891 466.159 142.411C466.735 141.92 467.46 141.675 468.335 141.675C469.209 141.675 469.849 141.856 470.255 142.219C470.66 142.581 470.863 142.992 470.863 143.451C470.863 143.899 470.751 144.272 470.527 144.571C470.303 144.859 470.015 145.003 469.663 145.003C469.492 145.003 469.295 144.955 469.071 144.859C469.348 144.517 469.487 144.149 469.487 143.755C469.487 143.36 469.364 143.061 469.119 142.859C468.884 142.656 468.585 142.555 468.223 142.555Z" fill="white"/>
<path d="M478.382 142.235C478.382 142.683 478.297 142.992 478.126 143.163C477.955 143.333 477.705 143.419 477.374 143.419H476.222C476.179 143.696 476.067 144.357 475.886 145.403C475.523 147.387 475.342 148.885 475.342 149.899C475.342 150.912 475.417 151.584 475.566 151.915C474.958 151.691 474.526 151.355 474.27 150.907C474.014 150.448 473.886 149.893 473.886 149.243C473.886 148.592 473.923 147.979 473.998 147.403C474.083 146.816 474.201 146.133 474.35 145.355C474.499 144.576 474.606 143.952 474.67 143.483C474.062 143.568 473.465 143.739 472.878 143.995C472.857 143.824 472.846 143.669 472.846 143.531C472.846 143.019 473.017 142.677 473.358 142.507C473.699 142.325 474.19 142.235 474.83 142.235C474.905 141.445 474.942 140.859 474.942 140.475C474.942 140.08 474.937 139.765 474.926 139.531C474.926 139.296 474.926 139.12 474.926 139.003C475.417 139.077 475.795 139.296 476.062 139.659C476.329 140.011 476.462 140.496 476.462 141.115C476.462 141.435 476.435 141.824 476.382 142.283C477.31 142.283 477.966 142.128 478.35 141.819C478.371 141.968 478.382 142.107 478.382 142.235Z" fill="white"/>
<path d="M481.802 151.243C481.194 151.029 480.767 150.704 480.522 150.267C480.287 149.819 480.17 149.28 480.17 148.651C480.17 148.021 480.255 147.12 480.426 145.947C480.597 144.773 480.682 143.861 480.682 143.211C480.682 142.56 480.65 142.059 480.586 141.707C480.778 141.685 480.933 141.675 481.05 141.675C481.53 141.675 481.877 141.781 482.09 141.995C482.303 142.208 482.41 142.56 482.41 143.051C482.41 143.211 482.277 144.053 482.01 145.579C481.754 147.093 481.621 148.347 481.61 149.339C481.61 150.32 481.674 150.955 481.802 151.243ZM482.042 140.091C481.146 140.091 480.698 139.787 480.698 139.179C480.698 138.965 480.778 138.667 480.938 138.283C481.173 138.24 481.375 138.219 481.546 138.219C482.442 138.219 482.89 138.523 482.89 139.131C482.89 139.344 482.81 139.643 482.65 140.027C482.415 140.069 482.213 140.091 482.042 140.091Z" fill="white"/>
<path d="M488.094 151.003C487.839 151.152 487.551 151.227 487.23 151.227C486.921 151.227 486.75 151.147 486.718 150.987C486.548 150.304 486.35 149.285 486.126 147.931C485.902 146.565 485.673 145.376 485.438 144.363C485.214 143.339 484.943 142.565 484.622 142.043C485.007 141.765 485.385 141.627 485.758 141.627C486.238 141.627 486.58 141.904 486.783 142.459C486.985 143.003 487.177 144.155 487.359 145.915C487.54 147.664 487.7 148.8 487.839 149.323C489.908 145.333 490.943 142.699 490.943 141.419C491.604 141.867 491.934 142.331 491.934 142.811C491.934 143.28 491.71 143.936 491.262 144.779C490.825 145.611 490.27 146.624 489.598 147.819C488.937 149.003 488.436 150.064 488.094 151.003Z" fill="white"/>
<path d="M496.105 144.747C495.795 145.28 495.555 145.829 495.385 146.395C495.225 146.949 495.145 147.483 495.145 147.995C495.145 148.507 495.257 148.944 495.48 149.307C495.715 149.659 496.046 149.835 496.473 149.835C497.07 149.835 497.63 149.509 498.153 148.859C498.675 148.197 499.075 147.403 499.353 146.475C499.641 145.536 499.785 144.672 499.785 143.883C499.785 143.083 499.753 142.427 499.689 141.915C499.945 141.893 500.105 141.883 500.169 141.883C501.075 141.883 501.529 142.347 501.529 143.275C501.529 143.477 501.4 144.304 501.145 145.755C500.889 147.195 500.76 148.352 500.76 149.227C500.76 150.091 500.926 150.859 501.257 151.531C500.585 151.392 500.094 151.099 499.785 150.651C499.486 150.192 499.337 149.536 499.337 148.683C499.337 148.533 499.358 148.245 499.401 147.819C499.113 148.832 498.606 149.648 497.881 150.267C497.155 150.885 496.441 151.195 495.737 151.195C495.043 151.195 494.483 150.933 494.057 150.411C493.63 149.877 493.417 149.147 493.417 148.219C493.417 147.28 493.587 146.368 493.929 145.483C494.281 144.587 494.803 143.813 495.497 143.163C496.201 142.512 496.985 142.187 497.849 142.187C498.222 142.187 498.633 142.261 499.081 142.411C498.451 142.571 497.875 142.864 497.353 143.291C496.83 143.717 496.414 144.203 496.105 144.747Z" fill="white"/>
<path d="M504.357 149.835C504.346 149.664 504.341 149.392 504.341 149.019C504.341 148.635 504.517 147.013 504.869 144.155C505.231 141.296 505.413 139.333 505.413 138.267C505.413 137.2 505.349 136.507 505.221 136.187C505.818 136.411 506.239 136.741 506.485 137.179C506.73 137.616 506.853 138.144 506.853 138.763C506.853 139.381 506.698 140.981 506.389 143.563C506.079 146.144 505.925 148.224 505.925 149.803C505.925 150.144 505.946 150.624 505.989 151.243C505.402 151.2 504.986 151.061 504.741 150.827C504.538 150.635 504.41 150.304 504.357 149.835Z" fill="white"/>
<path d="M512.546 139.755C512.546 140.085 512.455 140.608 512.274 141.323C511.698 143.509 511.41 145.205 511.41 146.411C511.41 146.944 511.453 147.312 511.538 147.515C511.015 147.323 510.642 147.04 510.418 146.667C510.194 146.293 510.082 145.792 510.082 145.163C510.082 144.523 510.215 143.536 510.482 142.203C510.749 140.869 510.882 139.92 510.882 139.355C510.882 138.779 510.866 138.405 510.834 138.235C511.186 138.235 511.559 138.368 511.954 138.635C512.349 138.891 512.546 139.264 512.546 139.755ZM509.634 149.307C509.922 149.2 510.205 149.147 510.482 149.147C510.759 149.147 510.994 149.211 511.186 149.339C511.378 149.467 511.474 149.643 511.474 149.867C511.474 150.08 511.378 150.464 511.186 151.019C510.898 151.125 510.615 151.179 510.338 151.179C510.061 151.179 509.826 151.115 509.634 150.987C509.442 150.859 509.346 150.688 509.346 150.475C509.346 150.251 509.442 149.861 509.634 149.307Z" fill="white"/>
</g>
<g id="Sushi Fest">
<path d="M221.825 125.786C220.409 125.786 218.875 125.196 217.223 124.016C215.65 122.836 214.863 121.46 214.863 119.886C214.863 118.706 215.099 117.566 215.571 116.464C216.043 115.284 216.555 114.183 217.105 113.16V112.806C217.735 111.862 218.521 111.076 219.465 110.446C219.701 110.053 219.937 109.581 220.173 109.03C220.488 108.401 220.881 108.047 221.353 107.968L221.943 108.322C221.078 109.424 220.252 110.682 219.465 112.098L218.049 119.414C218.521 120.122 219.269 120.476 220.291 120.476C221.707 120.476 223.438 120.201 225.483 119.65C227.529 119.178 229.574 118.628 231.619 117.998C233.665 117.369 235.395 116.818 236.811 116.346V116.228C237.205 116.228 237.598 116.189 237.991 116.11C238.463 115.953 238.778 115.638 238.935 115.166L238.817 114.812L239.761 114.93C240.233 114.694 240.705 114.458 241.177 114.222C241.649 113.986 242.161 113.829 242.711 113.75C243.026 113.436 243.852 112.767 245.189 111.744C246.527 110.643 248.021 109.502 249.673 108.322C251.325 107.064 252.82 105.962 254.157 105.018C255.495 104.074 256.321 103.524 256.635 103.366L257.461 102.068L258.405 101.596V100.416C258.563 99.2362 258.012 98.3315 256.753 97.7022C255.495 96.9942 253.843 96.4042 251.797 95.9322C249.752 95.4602 247.549 94.9882 245.189 94.5162C242.908 94.0442 240.705 93.4148 238.581 92.6282C236.536 91.7628 234.845 90.6615 233.507 89.3242C232.249 87.9868 231.619 86.2168 231.619 84.0142L231.029 84.3682L230.793 84.0142C230.793 82.3622 231.737 80.5922 233.625 78.7042C235.592 76.8162 238.07 74.9675 241.059 73.1582C244.049 71.2702 247.156 69.5395 250.381 67.9662C253.685 66.3142 256.714 64.9375 259.467 63.8362C262.299 62.6562 264.463 61.8302 265.957 61.3582C267.295 61.5155 268.514 61.8302 269.615 62.3022C270.795 62.6955 271.543 63.6788 271.857 65.2522C272.723 64.9375 273.155 64.2688 273.155 63.2462C273.155 62.6955 273.116 62.1842 273.037 61.7122C272.959 61.1615 272.801 60.6895 272.565 60.2962L273.037 60.0602C273.431 60.0602 274.139 60.2175 275.161 60.5322C276.263 60.7682 277.443 61.0828 278.701 61.4762C279.96 61.8695 281.061 62.2628 282.005 62.6562C283.028 63.0495 283.618 63.4035 283.775 63.7182L283.303 65.4882L281.179 66.3142L280.353 65.9602C279.567 66.2748 279.213 66.9435 279.291 67.9662C279.37 68.9888 279.134 69.5788 278.583 69.7362L277.521 69.2642V69.3822L278.347 71.0342L278.111 71.3882L278.465 71.9782L278.111 72.0962L277.285 71.7422C276.971 72.3715 276.735 73.2762 276.577 74.4562C276.42 75.5575 275.909 76.1475 275.043 76.2262C274.178 77.0128 273.234 78.0355 272.211 79.2942C271.189 80.4742 270.009 81.1428 268.671 81.3002V81.0642L269.025 78.7042L268.671 78.1142C268.907 76.7768 269.222 75.3608 269.615 73.8662C270.009 72.3715 270.441 71.0735 270.913 69.9722C270.284 69.0282 269.537 68.1628 268.671 67.3762C267.885 66.5895 266.901 66.1962 265.721 66.1962C264.305 66.1962 262.339 66.6288 259.821 67.4942C257.304 68.2808 254.551 69.3822 251.561 70.7982C248.651 72.1355 245.897 73.6695 243.301 75.4002C240.705 77.1308 238.621 78.9008 237.047 80.7102C235.474 82.5195 234.805 84.2502 235.041 85.9022C234.727 85.6662 234.53 85.3515 234.451 84.9582C234.373 84.5648 234.333 84.1715 234.333 83.7782C234.333 83.3848 234.333 82.9915 234.333 82.5982C234.412 82.2048 234.491 81.8508 234.569 81.5362C234.019 82.3228 233.743 83.2275 233.743 84.2502C233.743 86.1382 234.53 87.5935 236.103 88.6162C237.677 89.6388 239.722 90.4255 242.239 90.9762C244.757 91.5268 247.431 92.0382 250.263 92.5102C253.095 92.9035 255.77 93.3755 258.287 93.9262C260.805 94.4768 262.85 95.3028 264.423 96.4042C265.997 97.4268 266.783 98.8822 266.783 100.77C266.783 101.793 266.547 102.737 266.075 103.602C265.603 104.389 265.171 105.215 264.777 106.08C263.912 106.395 263.361 106.828 263.125 107.378C262.889 107.929 262.535 108.558 262.063 109.266C261.434 109.424 260.608 109.974 259.585 110.918C258.641 111.784 257.933 112.177 257.461 112.098C257.147 112.256 256.793 112.492 256.399 112.806C256.085 113.042 255.849 113.357 255.691 113.75L255.337 113.514C254.472 114.694 253.017 115.874 250.971 117.054C248.926 118.234 246.527 119.336 243.773 120.358C241.099 121.381 238.345 122.286 235.513 123.072C232.76 123.938 230.164 124.606 227.725 125.078C225.287 125.55 223.32 125.786 221.825 125.786ZM267.373 83.4242L267.963 81.6542L268.553 82.1262L267.373 83.4242ZM260.293 98.1742L260.529 97.5842L260.175 97.1122L259.467 97.4662L260.293 98.1742ZM265.485 102.54V102.304L264.777 101.242L264.659 101.832V102.304L265.485 102.54ZM263.243 104.546L264.069 104.074L264.187 103.012L264.069 101.95C263.283 102.737 262.85 103.563 262.771 104.428L263.243 104.546ZM263.361 106.198L264.541 104.9V104.782L262.653 105.372L262.889 106.08L263.361 106.198ZM260.057 108.322L261.355 108.204L262.299 106.316L260.883 107.614L260.411 107.142L260.057 108.204V108.322Z" fill="white"/>
<path d="M297.471 125.196L295.701 122.364C295.622 121.892 295.465 121.42 295.229 120.948C295.071 120.476 294.993 119.965 294.993 119.414C294.993 118.628 295.032 117.92 295.111 117.29C295.189 116.582 295.268 115.835 295.347 115.048L296.173 113.16L296.055 112.924C296.212 112.61 296.33 112.295 296.409 111.98C296.566 111.587 296.684 111.233 296.763 110.918L296.291 110.564C295.74 110.564 294.953 111.115 293.931 112.216C292.987 113.239 291.885 114.262 290.627 115.284C289.447 116.307 288.07 116.818 286.497 116.818C285.474 116.818 284.53 116.504 283.665 115.874C282.799 115.245 282.406 114.301 282.485 113.042L282.367 112.806C283.232 111.233 283.979 109.62 284.609 107.968C285.238 106.316 285.907 104.704 286.615 103.13L285.907 101.832L285.553 101.95L284.963 101.714L283.783 102.894L282.131 103.248L282.367 103.838H282.131L280.951 104.192L280.715 104.664H280.007L279.889 105.372C279.495 105.766 279.063 106.198 278.591 106.67C278.119 107.142 277.568 107.418 276.939 107.496L269.859 114.222L269.741 113.868C269.741 113.318 269.937 112.885 270.331 112.57C270.724 112.177 271.078 111.823 271.393 111.508L271.511 111.272L271.865 111.036L271.983 111.154L272.337 110.328H272.219C272.376 110.171 272.533 109.974 272.691 109.738C272.927 109.424 273.202 109.266 273.517 109.266H273.753C273.753 109.266 273.753 109.188 273.753 109.03C274.225 108.322 274.854 107.693 275.641 107.142H275.995L276.349 106.788L276.231 106.552L277.411 106.08C277.332 105.294 277.961 104.428 279.299 103.484C280.636 102.54 282.091 101.714 283.665 101.006C285.238 100.22 286.339 99.8262 286.969 99.8262C287.834 99.8262 288.857 100.062 290.037 100.534C291.217 100.928 291.807 101.675 291.807 102.776C291.807 104.979 291.413 106.749 290.627 108.086C289.84 109.424 289.407 110.289 289.329 110.682L289.683 110.918C290.627 110.918 291.374 110.643 291.925 110.092C292.475 109.463 293.026 108.834 293.577 108.204C294.206 107.575 294.953 107.221 295.819 107.142C295.74 107.064 295.779 107.024 295.937 107.024C296.094 106.946 296.173 106.985 296.173 107.142C296.487 106.592 297.195 105.726 298.297 104.546C299.398 103.288 300.539 102.108 301.719 101.006C302.899 99.9049 303.725 99.3542 304.197 99.3542C305.062 99.3542 306.045 99.6688 307.147 100.298C308.248 100.928 308.799 101.714 308.799 102.658C308.799 103.052 308.484 103.799 307.855 104.9C307.304 105.923 306.635 107.024 305.849 108.204C305.062 109.384 304.275 110.446 303.489 111.39C302.781 112.256 302.23 112.767 301.837 112.924C301.129 114.183 300.145 115.638 298.887 117.29C297.707 118.864 297.117 120.437 297.117 122.01C297.117 122.561 297.195 123.072 297.353 123.544C297.51 124.016 297.589 124.488 297.589 124.96L297.471 125.196Z" fill="white"/>
<path d="M311.552 125.196C311.08 124.488 310.844 123.78 310.844 123.072C310.844 122.522 310.962 122.01 311.198 121.538C311.356 121.066 311.552 120.634 311.788 120.24H311.906L311.788 120.122C312.339 119.336 313.204 118.313 314.384 117.054C315.643 115.796 316.98 114.655 318.396 113.632C319.812 112.61 320.953 112.059 321.818 111.98L322.526 111.508C322.92 110.879 323.51 110.289 324.296 109.738C325.162 109.109 325.909 108.598 326.538 108.204L327.246 108.322L327.128 107.85L327.482 107.614L327.128 106.434C326.342 106.12 325.319 105.726 324.06 105.254C322.88 104.782 321.779 104.192 320.756 103.484C319.812 102.698 319.34 101.793 319.34 100.77C319.34 99.9835 320.048 98.8822 321.464 97.4662C322.88 96.0502 324.572 94.6342 326.538 93.2182C328.584 91.7235 330.511 90.4648 332.32 89.4422C334.208 88.4195 335.546 87.9082 336.332 87.9082C337.355 87.5148 338.102 86.8855 338.574 86.0202C339.046 85.1549 339.479 84.3682 339.872 83.6602C340.344 82.8735 340.974 82.4802 341.76 82.4802C342.783 82.4802 343.648 82.9915 344.356 84.0142C345.143 85.0368 345.694 85.9415 346.008 86.7282C345.93 87.0428 345.694 87.3182 345.3 87.5542C344.986 87.7902 344.75 88.1049 344.592 88.4982C343.648 89.2849 342.862 90.2682 342.232 91.4482C341.682 92.5495 341.131 93.6508 340.58 94.7522L338.456 95.9322L338.102 95.4602H337.984C337.67 95.8535 337.355 96.2075 337.04 96.5222C336.726 96.8368 336.49 97.1908 336.332 97.5842C336.018 97.8988 335.703 98.3708 335.388 99.0002C335.152 99.5508 334.798 99.8655 334.326 99.9442L334.208 99.7082C334.602 98.4495 334.995 97.1908 335.388 95.9322C335.782 94.5948 336.214 93.2968 336.686 92.0382L336.922 91.9202L337.158 90.1502C336.372 90.1502 335.624 90.3468 334.916 90.7402C334.208 91.1335 333.422 91.2908 332.556 91.2122C332.242 91.4482 331.691 91.9202 330.904 92.6282C330.196 93.3362 329.488 93.9655 328.78 94.5162C328.072 95.0668 327.522 95.3815 327.128 95.4602C326.656 96.3255 325.948 97.1515 325.004 97.9382C324.139 98.7248 323.706 99.6688 323.706 100.77C323.706 101.242 323.942 101.557 324.414 101.714C324.886 101.793 325.319 101.832 325.712 101.832V102.54L325.948 102.422L327.836 102.894L328.19 102.54C329.213 102.776 330.472 103.17 331.966 103.72C333.54 104.192 334.916 104.861 336.096 105.726C337.355 106.592 337.984 107.732 337.984 109.148C337.984 109.699 337.866 110.25 337.63 110.8C337.394 111.351 337.08 111.902 336.686 112.452L334.798 114.34L331.848 114.104C331.298 114.498 330.354 114.852 329.016 115.166C327.679 115.402 326.42 115.638 325.24 115.874C324.139 116.11 323.588 116.386 323.588 116.7L322.526 115.756C322.133 116.464 321.543 116.818 320.756 116.818C319.97 116.818 319.183 116.818 318.396 116.818C317.688 116.818 316.862 117.251 315.918 118.116C315.053 118.982 314.266 119.926 313.558 120.948C312.85 122.05 312.418 122.954 312.26 123.662L311.552 125.196Z" fill="white"/>
<path d="M348.125 121.066C347.102 121.066 346.434 120.555 346.119 119.532C345.883 118.588 345.765 117.723 345.765 116.936C345.765 116.386 345.883 115.324 346.119 113.75C346.434 112.177 346.827 110.682 347.299 109.266C347.771 107.772 348.282 107.024 348.833 107.024C348.912 106.159 349.226 105.058 349.777 103.72C350.328 102.383 351.036 101.596 351.901 101.36V101.242C352.058 101.006 352.255 100.77 352.491 100.534C352.727 100.298 352.963 100.062 353.199 99.8262L353.317 99.5902V99.7082L353.435 98.0562C353.828 97.8202 354.143 97.4268 354.379 96.8762C354.615 96.2468 354.93 95.7748 355.323 95.4602L355.677 95.8142C356.228 95.1848 356.818 94.5555 357.447 93.9262C358.155 93.2182 358.509 92.3922 358.509 91.4482C358.902 90.8188 359.335 90.2682 359.807 89.7962C360.358 89.2455 360.869 88.6949 361.341 88.1442H361.695C362.088 87.7508 362.521 87.5542 362.993 87.5542L363.465 86.9642V85.6662L363.937 85.3122C364.33 84.7615 364.842 83.9748 365.471 82.9522C366.1 81.9295 366.415 81.1429 366.415 80.5922C366.415 80.3562 366.218 80.2382 365.825 80.2382C365.51 80.2382 365.156 80.3168 364.763 80.4742C364.37 80.5529 364.094 80.5922 363.937 80.5922V80.0022L369.955 74.9282V74.8102C370.978 74.1022 371.961 73.3548 372.905 72.5682C373.849 71.7028 374.832 70.9555 375.855 70.3262C376.72 70.4835 377.664 70.7588 378.687 71.1522C379.71 71.4668 380.418 72.0569 380.811 72.9222V74.4562C380.26 75.0068 379.316 75.9902 377.979 77.4062C376.642 78.8222 375.108 80.4348 373.377 82.2442C371.646 83.9748 369.916 85.7055 368.185 87.4362C366.454 89.0882 364.92 90.4648 363.583 91.5662C362.324 92.6675 361.459 93.2575 360.987 93.3362L359.571 94.6342L360.161 95.6962L359.571 96.8762C358.942 97.0335 358.273 97.5448 357.565 98.4102C356.936 99.1968 356.621 99.9442 356.621 100.652C355.913 100.967 355.441 101.321 355.205 101.714C355.048 102.108 354.812 102.501 354.497 102.894C354.261 103.288 353.592 103.681 352.491 104.074L352.137 104.664V107.26L352.609 107.614L352.019 107.378L351.547 108.322H351.311C351.075 109.109 350.957 109.935 350.957 110.8L351.547 112.216C351.862 111.823 352.491 111.233 353.435 110.446C354.379 109.581 354.812 108.952 354.733 108.558L355.677 107.614C355.913 106.828 356.464 105.844 357.329 104.664C358.273 103.406 359.296 102.265 360.397 101.242C361.498 100.22 362.442 99.7082 363.229 99.7082V99.5902L364.999 99.7082C366.1 100.259 366.769 101.203 367.005 102.54C367.241 103.878 367.595 105.451 368.067 107.26C368.618 108.991 369.798 110.8 371.607 112.688L373.495 111.508H373.849C374.164 111.115 374.636 110.761 375.265 110.446C375.973 110.132 376.563 109.856 377.035 109.62L377.153 109.738C377.153 110.132 376.563 110.8 375.383 111.744C374.282 112.688 373.102 113.554 371.843 114.34C370.584 115.127 369.68 115.599 369.129 115.756L368.775 115.52L367.595 115.756L367.241 115.166C365.274 114.93 363.858 114.419 362.993 113.632C362.128 112.767 361.538 111.823 361.223 110.8C360.987 109.778 360.79 108.834 360.633 107.968C360.476 107.103 360.043 106.552 359.335 106.316C358.784 106.867 358.273 107.418 357.801 107.968C357.329 108.519 356.857 109.109 356.385 109.738C355.677 110.053 354.969 110.8 354.261 111.98C353.632 113.16 353.002 114.458 352.373 115.874C351.822 117.29 351.193 118.51 350.485 119.532C349.777 120.555 348.99 121.066 348.125 121.066ZM362.285 81.6542L362.167 81.3002L362.521 80.4742L363.229 80.5922L363.465 81.4182L362.285 81.6542Z" fill="white"/>
<path d="M396.865 88.7342C396.629 88.7342 395.999 88.6555 394.977 88.4982C394.033 88.2622 393.561 87.9868 393.561 87.6722C393.561 86.4922 394.151 85.6268 395.331 85.0762C396.589 84.5255 397.612 83.9748 398.399 83.4242H398.635C399.736 82.5588 401.034 81.9688 402.529 81.6542C404.102 81.3395 405.557 81.1428 406.895 81.0642L406.777 81.1822C405.282 81.6542 403.945 82.5195 402.765 83.7782C401.585 84.9582 400.483 86.0989 399.461 87.2002C398.517 88.2229 397.651 88.7342 396.865 88.7342ZM381.643 121.538L379.755 118.824C379.676 118.274 379.558 117.762 379.401 117.29C379.243 116.74 379.165 116.189 379.165 115.638C379.165 114.93 379.204 114.222 379.283 113.514C379.361 112.806 379.44 112.098 379.519 111.39L380.345 109.384L380.227 109.266C380.62 108.322 381.013 107.103 381.407 105.608C381.8 104.114 382.272 102.619 382.823 101.124C383.452 99.5508 384.199 98.2528 385.065 97.2302C385.93 96.1288 386.992 95.5782 388.251 95.5782C389.116 95.5782 390.099 95.8928 391.201 96.5222C392.302 97.1515 392.853 97.9775 392.853 99.0002C392.853 99.3935 392.538 100.102 391.909 101.124C391.358 102.147 390.689 103.288 389.903 104.546C389.116 105.726 388.329 106.788 387.543 107.732C386.835 108.598 386.323 109.109 386.009 109.266C385.301 110.525 384.317 111.98 383.059 113.632C381.8 115.284 381.171 116.818 381.171 118.234C381.171 118.785 381.249 119.296 381.407 119.768C381.643 120.24 381.761 120.752 381.761 121.302L381.643 121.538Z" fill="white"/>
<path d="M427.324 126.376C425.829 125.826 424.256 125.118 422.604 124.252C420.952 123.466 419.536 122.404 418.356 121.066C417.255 119.729 416.704 118.116 416.704 116.228C416.704 115.363 416.822 114.498 417.058 113.632C417.294 112.688 417.766 111.941 418.474 111.39C418.553 111.705 418.553 112.02 418.474 112.334C418.474 112.649 418.474 113.003 418.474 113.396C418.474 115.914 419.379 117.762 421.188 118.942C422.997 120.122 425.004 120.712 427.206 120.712C429.724 120.712 432.044 120.083 434.168 118.824C436.371 117.566 438.219 116.071 439.714 114.34V113.514H439.832L440.54 112.57C440.934 112.413 441.288 112.216 441.602 111.98C441.917 111.744 442.192 111.508 442.428 111.272V110.328C443.53 109.778 444.513 108.873 445.378 107.614C446.322 106.277 447.109 105.097 447.738 104.074C448.368 104.074 448.8 103.72 449.036 103.012C449.272 102.226 449.43 101.596 449.508 101.124L449.626 101.006L449.508 100.77C447.856 100.77 446.165 100.967 444.434 101.36C442.782 101.675 441.091 101.911 439.36 102.068C437.866 103.327 436.174 103.956 434.286 103.956C433.421 103.956 432.516 103.72 431.572 103.248C430.628 102.776 430.156 102.029 430.156 101.006C430.156 100.456 430.353 99.7868 430.746 99.0002C431.218 98.2135 431.769 97.5055 432.398 96.8762C433.106 96.1682 433.736 95.8142 434.286 95.8142L434.522 96.5222H436.41C437.276 96.5222 438.102 96.4828 438.888 96.4042C439.754 96.3255 440.58 96.2862 441.366 96.2862L442.428 95.6962L443.49 96.2862C443.883 95.9715 444.67 95.8142 445.85 95.8142C446.952 95.8142 448.171 95.8928 449.508 96.0502C450.924 96.2075 451.986 96.2468 452.694 96.1682C453.324 94.8308 453.992 93.5722 454.7 92.3922C455.408 91.1335 455.998 89.8748 456.47 88.6162L457.296 87.9082C458.004 85.2335 458.87 82.6375 459.892 80.1202C460.915 77.5242 461.859 74.9282 462.724 72.3322H458.594C457.729 72.3322 456.824 72.3715 455.88 72.4502C455.015 72.5288 454.189 72.7648 453.402 73.1582L451.986 73.0402C450.885 72.8828 449.784 73.0008 448.682 73.3942C447.66 73.7875 446.676 74.2202 445.732 74.6922L445.26 74.5742L444.906 74.9282C440.737 75.6362 436.725 77.2488 432.87 79.7662C429.094 82.2835 425.908 85.1942 423.312 88.4982L424.492 89.2062L426.616 88.9702L426.97 89.3242C426.577 89.7175 426.105 90.0322 425.554 90.2682C425.004 90.5042 424.453 90.7008 423.902 90.8582L422.958 90.0322L422.014 90.3862C421.778 89.9142 421.66 89.4815 421.66 89.0882C421.66 87.6722 422.329 86.0989 423.666 84.3682C425.082 82.6375 426.262 81.2608 427.206 80.2382V79.5302C428.858 78.1928 430.943 76.8555 433.46 75.5182C436.056 74.1022 438.849 72.8435 441.838 71.7422C444.828 70.6408 447.817 69.7755 450.806 69.1462C453.796 68.4382 456.51 68.0842 458.948 68.0842C459.499 68.0842 460.01 68.1235 460.482 68.2022C460.954 68.2022 461.426 68.2415 461.898 68.3202C462.213 68.0842 462.567 67.9268 462.96 67.8482C463.354 67.7695 463.708 67.6908 464.022 67.6122L463.432 67.4942C464.062 66.4715 464.376 65.4095 464.376 64.3082C464.534 64.2295 464.691 64.1508 464.848 64.0722C465.084 63.9935 465.281 63.9542 465.438 63.9542C466.304 63.9542 467.444 64.0328 468.86 64.1902C470.355 64.3475 471.653 64.7408 472.754 65.3702C473.934 65.9208 474.446 66.8648 474.288 68.2022C475.626 68.0448 476.963 67.9662 478.3 67.9662C479.638 67.8875 480.975 67.8482 482.312 67.8482C484.672 67.8482 487.032 68.0055 489.392 68.3202C491.831 68.6348 494.112 69.4608 496.236 70.7982L495.882 71.2702C496.118 72.0568 496.59 72.5682 497.298 72.8042L497.652 73.7482L496.826 74.3382L497.298 75.6362C496.748 77.1308 496.197 78.1142 495.646 78.5862C495.096 79.0582 493.994 79.3729 492.342 79.5302L491.398 78.9402L487.386 80.7102L487.268 80.5922L487.74 79.5302V79.4122C487.268 79.8055 486.757 80.1595 486.206 80.4742C485.656 80.7888 485.066 80.9855 484.436 81.0642L484.082 80.8282L484.436 80.4742C485.931 80.0022 487.19 79.2548 488.212 78.2322C489.235 77.2095 490.139 76.0688 490.926 74.8102L490.69 72.9222L487.504 71.3882L487.386 71.0342C486.363 70.7195 485.301 70.5622 484.2 70.5622C483.099 70.4835 481.997 70.4442 480.896 70.4442C479.795 70.4442 478.694 70.5622 477.592 70.7982C476.57 71.0342 475.508 71.1915 474.406 71.2702L474.878 72.2142C474.799 72.5289 474.642 73.0795 474.406 73.8662C474.17 74.6528 473.856 75.0855 473.462 75.1642L472.046 74.2202L471.928 74.3382C471.85 75.3608 471.574 76.3835 471.102 77.4062C470.63 78.3502 470.08 79.2155 469.45 80.0022C468.113 80.0808 467.444 80.8282 467.444 82.2442L468.152 82.7162L468.624 82.0082L469.096 81.8902L469.332 82.2442C468.782 83.1095 468.192 83.7388 467.562 84.1322C466.933 84.1322 466.382 84.3682 465.91 84.8402C465.517 85.3122 465.006 85.5875 464.376 85.6662C463.747 85.9808 463.314 86.4135 463.078 86.9642C462.921 87.5148 462.41 88.0262 461.544 88.4982L461.662 88.7342C461.348 89.0489 460.836 89.6782 460.128 90.6222C459.499 91.4875 458.909 92.3922 458.358 93.3362C457.808 94.2015 457.493 94.8702 457.414 95.3422H457.65L458.004 96.0502C458.791 95.8142 459.538 95.6962 460.246 95.6962C460.954 95.6175 461.702 95.5782 462.488 95.5782C463.275 95.5782 464.022 95.5782 464.73 95.5782C465.438 95.5782 466.146 95.5388 466.854 95.4602C474.721 94.1228 482.43 93.0608 489.982 92.2742L490.572 92.0382L490.808 92.2742C490.572 92.9035 489.549 93.4935 487.74 94.0442C486.009 94.5948 483.886 95.1062 481.368 95.5782C478.851 95.9715 476.294 96.3255 473.698 96.6402C471.102 96.9548 468.742 97.1908 466.618 97.3482C464.573 97.5055 463.118 97.5842 462.252 97.5842C462.252 97.8988 461.623 98.2528 460.364 98.6462C459.106 99.0395 457.768 99.4722 456.352 99.9442C455.015 100.338 454.071 100.888 453.52 101.596V103.13L452.93 102.894C452.301 102.973 451.868 103.288 451.632 103.838C451.396 104.31 451.239 104.861 451.16 105.49C450.374 105.962 449.626 106.552 448.918 107.26C448.21 107.89 447.463 108.519 446.676 109.148L446.794 110.446H446.322C446.165 110.997 445.693 111.548 444.906 112.098C444.198 112.57 443.608 113.003 443.136 113.396L442.546 114.458L443.136 114.93L442.31 115.402C441.602 116.425 440.462 117.723 438.888 119.296C437.394 120.87 436.096 121.892 434.994 122.364C434.05 123.544 432.91 124.41 431.572 124.96C430.235 125.511 428.819 125.983 427.324 126.376ZM463.196 81.5362H464.494L464.612 80.9462L464.494 80.4742C464.101 80.5529 463.668 80.9069 463.196 81.5362ZM466.146 81.3002L466.5 80.8282L466.264 80.5922H466.028L465.792 80.9462L466.146 81.3002ZM463.432 83.4242L463.314 82.8342L462.842 83.1882L463.432 83.4242ZM463.786 85.5482L464.14 85.4302L464.258 84.8402L463.904 84.7222L463.668 85.4302L463.786 85.5482ZM428.268 88.6162L428.504 87.9082L428.858 88.0262L428.976 88.4982L428.858 88.6162H428.268Z" fill="white"/>
<path d="M493.146 119.06C492.438 119.06 491.573 118.588 490.55 117.644C489.606 116.7 488.819 115.992 488.19 115.52C488.033 114.498 487.757 113.593 487.364 112.806C486.971 111.941 486.774 111.036 486.774 110.092C486.774 108.676 487.285 107.024 488.308 105.136C489.409 103.17 490.786 101.242 492.438 99.3542C494.169 97.4662 495.899 95.8929 497.63 94.6342C499.439 93.3755 501.052 92.7462 502.468 92.7462V92.5102C503.569 92.7462 504.592 93.4542 505.536 94.6342C506.559 95.8142 507.07 96.9155 507.07 97.9382C507.07 98.8822 506.48 99.8655 505.3 100.888C504.199 101.832 502.822 102.737 501.17 103.602C499.597 104.389 498.023 105.018 496.45 105.49C494.955 105.962 493.775 106.198 492.91 106.198V106.434C492.359 107.3 491.809 108.401 491.258 109.738C490.786 110.997 490.55 112.177 490.55 113.278C490.55 113.672 490.668 114.104 490.904 114.576C491.455 114.97 492.163 115.166 493.028 115.166C493.893 115.088 494.601 115.088 495.152 115.166L495.27 115.284L495.624 114.694C496.647 114.616 497.63 114.38 498.574 113.986V113.278H499.282V112.924L499.754 113.042C500.147 112.885 500.423 112.728 500.58 112.57C500.816 112.334 501.091 112.138 501.406 111.98L502.114 112.334V112.216L504.238 110.21H504.356L504.71 110.446V110.328C505.733 109.384 506.834 108.519 508.014 107.732C509.194 106.946 510.059 105.923 510.61 104.664L511.908 103.72L512.144 103.956C512.144 104.507 511.947 105.018 511.554 105.49C511.161 105.962 510.689 106.277 510.138 106.434C509.509 107.929 508.565 109.188 507.306 110.21C506.126 111.233 504.907 112.295 503.648 113.396H503.294L503.176 113.986C501.681 115.009 500.108 116.11 498.456 117.29C496.883 118.47 495.113 119.06 493.146 119.06ZM495.388 103.956H495.624V103.72C496.175 103.563 497.119 103.091 498.456 102.304C499.872 101.518 501.209 100.692 502.468 99.8262C503.727 98.8822 504.395 98.2135 504.474 97.8202H504.592L504.474 97.2302L504.592 96.6402C504.513 96.6402 504.356 96.6402 504.12 96.6402C503.884 96.5615 503.687 96.5222 503.53 96.5222C502.507 97.2302 501.485 97.8988 500.462 98.5282C499.439 99.1575 498.417 99.7868 497.394 100.416H497.158L497.04 101.36C496.568 101.675 496.214 102.068 495.978 102.54C495.742 102.934 495.545 103.406 495.388 103.956ZM513.324 103.602L512.616 103.366L512.498 102.658L513.678 102.304L513.796 102.658L513.324 103.602Z" fill="white"/>
<path d="M508.921 125.196C508.449 124.488 508.213 123.78 508.213 123.072C508.213 122.522 508.331 122.01 508.567 121.538C508.725 121.066 508.921 120.634 509.157 120.24H509.275L509.157 120.122C509.708 119.336 510.573 118.313 511.753 117.054C513.012 115.796 514.349 114.655 515.765 113.632C517.181 112.61 518.322 112.059 519.187 111.98L519.895 111.508C520.289 110.879 520.879 110.289 521.665 109.738C522.531 109.109 523.278 108.598 523.907 108.204L524.615 108.322L524.497 107.85L524.851 107.614L524.497 106.434C523.711 106.12 522.688 105.726 521.429 105.254C520.249 104.782 519.148 104.192 518.125 103.484C517.181 102.698 516.709 101.793 516.709 100.77C516.709 99.9835 517.417 98.8822 518.833 97.4662C520.249 96.0502 521.941 94.6342 523.907 93.2182C525.953 91.7235 527.88 90.4648 529.689 89.4422C531.577 88.4195 532.915 87.9082 533.701 87.9082C534.724 87.5148 535.471 86.8855 535.943 86.0202C536.415 85.1549 536.848 84.3682 537.241 83.6602C537.713 82.8735 538.343 82.4802 539.129 82.4802C540.152 82.4802 541.017 82.9915 541.725 84.0142C542.512 85.0368 543.063 85.9415 543.377 86.7282C543.299 87.0428 543.063 87.3182 542.669 87.5542C542.355 87.7902 542.119 88.1049 541.961 88.4982C541.017 89.2849 540.231 90.2682 539.601 91.4482C539.051 92.5495 538.5 93.6508 537.949 94.7522L535.825 95.9322L535.471 95.4602H535.353C535.039 95.8535 534.724 96.2075 534.409 96.5222C534.095 96.8368 533.859 97.1908 533.701 97.5842C533.387 97.8988 533.072 98.3708 532.757 99.0002C532.521 99.5508 532.167 99.8655 531.695 99.9442L531.577 99.7082C531.971 98.4495 532.364 97.1908 532.757 95.9322C533.151 94.5948 533.583 93.2968 534.055 92.0382L534.291 91.9202L534.527 90.1502C533.741 90.1502 532.993 90.3468 532.285 90.7402C531.577 91.1335 530.791 91.2908 529.925 91.2122C529.611 91.4482 529.06 91.9202 528.273 92.6282C527.565 93.3362 526.857 93.9655 526.149 94.5162C525.441 95.0668 524.891 95.3815 524.497 95.4602C524.025 96.3255 523.317 97.1515 522.373 97.9382C521.508 98.7248 521.075 99.6688 521.075 100.77C521.075 101.242 521.311 101.557 521.783 101.714C522.255 101.793 522.688 101.832 523.081 101.832V102.54L523.317 102.422L525.205 102.894L525.559 102.54C526.582 102.776 527.841 103.17 529.335 103.72C530.909 104.192 532.285 104.861 533.465 105.726C534.724 106.592 535.353 107.732 535.353 109.148C535.353 109.699 535.235 110.25 534.999 110.8C534.763 111.351 534.449 111.902 534.055 112.452L532.167 114.34L529.217 114.104C528.667 114.498 527.723 114.852 526.385 115.166C525.048 115.402 523.789 115.638 522.609 115.874C521.508 116.11 520.957 116.386 520.957 116.7L519.895 115.756C519.502 116.464 518.912 116.818 518.125 116.818C517.339 116.818 516.552 116.818 515.765 116.818C515.057 116.818 514.231 117.251 513.287 118.116C512.422 118.982 511.635 119.926 510.927 120.948C510.219 122.05 509.787 122.954 509.629 123.662L508.921 125.196Z" fill="white"/>
<path d="M545.376 123.19C544.117 123.19 543.094 122.64 542.308 121.538C541.521 120.516 541.128 119.375 541.128 118.116C541.128 117.172 541.403 115.756 541.954 113.868C542.583 111.902 543.33 109.856 544.196 107.732C545.061 105.53 545.966 103.563 546.91 101.832C547.854 100.102 548.719 98.9608 549.506 98.4102C550.607 96.6795 551.59 95.0668 552.456 93.5722C551.197 93.8082 549.938 94.0835 548.68 94.3982C547.421 94.6342 546.241 94.9882 545.14 95.4602C544.589 96.1682 543.96 96.5222 543.252 96.5222C543.016 96.3648 542.74 96.2075 542.426 96.0502C542.111 95.8928 541.836 95.6962 541.6 95.4602L541.718 95.2242H541.6V94.9882C541.6 94.5948 541.521 94.2408 541.364 93.9262C541.285 93.5328 541.206 93.1789 541.128 92.8642C541.049 92.7855 541.01 92.5888 541.01 92.2742C541.01 91.2515 541.482 90.5828 542.426 90.2682C543.448 89.9535 544.471 89.7962 545.494 89.7962C546.988 89.7962 548.011 89.9142 548.562 90.1502L549.742 89.9142H552.692C553.242 89.9142 553.754 89.9142 554.226 89.9142C554.698 89.9142 555.17 89.8748 555.642 89.7962L556.114 89.0882L555.996 88.6162C556.232 88.0655 556.743 87.1608 557.53 85.9022C558.316 84.6435 559.142 83.3062 560.008 81.8902C560.873 80.4742 561.62 79.2548 562.25 78.2322C562.958 77.1308 563.312 76.5802 563.312 76.5802C563.312 76.1082 563.705 75.8328 564.492 75.7542C565.278 75.6755 565.79 75.6362 566.026 75.6362C566.891 75.6362 568.071 75.9115 569.566 76.4622C571.06 76.9342 571.808 77.7602 571.808 78.9402C571.808 79.6482 571.532 80.2382 570.982 80.7102C570.431 81.1035 569.841 81.3788 569.212 81.5362V81.6542C569.212 82.1262 568.858 82.6768 568.15 83.3062C567.52 83.9355 566.773 84.4862 565.908 84.9582C565.042 85.4302 564.374 85.7448 563.902 85.9022C563.666 85.9809 563.351 86.2955 562.958 86.8462C562.643 87.3182 562.407 87.6722 562.25 87.9082V88.3802C561.935 88.6162 561.581 88.8915 561.188 89.2062C560.873 89.4422 560.598 89.7568 560.362 90.1502C560.755 90.2288 561.148 90.2682 561.542 90.2682C561.935 90.2682 562.328 90.2682 562.722 90.2682C563.351 90.2682 563.941 90.2682 564.492 90.2682C565.121 90.2682 565.711 90.3075 566.262 90.3862L569.92 90.8582C568.976 91.6448 567.914 92.1168 566.734 92.2742C565.554 92.3528 564.334 92.3922 563.076 92.3922C561.896 92.3135 560.755 92.5102 559.654 92.9822C559.103 93.1395 558.356 93.6115 557.412 94.3982C556.546 95.1848 555.76 96.0502 555.052 96.9942C554.344 97.8595 553.99 98.6068 553.99 99.2362L551.276 102.894C550.489 103.288 550.096 103.878 550.096 104.664C550.096 105.451 549.663 105.844 548.798 105.844L547.146 109.62C547.067 110.092 546.949 110.84 546.792 111.862C546.713 112.806 546.398 113.357 545.848 113.514C545.848 114.537 545.808 115.56 545.73 116.582C545.651 117.526 545.612 118.47 545.612 119.414L545.848 119.886H546.792C548.365 118.313 549.978 116.818 551.63 115.402C553.36 113.908 554.973 112.334 556.468 110.682L557.058 110.446H557.294L558.002 109.502L558.474 109.266L558.356 109.148L559.064 108.558C559.693 107.378 560.716 106.395 562.132 105.608L562.25 105.844C562.25 106.238 561.738 107.103 560.716 108.44C559.693 109.699 558.395 111.194 556.822 112.924C555.327 114.576 553.754 116.189 552.102 117.762C550.528 119.336 549.112 120.634 547.854 121.656C546.595 122.679 545.769 123.19 545.376 123.19Z" fill="white"/>
</g>
<g id="Salmon">
<ellipse id="Ellipse 3" cx="115.087" cy="106.234" rx="85.8528" ry="86" transform="rotate(-0.156185 115.087 106.234)" fill="#0B090A"/>
<ellipse id="Ellipse 1" cx="115.087" cy="106.234" rx="76.6543" ry="76.7857" transform="rotate(-0.156185 115.087 106.234)" fill="#EEEBE3"/>
<g id="Mask group">
<mask id="mask0_14_555" style="mask-type:alpha" maskUnits="userSpaceOnUse" x="53" y="44" width="124" height="124">
<ellipse id="Ellipse 4" cx="115.087" cy="106.234" rx="61.3234" ry="61.4286" transform="rotate(-0.156185 115.087 106.234)" fill="#C4C4C4"/>
</mask>
<g mask="url(#mask0_14_555)">
<g id="salmao">
<path id="Vector" d="M-2.67924 180.411C-2.88251 174.351 -2.88251 168.483 -2.88251 162.257C1.04 159.314 5.77597 159.394 10.0857 158.075C19.7264 155.124 28.7654 150.93 37.5002 146.053C51.6035 138.178 64.4241 128.404 76.8602 118.189C87.8159 109.189 98.358 99.6703 109.298 90.6568C124.345 78.2599 139.583 66.0561 157.984 58.6139C164.697 55.8989 170.636 51.7206 175.271 45.9641C182.432 37.0715 180.681 27.0128 175.32 18.4113C168.609 7.64436 158.946 -0.18158 148.839 -7.46627C131.91 -19.6681 113.441 -29.113 94.5566 -37.8947C80.9873 -44.205 67.1079 -49.7263 53.0665 -54.7543C38.9216 -59.8194 24.4916 -64.1595 9.7955 -67.4693C8.43591 -67.7755 7.07923 -68.0664 5.79396 -69.1997C5.48212 -70.0744 5.56609 -70.6531 6.0885 -71.4361C26.1396 -71.6766 46.0019 -71.6766 66.222 -71.6766C79.8328 -68.8589 92.2505 -63.6284 104.719 -58.5268C118.062 -53.0672 130.846 -46.5018 143.566 -39.1745C147.578 -36.4383 151.342 -33.8243 155.515 -31.3205C167.005 -22.717 177.384 -13.2475 187.706 -3.70456C194.712 2.7732 203.02 7.00425 212.554 7.08385C219.007 7.1377 225.578 5.90613 231.861 3.90129C237.73 2.02834 243.589 0.76915 249.599 3.4726C256.261 6.46909 261.484 11.3194 265.943 16.8458C279.176 33.2462 289.567 51.598 301.318 69.0195C310.369 82.4396 319.74 95.6359 330.374 107.931C337.449 116.112 344.805 123.987 352.628 131.401C362.373 140.636 372.958 148.827 384.25 156.181C397.176 164.598 410.804 171.503 425.228 176.812C434.813 180.34 444.404 183.998 454.656 185.279C455.414 185.374 456.098 185.767 457.092 186.136C462.066 187.511 466.887 188.148 471.669 188.975C472.845 189.178 473.845 189.423 474.743 190.674C475.423 193.237 473.653 192.404 472.684 192.407C460.02 192.445 447.356 192.432 434.693 192.432C424.435 192.432 414.177 192.432 403.562 192.432C385.649 187.641 370.903 177.687 356.667 166.884C350.312 162.062 344.084 157 338.684 151.104C330.562 142.236 322.479 133.361 315.134 123.77C301.626 106.129 290.09 87.1946 277.791 68.7599C273.713 62.6477 269.793 56.2116 264.412 51.3494C255.442 43.2444 246.621 34.6011 235.278 29.7479C225.517 25.5718 216.397 27.6094 207.455 35.9366C202.504 40.5469 199.205 46.5456 194.409 51.2528C186.957 58.5665 178.329 64.3764 169.666 70.1172C159.102 77.1177 148.494 84.0699 138.338 91.6413C131.955 96.3994 125.958 101.711 120.195 107.23C108.93 118.018 96.9112 127.916 84.7893 137.705C74.5335 145.987 63.9532 153.863 52.7148 160.705C41.1257 167.76 29.0114 173.904 15.8033 177.579C10.9382 178.932 6.01943 179.991 1.09766 181.074C-0.181428 181.355 -1.39798 181.63 -2.67924 180.411Z" fill="#FC5231"/>
<path id="Vector_2" d="M72.6224 -71.3943C92.5486 -71.6766 112.411 -71.6766 132.631 -71.6766C142.899 -67.9514 151.371 -61.7405 159.93 -55.7647C173.269 -46.4509 185.948 -36.1813 200.03 -27.947C205.443 -24.7815 210.743 -21.1392 217.756 -21.2803C226.499 -20.6041 234.969 -21.1149 243.743 -20.9094C255.111 -20.2024 263.248 -13.585 271.256 -7.04849C288.783 7.25779 302.214 25.2616 315.758 43.1411C326.301 57.0578 336.737 71.0451 348.065 84.3651C358.49 96.6239 369.58 108.17 381.798 118.608C397.049 131.639 413.603 142.674 431.775 151.332C444.028 157.17 456.584 162.064 469.59 165.872C471.388 166.398 473.345 166.669 474.765 168.566C474.957 175.146 474.957 181.523 474.957 188.258C471.533 189.998 468.309 188.276 465.012 187.905C462.596 187.633 460.203 187.053 457.509 186.527C447.82 184.046 438.409 181.722 429.255 178.426C414.061 172.956 399.594 166.083 385.95 157.401C377.958 152.315 370.399 146.69 363.082 140.711C353.085 132.541 344.039 123.401 335.361 113.855C322.907 100.155 312.068 85.2139 301.789 69.8904C293.682 57.8036 285.984 45.4314 277.925 33.3073C271.547 23.7123 265.087 14.1045 255.638 7.08368C249.608 2.60408 243.124 0.486076 235.627 2.96655C228.502 5.32413 221.122 6.87736 213.681 7.17252C206.856 7.44321 200.213 5.57394 194.496 1.54224C188.316 -2.81525 182.916 -8.10512 177.316 -13.1672C170.614 -19.2251 163.939 -25.3627 156.056 -30.4365C152.211 -33.362 148.571 -36.0843 144.266 -38.3245C132.947 -45.6632 121.051 -51.2812 109.017 -56.6205C98.0327 -61.4941 86.8011 -65.7249 75.3569 -69.4014C74.368 -69.7191 73.0383 -69.8165 72.6224 -71.3943Z" fill="#FC5231"/>
<path id="Vector_3" d="M396.445 192.173C379.525 192.432 362.716 192.432 345.55 192.432C337.889 187.489 332.069 180.925 326.188 174.513C313.838 161.048 303.623 145.946 293.716 130.651C284.76 116.824 276.829 102.37 267.905 88.5128C261.08 77.9143 252.366 69.5721 241.119 63.4166C240.619 63.0477 240.349 62.819 239.873 62.4298C239.516 62.1846 239.37 62.0934 239.018 61.8472C237.556 60.4165 235.894 60.1115 234.001 59.6892C233.598 59.5385 233.436 59.4789 233.023 59.3535C230.361 58.1229 227.792 58.4173 224.99 58.4728C224.217 58.4799 223.703 58.49 222.97 58.7259C221.851 59.3179 220.805 59.3302 219.664 59.8516C219.098 59.9892 218.777 60.0733 218.239 60.2913C216.596 61.0174 214.687 60.2078 213.48 62.0912C213.2 62.386 213.081 62.4956 212.778 62.7639C212.472 63.024 212.349 63.1255 212.043 63.3791C211.735 63.6251 211.609 63.719 211.291 63.9442C210.847 64.2522 210.599 64.4345 210.176 64.7631C209.875 64.9919 209.753 65.081 209.447 65.299C209.148 65.5234 209.033 65.6188 208.761 65.8716C208.395 66.2365 208.172 66.428 207.752 66.72C207.209 67.0729 206.852 67.3129 206.323 67.6803C206.04 67.8947 205.929 67.9841 205.65 68.2064C205.363 68.4222 205.246 68.5049 204.953 68.7184C204.657 68.9329 204.536 69.0165 204.223 69.2166C203.766 69.4838 203.492 69.6169 202.979 69.7958C202.587 69.881 202.426 69.9043 202.021 69.9648C199.731 70.4275 199.066 71.8595 199.005 74.0051C198.89 74.5705 198.767 74.8704 198.451 75.3341C197.997 75.849 197.665 76.1583 197.22 76.6551C196.977 76.9123 196.879 77.0128 196.637 77.2614C196.396 77.5054 196.299 77.6014 195.918 77.9828C195.539 78.3624 195.445 78.4566 195.068 78.8346C194.692 79.2149 194.599 79.3113 194.369 79.5579C194.046 79.9077 193.853 80.1012 193.501 80.4322C193.144 80.7733 192.946 80.9769 192.603 81.3448C191.919 82.0184 191.418 82.5674 190.69 83.2076C190.276 83.5438 190.049 83.7472 189.676 84.1358C189.305 84.5388 189.069 84.7461 188.612 85.0649C188 85.479 187.586 85.7519 186.954 86.169C171.178 98.7408 153.607 108.308 137.959 120.605C132.887 124.591 127.969 128.761 123.212 133.132C113.974 141.619 104.48 149.815 94.9026 157.923C86.0896 165.384 76.8936 172.329 67.4038 178.851C60.2301 183.781 53.1722 189.042 44.6469 192.251C29.7756 192.432 15.1063 192.321 0.441397 192.524C-2.61508 192.566 -3.24199 191.617 -2.92487 188.922C-2.70477 187.051 -2.88253 185.134 -2.88253 182.873C-0.789346 180.539 1.98976 180.844 4.50509 180.329C20.0688 177.138 34.5353 171.184 48.2101 163.177C61.9776 155.117 74.7175 145.631 87.1354 135.649C99.1939 125.956 110.928 115.921 122.169 105.282C136.618 91.606 153.306 80.9012 169.814 69.9635C178.465 64.2311 187.119 58.4313 194.51 51.0685C199.155 46.4409 202.521 40.6925 207.242 36.0768C217.385 26.1624 228.527 24.9434 240.631 32.3979C249.016 37.5618 256.582 43.8479 263.676 50.5138C270.563 56.9847 275.58 65.2043 280.795 73.1272C290.797 88.3236 300.41 103.778 311.18 118.465C322.191 133.479 334.323 147.535 348.227 159.884C360.753 171.009 374.621 180.344 389.854 187.528C392.261 188.663 395.121 189.239 396.445 192.173Z" fill="#FC5231"/>
<path id="Vector_4" d="M137.447 -71.4161C150.052 -71.6766 162.536 -71.6766 175.377 -71.6766C182.775 -65.7649 189.393 -59.3514 196.9 -53.9952C201.552 -50.6758 206.352 -47.5568 211.716 -45.5809C221.363 -42.0276 229.303 -44.4995 235.674 -52.9828C238.657 -56.9545 240.962 -61.3303 243.221 -65.732C244.261 -67.7574 245.184 -69.8666 247.285 -71.4873C254.627 -71.6766 261.767 -71.6766 269.265 -71.6766C270.733 -69.9208 269.304 -68.8308 268.51 -67.6174C265.31 -62.7259 262.455 -57.7729 261.465 -51.8073C260.489 -45.9258 262.706 -41.5731 267.177 -38.4247C273.69 -33.8384 280.963 -30.4023 287.175 -25.3078C294.944 -18.9353 301.953 -11.824 308.594 -4.29874C326.448 15.9335 341.402 38.4266 358.37 59.3479C366.277 69.0977 374.572 78.5548 383.491 87.3346C400.499 104.076 419.029 118.952 440.416 129.928C450.784 135.249 461.258 140.321 472.314 144.087C473.17 144.378 473.918 144.848 474.758 145.678C474.957 152.501 474.957 159.133 474.957 166.122C471.4 167.942 468.429 165.512 465.413 164.627C447.824 159.464 431.119 152.048 415.315 142.806C403.288 135.773 392.077 127.495 381.456 118.426C372.175 110.5 363.48 101.965 355.347 92.9114C345.255 81.6763 335.786 69.9016 326.693 57.8256C316.983 44.9312 307.314 32.0086 297.156 19.4484C291.256 12.1533 284.661 5.60096 278.08 -1.00938C271.423 -7.69627 263.708 -12.9788 255.625 -17.7372C252.344 -19.6689 248.633 -20.3623 244.532 -20.5276C237.13 -21.4311 230.034 -20.365 222.936 -20.515C221.423 -20.547 219.938 -20.7033 218.144 -20.9732C211.08 -21.0585 205.643 -24.5959 200.082 -27.7674C187.058 -35.1954 175.409 -44.6274 163.227 -53.2738C155.473 -58.7768 147.614 -64.0812 139.358 -68.7847C138.317 -69.3778 137.277 -69.7333 137.447 -71.4161Z" fill="#FC5231"/>
<path id="Vector_5" d="M86.6334 192.249C73.9425 192.432 61.459 192.432 48.6177 192.432C47.525 190.668 48.9529 190.268 50.0227 189.654C67.6762 179.532 83.7349 167.222 99.2501 154.12C110.315 144.775 120.859 134.849 131.828 125.409C142.941 115.843 155.381 108.054 167.558 99.9338C177.566 93.2601 187.738 86.7282 195.909 77.7819C200.126 73.1656 204.364 68.6939 209.472 65.0638C215.052 61.0985 220.981 58.1048 228.038 58.4965C233.903 58.8221 238.826 61.6694 243.722 64.6601C254.489 71.236 262.728 80.1011 269.458 90.7599C279.471 106.619 288.55 123.047 298.997 138.638C308.939 153.477 319.614 167.731 331.953 180.673C334.658 183.51 337.743 185.985 340.442 188.844C341.282 189.735 342.542 190.4 342.263 192.183C331.945 192.432 321.752 192.432 311.2 192.432C307.541 190.892 305.945 187.662 304.04 184.953C290.973 166.371 280.03 146.498 268.989 126.682C263.506 116.841 258.501 106.509 250.102 98.7772C243.665 92.8505 236.162 88.3998 226.701 89.0123C221.351 89.3587 216.812 91.6576 212.42 94.3471C204.499 99.1981 197.638 105.438 190.727 111.56C183.768 117.723 176.039 122.772 168.386 127.954C155.703 136.543 142.781 144.788 131.186 154.892C119.577 165.006 108.444 175.67 96.3428 185.212C93.2802 187.627 90.53 190.508 86.6334 192.249Z" fill="#FC5231"/>
<path id="Vector_6" d="M-2.67761 -54.6863C-2.88251 -59.2254 -2.88251 -63.5672 -2.88251 -68.2661C-1.44004 -70.1953 0.270701 -69.7902 2.06054 -69.4045C26.3849 -64.1626 50.0086 -56.5926 73.046 -47.3043C90.6344 -40.2129 107.83 -32.247 124.402 -22.8906C140.282 -13.925 155.537 -4.23193 168.171 9.03918C172.966 14.0762 177.262 19.5915 179.148 26.6122C181.488 35.3259 179.277 42.7536 172.975 48.8713C168.505 53.212 163.236 56.5752 157.453 59.0079C141.659 65.6509 128.068 75.6404 114.872 86.3775C103.841 95.3529 93.2169 104.797 82.2355 113.822C69.8622 123.991 57.4074 134.058 43.7269 142.458C30.5085 150.574 16.7068 157.361 1.32161 160.385C0.0895712 160.627 -1.11587 160.901 -2.62705 160.507C-2.88251 155.014 -2.88251 149.655 -2.88251 143.938C-0.357825 141.701 2.78324 141.725 5.63995 141.014C19.5084 137.563 31.6763 130.718 43.4146 122.855C59.26 112.242 73.2948 99.4234 87.6802 87.0167C95.1561 80.5691 102.622 74.0961 110.64 68.3032C118.164 62.867 126.073 58.0906 134.472 54.1287C138.278 52.3333 141.876 50.1739 144.897 47.2283C154.794 37.5757 153.941 28.8736 146.989 18.4153C139.132 6.59329 127.404 -0.871941 115.767 -8.3566C103.131 -16.4836 89.6612 -23.0803 75.8973 -28.9679C51.6828 -39.3257 26.9326 -48.1711 0.914381 -52.9516C-0.400788 -53.1932 -1.51885 -53.5878 -2.67761 -54.6863Z" fill="#FB5232"/>
<path id="Vector_7" d="M120.979 192.244C110.836 192.432 100.897 192.432 90.6004 192.432C89.1625 191.038 89.8939 190.243 91.0632 189.338C105.971 177.794 119.442 164.584 133.82 152.432C142.593 145.017 152.155 138.573 161.769 132.257C172.664 125.1 183.673 118.064 193.405 109.341C199.284 104.072 205.218 98.9273 211.826 94.5987C226.259 85.1429 237.117 87.7621 249.814 98.3979C257.381 104.736 261.748 113.755 266.58 122.236C277.568 141.517 287.862 161.208 300.487 179.519C302.754 182.807 305.041 186.081 307.371 189.323C307.98 190.17 308.69 190.864 307.969 192.212C300.14 192.432 292.491 192.432 284.484 192.432C280.895 189.564 279.571 185.481 277.599 181.855C271.491 170.625 265.749 159.197 259.87 147.846C255.637 139.674 251.156 131.538 245.26 124.335C240.33 118.313 228.84 115.678 221.881 119.167C214.365 122.934 207.782 128.16 201.29 133.358C180.907 149.676 157.786 162.055 137.323 178.228C131.762 182.623 126.823 187.75 120.979 192.244Z" fill="#FC5231"/>
<path id="Vector_8" d="M-2.66912 141.488C-2.88251 136.185 -2.88251 131.08 -2.88251 125.618C-1.71839 123.839 0.0802014 123.741 1.61277 123.494C14.0525 121.489 24.8864 115.754 35.1197 108.864C48.0727 100.143 59.5741 89.6156 71.1485 79.169C81.2008 70.0961 91.3738 61.1062 103.029 54.0287C106.822 51.7252 111.031 50.1488 114.539 47.3448C117.52 44.9631 120.437 42.5509 122.43 39.2054C126.518 32.3412 122.861 23.0721 117.972 17.5065C107.91 6.0509 95.1558 -1.65275 81.837 -8.51577C59.8006 -19.8709 36.6546 -28.3373 12.6068 -34.3087C8.57826 -35.309 4.51466 -36.2594 0.404766 -36.9071C-0.802817 -37.0974 -1.80843 -37.3897 -2.68799 -38.6456C-2.88251 -43.1956 -2.88251 -47.5374 -2.88251 -52.2364C-1.76616 -53.9449 -0.33511 -53.4716 1.00881 -53.1996C19.4661 -49.4642 37.4241 -44.0562 55.0526 -37.4344C70.284 -31.7129 85.221 -25.3555 99.5913 -17.7355C114.63 -9.76107 129.228 -1.0767 141.317 11.1561C145.256 15.1424 148.524 19.6796 150.73 24.8958C154.783 34.4814 150.949 42.6158 142.8 49.1369C139.727 51.5959 136.304 53.5512 132.705 55.1891C119.321 61.2812 107.764 70.1227 96.6208 79.5166C81.3245 92.4115 66.735 106.157 50.5638 117.996C35.7323 128.854 20.1414 138.236 1.81161 142.047C0.315133 142.358 -1.114 142.79 -2.66912 141.488Z" fill="#FB5232"/>
<path id="Vector_9" d="M-2.66804 123.169C-2.88251 117.865 -2.88251 112.761 -2.88251 107.298C-0.852507 105.131 1.78908 105.248 4.215 104.723C16.6943 102.027 27.0257 95.2506 36.7643 87.4479C47.7188 78.6711 57.5052 68.5813 67.9936 59.2774C73.7757 54.1483 79.9039 49.4879 86.6103 45.6114C88.8153 44.3368 90.6985 42.6617 92.5338 40.8851C97.0581 36.5052 96.8241 27.1756 93.9742 23.2651C88.7272 16.0652 81.9392 10.6941 74.4137 6.1889C64.0634 -0.00743865 53.0881 -4.9083 41.7929 -9.12039C39.7691 -9.8751 37.5781 -10.0008 35.3633 -11.0853C26.0462 -15.0483 16.4962 -17.1684 6.97645 -19.4066C3.83882 -20.1443 0.560732 -20.2991 -2.65727 -21.8521C-2.88251 -26.6568 -2.88251 -31.2529 -2.88251 -36.2064C-1.11552 -38.1092 0.756715 -36.9549 2.48044 -36.6037C23.4817 -32.3247 43.7216 -25.7017 63.4245 -17.2438C78.746 -10.6667 93.5213 -3.1963 106.829 6.89573C113.925 12.2775 120.705 18.1447 123.498 27.0795C125.166 32.4165 124.507 37.5049 120.621 41.9062C117.394 45.5608 113.712 48.6699 109.344 50.7842C96.4031 57.0494 85.8096 66.4944 75.1498 75.8332C59.7737 89.3039 45.1199 103.672 27.179 113.904C19.1235 118.498 10.6987 122.145 1.49572 123.756C0.140941 123.993 -1.23717 124.519 -2.66804 123.169Z" fill="#FB5232"/>
<path id="Vector_10" d="M282.017 192.211C275.714 192.433 269.591 192.433 263.111 192.433C259.144 188.536 257.815 183.427 255.563 178.815C250.906 169.276 246.63 159.535 240.304 150.909C237.991 147.755 235.156 145.393 231.256 144.393C227.344 143.39 223.814 143.923 220.994 146.893C206.708 161.932 189.45 172.906 171.696 183.241C167.993 185.397 164.205 187.466 160.846 190.178C159.52 191.249 157.884 191.566 156.112 192.268C145.186 192.433 134.483 192.433 123.423 192.433C122.223 190.65 123.709 189.896 124.675 189.022C134.871 179.793 145.756 171.473 157.197 163.827C170.127 155.186 183.428 147.087 195.695 137.458C203.229 131.544 211.07 126.033 218.919 120.529C228.24 113.993 240.309 118.354 246.219 125.678C252.234 133.132 256.585 141.581 260.991 150C267.659 162.739 274.105 175.595 281.072 188.176C281.73 189.364 282.869 190.41 282.017 192.211Z" fill="#FC5231"/>
<path id="Vector_11" d="M-2.66677 104.85C-2.88251 99.2913 -2.88251 93.9321 -2.88251 88.2151C-2.15587 87.0531 -1.24971 86.7222 -0.168448 86.7228C8.86405 86.7279 16.2045 82.4874 23.2101 77.3958C33.7518 69.7341 41.9461 59.5964 51.3445 50.7289C54.7591 47.5071 58.3909 44.5827 62.1514 41.7782C66.1043 38.8303 69.0626 35.0128 68.4487 29.8078C67.8288 24.5518 64.0526 21.1039 60.1186 18.0407C50.9148 10.8738 40.206 6.66574 29.3513 2.83378C21.2631 -0.0215836 12.8886 -1.85438 4.53581 -3.77461C2.20065 -4.31144 -0.341029 -3.27512 -2.6702 -5.07481C-2.88251 -9.86377 -2.88251 -14.4598 -2.88251 -19.4134C-1.87003 -21.02 -0.485043 -21.0631 0.894611 -20.791C12.4766 -18.5066 23.9125 -15.6719 35.2968 -11.4972C51.0045 -6.25742 65.7578 0.353691 79.4029 9.22765C84.6885 12.665 89.416 16.9246 93.1596 22.0466C98.8788 29.8715 97.0355 38.5501 88.7301 44.3597C85.6114 46.5412 82.216 48.279 79.1341 50.5119C70.9393 56.4493 63.4701 63.2231 56.0842 70.5023C55.7612 70.8058 55.632 70.9241 55.2961 71.196C54.9414 71.4309 54.7936 71.5122 54.4389 71.7329C54.1075 71.9797 53.983 72.087 53.5395 72.564C53.1097 73.0512 52.9988 73.1688 52.7164 73.4574C51.5128 74.4084 50.8101 75.526 49.5898 76.4468C48.4336 77.0744 47.3856 77.4447 46.6666 78.6404C46.4743 78.9794 46.397 79.115 46.1845 79.4421C45.7434 79.9857 45.4167 80.3183 44.9327 80.8188C44.5514 81.1936 44.3127 81.3806 43.8575 81.6524C43.2757 81.992 42.897 82.2302 42.4347 82.7217C42.1879 82.998 42.0856 83.105 41.8146 83.3558C41.293 83.7649 40.9822 84.0766 40.5114 84.535C40.1301 84.8683 39.895 85.0359 39.4599 85.2987C39.1572 85.5043 39.0415 85.5965 38.7772 85.8568C37.9739 86.6779 37.3613 87.3766 36.3908 88.0362C35.6507 88.5351 35.1543 88.9704 34.3213 89.3538C33.9707 89.6031 33.8354 89.7125 33.5061 90.0058C33.1839 90.3202 33.0559 90.4507 32.7248 90.7734C23.9453 97.1581 14.9286 102.468 4.46956 104.847C2.18812 105.366 -0.102762 106.446 -2.66677 104.85Z" fill="#FB5232"/>
<path id="Vector_12" d="M-2.6719 10.9579C-2.88251 6.16599 -2.88251 1.56992 -2.88251 -3.3836C0.953387 -5.38508 4.67579 -3.86073 8.31071 -3.07006C23.7271 0.283285 38.6047 5.25583 52.5274 12.7821C57.4915 15.4655 61.9603 18.9288 65.6687 23.1982C70.306 28.5368 69.4714 36.4303 63.1964 41.0614C53.7096 48.0629 45.7345 56.5671 37.5283 64.9018C31.0109 71.5212 24.1572 77.8223 15.8566 82.2697C10.1442 85.3303 4.25396 87.6176 -2.65034 86.517C-2.88251 80.9716 -2.88251 75.6124 -2.88251 69.8955C-1.89474 68.3449 -0.578609 68.4145 0.815488 68.4196C7.44601 68.4439 13.0174 65.6649 17.7851 61.3509C25.8056 54.0936 31.7825 45.0654 38.428 36.6414C42.4806 31.5042 41.1816 26.7238 35.66 22.865C28.6482 17.9646 20.4799 16.2498 12.4184 14.1611C7.50517 12.8881 2.40887 12.5926 -2.6719 10.9579Z" fill="#FB5232"/>
<path id="Vector_13" d="M260.645 192.206C255.104 192.433 249.745 192.433 244.028 192.433C242.46 191.612 241.93 190.36 241.347 189.073C238.889 183.648 236.106 178.407 232.321 173.752C227.69 168.057 221.259 168.451 217.61 174.719C213.922 181.054 210.457 187.552 204.176 192.245C189.713 192.433 175.448 192.433 160.826 192.433C159.677 190.022 161.678 189.369 163.082 188.466C170.772 183.523 178.636 178.857 186.475 174.159C198.187 167.139 209.322 159.225 218.387 149.096C226.215 140.348 235.942 144.292 240.774 151.351C245.41 158.124 249.098 165.372 252.693 172.702C255.353 178.123 257.813 183.635 260.353 189.111C260.769 190.008 261.406 190.903 260.645 192.206Z" fill="#FB5232"/>
<path id="Vector_14" d="M396.678 192.433C388.933 188.311 381.417 184.382 374.151 180.034C351.235 166.322 332.773 147.728 316.39 126.884C301.829 108.359 289.487 88.3126 276.683 68.6022C267.254 54.0874 254.869 42.8282 240.6 33.5507C228.259 25.5262 217.736 27.0404 207.242 37.4025C206.428 38.2059 205.528 38.9686 204.898 39.9047C194.815 54.8777 180.166 64.6436 165.357 74.0604C146.292 86.1839 128.952 100.365 112.27 115.55C90.814 135.08 68.3811 153.441 42.7141 167.37C28.6197 175.018 13.6556 180.158 -2.56849 182.469C-2.88251 181.937 -2.88251 181.364 -2.88251 180.506C10.4536 178.938 22.9244 174.699 34.9467 169.016C56.6416 158.761 75.358 144.116 93.8091 129.058C107.905 117.554 120.746 104.625 134.855 93.1477C146.914 83.3381 160.246 75.3367 173.052 66.5896C183.906 59.1758 194.096 51.1966 202.06 40.4304C208.097 32.2681 215.921 26.1689 227.068 26.6575C233.868 26.9556 239.366 30.2806 244.832 33.8793C262.446 45.4763 275.059 61.4933 286.044 79.1901C298.317 98.9621 311.202 118.354 326.364 136.103C347.005 160.265 371.17 179.651 401.087 191.246C401.675 191.474 402.214 191.827 402.99 192.277C401.143 192.433 399.082 192.433 396.678 192.433Z" fill="#FEA088"/>
<path id="Vector_15" d="M-2.88251 160.627C24.9321 155.249 47.6402 140.176 69.1992 123.045C80.7428 113.872 91.959 104.279 103.16 94.6855C121.19 79.2439 139.895 64.8695 161.976 55.5199C165.037 54.2238 167.652 52.1268 170.227 50.0562C179.365 42.7088 181.57 32.1357 176.158 21.7058C171.731 13.1754 165.016 6.5888 157.753 0.54126C139.816 -14.3954 119.399 -25.2702 98.4264 -35.1547C74.1046 -46.6175 48.9941 -56.0274 23.0631 -63.1735C14.7385 -65.4675 6.41034 -67.8322 -2.55755 -68.6675C-2.88251 -69.1958 -2.88251 -69.7683 -2.88251 -70.6271C0.0971825 -71.2163 3.0404 -71.2189 6.06224 -69.6457C42.1691 -61.1748 76.4203 -48.4314 109.332 -32.0741C128.155 -22.7188 146.289 -12.2068 162.164 1.78989C168.308 7.20784 173.791 13.1848 177.71 20.4444C183.78 31.6891 181.651 42.645 172.003 50.9539C167.424 54.8973 162.382 58.0884 156.848 60.3912C141.868 66.6236 129.027 76.1295 116.537 86.2237C95.8801 102.918 76.5015 121.195 54.6482 136.404C38.1545 147.883 20.7867 157.561 0.770511 161.513C-0.222689 161.71 -1.23634 161.802 -2.56149 161.921C-2.88251 161.56 -2.88251 161.221 -2.88251 160.627Z" fill="#FE9F87"/>
<path id="Vector_16" d="M342.444 192.432C338.108 186.994 332.584 183.028 328.056 178.045C312.245 160.644 299.177 141.306 286.907 121.352C278.325 107.397 270.656 92.8494 260.436 79.9415C254.136 71.9849 245.748 66.6574 236.935 62.0801C228.904 57.9088 220.909 59.2292 213.319 63.7584C209.147 66.248 205.179 69.0997 202.02 72.7571C192.267 84.0525 180.554 92.9494 167.99 100.745C145.951 114.42 126.477 131.28 107.239 148.513C89.3156 164.567 70.2953 179.216 49.3479 191.212C49.0259 191.396 48.7806 191.714 48.3798 192.201C47.1999 192.432 46.1397 192.432 44.7615 192.432C48.5413 188.768 53.6356 186.676 58.2037 183.75C80.4433 169.506 100.571 152.585 119.881 134.708C133.567 122.037 148.613 111.293 164.087 101.039C171.604 96.0583 179.214 91.2052 186.304 85.2029C186.683 84.5627 187.104 84.4361 187.68 84.1649C188.026 83.8352 188.239 83.6847 188.578 83.3844C188.899 83.0916 189.083 82.9343 189.388 82.6407C190.191 81.9213 190.86 81.3241 191.665 80.5472C191.937 80.1181 192.109 79.8967 192.506 79.6032C192.875 79.4006 193.032 79.2684 193.24 78.9695C193.454 78.6116 193.608 78.4014 193.933 78.0811C194.083 77.9556 194.052 77.9376 194.065 77.951C194.221 77.7719 194.381 77.5948 194.694 77.3157C194.829 77.1983 194.833 77.1863 194.839 77.1839C194.964 77.0499 195.083 76.9183 195.391 76.599C195.58 76.4113 195.582 76.4086 195.583 76.4072C195.936 75.9586 196.195 75.4254 196.894 75.0074C197.259 74.718 197.449 74.5545 197.722 74.2069C198.875 72.084 200.08 70.2601 202.382 69.0943C202.607 68.9751 202.608 68.8759 202.558 68.8753C202.757 68.4413 203.213 68.4063 203.801 68.1576C203.975 68.0228 203.984 68.0195 203.987 68.0149C204.153 67.8349 204.322 67.6637 204.633 67.3805C204.771 67.2641 204.738 67.2663 204.754 67.2733C205.145 66.5209 205.726 66.0614 206.734 65.8384C207.084 65.5013 207.301 65.357 207.65 65.0692C207.982 64.7853 208.161 64.6224 208.461 64.3241C208.603 64.2112 208.558 64.2205 208.575 64.2366C209.052 63.57 209.8 63.3094 210.676 62.8223C210.864 62.6852 210.852 62.6665 210.854 62.6761C211.017 62.4984 211.188 62.321 211.52 62.0468C211.671 61.9404 211.645 62.0222 211.685 62.0358C213.241 60.2794 215.311 59.6003 217.747 59.0477C218.279 58.9299 218.547 58.8864 219.007 58.7803C220.051 57.9984 221.087 57.7507 222.411 57.5327C223.141 57.5322 223.606 57.5624 224.298 57.5389C227.461 55.9855 230.292 57.7093 233.438 57.9864C233.7 58.2082 233.688 58.1111 233.686 58.161C235.713 58.8565 237.723 59.5459 239.704 60.9365C239.91 61.1066 240.103 61.1935 240.209 61.202C240.604 61.2796 240.861 61.411 241.227 61.7782C250.98 68.2079 260.05 74.8748 266.6 84.7321C276.526 99.6691 285.254 115.322 294.888 130.427C309.021 152.586 324.59 173.54 344.457 190.995C344.733 191.237 344.892 191.612 345.148 192.179C344.378 192.432 343.564 192.432 342.444 192.432Z" fill="#FE9F87"/>
<path id="Vector_17" d="M-2.88251 141.576C4.39661 141.293 11.0692 138.774 17.6442 136.1C34.9364 129.068 49.6384 117.964 63.9547 106.276C79.3142 93.7361 93.626 79.9508 109.535 68.0611C116.488 62.8651 123.779 58.2857 131.664 54.6403C137.003 52.1721 142 49.1686 146.023 44.7651C151.861 38.375 152.874 31.4198 149.084 23.6564C144.894 15.0701 138.1 8.74992 130.734 3.03411C113.632 -10.2366 94.5039 -20.0011 74.7231 -28.5059C50.9628 -38.7218 26.5868 -47.1157 1.14946 -52.1571C0.0307744 -52.3788 -1.11013 -52.4885 -2.56159 -52.6219C-2.88251 -53.1661 -2.88251 -53.7386 -2.88251 -54.5973C43.2357 -45.6349 86.4594 -29.1587 125.753 -3.02898C134.136 2.54618 141.806 9.05639 147.671 17.4178C156.784 30.4099 154.617 42.1925 141.604 51.2116C134.879 55.8726 127.12 58.5905 120.26 63.0139C104.148 73.4039 90.2393 86.4976 75.748 98.8781C59.9698 112.358 44.0328 125.608 25.2492 134.859C16.5334 139.151 7.48812 142.447 -2.55752 143.589C-2.88251 143.007 -2.88251 142.435 -2.88251 141.576Z" fill="#FE9F87"/>
<path id="Vector_18" d="M308.095 192.433C305.357 187.22 301.526 182.93 298.354 178.208C286.502 160.562 276.52 141.823 266.106 123.335C262.924 117.686 259.45 112.221 255.869 106.81C251.203 99.7589 244.797 95.0208 237.177 91.6954C229.658 88.4139 222.518 89.6755 215.607 93.4902C207.528 97.95 200.681 104.023 193.872 110.151C182.575 120.317 169.64 128.216 157.023 136.539C141.26 146.936 127.149 159.338 113.186 171.961C106.592 177.921 99.6133 183.457 92.8114 189.188C91.852 189.996 90.6595 190.586 90.2359 192.166C89.1825 192.433 88.1224 192.433 86.7441 192.433C90.5337 187.706 95.8076 184.331 100.586 180.402C114.045 169.336 126.179 156.754 140.111 146.232C152.907 136.567 166.526 128.112 179.697 118.998C189.458 112.243 197.406 103.306 207.185 96.6042C209.595 94.9524 212.04 93.3403 214.547 91.8419C223.82 86.3005 232.914 86.6799 242.377 91.891C251.143 96.7183 256.973 104.066 261.829 112.348C271.862 129.457 281.595 146.741 291.574 163.882C297.273 173.671 303.899 182.856 310.704 192.218C310.028 192.433 309.214 192.433 308.095 192.433Z" fill="#FEA087"/>
<path id="Vector_19" d="M-2.88251 123.257C4.82936 123.037 11.8391 120.314 18.6408 117.169C34.2799 109.938 47.3956 99.0718 60.2454 87.8292C72.5751 77.0416 84.2538 65.4554 97.9373 56.304C102.15 53.4864 106.694 51.1604 111.105 48.6425C113.552 47.2458 115.732 45.523 117.761 43.5779C123.93 37.6662 125.082 30.6253 120.851 23.2036C116.126 14.9142 108.852 9.12834 101.121 3.92012C80.3838 -10.0499 57.5413 -19.538 33.9096 -27.2965C22.0612 -31.1865 10.0579 -34.4833 -2.57641 -36.5287C-2.88251 -37.1363 -2.88251 -37.7088 -2.88251 -38.5676C13.9747 -35.4956 30.5409 -31.0749 46.6476 -25.0444C67.541 -17.2216 87.897 -8.2989 105.998 5.02793C112.165 9.56818 117.922 14.5962 121.948 21.2382C127.561 30.4987 126.342 38.6068 118.245 45.7798C116.164 47.6228 113.916 49.4352 111.445 50.6523C95.4633 58.5237 82.6403 70.5477 69.5227 82.1952C54.592 95.4524 39.838 108.946 21.702 117.906C14.1232 121.651 6.21962 124.359 -2.55995 125.256C-2.88251 124.688 -2.88251 124.115 -2.88251 123.257Z" fill="#FE9F87"/>
<path id="Vector_20" d="M282.123 192.433C281.589 190.04 279.959 188.292 278.904 186.292C270.186 169.763 261.44 153.249 252.623 136.773C250.401 132.621 247.742 128.724 244.577 125.209C237.727 117.603 228.131 116.184 219.417 121.484C212.341 125.788 205.795 130.853 199.315 135.968C183.113 148.755 165.217 159.066 148.485 171.069C139.602 177.443 130.879 184.029 123.178 192.203C122.493 192.433 121.921 192.433 121.062 192.433C123.116 187.881 127.452 185.278 131.126 182.09C145.581 169.542 161.842 159.514 177.806 149.08C190.169 141 201.398 131.372 213.524 122.97C214.046 122.608 214.562 122.234 215.066 121.847C229.286 110.947 242 117.333 249.716 128.541C255.788 137.362 260.539 146.944 265.448 156.435C271.58 168.29 277.856 180.071 284.098 192.158C283.554 192.433 282.981 192.433 282.123 192.433Z" fill="#FE9F87"/>
<path id="Vector_21" d="M48.789 75.7811C49.9118 74.7591 50.8619 73.9124 51.9532 72.8724C52.2478 72.4734 52.4102 72.2752 52.7321 71.9641C52.881 71.8424 52.8402 71.8289 52.8479 71.849C53.0026 71.6692 53.168 71.4858 53.4929 71.1988C53.6342 71.0786 53.6025 71.0615 53.6091 71.0782C53.7877 70.8799 53.9839 70.6898 54.3918 70.4397C62.536 63.0781 70.1836 55.4371 79.1438 49.3374C82.3941 47.1247 85.8692 45.2131 88.9646 42.8074C97.0421 36.5297 97.6518 28.43 90.9126 20.7329C81.9778 10.528 70.2591 4.4109 58.3013 -1.2407C51.1972 -4.59825 43.7894 -7.31295 36.282 -10.4455C35.7587 -10.8784 35.6433 -11.2376 35.8741 -11.8907C54.1982 -6.04631 71.6109 1.48406 86.6438 13.6755C89.3194 15.8454 91.6633 18.3382 93.6983 21.1207C99.2888 28.7648 98.4846 36.8739 91.5562 43.2943C87.9762 46.6119 83.5131 48.5991 79.5939 51.4033C68.187 59.5648 58.5518 69.7326 48.1844 79.0718C37.3041 88.8732 26.1162 98.2198 12.1786 103.546C7.51161 105.33 2.69153 106.326 -2.56276 106.916C-2.88251 106.368 -2.88251 105.796 -2.88251 104.937C6.50164 104.733 14.6051 100.762 22.5185 96.4002C25.8354 94.5718 28.827 92.1535 32.1272 89.8139C32.3793 89.3592 32.5179 89.1215 32.8704 88.786C33.037 88.6606 33.0166 88.7598 33.0662 88.7703C33.558 88.0297 34.3558 87.7566 35.2823 87.2647C36.6188 86.6731 37.5042 85.9558 37.7952 84.4378C38.4327 84.5853 39.0029 84.2627 39.7474 83.7486C40.0968 83.0797 40.5144 82.9137 41.1292 82.6354C41.2793 82.4584 41.3248 82.4515 41.3315 82.4295C41.8009 82.0726 42.0284 81.4818 42.7618 81.1242C43.1428 80.8832 43.3298 80.7428 43.5974 80.4288C44.0253 79.7868 44.2956 79.2393 45.0705 78.8552C45.2659 78.7438 45.2118 78.7504 45.2369 78.761C46.2138 77.6351 47.1887 76.5261 48.789 75.7811Z" fill="#FE9F87"/>
<path id="Vector_22" d="M-2.88251 86.5853C9.61201 86.1952 19.3587 79.967 28.3909 72.1886C33.9861 67.3701 39.1329 62.0853 44.1988 56.7244C49.537 51.0752 55.2712 45.89 61.4387 41.1441C69.3242 35.076 69.5981 28.1649 62.4058 21.2232C55.5774 14.6329 47.1025 10.8004 38.4833 7.31216C25.3624 2.00205 11.9001 -2.1374 -2.56309 -3.72666C-2.88251 -4.08032 -2.88251 -4.41957 -2.88251 -5.01327C4.6463 -5.72001 11.7203 -3.38734 18.7981 -1.44159C33.4357 2.58248 47.6831 7.61935 60.1341 16.6844C60.7508 17.1333 61.3605 17.5958 61.9401 18.091C72.4708 27.0873 72.1315 35.683 60.9914 43.966C51.5431 50.991 44.0656 60.0959 35.6149 68.1746C28.7906 74.6986 21.7076 80.8499 12.973 84.7951C8.13063 86.9822 3.13319 88.191 -2.53629 87.9064C-2.88251 87.5182 -2.88251 87.179 -2.88251 86.5853Z" fill="#FEA088"/>
<path id="Vector_23" d="M260.75 192.432C254.364 178.196 248.226 163.972 239.337 151.172C237.262 148.184 234.447 146.016 230.784 145.185C227.491 144.438 224.36 144.743 221.947 147.306C205.774 164.48 185.614 176.111 165.631 188.006C163.81 189.091 161.772 190.001 160.505 192.169C159.16 192.432 157.851 192.432 156.215 192.432C163.089 186.536 171.264 182.127 179.249 177.481C193.708 169.071 207.019 159.253 218.915 147.462C225.516 140.919 232.685 141.274 239.201 148.031C243.036 152.009 245.683 156.828 248.225 161.641C253.441 171.52 258.184 181.638 262.694 192.161C262.181 192.432 261.608 192.432 260.75 192.432Z" fill="#FEA086"/>
<path id="Vector_24" d="M456.422 185.324C456.663 185.81 456.654 186.169 456.638 186.797C431.306 181.906 407.801 172.267 385.918 158.54C351.246 136.791 325.364 106.532 302.753 73.0523C291.722 56.7191 281.738 39.6923 270.055 23.7936C265.9 18.1394 261.374 12.8378 255.826 8.46251C249.632 3.5768 242.91 1.63133 235.144 4.12285C230.054 5.75589 224.816 6.82444 219.525 7.62737C206.897 9.54379 196.238 5.49635 186.995 -2.97903C176.778 -12.3463 166.679 -21.8532 155.21 -30.1394C154.939 -30.8356 155.104 -31.2316 155.883 -31.472C164.102 -26.4423 170.95 -20.1793 177.858 -14.0021C182.972 -9.42879 187.899 -4.65203 193.374 -0.485531C200.54 4.9677 208.601 6.84529 217.435 5.86669C222.628 5.29138 227.816 4.47033 232.716 2.69529C243.505 -1.21218 252.339 2.00336 260.246 9.51011C267.964 16.8382 273.979 25.5006 279.797 34.3069C294.017 55.8289 307.431 77.8975 323.437 98.2007C345.984 126.8 372.425 150.763 405.251 167.172C421.484 175.286 438.534 181.065 456.422 185.324Z" fill="#FE9F88"/>
<path id="Vector_25" d="M54.3988 70.4515C54.3839 70.5465 54.1885 70.7381 53.8044 71.0123C53.8165 70.9127 54.0174 70.7305 54.3988 70.4515Z" fill="#F05C42"/>
</g>
</g>
</g>
</g>
</g>
</g>
</svg>
