<svg width="430" height="320" viewBox="0 0 430 320" fill="none" xmlns="http://www.w3.org/2000/svg">
<g id="Logo Vertical Branco">
<g id="LogoCompleto">
<g id="O melhor do Sushi, em Festival!">
<path d="M88.4791 285.466C88.4791 283.898 88.2391 282.757 87.7591 282.042C87.2791 281.328 86.6285 280.97 85.8071 280.97C84.9858 280.97 84.2285 281.296 83.5351 281.946C82.8418 282.597 82.3138 283.413 81.9511 284.394C81.5885 285.365 81.4071 286.362 81.4071 287.386C81.4071 288.762 81.6578 289.893 82.1591 290.778C82.6711 291.664 83.4338 292.106 84.4471 292.106C85.2685 292.106 85.9938 291.77 86.6231 291.098C87.2525 290.426 87.7165 289.594 88.0151 288.602C88.3245 287.61 88.4791 286.565 88.4791 285.466ZM88.2551 291.322C87.7965 291.845 87.2205 292.266 86.5271 292.586C85.8445 292.906 85.0925 293.066 84.2711 293.066C83.4605 293.066 82.7405 292.874 82.1111 292.49C81.4925 292.106 81.0018 291.594 80.6391 290.954C79.9031 289.653 79.5351 288.165 79.5351 286.49C79.5351 284.816 79.9458 283.328 80.7671 282.026C81.5885 280.714 82.6551 279.85 83.9671 279.434C84.1485 279.477 84.2498 279.562 84.2711 279.69C83.5245 280.149 82.9111 280.688 82.4311 281.306C81.9618 281.925 81.6365 282.762 81.4551 283.818C81.9031 282.57 82.6018 281.589 83.5511 280.874C84.5005 280.16 85.4925 279.802 86.5271 279.802C87.5725 279.802 88.4578 280.25 89.1831 281.146C89.9191 282.032 90.2871 283.317 90.2871 285.002C90.2871 286.645 89.9938 288.133 89.4071 289.466C89.0978 290.17 88.7138 290.789 88.2551 291.322Z" fill="white"/>
<path d="M106.029 286.602C105.751 287.104 105.517 287.744 105.325 288.522C105.133 289.301 105.037 290.037 105.037 290.73C105.037 291.424 105.069 292.069 105.133 292.666C104.855 292.688 104.69 292.698 104.637 292.698C103.709 292.698 103.245 292.245 103.245 291.338C103.245 291.008 103.357 290.186 103.581 288.874C103.815 287.562 103.933 286.581 103.933 285.93C103.933 285.269 103.687 284.938 103.197 284.938C102.589 284.938 101.97 285.525 101.341 286.698C100.711 287.872 100.397 289.296 100.397 290.97C100.397 291.504 100.429 292.069 100.493 292.666C100.215 292.688 100.05 292.698 99.9965 292.698C99.0685 292.698 98.6045 292.245 98.6045 291.338C98.6045 291.221 98.7112 290.426 98.9245 288.954C99.1485 287.482 99.2605 286.32 99.2605 285.466C99.2605 284.602 99.1698 283.813 98.9885 283.098C99.6285 283.344 100.071 283.696 100.317 284.154C100.573 284.613 100.701 285.178 100.701 285.85C100.701 286.192 100.663 286.624 100.589 287.146C100.951 286.08 101.453 285.194 102.093 284.49C102.733 283.786 103.319 283.434 103.853 283.434C105.047 283.434 105.645 284.357 105.645 286.202C106.039 285.349 106.493 284.677 107.005 284.186C107.527 283.685 108.013 283.434 108.461 283.434C109.111 283.434 109.57 283.632 109.837 284.026C110.103 284.41 110.237 284.938 110.237 285.61C110.237 286.272 110.13 287.205 109.917 288.41C109.714 289.616 109.613 290.496 109.613 291.05C109.613 291.594 109.682 291.994 109.821 292.25C109.959 292.496 110.194 292.709 110.525 292.89C110.386 292.901 110.189 292.906 109.933 292.906C109.25 292.906 108.743 292.768 108.413 292.49C108.093 292.202 107.933 291.717 107.933 291.034C107.933 290.64 108.039 289.845 108.253 288.65C108.466 287.445 108.573 286.56 108.573 285.994C108.573 285.29 108.327 284.938 107.837 284.938C107.559 284.938 107.261 285.088 106.941 285.386C106.621 285.685 106.317 286.09 106.029 286.602Z" fill="white"/>
<path d="M117.205 284.266C116.565 284.266 116.021 284.634 115.573 285.37C115.136 286.106 114.842 286.97 114.693 287.962H115.141C115.706 287.962 116.197 287.882 116.613 287.722C117.029 287.562 117.349 287.354 117.573 287.098C118 286.608 118.213 286.053 118.213 285.434C118.213 285.082 118.128 284.8 117.957 284.586C117.797 284.373 117.546 284.266 117.205 284.266ZM119.461 290.746C118.97 291.546 118.432 292.106 117.845 292.426C117.258 292.746 116.576 292.906 115.797 292.906C115.029 292.906 114.357 292.565 113.781 291.882C113.205 291.2 112.917 290.24 112.917 289.002C112.917 287.594 113.296 286.336 114.053 285.226C114.426 284.693 114.912 284.261 115.509 283.93C116.117 283.6 116.784 283.434 117.509 283.434C119.109 283.434 119.909 284.208 119.909 285.754C119.909 286.682 119.546 287.413 118.821 287.946C118.106 288.469 117.274 288.73 116.325 288.73C115.696 288.73 115.13 288.672 114.629 288.554C114.618 288.661 114.613 288.826 114.613 289.05C114.613 290.938 115.173 291.882 116.293 291.882C117.349 291.882 118.208 291.36 118.869 290.314C119.264 290.368 119.461 290.512 119.461 290.746Z" fill="white"/>
<path d="M122.181 291.498C122.17 291.328 122.165 291.056 122.165 290.682C122.165 290.298 122.341 288.677 122.693 285.818C123.056 282.96 123.237 280.997 123.237 279.93C123.237 278.864 123.173 278.17 123.045 277.85C123.642 278.074 124.064 278.405 124.309 278.842C124.554 279.28 124.677 279.808 124.677 280.426C124.677 281.045 124.522 282.645 124.213 285.226C123.904 287.808 123.749 289.888 123.749 291.466C123.749 291.808 123.77 292.288 123.813 292.906C123.226 292.864 122.81 292.725 122.565 292.49C122.362 292.298 122.234 291.968 122.181 291.498Z" fill="white"/>
<path d="M129.138 287.722C129.49 286.517 130.029 285.504 130.754 284.682C131.49 283.85 132.178 283.434 132.818 283.434C133.458 283.434 133.911 283.632 134.178 284.026C134.445 284.41 134.578 284.938 134.578 285.61C134.578 286.272 134.471 287.205 134.258 288.41C134.055 289.616 133.954 290.496 133.954 291.05C133.954 291.594 134.023 291.994 134.162 292.25C134.301 292.496 134.535 292.709 134.866 292.89C134.727 292.901 134.53 292.906 134.274 292.906C133.591 292.906 133.085 292.768 132.754 292.49C132.434 292.202 132.274 291.717 132.274 291.034C132.274 290.64 132.381 289.845 132.594 288.65C132.807 287.445 132.914 286.56 132.914 285.994C132.914 285.29 132.669 284.938 132.178 284.938C131.89 284.938 131.57 285.093 131.218 285.402C130.866 285.701 130.525 286.112 130.194 286.634C129.874 287.146 129.602 287.802 129.378 288.602C129.165 289.392 129.058 290.176 129.058 290.954C129.058 291.722 129.09 292.293 129.154 292.666C128.898 292.688 128.754 292.698 128.722 292.698C128.221 292.698 127.847 292.592 127.602 292.378C127.367 292.165 127.25 291.834 127.25 291.386C127.25 290.928 127.346 290.053 127.538 288.762C128.103 284.794 128.386 281.781 128.386 279.722C128.386 278.794 128.322 278.17 128.194 277.85C128.813 278.074 129.245 278.405 129.49 278.842C129.746 279.28 129.874 279.882 129.874 280.65C129.874 281.184 129.767 282.304 129.554 284.01C129.351 285.717 129.213 286.954 129.138 287.722Z" fill="white"/>
<path d="M143.492 287.418C143.492 286.373 143.358 285.626 143.092 285.178C142.836 284.72 142.462 284.49 141.972 284.49C141.492 284.49 141.006 284.73 140.516 285.21C140.025 285.68 139.636 286.266 139.348 286.97C139.07 287.664 138.932 288.389 138.932 289.146C138.932 289.893 139.076 290.544 139.364 291.098C139.652 291.642 140.089 291.914 140.676 291.914C141.508 291.914 142.185 291.424 142.708 290.442C143.23 289.461 143.492 288.453 143.492 287.418ZM138.852 286.794C139.257 285.642 139.801 284.805 140.484 284.282C141.177 283.749 141.876 283.482 142.58 283.482C143.294 283.482 143.886 283.797 144.356 284.426C144.825 285.045 145.06 285.888 145.06 286.954C145.06 288.128 144.836 289.216 144.388 290.218C143.886 291.328 143.161 292.101 142.212 292.538C141.7 292.784 141.134 292.906 140.516 292.906C139.652 292.906 138.894 292.549 138.244 291.834C137.593 291.109 137.268 290.08 137.268 288.746C137.268 287.402 137.556 286.24 138.132 285.258C138.708 284.277 139.492 283.594 140.484 283.21C140.697 283.21 140.804 283.317 140.804 283.53C139.748 284.224 139.097 285.312 138.852 286.794Z" fill="white"/>
<path d="M149.735 287.466C150.119 286.08 150.577 285.061 151.111 284.41C151.655 283.749 152.156 283.418 152.615 283.418C153.084 283.418 153.436 283.594 153.671 283.946C153.905 284.288 154.023 284.725 154.023 285.258C154.023 285.792 153.884 286.256 153.607 286.65C153.329 287.034 152.924 287.226 152.391 287.226C152.22 287.226 152.087 287.216 151.991 287.194C152.353 286.672 152.535 286.138 152.535 285.594C152.535 285.21 152.38 285.018 152.071 285.018C151.825 285.018 151.564 285.162 151.287 285.45C151.009 285.738 150.743 286.138 150.487 286.65C150.231 287.162 150.017 287.829 149.847 288.65C149.676 289.472 149.591 290.357 149.591 291.306C149.591 291.413 149.617 291.866 149.671 292.666C149.393 292.688 149.233 292.698 149.191 292.698C148.252 292.698 147.783 292.24 147.783 291.322C147.783 291.109 147.895 290.288 148.119 288.858C148.343 287.429 148.455 286.293 148.455 285.45C148.455 284.597 148.364 283.813 148.183 283.098C148.812 283.344 149.249 283.696 149.495 284.154C149.751 284.602 149.879 285.13 149.879 285.738C149.879 286.336 149.831 286.912 149.735 287.466Z" fill="white"/>
<path d="M162.294 289.434C162.294 290.042 162.411 290.538 162.646 290.922C162.881 291.306 163.243 291.498 163.734 291.498C164.235 291.498 164.689 291.28 165.094 290.842C165.51 290.394 165.841 289.797 166.086 289.05C166.342 288.293 166.561 287.493 166.742 286.65C166.934 285.797 167.073 284.89 167.158 283.93C167.318 282.149 167.398 280.736 167.398 279.69C167.398 278.645 167.355 277.866 167.27 277.354C168.369 277.706 168.918 278.81 168.918 280.666C168.918 281.424 168.737 282.949 168.374 285.242C168.022 287.536 167.846 289.21 167.846 290.266C167.846 291.322 167.894 292.218 167.99 292.954C167.382 292.752 166.966 292.389 166.742 291.866C166.518 291.344 166.406 290.677 166.406 289.866C166.075 290.784 165.585 291.509 164.934 292.042C164.283 292.576 163.606 292.842 162.902 292.842C162.209 292.842 161.643 292.576 161.206 292.042C160.779 291.498 160.566 290.704 160.566 289.658C160.566 287.92 161.019 286.49 161.926 285.37C162.843 284.25 163.979 283.69 165.334 283.69C165.718 283.69 166.129 283.749 166.566 283.866C165.841 283.984 165.19 284.25 164.614 284.666C164.038 285.072 163.59 285.552 163.27 286.106C162.619 287.237 162.294 288.346 162.294 289.434Z" fill="white"/>
<path d="M177.194 287.418C177.194 286.373 177.06 285.626 176.794 285.178C176.538 284.72 176.164 284.49 175.674 284.49C175.194 284.49 174.708 284.73 174.218 285.21C173.727 285.68 173.338 286.266 173.05 286.97C172.772 287.664 172.634 288.389 172.634 289.146C172.634 289.893 172.778 290.544 173.066 291.098C173.354 291.642 173.791 291.914 174.378 291.914C175.21 291.914 175.887 291.424 176.41 290.442C176.932 289.461 177.194 288.453 177.194 287.418ZM172.554 286.794C172.959 285.642 173.503 284.805 174.186 284.282C174.879 283.749 175.578 283.482 176.282 283.482C176.996 283.482 177.588 283.797 178.058 284.426C178.527 285.045 178.762 285.888 178.762 286.954C178.762 288.128 178.538 289.216 178.09 290.218C177.588 291.328 176.863 292.101 175.914 292.538C175.402 292.784 174.836 292.906 174.218 292.906C173.354 292.906 172.596 292.549 171.946 291.834C171.295 291.109 170.97 290.08 170.97 288.746C170.97 287.402 171.258 286.24 171.834 285.258C172.41 284.277 173.194 283.594 174.186 283.21C174.399 283.21 174.506 283.317 174.506 283.53C173.45 284.224 172.799 285.312 172.554 286.794Z" fill="white"/>
<path d="M190.078 284.73C190.398 285.018 190.75 285.306 191.134 285.594C191.528 285.872 191.918 286.154 192.302 286.442C192.696 286.73 193.054 287.024 193.374 287.322C194.099 287.994 194.462 288.736 194.462 289.546C194.462 290.549 194.078 291.386 193.31 292.058C192.552 292.73 191.55 293.066 190.302 293.066C189.054 293.066 188.094 292.784 187.422 292.218C186.75 291.653 186.414 290.981 186.414 290.202C186.414 289.626 186.584 289.162 186.926 288.81C187.267 288.448 187.71 288.266 188.254 288.266C188.403 288.266 188.547 288.288 188.686 288.33C188.355 288.832 188.19 289.37 188.19 289.946C188.19 290.512 188.387 290.997 188.782 291.402C189.176 291.808 189.768 292.01 190.558 292.01C191.123 292.01 191.624 291.84 192.062 291.498C192.51 291.146 192.734 290.661 192.734 290.042C192.734 289.637 192.6 289.242 192.334 288.858C192.067 288.464 191.736 288.117 191.342 287.818C190.947 287.52 190.515 287.189 190.046 286.826C189.576 286.453 189.144 286.096 188.75 285.754C188.355 285.413 188.024 284.997 187.758 284.506C187.491 284.016 187.358 283.504 187.358 282.97C187.358 281.957 187.699 281.157 188.382 280.57C189.075 279.973 190.072 279.674 191.374 279.674C192.43 279.674 193.256 279.957 193.854 280.522C194.462 281.077 194.766 281.658 194.766 282.266C194.766 282.864 194.6 283.354 194.27 283.738C193.95 284.122 193.507 284.314 192.942 284.314C192.75 284.314 192.563 284.293 192.382 284.25C192.904 283.696 193.166 283.109 193.166 282.49C193.166 281.872 192.974 281.408 192.59 281.098C192.206 280.778 191.715 280.618 191.118 280.618C190.531 280.618 190.03 280.789 189.614 281.13C189.198 281.472 188.99 281.989 188.99 282.682C188.99 283.376 189.352 284.058 190.078 284.73Z" fill="white"/>
<path d="M203.148 283.402C204.066 283.402 204.524 283.877 204.524 284.826C204.524 284.997 204.423 285.749 204.22 287.082C204.018 288.405 203.916 289.541 203.916 290.49C203.916 291.44 204.018 292.277 204.22 293.002C203.57 292.746 203.116 292.384 202.86 291.914C202.615 291.445 202.492 290.864 202.492 290.17C202.492 289.904 202.551 289.301 202.668 288.362C202.348 289.578 201.852 290.602 201.18 291.434C200.508 292.256 199.884 292.666 199.308 292.666C198.092 292.666 197.484 291.781 197.484 290.01C197.484 289.424 197.57 288.608 197.74 287.562C197.922 286.506 198.012 285.706 198.012 285.162C198.012 284.618 197.938 284.069 197.788 283.514C198.471 283.514 198.983 283.632 199.324 283.866C199.666 284.101 199.836 284.554 199.836 285.226C199.836 285.589 199.724 286.336 199.5 287.466C199.276 288.597 199.164 289.434 199.164 289.978C199.164 290.768 199.41 291.162 199.9 291.162C200.306 291.162 200.727 290.848 201.164 290.218C201.612 289.578 201.986 288.752 202.284 287.738C202.583 286.725 202.732 285.722 202.732 284.73C202.732 284.282 202.7 283.85 202.636 283.434C202.871 283.413 203.042 283.402 203.148 283.402Z" fill="white"/>
<path d="M210.659 284.218C210.307 284.218 209.987 284.33 209.699 284.554C209.422 284.778 209.283 285.088 209.283 285.482C209.283 285.866 209.411 286.229 209.667 286.57C209.934 286.912 210.254 287.216 210.627 287.482C211.001 287.749 211.379 288.021 211.763 288.298C212.659 288.96 213.107 289.669 213.107 290.426C213.107 291.184 212.803 291.802 212.195 292.282C211.587 292.752 210.809 292.986 209.859 292.986C208.921 292.986 208.19 292.8 207.667 292.426C207.155 292.053 206.899 291.616 206.899 291.114C206.899 290.602 207.027 290.202 207.283 289.914C207.539 289.626 207.849 289.482 208.211 289.482C208.403 289.482 208.585 289.525 208.755 289.61C208.521 289.909 208.403 290.261 208.403 290.666C208.403 291.072 208.526 291.413 208.771 291.69C209.027 291.968 209.374 292.106 209.811 292.106C210.259 292.106 210.638 291.994 210.947 291.77C211.257 291.536 211.411 291.242 211.411 290.89C211.411 290.538 211.321 290.229 211.139 289.962C210.958 289.696 210.729 289.466 210.451 289.274C210.185 289.082 209.891 288.869 209.571 288.634C209.251 288.4 208.953 288.17 208.675 287.946C208.409 287.712 208.185 287.424 208.003 287.082C207.822 286.73 207.731 286.346 207.731 285.93C207.731 285.173 208.019 284.554 208.595 284.074C209.171 283.584 209.897 283.338 210.771 283.338C211.646 283.338 212.286 283.52 212.691 283.882C213.097 284.245 213.299 284.656 213.299 285.114C213.299 285.562 213.187 285.936 212.963 286.234C212.739 286.522 212.451 286.666 212.099 286.666C211.929 286.666 211.731 286.618 211.507 286.522C211.785 286.181 211.923 285.813 211.923 285.418C211.923 285.024 211.801 284.725 211.555 284.522C211.321 284.32 211.022 284.218 210.659 284.218Z" fill="white"/>
<path d="M217.651 287.722C218.003 286.517 218.541 285.504 219.267 284.682C220.003 283.85 220.691 283.434 221.331 283.434C221.971 283.434 222.424 283.632 222.691 284.026C222.957 284.41 223.091 284.938 223.091 285.61C223.091 286.272 222.984 287.205 222.771 288.41C222.568 289.616 222.467 290.496 222.467 291.05C222.467 291.594 222.536 291.994 222.675 292.25C222.813 292.496 223.048 292.709 223.379 292.89C223.24 292.901 223.043 292.906 222.787 292.906C222.104 292.906 221.597 292.768 221.267 292.49C220.947 292.202 220.787 291.717 220.787 291.034C220.787 290.64 220.893 289.845 221.107 288.65C221.32 287.445 221.427 286.56 221.427 285.994C221.427 285.29 221.181 284.938 220.691 284.938C220.403 284.938 220.083 285.093 219.731 285.402C219.379 285.701 219.037 286.112 218.707 286.634C218.387 287.146 218.115 287.802 217.891 288.602C217.677 289.392 217.571 290.176 217.571 290.954C217.571 291.722 217.603 292.293 217.667 292.666C217.411 292.688 217.267 292.698 217.235 292.698C216.733 292.698 216.36 292.592 216.115 292.378C215.88 292.165 215.763 291.834 215.763 291.386C215.763 290.928 215.859 290.053 216.051 288.762C216.616 284.794 216.899 281.781 216.899 279.722C216.899 278.794 216.835 278.17 216.707 277.85C217.325 278.074 217.757 278.405 218.003 278.842C218.259 279.28 218.387 279.882 218.387 280.65C218.387 281.184 218.28 282.304 218.067 284.01C217.864 285.717 217.725 286.954 217.651 287.722Z" fill="white"/>
<path d="M228.004 292.906C227.396 292.693 226.969 292.368 226.724 291.93C226.489 291.482 226.372 290.944 226.372 290.314C226.372 289.685 226.457 288.784 226.628 287.61C226.799 286.437 226.884 285.525 226.884 284.874C226.884 284.224 226.852 283.722 226.788 283.37C226.98 283.349 227.135 283.338 227.252 283.338C227.732 283.338 228.079 283.445 228.292 283.658C228.505 283.872 228.612 284.224 228.612 284.714C228.612 284.874 228.479 285.717 228.212 287.242C227.956 288.757 227.823 290.01 227.812 291.002C227.812 291.984 227.876 292.618 228.004 292.906ZM228.244 281.754C227.348 281.754 226.9 281.45 226.9 280.842C226.9 280.629 226.98 280.33 227.14 279.946C227.375 279.904 227.577 279.882 227.748 279.882C228.644 279.882 229.092 280.186 229.092 280.794C229.092 281.008 229.012 281.306 228.852 281.69C228.617 281.733 228.415 281.754 228.244 281.754Z" fill="white"/>
<path d="M232.121 290.33C232.803 290.33 233.145 290.656 233.145 291.306C233.145 291.957 232.921 292.581 232.473 293.178C232.025 293.776 231.374 294.309 230.521 294.778L230.137 294.298C230.926 293.541 231.321 292.677 231.321 291.706C231.321 291.354 231.241 290.954 231.081 290.506C231.433 290.389 231.779 290.33 232.121 290.33Z" fill="white"/>
<path d="M244.794 284.266C244.154 284.266 243.61 284.634 243.162 285.37C242.724 286.106 242.431 286.97 242.282 287.962H242.73C243.295 287.962 243.786 287.882 244.202 287.722C244.618 287.562 244.938 287.354 245.162 287.098C245.588 286.608 245.802 286.053 245.802 285.434C245.802 285.082 245.716 284.8 245.546 284.586C245.386 284.373 245.135 284.266 244.794 284.266ZM247.05 290.746C246.559 291.546 246.02 292.106 245.434 292.426C244.847 292.746 244.164 292.906 243.386 292.906C242.618 292.906 241.946 292.565 241.37 291.882C240.794 291.2 240.506 290.24 240.506 289.002C240.506 287.594 240.884 286.336 241.642 285.226C242.015 284.693 242.5 284.261 243.098 283.93C243.706 283.6 244.372 283.434 245.098 283.434C246.698 283.434 247.498 284.208 247.498 285.754C247.498 286.682 247.135 287.413 246.41 287.946C245.695 288.469 244.863 288.73 243.914 288.73C243.284 288.73 242.719 288.672 242.218 288.554C242.207 288.661 242.202 288.826 242.202 289.05C242.202 290.938 242.762 291.882 243.882 291.882C244.938 291.882 245.796 291.36 246.458 290.314C246.852 290.368 247.05 290.512 247.05 290.746Z" fill="white"/>
<path d="M257.242 286.602C256.964 287.104 256.73 287.744 256.538 288.522C256.346 289.301 256.25 290.037 256.25 290.73C256.25 291.424 256.282 292.069 256.346 292.666C256.068 292.688 255.903 292.698 255.85 292.698C254.922 292.698 254.458 292.245 254.458 291.338C254.458 291.008 254.57 290.186 254.794 288.874C255.028 287.562 255.146 286.581 255.146 285.93C255.146 285.269 254.9 284.938 254.41 284.938C253.802 284.938 253.183 285.525 252.554 286.698C251.924 287.872 251.61 289.296 251.61 290.97C251.61 291.504 251.642 292.069 251.706 292.666C251.428 292.688 251.263 292.698 251.21 292.698C250.282 292.698 249.818 292.245 249.818 291.338C249.818 291.221 249.924 290.426 250.138 288.954C250.362 287.482 250.474 286.32 250.474 285.466C250.474 284.602 250.383 283.813 250.202 283.098C250.842 283.344 251.284 283.696 251.53 284.154C251.786 284.613 251.914 285.178 251.914 285.85C251.914 286.192 251.876 286.624 251.802 287.146C252.164 286.08 252.666 285.194 253.306 284.49C253.946 283.786 254.532 283.434 255.066 283.434C256.26 283.434 256.858 284.357 256.858 286.202C257.252 285.349 257.706 284.677 258.218 284.186C258.74 283.685 259.226 283.434 259.674 283.434C260.324 283.434 260.783 283.632 261.05 284.026C261.316 284.41 261.45 284.938 261.45 285.61C261.45 286.272 261.343 287.205 261.13 288.41C260.927 289.616 260.826 290.496 260.826 291.05C260.826 291.594 260.895 291.994 261.034 292.25C261.172 292.496 261.407 292.709 261.738 292.89C261.599 292.901 261.402 292.906 261.146 292.906C260.463 292.906 259.956 292.768 259.626 292.49C259.306 292.202 259.146 291.717 259.146 291.034C259.146 290.64 259.252 289.845 259.466 288.65C259.679 287.445 259.786 286.56 259.786 285.994C259.786 285.29 259.54 284.938 259.05 284.938C258.772 284.938 258.474 285.088 258.154 285.386C257.834 285.685 257.53 286.09 257.242 286.602Z" fill="white"/>
<path d="M275.075 287.226L273.651 287.21C273.129 287.21 272.729 287.221 272.451 287.242C272.281 288.778 272.195 290.016 272.195 290.954C272.195 291.882 272.227 292.533 272.291 292.906C272.014 292.928 271.865 292.938 271.843 292.938C271.353 292.938 270.985 292.832 270.739 292.618C270.505 292.405 270.387 292.042 270.387 291.53C270.387 291.018 270.542 289.669 270.851 287.482C270.553 287.557 270.297 287.637 270.083 287.722C270.062 287.53 270.051 287.376 270.051 287.258C270.051 286.608 270.382 286.202 271.043 286.042C271.289 284.25 271.422 282.826 271.443 281.77C271.027 281.77 270.745 281.717 270.595 281.61C270.446 281.493 270.371 281.274 270.371 280.954C270.371 280.624 270.414 280.341 270.499 280.106C271.598 280.256 272.793 280.33 274.083 280.33C275.374 280.33 276.606 280.213 277.779 279.978C277.641 280.842 277.038 281.36 275.971 281.53C275.342 281.637 274.387 281.712 273.107 281.754C273.107 282.256 272.942 283.664 272.611 285.978C273.273 286 273.753 286.01 274.051 286.01C274.99 286.01 275.657 285.856 276.051 285.546C276.073 285.717 276.083 285.856 276.083 285.962C276.083 286.805 275.747 287.226 275.075 287.226Z" fill="white"/>
<path d="M282.168 284.266C281.528 284.266 280.984 284.634 280.536 285.37C280.098 286.106 279.805 286.97 279.656 287.962H280.104C280.669 287.962 281.16 287.882 281.576 287.722C281.992 287.562 282.312 287.354 282.536 287.098C282.962 286.608 283.176 286.053 283.176 285.434C283.176 285.082 283.09 284.8 282.92 284.586C282.76 284.373 282.509 284.266 282.168 284.266ZM284.424 290.746C283.933 291.546 283.394 292.106 282.808 292.426C282.221 292.746 281.538 292.906 280.76 292.906C279.992 292.906 279.32 292.565 278.744 291.882C278.168 291.2 277.88 290.24 277.88 289.002C277.88 287.594 278.258 286.336 279.016 285.226C279.389 284.693 279.874 284.261 280.472 283.93C281.08 283.6 281.746 283.434 282.472 283.434C284.072 283.434 284.872 284.208 284.872 285.754C284.872 286.682 284.509 287.413 283.784 287.946C283.069 288.469 282.237 288.73 281.288 288.73C280.658 288.73 280.093 288.672 279.592 288.554C279.581 288.661 279.576 288.826 279.576 289.05C279.576 290.938 280.136 291.882 281.256 291.882C282.312 291.882 283.17 291.36 283.832 290.314C284.226 290.368 284.424 290.512 284.424 290.746Z" fill="white"/>
<path d="M290.359 284.218C290.007 284.218 289.687 284.33 289.399 284.554C289.122 284.778 288.983 285.088 288.983 285.482C288.983 285.866 289.111 286.229 289.367 286.57C289.634 286.912 289.954 287.216 290.327 287.482C290.701 287.749 291.079 288.021 291.463 288.298C292.359 288.96 292.807 289.669 292.807 290.426C292.807 291.184 292.503 291.802 291.895 292.282C291.287 292.752 290.509 292.986 289.559 292.986C288.621 292.986 287.89 292.8 287.367 292.426C286.855 292.053 286.599 291.616 286.599 291.114C286.599 290.602 286.727 290.202 286.983 289.914C287.239 289.626 287.549 289.482 287.911 289.482C288.103 289.482 288.285 289.525 288.455 289.61C288.221 289.909 288.103 290.261 288.103 290.666C288.103 291.072 288.226 291.413 288.471 291.69C288.727 291.968 289.074 292.106 289.511 292.106C289.959 292.106 290.338 291.994 290.647 291.77C290.957 291.536 291.111 291.242 291.111 290.89C291.111 290.538 291.021 290.229 290.839 289.962C290.658 289.696 290.429 289.466 290.151 289.274C289.885 289.082 289.591 288.869 289.271 288.634C288.951 288.4 288.653 288.17 288.375 287.946C288.109 287.712 287.885 287.424 287.703 287.082C287.522 286.73 287.431 286.346 287.431 285.93C287.431 285.173 287.719 284.554 288.295 284.074C288.871 283.584 289.597 283.338 290.471 283.338C291.346 283.338 291.986 283.52 292.391 283.882C292.797 284.245 292.999 284.656 292.999 285.114C292.999 285.562 292.887 285.936 292.663 286.234C292.439 286.522 292.151 286.666 291.799 286.666C291.629 286.666 291.431 286.618 291.207 286.522C291.485 286.181 291.623 285.813 291.623 285.418C291.623 285.024 291.501 284.725 291.255 284.522C291.021 284.32 290.722 284.218 290.359 284.218Z" fill="white"/>
<path d="M300.519 283.898C300.519 284.346 300.433 284.656 300.263 284.826C300.092 284.997 299.841 285.082 299.511 285.082H298.359C298.316 285.36 298.204 286.021 298.023 287.066C297.66 289.05 297.479 290.549 297.479 291.562C297.479 292.576 297.553 293.248 297.703 293.578C297.095 293.354 296.663 293.018 296.407 292.57C296.151 292.112 296.023 291.557 296.023 290.906C296.023 290.256 296.06 289.642 296.135 289.066C296.22 288.48 296.337 287.797 296.487 287.018C296.636 286.24 296.743 285.616 296.807 285.146C296.199 285.232 295.601 285.402 295.015 285.658C294.993 285.488 294.983 285.333 294.983 285.194C294.983 284.682 295.153 284.341 295.495 284.17C295.836 283.989 296.327 283.898 296.967 283.898C297.041 283.109 297.079 282.522 297.079 282.138C297.079 281.744 297.073 281.429 297.063 281.194C297.063 280.96 297.063 280.784 297.063 280.666C297.553 280.741 297.932 280.96 298.199 281.322C298.465 281.674 298.599 282.16 298.599 282.778C298.599 283.098 298.572 283.488 298.519 283.946C299.447 283.946 300.103 283.792 300.487 283.482C300.508 283.632 300.519 283.77 300.519 283.898Z" fill="white"/>
<path d="M303.939 292.906C303.331 292.693 302.904 292.368 302.659 291.93C302.424 291.482 302.307 290.944 302.307 290.314C302.307 289.685 302.392 288.784 302.563 287.61C302.733 286.437 302.819 285.525 302.819 284.874C302.819 284.224 302.787 283.722 302.723 283.37C302.915 283.349 303.069 283.338 303.187 283.338C303.667 283.338 304.013 283.445 304.227 283.658C304.44 283.872 304.547 284.224 304.547 284.714C304.547 284.874 304.413 285.717 304.147 287.242C303.891 288.757 303.757 290.01 303.747 291.002C303.747 291.984 303.811 292.618 303.939 292.906ZM304.179 281.754C303.283 281.754 302.835 281.45 302.835 280.842C302.835 280.629 302.915 280.33 303.075 279.946C303.309 279.904 303.512 279.882 303.683 279.882C304.579 279.882 305.027 280.186 305.027 280.794C305.027 281.008 304.947 281.306 304.787 281.69C304.552 281.733 304.349 281.754 304.179 281.754Z" fill="white"/>
<path d="M310.231 292.666C309.975 292.816 309.687 292.89 309.367 292.89C309.058 292.89 308.887 292.81 308.855 292.65C308.684 291.968 308.487 290.949 308.263 289.594C308.039 288.229 307.81 287.04 307.575 286.026C307.351 285.002 307.079 284.229 306.759 283.706C307.143 283.429 307.522 283.29 307.895 283.29C308.375 283.29 308.716 283.568 308.919 284.122C309.122 284.666 309.314 285.818 309.495 287.578C309.676 289.328 309.836 290.464 309.975 290.986C312.044 286.997 313.079 284.362 313.079 283.082C313.74 283.53 314.071 283.994 314.071 284.474C314.071 284.944 313.847 285.6 313.399 286.442C312.962 287.274 312.407 288.288 311.735 289.482C311.074 290.666 310.572 291.728 310.231 292.666Z" fill="white"/>
<path d="M318.241 286.41C317.932 286.944 317.692 287.493 317.521 288.058C317.361 288.613 317.281 289.146 317.281 289.658C317.281 290.17 317.393 290.608 317.617 290.97C317.852 291.322 318.182 291.498 318.609 291.498C319.206 291.498 319.766 291.173 320.289 290.522C320.812 289.861 321.212 289.066 321.489 288.138C321.777 287.2 321.921 286.336 321.921 285.546C321.921 284.746 321.889 284.09 321.825 283.578C322.081 283.557 322.241 283.546 322.305 283.546C323.212 283.546 323.665 284.01 323.665 284.938C323.665 285.141 323.537 285.968 323.281 287.418C323.025 288.858 322.897 290.016 322.897 290.89C322.897 291.754 323.062 292.522 323.393 293.194C322.721 293.056 322.23 292.762 321.921 292.314C321.622 291.856 321.473 291.2 321.473 290.346C321.473 290.197 321.494 289.909 321.537 289.482C321.249 290.496 320.742 291.312 320.017 291.93C319.292 292.549 318.577 292.858 317.873 292.858C317.18 292.858 316.62 292.597 316.193 292.074C315.766 291.541 315.553 290.81 315.553 289.882C315.553 288.944 315.724 288.032 316.065 287.146C316.417 286.25 316.94 285.477 317.633 284.826C318.337 284.176 319.121 283.85 319.985 283.85C320.358 283.85 320.769 283.925 321.217 284.074C320.588 284.234 320.012 284.528 319.489 284.954C318.966 285.381 318.55 285.866 318.241 286.41Z" fill="white"/>
<path d="M326.493 291.498C326.483 291.328 326.477 291.056 326.477 290.682C326.477 290.298 326.653 288.677 327.005 285.818C327.368 282.96 327.549 280.997 327.549 279.93C327.549 278.864 327.485 278.17 327.357 277.85C327.955 278.074 328.376 278.405 328.621 278.842C328.867 279.28 328.989 279.808 328.989 280.426C328.989 281.045 328.835 282.645 328.525 285.226C328.216 287.808 328.061 289.888 328.061 291.466C328.061 291.808 328.083 292.288 328.125 292.906C327.539 292.864 327.123 292.725 326.877 292.49C326.675 292.298 326.547 291.968 326.493 291.498Z" fill="white"/>
<path d="M334.683 281.418C334.683 281.749 334.592 282.272 334.411 282.986C333.835 285.173 333.547 286.869 333.547 288.074C333.547 288.608 333.589 288.976 333.675 289.178C333.152 288.986 332.779 288.704 332.555 288.33C332.331 287.957 332.219 287.456 332.219 286.826C332.219 286.186 332.352 285.2 332.619 283.866C332.885 282.533 333.019 281.584 333.019 281.018C333.019 280.442 333.003 280.069 332.971 279.898C333.323 279.898 333.696 280.032 334.091 280.298C334.485 280.554 334.683 280.928 334.683 281.418ZM331.771 290.97C332.059 290.864 332.341 290.81 332.619 290.81C332.896 290.81 333.131 290.874 333.323 291.002C333.515 291.13 333.611 291.306 333.611 291.53C333.611 291.744 333.515 292.128 333.323 292.682C333.035 292.789 332.752 292.842 332.475 292.842C332.197 292.842 331.963 292.778 331.771 292.65C331.579 292.522 331.483 292.352 331.483 292.138C331.483 291.914 331.579 291.525 331.771 290.97Z" fill="white"/>
</g>
<g id="Sushi Fest">
<path d="M43.962 266.361C42.546 266.361 41.012 265.771 39.36 264.591C37.7867 263.411 37 262.034 37 260.461C37 259.281 37.236 258.14 37.708 257.039C38.18 255.859 38.6913 254.758 39.242 253.735V253.381C39.8713 252.437 40.658 251.65 41.602 251.021C41.838 250.628 42.074 250.156 42.31 249.605C42.6247 248.976 43.018 248.622 43.49 248.543L44.08 248.897C43.2147 249.998 42.3887 251.257 41.602 252.673L40.186 259.989C40.658 260.697 41.4053 261.051 42.428 261.051C43.844 261.051 45.5747 260.776 47.62 260.225C49.6653 259.753 51.7107 259.202 53.756 258.573C55.8013 257.944 57.532 257.393 58.948 256.921V256.803C59.3413 256.803 59.7347 256.764 60.128 256.685C60.6 256.528 60.9147 256.213 61.072 255.741L60.954 255.387L61.898 255.505C62.37 255.269 62.842 255.033 63.314 254.797C63.786 254.561 64.2973 254.404 64.848 254.325C65.1627 254.01 65.9887 253.342 67.326 252.319C68.6633 251.218 70.158 250.077 71.81 248.897C73.462 247.638 74.9567 246.537 76.294 245.593C77.6313 244.649 78.4573 244.098 78.772 243.941L79.598 242.643L80.542 242.171V240.991C80.6993 239.811 80.1487 238.906 78.89 238.277C77.6313 237.569 75.9793 236.979 73.934 236.507C71.8887 236.035 69.686 235.563 67.326 235.091C65.0447 234.619 62.842 233.99 60.718 233.203C58.6727 232.338 56.9813 231.236 55.644 229.899C54.3853 228.562 53.756 226.792 53.756 224.589L53.166 224.943L52.93 224.589C52.93 222.937 53.874 221.167 55.762 219.279C57.7287 217.391 60.2067 215.542 63.196 213.733C66.1853 211.845 69.2927 210.114 72.518 208.541C75.822 206.889 78.8507 205.512 81.604 204.411C84.436 203.231 86.5993 202.405 88.094 201.933C89.4313 202.09 90.6507 202.405 91.752 202.877C92.932 203.27 93.6793 204.254 93.994 205.827C94.8593 205.512 95.292 204.844 95.292 203.821C95.292 203.27 95.2527 202.759 95.174 202.287C95.0953 201.736 94.938 201.264 94.702 200.871L95.174 200.635C95.5673 200.635 96.2753 200.792 97.298 201.107C98.3993 201.343 99.5793 201.658 100.838 202.051C102.097 202.444 103.198 202.838 104.142 203.231C105.165 203.624 105.755 203.978 105.912 204.293L105.44 206.063L103.316 206.889L102.49 206.535C101.703 206.85 101.349 207.518 101.428 208.541C101.507 209.564 101.271 210.154 100.72 210.311L99.658 209.839V209.957L100.484 211.609L100.248 211.963L100.602 212.553L100.248 212.671L99.422 212.317C99.1073 212.946 98.8713 213.851 98.714 215.031C98.5567 216.132 98.0453 216.722 97.18 216.801C96.3147 217.588 95.3707 218.61 94.348 219.869C93.3253 221.049 92.1453 221.718 90.808 221.875V221.639L91.162 219.279L90.808 218.689C91.044 217.352 91.3587 215.936 91.752 214.441C92.1453 212.946 92.578 211.648 93.05 210.547C92.4207 209.603 91.6733 208.738 90.808 207.951C90.0213 207.164 89.038 206.771 87.858 206.771C86.442 206.771 84.4753 207.204 81.958 208.069C79.4407 208.856 76.6873 209.957 73.698 211.373C70.7873 212.71 68.034 214.244 65.438 215.975C62.842 217.706 60.7573 219.476 59.184 221.285C57.6107 223.094 56.942 224.825 57.178 226.477C56.8633 226.241 56.6667 225.926 56.588 225.533C56.5093 225.14 56.47 224.746 56.47 224.353C56.47 223.96 56.47 223.566 56.47 223.173C56.5487 222.78 56.6273 222.426 56.706 222.111C56.1553 222.898 55.88 223.802 55.88 224.825C55.88 226.713 56.6667 228.168 58.24 229.191C59.8133 230.214 61.8587 231 64.376 231.551C66.8933 232.102 69.568 232.613 72.4 233.085C75.232 233.478 77.9067 233.95 80.424 234.501C82.9413 235.052 84.9867 235.878 86.56 236.979C88.1333 238.002 88.92 239.457 88.92 241.345C88.92 242.368 88.684 243.312 88.212 244.177C87.74 244.964 87.3073 245.79 86.914 246.655C86.0487 246.97 85.498 247.402 85.262 247.953C85.026 248.504 84.672 249.133 84.2 249.841C83.5707 249.998 82.7447 250.549 81.722 251.493C80.778 252.358 80.07 252.752 79.598 252.673C79.2833 252.83 78.9293 253.066 78.536 253.381C78.2213 253.617 77.9853 253.932 77.828 254.325L77.474 254.089C76.6087 255.269 75.1533 256.449 73.108 257.629C71.0627 258.809 68.6633 259.91 65.91 260.933C63.2353 261.956 60.482 262.86 57.65 263.647C54.8967 264.512 52.3007 265.181 49.862 265.653C47.4233 266.125 45.4567 266.361 43.962 266.361ZM89.51 223.999L90.1 222.229L90.69 222.701L89.51 223.999ZM82.43 238.749L82.666 238.159L82.312 237.687L81.604 238.041L82.43 238.749ZM87.622 243.115V242.879L86.914 241.817L86.796 242.407V242.879L87.622 243.115ZM85.38 245.121L86.206 244.649L86.324 243.587L86.206 242.525C85.4193 243.312 84.9867 244.138 84.908 245.003L85.38 245.121ZM85.498 246.773L86.678 245.475V245.357L84.79 245.947L85.026 246.655L85.498 246.773ZM82.194 248.897L83.492 248.779L84.436 246.891L83.02 248.189L82.548 247.717L82.194 248.779V248.897Z" fill="white"/>
<path d="M119.607 265.771L117.837 262.939C117.759 262.467 117.601 261.995 117.365 261.523C117.208 261.051 117.129 260.54 117.129 259.989C117.129 259.202 117.169 258.494 117.247 257.865C117.326 257.157 117.405 256.41 117.483 255.623L118.309 253.735L118.191 253.499C118.349 253.184 118.467 252.87 118.545 252.555C118.703 252.162 118.821 251.808 118.899 251.493L118.427 251.139C117.877 251.139 117.09 251.69 116.067 252.791C115.123 253.814 114.022 254.836 112.763 255.859C111.583 256.882 110.207 257.393 108.633 257.393C107.611 257.393 106.667 257.078 105.801 256.449C104.936 255.82 104.543 254.876 104.621 253.617L104.503 253.381C105.369 251.808 106.116 250.195 106.745 248.543C107.375 246.891 108.043 245.278 108.751 243.705L108.043 242.407L107.689 242.525L107.099 242.289L105.919 243.469L104.267 243.823L104.503 244.413H104.267L103.087 244.767L102.851 245.239H102.143L102.025 245.947C101.632 246.34 101.199 246.773 100.727 247.245C100.255 247.717 99.7047 247.992 99.0754 248.071L91.9954 254.797L91.8774 254.443C91.8774 253.892 92.074 253.46 92.4674 253.145C92.8607 252.752 93.2147 252.398 93.5294 252.083L93.6474 251.847L94.0014 251.611L94.1194 251.729L94.4734 250.903H94.3554C94.5127 250.746 94.67 250.549 94.8274 250.313C95.0634 249.998 95.3387 249.841 95.6534 249.841H95.8894C95.8894 249.841 95.8894 249.762 95.8894 249.605C96.3614 248.897 96.9907 248.268 97.7774 247.717H98.1314L98.4854 247.363L98.3674 247.127L99.5474 246.655C99.4687 245.868 100.098 245.003 101.435 244.059C102.773 243.115 104.228 242.289 105.801 241.581C107.375 240.794 108.476 240.401 109.105 240.401C109.971 240.401 110.993 240.637 112.173 241.109C113.353 241.502 113.943 242.25 113.943 243.351C113.943 245.554 113.55 247.324 112.763 248.661C111.977 249.998 111.544 250.864 111.465 251.257L111.819 251.493C112.763 251.493 113.511 251.218 114.061 250.667C114.612 250.038 115.163 249.408 115.713 248.779C116.343 248.15 117.09 247.796 117.955 247.717C117.877 247.638 117.916 247.599 118.073 247.599C118.231 247.52 118.309 247.56 118.309 247.717C118.624 247.166 119.332 246.301 120.433 245.121C121.535 243.862 122.675 242.682 123.855 241.581C125.035 240.48 125.861 239.929 126.333 239.929C127.199 239.929 128.182 240.244 129.283 240.873C130.385 241.502 130.935 242.289 130.935 243.233C130.935 243.626 130.621 244.374 129.991 245.475C129.441 246.498 128.772 247.599 127.985 248.779C127.199 249.959 126.412 251.021 125.625 251.965C124.917 252.83 124.367 253.342 123.973 253.499C123.265 254.758 122.282 256.213 121.023 257.865C119.843 259.438 119.253 261.012 119.253 262.585C119.253 263.136 119.332 263.647 119.489 264.119C119.647 264.591 119.725 265.063 119.725 265.535L119.607 265.771Z" fill="white"/>
<path d="M133.689 265.771C133.217 265.063 132.981 264.355 132.981 263.647C132.981 263.096 133.099 262.585 133.335 262.113C133.492 261.641 133.689 261.208 133.925 260.815H134.043L133.925 260.697C134.476 259.91 135.341 258.888 136.521 257.629C137.78 256.37 139.117 255.23 140.533 254.207C141.949 253.184 143.09 252.634 143.955 252.555L144.663 252.083C145.056 251.454 145.646 250.864 146.433 250.313C147.298 249.684 148.046 249.172 148.675 248.779L149.383 248.897L149.265 248.425L149.619 248.189L149.265 247.009C148.478 246.694 147.456 246.301 146.197 245.829C145.017 245.357 143.916 244.767 142.893 244.059C141.949 243.272 141.477 242.368 141.477 241.345C141.477 240.558 142.185 239.457 143.601 238.041C145.017 236.625 146.708 235.209 148.675 233.793C150.72 232.298 152.648 231.04 154.457 230.017C156.345 228.994 157.682 228.483 158.469 228.483C159.492 228.09 160.239 227.46 160.711 226.595C161.183 225.73 161.616 224.943 162.009 224.235C162.481 223.448 163.11 223.055 163.897 223.055C164.92 223.055 165.785 223.566 166.493 224.589C167.28 225.612 167.83 226.516 168.145 227.303C168.066 227.618 167.83 227.893 167.437 228.129C167.122 228.365 166.886 228.68 166.729 229.073C165.785 229.86 164.998 230.843 164.369 232.023C163.818 233.124 163.268 234.226 162.717 235.327L160.593 236.507L160.239 236.035H160.121C159.806 236.428 159.492 236.782 159.177 237.097C158.862 237.412 158.626 237.766 158.469 238.159C158.154 238.474 157.84 238.946 157.525 239.575C157.289 240.126 156.935 240.44 156.463 240.519L156.345 240.283C156.738 239.024 157.132 237.766 157.525 236.507C157.918 235.17 158.351 233.872 158.823 232.613L159.059 232.495L159.295 230.725C158.508 230.725 157.761 230.922 157.053 231.315C156.345 231.708 155.558 231.866 154.693 231.787C154.378 232.023 153.828 232.495 153.041 233.203C152.333 233.911 151.625 234.54 150.917 235.091C150.209 235.642 149.658 235.956 149.265 236.035C148.793 236.9 148.085 237.726 147.141 238.513C146.276 239.3 145.843 240.244 145.843 241.345C145.843 241.817 146.079 242.132 146.551 242.289C147.023 242.368 147.456 242.407 147.849 242.407V243.115L148.085 242.997L149.973 243.469L150.327 243.115C151.35 243.351 152.608 243.744 154.103 244.295C155.676 244.767 157.053 245.436 158.233 246.301C159.492 247.166 160.121 248.307 160.121 249.723C160.121 250.274 160.003 250.824 159.767 251.375C159.531 251.926 159.216 252.476 158.823 253.027L156.935 254.915L153.985 254.679C153.434 255.072 152.49 255.426 151.153 255.741C149.816 255.977 148.557 256.213 147.377 256.449C146.276 256.685 145.725 256.96 145.725 257.275L144.663 256.331C144.27 257.039 143.68 257.393 142.893 257.393C142.106 257.393 141.32 257.393 140.533 257.393C139.825 257.393 138.999 257.826 138.055 258.691C137.19 259.556 136.403 260.5 135.695 261.523C134.987 262.624 134.554 263.529 134.397 264.237L133.689 265.771Z" fill="white"/>
<path d="M170.262 261.641C169.239 261.641 168.57 261.13 168.256 260.107C168.02 259.163 167.902 258.298 167.902 257.511C167.902 256.96 168.02 255.898 168.256 254.325C168.57 252.752 168.964 251.257 169.436 249.841C169.908 248.346 170.419 247.599 170.97 247.599C171.048 246.734 171.363 245.632 171.914 244.295C172.464 242.958 173.172 242.171 174.038 241.935V241.817C174.195 241.581 174.392 241.345 174.628 241.109C174.864 240.873 175.1 240.637 175.336 240.401L175.454 240.165V240.283L175.572 238.631C175.965 238.395 176.28 238.002 176.516 237.451C176.752 236.822 177.066 236.35 177.46 236.035L177.814 236.389C178.364 235.76 178.954 235.13 179.584 234.501C180.292 233.793 180.646 232.967 180.646 232.023C181.039 231.394 181.472 230.843 181.944 230.371C182.494 229.82 183.006 229.27 183.478 228.719H183.832C184.225 228.326 184.658 228.129 185.13 228.129L185.602 227.539V226.241L186.074 225.887C186.467 225.336 186.978 224.55 187.608 223.527C188.237 222.504 188.552 221.718 188.552 221.167C188.552 220.931 188.355 220.813 187.962 220.813C187.647 220.813 187.293 220.892 186.9 221.049C186.506 221.128 186.231 221.167 186.074 221.167V220.577L192.092 215.503V215.385C193.114 214.677 194.098 213.93 195.042 213.143C195.986 212.278 196.969 211.53 197.992 210.901C198.857 211.058 199.801 211.334 200.824 211.727C201.846 212.042 202.554 212.632 202.948 213.497V215.031C202.397 215.582 201.453 216.565 200.116 217.981C198.778 219.397 197.244 221.01 195.514 222.819C193.783 224.55 192.052 226.28 190.322 228.011C188.591 229.663 187.057 231.04 185.72 232.141C184.461 233.242 183.596 233.832 183.124 233.911L181.708 235.209L182.298 236.271L181.708 237.451C181.078 237.608 180.41 238.12 179.702 238.985C179.072 239.772 178.758 240.519 178.758 241.227C178.05 241.542 177.578 241.896 177.342 242.289C177.184 242.682 176.948 243.076 176.634 243.469C176.398 243.862 175.729 244.256 174.628 244.649L174.274 245.239V247.835L174.746 248.189L174.156 247.953L173.684 248.897H173.448C173.212 249.684 173.094 250.51 173.094 251.375L173.684 252.791C173.998 252.398 174.628 251.808 175.572 251.021C176.516 250.156 176.948 249.526 176.87 249.133L177.814 248.189C178.05 247.402 178.6 246.419 179.466 245.239C180.41 243.98 181.432 242.84 182.534 241.817C183.635 240.794 184.579 240.283 185.366 240.283V240.165L187.136 240.283C188.237 240.834 188.906 241.778 189.142 243.115C189.378 244.452 189.732 246.026 190.204 247.835C190.754 249.566 191.934 251.375 193.744 253.263L195.632 252.083H195.986C196.3 251.69 196.772 251.336 197.402 251.021C198.11 250.706 198.7 250.431 199.172 250.195L199.29 250.313C199.29 250.706 198.7 251.375 197.52 252.319C196.418 253.263 195.238 254.128 193.98 254.915C192.721 255.702 191.816 256.174 191.266 256.331L190.912 256.095L189.732 256.331L189.378 255.741C187.411 255.505 185.995 254.994 185.13 254.207C184.264 253.342 183.674 252.398 183.36 251.375C183.124 250.352 182.927 249.408 182.77 248.543C182.612 247.678 182.18 247.127 181.472 246.891C180.921 247.442 180.41 247.992 179.938 248.543C179.466 249.094 178.994 249.684 178.522 250.313C177.814 250.628 177.106 251.375 176.398 252.555C175.768 253.735 175.139 255.033 174.51 256.449C173.959 257.865 173.33 259.084 172.622 260.107C171.914 261.13 171.127 261.641 170.262 261.641ZM184.422 222.229L184.304 221.875L184.658 221.049L185.366 221.167L185.602 221.993L184.422 222.229Z" fill="white"/>
<path d="M219.001 229.309C218.765 229.309 218.136 229.23 217.113 229.073C216.169 228.837 215.697 228.562 215.697 228.247C215.697 227.067 216.287 226.202 217.467 225.651C218.726 225.1 219.749 224.55 220.535 223.999H220.771C221.873 223.134 223.171 222.544 224.665 222.229C226.239 221.914 227.694 221.718 229.031 221.639L228.913 221.757C227.419 222.229 226.081 223.094 224.901 224.353C223.721 225.533 222.62 226.674 221.597 227.775C220.653 228.798 219.788 229.309 219.001 229.309ZM203.779 262.113L201.891 259.399C201.812 258.848 201.695 258.337 201.537 257.865C201.38 257.314 201.301 256.764 201.301 256.213C201.301 255.505 201.34 254.797 201.419 254.089C201.498 253.381 201.577 252.673 201.655 251.965L202.481 249.959L202.363 249.841C202.757 248.897 203.15 247.678 203.543 246.183C203.937 244.688 204.409 243.194 204.959 241.699C205.589 240.126 206.336 238.828 207.201 237.805C208.066 236.704 209.129 236.153 210.387 236.153C211.253 236.153 212.236 236.468 213.337 237.097C214.439 237.726 214.989 238.552 214.989 239.575C214.989 239.968 214.675 240.676 214.045 241.699C213.495 242.722 212.826 243.862 212.039 245.121C211.253 246.301 210.466 247.363 209.679 248.307C208.971 249.172 208.46 249.684 208.145 249.841C207.437 251.1 206.454 252.555 205.195 254.207C203.937 255.859 203.307 257.393 203.307 258.809C203.307 259.36 203.386 259.871 203.543 260.343C203.779 260.815 203.897 261.326 203.897 261.877L203.779 262.113Z" fill="white"/>
<path d="M249.461 266.951C247.966 266.4 246.393 265.692 244.741 264.827C243.089 264.04 241.673 262.978 240.493 261.641C239.391 260.304 238.841 258.691 238.841 256.803C238.841 255.938 238.959 255.072 239.195 254.207C239.431 253.263 239.903 252.516 240.611 251.965C240.689 252.28 240.689 252.594 240.611 252.909C240.611 253.224 240.611 253.578 240.611 253.971C240.611 256.488 241.516 258.337 243.325 259.517C245.134 260.697 247.14 261.287 249.343 261.287C251.86 261.287 254.181 260.658 256.305 259.399C258.508 258.14 260.356 256.646 261.851 254.915V254.089H261.969L262.677 253.145C263.07 252.988 263.424 252.791 263.739 252.555C264.053 252.319 264.329 252.083 264.565 251.847V250.903C265.666 250.352 266.65 249.448 267.515 248.189C268.459 246.852 269.245 245.672 269.875 244.649C270.504 244.649 270.937 244.295 271.173 243.587C271.409 242.8 271.566 242.171 271.645 241.699L271.763 241.581L271.645 241.345C269.993 241.345 268.301 241.542 266.571 241.935C264.919 242.25 263.228 242.486 261.497 242.643C260.002 243.902 258.311 244.531 256.423 244.531C255.557 244.531 254.653 244.295 253.709 243.823C252.765 243.351 252.293 242.604 252.293 241.581C252.293 241.03 252.49 240.362 252.883 239.575C253.355 238.788 253.906 238.08 254.535 237.451C255.243 236.743 255.872 236.389 256.423 236.389L256.659 237.097H258.547C259.412 237.097 260.238 237.058 261.025 236.979C261.89 236.9 262.716 236.861 263.503 236.861L264.565 236.271L265.627 236.861C266.02 236.546 266.807 236.389 267.987 236.389C269.088 236.389 270.307 236.468 271.645 236.625C273.061 236.782 274.123 236.822 274.831 236.743C275.46 235.406 276.129 234.147 276.837 232.967C277.545 231.708 278.135 230.45 278.607 229.191L279.433 228.483C280.141 225.808 281.006 223.212 282.029 220.695C283.052 218.099 283.996 215.503 284.861 212.907H280.731C279.866 212.907 278.961 212.946 278.017 213.025C277.152 213.104 276.326 213.34 275.539 213.733L274.123 213.615C273.021 213.458 271.92 213.576 270.819 213.969C269.796 214.362 268.813 214.795 267.869 215.267L267.397 215.149L267.043 215.503C262.874 216.211 258.861 217.824 255.007 220.341C251.231 222.858 248.045 225.769 245.449 229.073L246.629 229.781L248.753 229.545L249.107 229.899C248.714 230.292 248.242 230.607 247.691 230.843C247.14 231.079 246.59 231.276 246.039 231.433L245.095 230.607L244.151 230.961C243.915 230.489 243.797 230.056 243.797 229.663C243.797 228.247 244.466 226.674 245.803 224.943C247.219 223.212 248.399 221.836 249.343 220.813V220.105C250.995 218.768 253.079 217.43 255.597 216.093C258.193 214.677 260.986 213.418 263.975 212.317C266.964 211.216 269.954 210.35 272.943 209.721C275.932 209.013 278.646 208.659 281.085 208.659C281.635 208.659 282.147 208.698 282.619 208.777C283.091 208.777 283.563 208.816 284.035 208.895C284.35 208.659 284.704 208.502 285.097 208.423C285.49 208.344 285.844 208.266 286.159 208.187L285.569 208.069C286.198 207.046 286.513 205.984 286.513 204.883C286.67 204.804 286.827 204.726 286.985 204.647C287.221 204.568 287.417 204.529 287.575 204.529C288.44 204.529 289.581 204.608 290.997 204.765C292.492 204.922 293.79 205.316 294.891 205.945C296.071 206.496 296.582 207.44 296.425 208.777C297.762 208.62 299.099 208.541 300.437 208.541C301.774 208.462 303.112 208.423 304.449 208.423C306.809 208.423 309.169 208.58 311.529 208.895C313.967 209.21 316.249 210.036 318.373 211.373L318.019 211.845C318.255 212.632 318.727 213.143 319.435 213.379L319.789 214.323L318.963 214.913L319.435 216.211C318.884 217.706 318.333 218.689 317.783 219.161C317.232 219.633 316.131 219.948 314.479 220.105L313.535 219.515L309.523 221.285L309.405 221.167L309.877 220.105V219.987C309.405 220.38 308.893 220.734 308.343 221.049C307.792 221.364 307.202 221.56 306.573 221.639L306.219 221.403L306.573 221.049C308.068 220.577 309.326 219.83 310.349 218.807C311.372 217.784 312.276 216.644 313.063 215.385L312.827 213.497L309.641 211.963L309.523 211.609C308.5 211.294 307.438 211.137 306.337 211.137C305.236 211.058 304.134 211.019 303.033 211.019C301.932 211.019 300.83 211.137 299.729 211.373C298.706 211.609 297.644 211.766 296.543 211.845L297.015 212.789C296.936 213.104 296.779 213.654 296.543 214.441C296.307 215.228 295.992 215.66 295.599 215.739L294.183 214.795L294.065 214.913C293.986 215.936 293.711 216.958 293.239 217.981C292.767 218.925 292.216 219.79 291.587 220.577C290.25 220.656 289.581 221.403 289.581 222.819L290.289 223.291L290.761 222.583L291.233 222.465L291.469 222.819C290.918 223.684 290.328 224.314 289.699 224.707C289.07 224.707 288.519 224.943 288.047 225.415C287.654 225.887 287.142 226.162 286.513 226.241C285.883 226.556 285.451 226.988 285.215 227.539C285.058 228.09 284.546 228.601 283.681 229.073L283.799 229.309C283.484 229.624 282.973 230.253 282.265 231.197C281.635 232.062 281.046 232.967 280.495 233.911C279.944 234.776 279.63 235.445 279.551 235.917H279.787L280.141 236.625C280.928 236.389 281.675 236.271 282.383 236.271C283.091 236.192 283.838 236.153 284.625 236.153C285.411 236.153 286.159 236.153 286.867 236.153C287.575 236.153 288.283 236.114 288.991 236.035C296.858 234.698 304.567 233.636 312.119 232.849L312.709 232.613L312.945 232.849C312.709 233.478 311.686 234.068 309.877 234.619C308.146 235.17 306.022 235.681 303.505 236.153C300.988 236.546 298.431 236.9 295.835 237.215C293.239 237.53 290.879 237.766 288.755 237.923C286.71 238.08 285.254 238.159 284.389 238.159C284.389 238.474 283.76 238.828 282.501 239.221C281.242 239.614 279.905 240.047 278.489 240.519C277.152 240.912 276.208 241.463 275.657 242.171V243.705L275.067 243.469C274.438 243.548 274.005 243.862 273.769 244.413C273.533 244.885 273.376 245.436 273.297 246.065C272.51 246.537 271.763 247.127 271.055 247.835C270.347 248.464 269.6 249.094 268.813 249.723L268.931 251.021H268.459C268.301 251.572 267.829 252.122 267.043 252.673C266.335 253.145 265.745 253.578 265.273 253.971L264.683 255.033L265.273 255.505L264.447 255.977C263.739 257 262.598 258.298 261.025 259.871C259.53 261.444 258.232 262.467 257.131 262.939C256.187 264.119 255.046 264.984 253.709 265.535C252.371 266.086 250.955 266.558 249.461 266.951ZM285.333 222.111H286.631L286.749 221.521L286.631 221.049C286.238 221.128 285.805 221.482 285.333 222.111ZM288.283 221.875L288.637 221.403L288.401 221.167H288.165L287.929 221.521L288.283 221.875ZM285.569 223.999L285.451 223.409L284.979 223.763L285.569 223.999ZM285.923 226.123L286.277 226.005L286.395 225.415L286.041 225.297L285.805 226.005L285.923 226.123ZM250.405 229.191L250.641 228.483L250.995 228.601L251.113 229.073L250.995 229.191H250.405Z" fill="white"/>
<path d="M315.283 259.635C314.575 259.635 313.709 259.163 312.687 258.219C311.743 257.275 310.956 256.567 310.327 256.095C310.169 255.072 309.894 254.168 309.501 253.381C309.107 252.516 308.911 251.611 308.911 250.667C308.911 249.251 309.422 247.599 310.445 245.711C311.546 243.744 312.923 241.817 314.575 239.929C316.305 238.041 318.036 236.468 319.767 235.209C321.576 233.95 323.189 233.321 324.605 233.321V233.085C325.706 233.321 326.729 234.029 327.673 235.209C328.695 236.389 329.207 237.49 329.207 238.513C329.207 239.457 328.617 240.44 327.437 241.463C326.335 242.407 324.959 243.312 323.307 244.177C321.733 244.964 320.16 245.593 318.587 246.065C317.092 246.537 315.912 246.773 315.047 246.773V247.009C314.496 247.874 313.945 248.976 313.395 250.313C312.923 251.572 312.687 252.752 312.687 253.853C312.687 254.246 312.805 254.679 313.041 255.151C313.591 255.544 314.299 255.741 315.165 255.741C316.03 255.662 316.738 255.662 317.289 255.741L317.407 255.859L317.761 255.269C318.783 255.19 319.767 254.954 320.711 254.561V253.853H321.419V253.499L321.891 253.617C322.284 253.46 322.559 253.302 322.717 253.145C322.953 252.909 323.228 252.712 323.543 252.555L324.251 252.909V252.791L326.375 250.785H326.493L326.847 251.021V250.903C327.869 249.959 328.971 249.094 330.151 248.307C331.331 247.52 332.196 246.498 332.747 245.239L334.045 244.295L334.281 244.531C334.281 245.082 334.084 245.593 333.691 246.065C333.297 246.537 332.825 246.852 332.275 247.009C331.645 248.504 330.701 249.762 329.443 250.785C328.263 251.808 327.043 252.87 325.785 253.971H325.431L325.313 254.561C323.818 255.584 322.245 256.685 320.593 257.865C319.019 259.045 317.249 259.635 315.283 259.635ZM317.525 244.531H317.761V244.295C318.311 244.138 319.255 243.666 320.593 242.879C322.009 242.092 323.346 241.266 324.605 240.401C325.863 239.457 326.532 238.788 326.611 238.395H326.729L326.611 237.805L326.729 237.215C326.65 237.215 326.493 237.215 326.257 237.215C326.021 237.136 325.824 237.097 325.667 237.097C324.644 237.805 323.621 238.474 322.599 239.103C321.576 239.732 320.553 240.362 319.531 240.991H319.295L319.177 241.935C318.705 242.25 318.351 242.643 318.115 243.115C317.879 243.508 317.682 243.98 317.525 244.531ZM335.461 244.177L334.753 243.941L334.635 243.233L335.815 242.879L335.933 243.233L335.461 244.177Z" fill="white"/>
<path d="M331.058 265.771C330.586 265.063 330.35 264.355 330.35 263.647C330.35 263.096 330.468 262.585 330.704 262.113C330.861 261.641 331.058 261.208 331.294 260.815H331.412L331.294 260.697C331.845 259.91 332.71 258.888 333.89 257.629C335.149 256.37 336.486 255.23 337.902 254.207C339.318 253.184 340.459 252.634 341.324 252.555L342.032 252.083C342.425 251.454 343.015 250.864 343.802 250.313C344.667 249.684 345.415 249.172 346.044 248.779L346.752 248.897L346.634 248.425L346.988 248.189L346.634 247.009C345.847 246.694 344.825 246.301 343.566 245.829C342.386 245.357 341.285 244.767 340.262 244.059C339.318 243.272 338.846 242.368 338.846 241.345C338.846 240.558 339.554 239.457 340.97 238.041C342.386 236.625 344.077 235.209 346.044 233.793C348.089 232.298 350.017 231.04 351.826 230.017C353.714 228.994 355.051 228.483 355.838 228.483C356.861 228.09 357.608 227.46 358.08 226.595C358.552 225.73 358.985 224.943 359.378 224.235C359.85 223.448 360.479 223.055 361.266 223.055C362.289 223.055 363.154 223.566 363.862 224.589C364.649 225.612 365.199 226.516 365.514 227.303C365.435 227.618 365.199 227.893 364.806 228.129C364.491 228.365 364.255 228.68 364.098 229.073C363.154 229.86 362.367 230.843 361.738 232.023C361.187 233.124 360.637 234.226 360.086 235.327L357.962 236.507L357.608 236.035H357.49C357.175 236.428 356.861 236.782 356.546 237.097C356.231 237.412 355.995 237.766 355.838 238.159C355.523 238.474 355.209 238.946 354.894 239.575C354.658 240.126 354.304 240.44 353.832 240.519L353.714 240.283C354.107 239.024 354.501 237.766 354.894 236.507C355.287 235.17 355.72 233.872 356.192 232.613L356.428 232.495L356.664 230.725C355.877 230.725 355.13 230.922 354.422 231.315C353.714 231.708 352.927 231.866 352.062 231.787C351.747 232.023 351.197 232.495 350.41 233.203C349.702 233.911 348.994 234.54 348.286 235.091C347.578 235.642 347.027 235.956 346.634 236.035C346.162 236.9 345.454 237.726 344.51 238.513C343.645 239.3 343.212 240.244 343.212 241.345C343.212 241.817 343.448 242.132 343.92 242.289C344.392 242.368 344.825 242.407 345.218 242.407V243.115L345.454 242.997L347.342 243.469L347.696 243.115C348.719 243.351 349.977 243.744 351.472 244.295C353.045 244.767 354.422 245.436 355.602 246.301C356.861 247.166 357.49 248.307 357.49 249.723C357.49 250.274 357.372 250.824 357.136 251.375C356.9 251.926 356.585 252.476 356.192 253.027L354.304 254.915L351.354 254.679C350.803 255.072 349.859 255.426 348.522 255.741C347.185 255.977 345.926 256.213 344.746 256.449C343.645 256.685 343.094 256.96 343.094 257.275L342.032 256.331C341.639 257.039 341.049 257.393 340.262 257.393C339.475 257.393 338.689 257.393 337.902 257.393C337.194 257.393 336.368 257.826 335.424 258.691C334.559 259.556 333.772 260.5 333.064 261.523C332.356 262.624 331.923 263.529 331.766 264.237L331.058 265.771Z" fill="white"/>
<path d="M367.512 263.765C366.254 263.765 365.231 263.214 364.444 262.113C363.658 261.09 363.264 259.95 363.264 258.691C363.264 257.747 363.54 256.331 364.09 254.443C364.72 252.476 365.467 250.431 366.332 248.307C367.198 246.104 368.102 244.138 369.046 242.407C369.99 240.676 370.856 239.536 371.642 238.985C372.744 237.254 373.727 235.642 374.592 234.147C373.334 234.383 372.075 234.658 370.816 234.973C369.558 235.209 368.378 235.563 367.276 236.035C366.726 236.743 366.096 237.097 365.388 237.097C365.152 236.94 364.877 236.782 364.562 236.625C364.248 236.468 363.972 236.271 363.736 236.035L363.854 235.799H363.736V235.563C363.736 235.17 363.658 234.816 363.5 234.501C363.422 234.108 363.343 233.754 363.264 233.439C363.186 233.36 363.146 233.164 363.146 232.849C363.146 231.826 363.618 231.158 364.562 230.843C365.585 230.528 366.608 230.371 367.63 230.371C369.125 230.371 370.148 230.489 370.698 230.725L371.878 230.489H374.828C375.379 230.489 375.89 230.489 376.362 230.489C376.834 230.489 377.306 230.45 377.778 230.371L378.25 229.663L378.132 229.191C378.368 228.64 378.88 227.736 379.666 226.477C380.453 225.218 381.279 223.881 382.144 222.465C383.01 221.049 383.757 219.83 384.386 218.807C385.094 217.706 385.448 217.155 385.448 217.155C385.448 216.683 385.842 216.408 386.628 216.329C387.415 216.25 387.926 216.211 388.162 216.211C389.028 216.211 390.208 216.486 391.702 217.037C393.197 217.509 393.944 218.335 393.944 219.515C393.944 220.223 393.669 220.813 393.118 221.285C392.568 221.678 391.978 221.954 391.348 222.111V222.229C391.348 222.701 390.994 223.252 390.286 223.881C389.657 224.51 388.91 225.061 388.044 225.533C387.179 226.005 386.51 226.32 386.038 226.477C385.802 226.556 385.488 226.87 385.094 227.421C384.78 227.893 384.544 228.247 384.386 228.483V228.955C384.072 229.191 383.718 229.466 383.324 229.781C383.01 230.017 382.734 230.332 382.498 230.725C382.892 230.804 383.285 230.843 383.678 230.843C384.072 230.843 384.465 230.843 384.858 230.843C385.488 230.843 386.078 230.843 386.628 230.843C387.258 230.843 387.848 230.882 388.398 230.961L392.056 231.433C391.112 232.22 390.05 232.692 388.87 232.849C387.69 232.928 386.471 232.967 385.212 232.967C384.032 232.888 382.892 233.085 381.79 233.557C381.24 233.714 380.492 234.186 379.548 234.973C378.683 235.76 377.896 236.625 377.188 237.569C376.48 238.434 376.126 239.182 376.126 239.811L373.412 243.469C372.626 243.862 372.232 244.452 372.232 245.239C372.232 246.026 371.8 246.419 370.934 246.419L369.282 250.195C369.204 250.667 369.086 251.414 368.928 252.437C368.85 253.381 368.535 253.932 367.984 254.089C367.984 255.112 367.945 256.134 367.866 257.157C367.788 258.101 367.748 259.045 367.748 259.989L367.984 260.461H368.928C370.502 258.888 372.114 257.393 373.766 255.977C375.497 254.482 377.11 252.909 378.604 251.257L379.194 251.021H379.43L380.138 250.077L380.61 249.841L380.492 249.723L381.2 249.133C381.83 247.953 382.852 246.97 384.268 246.183L384.386 246.419C384.386 246.812 383.875 247.678 382.852 249.015C381.83 250.274 380.532 251.768 378.958 253.499C377.464 255.151 375.89 256.764 374.238 258.337C372.665 259.91 371.249 261.208 369.99 262.231C368.732 263.254 367.906 263.765 367.512 263.765Z" fill="white"/>
</g>
<g id="Salmon">
<ellipse id="Ellipse 3" cx="207.224" cy="112.234" rx="85.8528" ry="86" transform="rotate(-0.156185 207.224 112.234)" fill="#0B090A"/>
<ellipse id="Ellipse 1" cx="207.224" cy="112.234" rx="76.6543" ry="76.7857" transform="rotate(-0.156185 207.224 112.234)" fill="#EEEBE3"/>
<g id="Mask group">
<mask id="mask0_14_547" style="mask-type:alpha" maskUnits="userSpaceOnUse" x="145" y="50" width="124" height="124">
<ellipse id="Ellipse 4" cx="207.224" cy="112.234" rx="61.3234" ry="61.4286" transform="rotate(-0.156185 207.224 112.234)" fill="#C4C4C4"/>
</mask>
<g mask="url(#mask0_14_547)">
<g id="salmao">
<path id="Vector" d="M89.4574 186.411C89.2542 180.351 89.2542 174.483 89.2542 168.257C93.1767 165.314 97.9126 165.394 102.222 164.075C111.863 161.124 120.902 156.93 129.637 152.053C143.74 144.178 156.561 134.404 168.997 124.189C179.953 115.189 190.495 105.67 201.435 96.6568C216.482 84.2599 231.72 72.056 250.12 64.6139C256.833 61.8988 262.772 57.7205 267.408 51.964C274.568 43.0715 272.818 33.0127 267.457 24.4112C260.746 13.6443 251.083 5.81839 240.976 -1.4663C224.047 -13.6682 205.577 -23.113 186.693 -31.8948C173.124 -38.205 159.245 -43.7263 145.203 -48.7543C131.058 -53.8194 116.628 -58.1595 101.932 -61.4693C100.573 -61.7755 99.2159 -62.0664 97.9306 -63.1997C97.6188 -64.0744 97.7028 -64.6531 98.2252 -65.4361C118.276 -65.6767 138.139 -65.6767 158.359 -65.6767C171.969 -62.859 184.387 -57.6285 196.855 -52.5269C210.199 -47.0672 222.982 -40.5018 235.703 -33.1745C239.715 -30.4384 243.478 -27.8243 247.651 -25.3205C259.141 -16.7171 269.521 -7.24749 279.842 2.29541C286.849 8.77317 295.156 13.0042 304.691 13.0838C311.144 13.1377 317.715 11.9061 323.997 9.90126C329.867 8.02831 335.726 6.76912 341.736 9.47257C348.398 12.4691 353.621 17.3193 358.08 22.8458C371.312 39.2462 381.704 57.598 393.455 75.0195C402.506 88.4396 411.877 101.636 422.511 113.931C429.586 122.112 436.942 129.987 444.765 137.401C454.51 146.636 465.095 154.827 476.387 162.181C489.312 170.598 502.941 177.503 517.365 182.812C526.949 186.34 536.541 189.998 546.793 191.279C547.551 191.374 548.235 191.767 549.228 192.136C554.203 193.511 559.024 194.148 563.806 194.975C564.981 195.178 565.981 195.423 566.88 196.674C567.56 199.237 565.79 198.404 564.821 198.407C552.157 198.445 539.493 198.432 526.829 198.432C516.572 198.432 506.314 198.432 495.699 198.432C477.786 193.641 463.04 183.687 448.804 172.884C442.449 168.062 436.221 163 430.82 157.104C422.698 148.236 414.615 139.361 407.271 129.77C393.763 112.129 382.227 93.1946 369.927 74.7599C365.849 68.6476 361.929 62.2116 356.548 57.3494C347.579 49.2444 338.758 40.6011 327.414 35.7479C317.654 31.5718 308.534 33.6094 299.592 41.9366C294.641 46.5468 291.341 52.5456 286.546 57.2527C279.094 64.5665 270.466 70.3763 261.803 76.1172C251.239 83.1177 240.631 90.0699 230.474 97.6412C224.092 102.399 218.095 107.711 212.332 113.23C201.067 124.018 189.048 133.916 176.926 143.705C166.67 151.987 156.09 159.863 144.851 166.705C133.262 173.76 121.148 179.904 107.94 183.579C103.075 184.932 98.1561 185.991 93.2343 187.074C91.9552 187.355 90.7387 187.63 89.4574 186.411Z" fill="#FC5231"/>
<path id="Vector_2" d="M164.759 -65.3944C184.685 -65.6767 204.548 -65.6767 224.768 -65.6767C235.036 -61.9514 243.508 -55.7405 252.066 -49.7647C265.406 -40.4509 278.084 -30.1813 292.166 -21.9471C297.58 -18.7815 302.88 -15.1392 309.893 -15.2804C318.636 -14.6041 327.105 -15.1149 335.88 -14.9094C347.248 -14.2024 355.385 -7.585 363.393 -1.04852C380.919 13.2578 394.351 31.2616 407.895 49.1411C418.438 63.0578 428.874 77.045 440.202 90.3651C450.627 102.624 461.717 114.17 473.934 124.608C489.186 137.638 505.739 148.674 523.911 157.332C536.164 163.17 548.721 168.064 561.727 171.872C563.524 172.398 565.482 172.669 566.902 174.566C567.093 181.146 567.093 187.523 567.093 194.258C563.67 195.998 560.446 194.276 557.148 193.905C554.733 193.633 552.34 193.053 549.646 192.527C539.957 190.046 530.546 187.722 521.392 184.426C506.197 178.956 491.731 172.083 478.086 163.4C470.094 158.315 462.536 152.69 455.219 146.71C445.222 138.541 436.176 129.401 427.498 119.855C415.043 106.155 404.205 91.2138 393.926 75.8904C385.819 63.8036 378.121 51.4313 370.062 39.3072C363.684 29.7123 357.224 20.1044 347.774 13.0836C341.745 8.60405 335.26 6.48605 327.764 8.96651C320.639 11.3241 313.258 12.8773 305.817 13.1725C298.993 13.4432 292.35 11.5739 286.632 7.54221C280.453 3.18472 275.053 -2.10515 269.453 -7.16723C262.751 -13.2251 256.076 -19.3628 248.193 -24.4366C244.347 -27.362 240.707 -30.0843 236.403 -32.3245C225.084 -39.6632 213.188 -45.2812 201.154 -50.6205C190.169 -55.4941 178.938 -59.725 167.494 -63.4014C166.505 -63.7191 165.175 -63.8166 164.759 -65.3944Z" fill="#FC5231"/>
<path id="Vector_3" d="M488.582 198.173C471.662 198.432 454.853 198.432 437.686 198.432C430.026 193.489 424.206 186.925 418.324 180.513C405.974 167.048 395.76 151.946 385.853 136.651C376.897 122.824 368.966 108.37 360.042 94.5127C353.217 83.9142 344.502 75.5721 333.256 69.4166C332.755 69.0476 332.485 68.8189 332.01 68.4297C331.653 68.1845 331.506 68.0933 331.154 67.8472C329.693 66.4164 328.031 66.1115 326.138 65.6891C325.734 65.5385 325.572 65.4788 325.16 65.3534C322.498 64.1228 319.929 64.4172 317.127 64.4728C316.354 64.4798 315.84 64.49 315.106 64.7258C313.988 65.3178 312.941 65.3302 311.801 65.8515C311.235 65.9892 310.914 66.0732 310.375 66.2912C308.733 67.0174 306.823 66.2077 305.617 68.0912C305.337 68.386 305.217 68.4956 304.915 68.7638C304.609 69.0239 304.485 69.1254 304.179 69.379C303.871 69.6251 303.746 69.719 303.428 69.9441C302.983 70.2522 302.735 70.4345 302.313 70.763C302.012 70.9919 301.89 71.081 301.584 71.299C301.285 71.5233 301.17 71.6187 300.898 71.8715C300.531 72.2365 300.309 72.4279 299.889 72.7199C299.346 73.0728 298.989 73.3128 298.46 73.6802C298.176 73.8947 298.066 73.984 297.786 74.2064C297.5 74.4221 297.382 74.5049 297.09 74.7184C296.794 74.9328 296.672 75.0165 296.36 75.2166C295.903 75.4837 295.628 75.6169 295.115 75.7958C294.724 75.8809 294.563 75.9043 294.157 75.9647C291.868 76.4275 291.202 77.8595 291.142 80.005C291.026 80.5704 290.904 80.8704 290.587 81.334C290.134 81.8489 289.802 82.1583 289.357 82.6551C289.114 82.9122 289.016 83.0128 288.774 83.2613C288.532 83.5053 288.436 83.6013 288.055 83.9827C287.676 84.3623 287.581 84.4565 287.205 84.8346C286.829 85.2148 286.735 85.3112 286.506 85.5578C286.183 85.9076 285.989 86.1012 285.637 86.4322C285.28 86.7733 285.082 86.9769 284.74 87.3448C284.056 88.0183 283.555 88.5674 282.826 89.2076C282.413 89.5437 282.185 89.7471 281.813 90.1357C281.442 90.5387 281.205 90.746 280.749 91.0649C280.137 91.4789 279.722 91.7518 279.091 92.169C263.315 104.741 245.744 114.308 230.095 126.605C225.023 130.591 220.106 134.761 215.348 139.132C206.11 147.619 196.616 155.815 187.039 163.923C178.226 171.384 169.03 178.329 159.54 184.851C152.367 189.781 145.309 195.042 136.784 198.251C121.912 198.432 107.243 198.32 92.5781 198.524C89.5216 198.566 88.8947 197.617 89.2118 194.922C89.4319 193.051 89.2541 191.134 89.2541 188.873C91.3473 186.539 94.1264 186.844 96.6418 186.329C112.205 183.138 126.672 177.184 140.347 169.177C154.114 161.117 166.854 151.631 179.272 141.649C191.331 131.956 203.065 121.921 214.306 111.282C228.755 97.606 245.443 86.9012 261.95 75.9635C270.602 70.2311 279.256 64.4312 286.646 57.0685C291.291 52.4408 294.658 46.6924 299.379 42.0768C309.521 32.1623 320.663 30.9434 332.768 38.3979C341.153 43.5617 348.719 49.8478 355.813 56.5137C362.7 62.9847 367.717 71.2042 372.932 79.1271C382.934 94.3235 392.546 109.778 403.317 124.464C414.328 139.479 426.46 153.535 440.364 165.884C452.89 177.009 466.758 186.344 481.99 193.528C484.397 194.663 487.258 195.239 488.582 198.173Z" fill="#FC5231"/>
<path id="Vector_4" d="M229.584 -65.4161C242.189 -65.6767 254.672 -65.6767 267.514 -65.6767C274.911 -59.765 281.53 -53.3515 289.037 -47.9952C293.689 -44.6758 298.488 -41.5568 303.853 -39.5809C313.5 -36.0277 321.439 -38.4995 327.811 -46.9829C330.794 -50.9545 333.098 -55.3303 335.358 -59.732C336.398 -61.7574 337.321 -63.8666 339.421 -65.4874C346.764 -65.6767 353.904 -65.6767 361.402 -65.6767C362.87 -63.9209 361.441 -62.8308 360.647 -61.6174C357.447 -56.726 354.592 -51.773 353.602 -45.8073C352.626 -39.9258 354.842 -35.5731 359.313 -32.4248C365.826 -27.8384 373.1 -24.4023 379.311 -19.3078C387.081 -12.9354 394.089 -5.82402 400.73 1.70123C418.585 21.9335 433.539 44.4265 450.507 65.3479C458.414 75.0976 466.708 84.5547 475.628 93.3346C492.636 110.076 511.165 124.952 532.553 135.928C542.921 141.249 553.394 146.321 564.45 150.087C565.307 150.378 566.054 150.848 566.895 151.678C567.093 158.501 567.093 165.133 567.093 172.122C563.537 173.942 560.565 171.512 557.549 170.627C539.961 165.464 523.255 158.048 507.452 148.806C495.425 141.773 484.213 133.495 473.593 124.426C464.312 116.5 455.617 107.965 447.484 98.9114C437.391 87.6763 427.923 75.9016 418.829 63.8255C409.12 50.9312 399.451 38.0086 389.292 25.4483C383.393 18.1533 376.798 11.6009 370.217 4.99059C363.56 -1.6963 355.844 -6.97887 347.762 -11.7372C344.481 -13.6689 340.77 -14.3623 336.669 -14.5276C329.266 -15.4311 322.17 -14.3651 315.073 -14.515C313.56 -14.547 312.074 -14.7034 310.281 -14.9733C303.217 -15.0585 297.78 -18.5959 292.219 -21.7674C279.194 -29.1955 267.546 -38.6274 255.364 -47.2738C247.61 -52.7768 239.751 -58.0812 231.494 -62.7848C230.453 -63.3779 229.414 -63.7333 229.584 -65.4161Z" fill="#FC5231"/>
<path id="Vector_5" d="M178.77 198.249C166.079 198.432 153.596 198.432 140.754 198.432C139.662 196.668 141.09 196.268 142.159 195.654C159.813 185.532 175.872 173.222 191.387 160.12C202.452 150.775 212.996 140.849 223.964 131.409C235.078 121.843 247.518 114.054 259.695 105.934C269.703 99.2601 279.875 92.7282 288.046 83.7819C292.262 79.1656 296.501 74.6939 301.609 71.0638C307.189 67.0985 313.118 64.1048 320.175 64.4965C326.04 64.8221 330.962 67.6694 335.859 70.6601C346.626 77.236 354.864 86.1011 361.594 96.7599C371.608 112.619 380.687 129.047 391.133 144.638C401.076 159.477 411.75 173.731 424.09 186.673C426.795 189.51 429.879 191.985 432.578 194.844C433.419 195.735 434.678 196.4 434.4 198.183C424.082 198.432 413.888 198.432 403.337 198.432C399.678 196.892 398.081 193.662 396.177 190.953C383.11 172.371 372.166 152.498 361.126 132.682C355.643 122.841 350.638 112.509 342.239 104.777C335.801 98.8505 328.298 94.3998 318.838 95.0123C313.487 95.3587 308.948 97.6576 304.557 100.347C296.635 105.198 289.775 111.438 282.863 117.56C275.905 123.723 268.175 128.772 260.522 133.954C247.84 142.543 234.918 150.788 223.322 160.892C211.714 171.006 200.581 181.67 188.479 191.212C185.417 193.627 182.667 196.508 178.77 198.249Z" fill="#FC5231"/>
<path id="Vector_6" d="M89.4591 -48.6863C89.2542 -53.2254 89.2542 -57.5672 89.2542 -62.2662C90.6966 -64.1953 92.4074 -63.7903 94.1972 -63.4046C118.522 -58.1626 142.145 -50.5926 165.183 -41.3043C182.771 -34.2129 199.967 -26.247 216.539 -16.8906C232.418 -7.92503 247.674 1.76804 260.307 15.0392C265.102 20.0762 269.398 25.5915 271.284 32.6122C273.625 41.3259 271.413 48.7536 265.112 54.8713C260.641 59.212 255.373 62.5752 249.59 65.0079C233.796 71.6508 220.204 81.6404 207.009 92.3774C195.978 101.353 185.354 110.797 174.372 119.822C161.999 129.991 149.544 140.058 135.864 148.458C122.645 156.574 108.843 163.361 93.4583 166.385C92.2262 166.627 91.0208 166.901 89.5096 166.507C89.2542 161.014 89.2542 155.654 89.2542 149.938C91.7788 147.701 94.9199 147.725 97.7766 147.014C111.645 143.563 123.813 136.718 135.551 128.855C151.397 118.242 165.431 105.423 179.817 93.0167C187.293 86.5691 194.759 80.0961 202.777 74.3032C210.3 68.867 218.209 64.0906 226.608 60.1287C230.414 58.3332 234.013 56.1738 237.033 53.2283C246.931 43.5757 246.077 34.8736 239.126 24.4152C231.268 12.5933 219.54 5.12803 207.904 -2.35663C195.268 -10.4836 181.798 -17.0803 168.034 -22.9679C143.819 -33.3258 119.069 -42.1711 93.0511 -46.9516C91.7359 -47.1932 90.6178 -47.5878 89.4591 -48.6863Z" fill="#FB5232"/>
<path id="Vector_7" d="M213.115 198.244C202.973 198.432 193.034 198.432 182.737 198.432C181.299 197.038 182.031 196.243 183.2 195.338C198.108 183.794 211.579 170.584 225.957 158.432C234.73 151.017 244.291 144.573 253.906 138.257C264.8 131.1 275.809 124.064 285.542 115.341C291.42 110.072 297.355 104.927 303.962 100.599C318.396 91.1429 329.253 93.7621 341.951 104.398C349.518 110.736 353.884 119.755 358.717 128.236C369.704 147.517 379.998 167.208 392.624 185.519C394.891 188.807 397.178 192.081 399.508 195.323C400.117 196.17 400.827 196.864 400.105 198.212C392.277 198.432 384.628 198.432 376.621 198.432C373.032 195.564 371.708 191.481 369.736 187.855C363.628 176.625 357.886 165.197 352.006 153.846C347.773 145.674 343.293 137.538 337.396 130.335C332.467 124.313 320.977 121.678 314.017 125.167C306.502 128.934 299.918 134.16 293.426 139.358C273.044 155.676 249.923 168.055 229.46 184.228C223.899 188.623 218.96 193.75 213.115 198.244Z" fill="#FC5231"/>
<path id="Vector_8" d="M89.4675 147.488C89.2542 142.185 89.2542 137.08 89.2542 131.618C90.4183 129.839 92.2169 129.741 93.7494 129.494C106.189 127.489 117.023 121.754 127.256 114.864C140.209 106.143 151.711 95.6156 163.285 85.1689C173.338 76.096 183.51 67.1062 195.166 60.0286C198.959 57.7252 203.167 56.1487 206.676 53.3448C209.657 50.9631 212.574 48.5509 214.566 45.2054C218.655 38.3412 214.998 29.072 210.109 23.5065C200.046 12.0509 187.292 4.34722 173.974 -2.5158C151.937 -13.8709 128.791 -22.3374 104.744 -28.3087C100.715 -29.3091 96.6513 -30.2594 92.5414 -30.9071C91.3339 -31.0974 90.3282 -31.3898 89.4487 -32.6457C89.2542 -37.1957 89.2542 -41.5375 89.2542 -46.2365C90.3705 -47.9449 91.8016 -47.4716 93.1455 -47.1996C111.603 -43.4643 129.561 -38.0563 147.189 -31.4344C162.421 -25.713 177.358 -19.3555 191.728 -11.7355C206.767 -3.7611 221.364 4.92327 233.453 17.1561C237.393 21.1424 240.661 25.6795 242.867 30.8958C246.92 40.4814 243.086 48.6157 234.936 55.1368C231.863 57.5959 228.44 59.5512 224.842 61.1891C211.457 67.2812 199.901 76.1226 188.757 85.5166C173.461 98.4115 158.872 112.157 142.7 123.996C127.869 134.854 112.278 144.236 93.9483 148.047C92.4518 148.358 91.0227 148.79 89.4675 147.488Z" fill="#FB5232"/>
<path id="Vector_9" d="M89.4686 129.169C89.2542 123.865 89.2542 118.761 89.2542 113.298C91.2842 111.131 93.9258 111.248 96.3517 110.723C108.831 108.027 119.162 101.251 128.901 93.4479C139.855 84.6711 149.642 74.5812 160.13 65.2774C165.912 60.1483 172.041 55.4879 178.747 51.6114C180.952 50.3368 182.835 48.6617 184.67 46.885C189.195 42.5051 188.961 33.1756 186.111 29.265C180.864 22.0652 174.076 16.6941 166.55 12.1889C156.2 5.99253 145.225 1.09167 133.93 -3.12042C131.906 -3.87513 129.715 -4.00087 127.5 -5.08533C118.183 -9.04831 108.633 -11.1685 99.1131 -13.4066C95.9755 -14.1443 92.6974 -14.2991 89.4794 -15.8521C89.2542 -20.6568 89.2542 -25.2529 89.2542 -30.2064C91.0212 -32.1092 92.8934 -30.9549 94.6171 -30.6037C115.618 -26.3248 135.858 -19.7017 155.561 -11.2438C170.883 -4.66673 185.658 2.80367 198.965 12.8957C206.062 18.2775 212.842 24.1446 215.634 33.0795C217.302 38.4165 216.643 43.5048 212.758 47.9062C209.531 51.5608 205.848 54.6699 201.481 56.7842C188.54 63.0494 177.946 72.4943 167.286 81.8332C151.91 95.3038 137.257 109.672 119.316 119.904C111.26 124.498 102.835 128.144 93.6324 129.756C92.2776 129.993 90.8995 130.519 89.4686 129.169Z" fill="#FB5232"/>
<path id="Vector_10" d="M374.154 198.211C367.85 198.432 361.728 198.432 355.248 198.432C351.28 194.536 349.951 189.427 347.7 184.815C343.043 175.276 338.767 165.535 332.441 156.909C330.128 153.755 327.293 151.393 323.392 150.393C319.481 149.39 315.951 149.923 313.131 152.892C298.845 167.932 281.587 178.906 263.833 189.241C260.13 191.397 256.342 193.466 252.983 196.178C251.657 197.249 250.02 197.566 248.249 198.268C237.323 198.432 226.62 198.432 215.56 198.432C214.36 196.65 215.846 195.896 216.812 195.021C227.008 185.793 237.892 177.473 249.334 169.826C262.264 161.185 275.565 153.087 287.831 143.458C295.366 137.544 303.207 132.033 311.056 126.529C320.376 119.993 332.446 124.354 338.356 131.678C344.371 139.132 348.722 147.581 353.128 156C359.796 168.739 366.242 181.595 373.209 194.176C373.867 195.364 375.005 196.41 374.154 198.211Z" fill="#FC5231"/>
<path id="Vector_11" d="M89.4699 110.85C89.2542 105.291 89.2542 99.932 89.2542 94.2151C89.9808 93.0531 90.887 92.7222 91.9682 92.7228C101.001 92.7278 108.341 88.4874 115.347 83.3958C125.889 75.734 134.083 65.5963 143.481 56.7288C146.896 53.5071 150.528 50.5827 154.288 47.7782C158.241 44.8303 161.199 41.0127 160.585 35.8077C159.965 30.5518 156.189 27.1039 152.255 24.0406C143.051 16.8738 132.343 12.6657 121.488 8.83375C113.4 5.97839 105.025 4.14559 96.6725 2.22536C94.3373 1.68853 91.7956 2.72485 89.4665 0.925163C89.2542 -3.8638 89.2542 -8.45987 89.2542 -13.4134C90.2666 -15.0201 91.6516 -15.0631 93.0313 -14.791C104.613 -12.5066 116.049 -9.67193 127.433 -5.4972C143.141 -0.257451 157.895 6.35366 171.54 15.2276C176.825 18.665 181.553 22.9246 185.296 28.0466C191.015 35.8715 189.172 44.55 180.867 50.3596C177.748 52.5412 174.353 54.279 171.271 56.5119C163.076 62.4493 155.607 69.2231 148.221 76.5023C147.898 76.8058 147.769 76.9241 147.433 77.196C147.078 77.4308 146.93 77.5121 146.576 77.7329C146.244 77.9796 146.12 78.087 145.676 78.5639C145.246 79.0511 145.135 79.1688 144.853 79.4574C143.649 80.4084 142.947 81.526 141.726 82.4468C140.57 83.0744 139.522 83.4447 138.803 84.6403C138.611 84.9793 138.534 85.115 138.321 85.4421C137.88 85.9857 137.553 86.3183 137.069 86.8187C136.688 87.1936 136.449 87.3806 135.994 87.6524C135.412 87.992 135.034 88.2302 134.571 88.7216C134.325 88.9979 134.222 89.105 133.951 89.3557C133.43 89.7649 133.119 90.0766 132.648 90.535C132.267 90.8683 132.032 91.0359 131.597 91.2986C131.294 91.5042 131.178 91.5965 130.914 91.8567C130.111 92.6779 129.498 93.3766 128.527 94.0362C127.787 94.5351 127.291 94.9704 126.458 95.3538C126.107 95.6031 125.972 95.7124 125.643 96.0058C125.321 96.3202 125.193 96.4507 124.861 96.7734C116.082 103.158 107.065 108.468 96.6062 110.847C94.3248 111.366 92.0339 112.446 89.4699 110.85Z" fill="#FB5232"/>
<path id="Vector_12" d="M89.4648 16.9578C89.2542 12.166 89.2542 7.56989 89.2542 2.61637C93.0901 0.614894 96.8125 2.13924 100.447 2.92991C115.864 6.28325 130.741 11.2558 144.664 18.782C149.628 21.4655 154.097 24.9288 157.805 29.1981C162.443 34.5368 161.608 42.4302 155.333 47.0613C145.846 54.0629 137.871 62.5671 129.665 70.9018C123.148 77.5212 116.294 83.8222 107.993 88.2696C102.281 91.3303 96.3906 93.6176 89.4863 92.5169C89.2542 86.9716 89.2542 81.6124 89.2542 75.8954C90.2419 74.3449 91.5581 74.4144 92.9522 74.4196C99.5827 74.4439 105.154 71.6649 109.922 67.3508C117.942 60.0935 123.919 51.0654 130.565 42.6414C134.617 37.5042 133.318 32.7238 127.797 28.8649C120.785 23.9646 112.617 22.2497 104.555 20.161C99.6418 18.888 94.5455 18.5926 89.4648 16.9578Z" fill="#FB5232"/>
<path id="Vector_13" d="M352.781 198.206C347.241 198.432 341.881 198.432 336.165 198.432C334.597 197.612 334.067 196.36 333.484 195.073C331.025 189.648 328.243 184.407 324.457 179.752C319.826 174.057 313.396 174.451 309.746 180.719C306.059 187.054 302.594 193.552 296.313 198.245C281.85 198.432 267.585 198.432 252.963 198.432C251.814 196.022 253.814 195.368 255.219 194.466C262.909 189.523 270.773 184.857 278.611 180.159C290.324 173.139 301.459 165.225 310.523 155.096C318.351 146.348 328.078 150.292 332.911 157.351C337.546 164.124 341.234 171.372 344.83 178.702C347.49 184.123 349.95 189.635 352.489 195.111C352.905 196.008 353.543 196.903 352.781 198.206Z" fill="#FB5232"/>
<path id="Vector_14" d="M488.815 198.432C481.069 194.311 473.553 190.382 466.287 186.034C443.372 172.322 424.91 153.728 408.526 132.884C393.965 114.359 381.624 94.3126 368.82 74.6021C359.391 60.0873 347.006 48.8282 332.737 39.5506C320.395 31.5262 309.873 33.0404 299.378 43.4024C298.564 44.2059 297.665 44.9685 297.034 45.9046C286.951 60.8776 272.303 70.6435 257.494 80.0604C238.428 92.1838 221.088 106.364 204.407 121.55C182.951 141.08 160.518 159.441 134.851 173.37C120.756 181.018 105.792 186.158 89.5682 188.469C89.2542 187.937 89.2542 187.364 89.2542 186.506C102.59 184.938 115.061 180.699 127.083 175.016C148.778 164.761 167.495 150.116 185.946 135.057C200.042 123.554 212.883 110.625 226.992 99.1476C239.051 89.3381 252.383 81.3366 265.189 72.5895C276.043 65.1757 286.233 57.1965 294.196 46.4303C300.234 38.2681 308.058 32.1689 319.204 32.6575C326.004 32.9556 331.503 36.2806 336.968 39.8792C354.582 51.4762 367.195 67.4932 378.18 85.19C390.454 104.962 403.339 124.354 418.501 142.103C439.142 166.265 463.307 185.651 493.224 197.246C493.812 197.474 494.351 197.827 495.127 198.277C493.28 198.432 491.219 198.432 488.815 198.432Z" fill="#FEA088"/>
<path id="Vector_15" d="M89.2542 166.627C117.069 161.249 139.777 146.176 161.336 129.045C172.879 119.872 184.096 110.279 195.297 100.685C213.326 85.2439 232.032 70.8694 254.112 61.5199C257.173 60.2238 259.789 58.1268 262.364 56.0562C271.502 48.7088 273.707 38.1357 268.295 27.7057C263.868 19.1753 257.152 12.5888 249.89 6.54123C231.953 -8.39547 211.536 -19.2702 190.563 -29.1548C166.241 -40.6175 141.131 -50.0274 115.2 -57.1735C106.875 -59.4676 98.547 -61.8322 89.5791 -62.6675C89.2542 -63.1959 89.2542 -63.7684 89.2542 -64.6271C92.2339 -65.2164 95.1771 -65.2189 98.1989 -63.6457C134.306 -55.1748 168.557 -42.4314 201.469 -26.0741C220.292 -16.7188 238.426 -6.20682 254.3 7.78986C260.445 13.2078 265.928 19.1848 269.847 26.4443C275.917 37.6891 273.788 48.6449 264.14 56.9538C259.56 60.8973 254.519 64.0884 248.984 66.3911C234.005 72.6236 221.164 82.1295 208.674 92.2237C188.017 108.918 168.638 127.195 146.785 142.404C130.291 153.883 112.923 163.561 92.9072 167.513C91.914 167.709 90.9003 167.802 89.5752 167.921C89.2542 167.56 89.2542 167.221 89.2542 166.627Z" fill="#FE9F87"/>
<path id="Vector_16" d="M434.581 198.432C430.245 192.994 424.72 189.027 420.193 184.045C404.381 166.644 391.314 147.306 379.043 127.352C370.461 113.397 362.793 98.8494 352.572 85.9415C346.273 77.9849 337.885 72.6574 329.072 68.0801C321.041 63.9087 313.046 65.2292 305.456 69.7583C301.284 72.248 297.315 75.0997 294.157 78.7571C284.404 90.0525 272.69 98.9494 260.126 106.745C238.088 120.42 218.614 137.28 199.375 154.513C181.452 170.567 162.432 185.216 141.485 197.212C141.163 197.396 140.917 197.714 140.516 198.201C139.337 198.432 138.276 198.432 136.898 198.432C140.678 194.768 145.772 192.676 150.34 189.75C172.58 175.506 192.708 158.585 212.018 140.708C225.704 128.037 240.75 117.292 256.224 107.039C263.74 102.058 271.351 97.2052 278.44 91.2029C278.82 90.5626 279.241 90.4361 279.817 90.1649C280.163 89.8352 280.375 89.6847 280.714 89.3843C281.036 89.0916 281.219 88.9343 281.524 88.6406C282.328 87.9213 282.997 87.3241 283.802 86.5471C284.074 86.1181 284.245 85.8967 284.642 85.6032C285.012 85.4005 285.169 85.2684 285.377 84.9695C285.59 84.6116 285.744 84.4014 286.07 84.081C286.22 83.9555 286.189 83.9376 286.202 83.951C286.358 83.7719 286.518 83.5948 286.83 83.3157C286.966 83.1983 286.97 83.1863 286.976 83.1839C287.1 83.0498 287.22 82.9182 287.527 82.5989C287.716 82.4112 287.719 82.4086 287.72 82.4071C288.072 81.9586 288.332 81.4253 289.031 81.0074C289.395 80.718 289.586 80.5544 289.859 80.2069C291.011 78.084 292.217 76.26 294.518 75.0942C294.744 74.9751 294.744 74.8759 294.695 74.8753C294.894 74.4413 295.35 74.4063 295.938 74.1575C296.112 74.0228 296.121 74.0194 296.123 74.0149C296.29 73.8349 296.459 73.6637 296.77 73.3804C296.907 73.2641 296.875 73.2662 296.89 73.2733C297.282 72.5209 297.863 72.0614 298.87 71.8384C299.221 71.5012 299.437 71.3569 299.787 71.0692C300.119 70.7853 300.297 70.6224 300.598 70.324C300.74 70.2112 300.695 70.2205 300.711 70.2365C301.189 69.57 301.937 69.3093 302.813 68.8223C303.001 68.6852 302.988 68.6665 302.99 68.6761C303.153 68.4984 303.324 68.3209 303.657 68.0468C303.808 67.9403 303.781 68.0222 303.822 68.0357C305.378 66.2793 307.447 65.6003 309.884 65.0477C310.416 64.9298 310.683 64.8864 311.144 64.7803C312.188 63.9983 313.223 63.7507 314.548 63.5327C315.278 63.5322 315.742 63.5624 316.435 63.5389C319.598 61.9855 322.428 63.7093 325.575 63.9863C325.837 64.2082 325.825 64.1111 325.823 64.161C327.85 64.8565 329.859 65.5459 331.841 66.9365C332.046 67.1065 332.24 67.1935 332.346 67.202C332.741 67.2796 332.998 67.411 333.364 67.7782C343.117 74.2079 352.187 80.8748 358.737 90.7321C368.663 105.669 377.391 121.322 387.025 136.427C401.158 158.585 416.727 179.54 436.594 196.995C436.87 197.237 437.028 197.612 437.285 198.179C436.514 198.432 435.7 198.432 434.581 198.432Z" fill="#FE9F87"/>
<path id="Vector_17" d="M89.2542 147.576C96.5333 147.293 103.206 144.774 109.781 142.1C127.073 135.068 141.775 123.964 156.091 112.276C171.451 99.736 185.763 85.9507 201.672 74.0611C208.625 68.8651 215.916 64.2856 223.801 60.6403C229.139 58.172 234.137 55.1686 238.16 50.765C243.998 44.3749 245.01 37.4198 241.221 29.6564C237.03 21.0701 230.237 14.7499 222.871 9.03408C205.768 -4.23658 186.641 -14.0011 166.86 -22.506C143.099 -32.7218 118.723 -41.1157 93.2861 -46.1571C92.1674 -46.3789 91.0265 -46.4885 89.5751 -46.622C89.2542 -47.1661 89.2542 -47.7386 89.2542 -48.5974C135.372 -39.6349 178.596 -23.1587 217.889 2.97099C226.273 8.54615 233.943 15.0564 239.808 23.4178C248.92 36.4099 246.754 48.1924 233.741 57.2115C227.016 61.8726 219.256 64.5905 212.397 69.0139C196.285 79.4039 182.376 92.4975 167.885 104.878C152.106 118.358 136.169 131.608 117.386 140.859C108.67 145.151 99.6248 148.447 89.5792 149.589C89.2542 149.007 89.2542 148.435 89.2542 147.576Z" fill="#FE9F87"/>
<path id="Vector_18" d="M400.231 198.432C397.494 193.22 393.662 188.93 390.491 184.208C378.639 166.562 368.656 147.823 358.242 129.335C355.06 123.686 351.587 118.221 348.006 112.81C343.339 105.759 336.934 101.021 329.314 97.6954C321.794 94.4138 314.654 95.6755 307.744 99.4902C299.664 103.95 292.818 110.023 286.008 116.151C274.711 126.317 261.777 134.216 249.159 142.539C233.397 152.936 219.286 165.338 205.323 177.96C198.729 183.921 191.75 189.457 184.948 195.188C183.989 195.996 182.796 196.586 182.373 198.166C181.319 198.432 180.259 198.432 178.881 198.432C182.67 193.706 187.944 190.331 192.723 186.402C206.181 175.336 218.316 162.754 232.247 152.232C245.044 142.567 258.663 134.111 271.834 124.998C281.594 118.243 289.543 109.306 299.322 102.604C301.732 100.952 304.176 99.3403 306.684 97.8418C315.957 92.3004 325.051 92.6798 334.514 97.8909C343.28 102.718 349.109 110.066 353.966 118.348C363.999 135.456 373.731 152.741 383.711 169.882C389.41 179.671 396.035 188.856 402.84 198.218C402.165 198.432 401.351 198.432 400.231 198.432Z" fill="#FEA087"/>
<path id="Vector_19" d="M89.2542 129.256C96.966 129.037 103.976 126.314 110.777 123.169C126.417 115.938 139.532 105.072 152.382 93.8292C164.712 83.0416 176.39 71.4553 190.074 62.3039C194.287 59.4863 198.831 57.1604 203.242 54.6425C205.689 53.2458 207.868 51.5229 209.898 49.5779C216.067 43.6662 217.218 36.6252 212.988 29.2036C208.263 20.9141 200.989 15.1283 193.258 9.92009C172.52 -4.04996 149.678 -13.538 126.046 -21.2965C114.198 -25.1865 102.195 -28.4833 89.5603 -30.5287C89.2542 -31.1364 89.2542 -31.7089 89.2542 -32.5676C106.111 -29.4957 122.678 -25.075 138.784 -19.0444C159.678 -11.2216 180.034 -2.29893 198.135 11.0279C204.301 15.5681 210.059 20.5961 214.085 27.2382C219.698 36.4986 218.478 44.6068 210.381 51.7798C208.301 53.6228 206.053 55.4352 203.582 56.6523C187.6 64.5236 174.777 76.5477 161.659 88.1951C146.729 101.452 131.975 114.945 113.839 123.906C106.26 127.651 98.3563 130.359 89.5767 131.256C89.2542 130.688 89.2542 130.115 89.2542 129.256Z" fill="#FE9F87"/>
<path id="Vector_20" d="M374.259 198.432C373.725 196.04 372.096 194.292 371.041 192.292C362.323 175.763 353.576 159.249 344.76 142.773C342.538 138.621 339.879 134.724 336.714 131.209C329.863 123.603 320.268 122.184 311.554 127.484C304.478 131.788 297.932 136.853 291.452 141.968C275.25 154.755 257.353 165.066 240.622 177.069C231.738 183.443 223.016 190.029 215.315 198.203C214.63 198.432 214.057 198.432 213.198 198.432C215.253 193.881 219.589 191.278 223.262 188.09C237.718 175.542 253.979 165.514 269.943 155.08C282.305 147 293.534 137.372 305.661 128.97C306.183 128.608 306.698 128.234 307.203 127.847C321.422 116.947 334.137 123.333 341.853 134.541C347.925 143.362 352.675 152.944 357.584 162.435C363.716 174.29 369.993 186.071 376.235 198.158C375.69 198.432 375.118 198.432 374.259 198.432Z" fill="#FE9F87"/>
<path id="Vector_21" d="M140.926 81.7811C142.048 80.7591 142.999 79.9124 144.09 78.8723C144.384 78.4733 144.547 78.2752 144.869 77.9641C145.018 77.8424 144.977 77.8289 144.985 77.849C145.139 77.6691 145.305 77.4858 145.63 77.1987C145.771 77.0786 145.739 77.0615 145.746 77.0782C145.924 76.8799 146.121 76.6897 146.528 76.4397C154.673 69.0781 162.32 61.4371 171.28 55.3374C174.531 53.1247 178.006 51.2131 181.101 48.8074C189.179 42.5297 189.788 34.43 183.049 26.7329C174.114 16.528 162.396 10.4109 150.438 4.75927C143.334 1.40172 135.926 -1.31298 128.419 -4.44551C127.895 -4.87842 127.78 -5.23767 128.011 -5.89078C146.335 -0.0463381 163.748 7.48403 178.78 19.6755C181.456 21.8454 183.8 24.3382 185.835 27.1207C191.425 34.7648 190.621 42.8739 183.693 49.2943C180.113 52.6118 175.65 54.5991 171.731 57.4033C160.324 65.5648 150.688 75.7325 140.321 85.0718C129.441 94.8731 118.253 104.22 104.315 109.546C99.6483 111.329 94.8282 112.326 89.5739 112.916C89.2542 112.368 89.2542 111.796 89.2542 110.937C98.6383 110.733 106.742 106.762 114.655 102.4C117.972 100.572 120.964 98.1535 124.264 95.8139C124.516 95.3591 124.655 95.1215 125.007 94.786C125.174 94.6606 125.153 94.7598 125.203 94.7703C125.695 94.0296 126.492 93.7566 127.419 93.2647C128.755 92.6731 129.641 91.9558 129.932 90.4377C130.569 90.5852 131.14 90.2627 131.884 89.7486C132.233 89.0796 132.651 88.9137 133.266 88.6353C133.416 88.4583 133.461 88.4515 133.468 88.4295C133.938 88.0726 134.165 87.4818 134.898 87.1242C135.279 86.8832 135.467 86.7427 135.734 86.4288C136.162 85.7867 136.432 85.2393 137.207 84.8551C137.403 84.7438 137.348 84.7504 137.374 84.761C138.351 83.6351 139.325 82.5261 140.926 81.7811Z" fill="#FE9F87"/>
<path id="Vector_22" d="M89.2542 92.5852C101.749 92.1951 111.495 85.967 120.528 78.1886C126.123 73.37 131.27 68.0853 136.335 62.7244C141.674 57.0752 147.408 51.89 153.575 47.144C161.461 41.076 161.735 34.1649 154.542 27.2232C147.714 20.6328 139.239 16.8003 130.62 13.3121C117.499 8.00202 104.037 3.86257 89.5736 2.27331C89.2542 1.91965 89.2542 1.5804 89.2542 0.986701C96.783 0.279957 103.857 2.61263 110.935 4.55838C125.572 8.58245 139.82 13.6193 152.271 22.6844C152.887 23.1333 153.497 23.5958 154.077 24.091C164.607 33.0872 164.268 41.6829 153.128 49.9659C143.68 56.991 136.202 66.0959 127.752 74.1746C120.927 80.6986 113.844 86.8499 105.11 90.7951C100.267 92.9822 95.2699 94.191 89.6004 93.9064C89.2542 93.5182 89.2542 93.1789 89.2542 92.5852Z" fill="#FEA088"/>
<path id="Vector_23" d="M352.886 198.432C346.5 184.196 340.363 169.972 331.474 157.172C329.398 154.184 326.584 152.016 322.921 151.185C319.628 150.438 316.497 150.743 314.084 153.306C297.911 170.48 277.751 182.111 257.768 194.006C255.946 195.091 253.908 196.001 252.642 198.169C251.296 198.432 249.988 198.432 248.352 198.432C255.226 192.536 263.4 188.127 271.386 183.481C285.845 175.071 299.156 165.253 311.051 153.462C317.653 146.919 324.822 147.274 331.337 154.031C335.173 158.009 337.82 162.828 340.361 167.641C345.578 177.52 350.321 187.638 354.83 198.161C354.317 198.432 353.745 198.432 352.886 198.432Z" fill="#FEA086"/>
<path id="Vector_24" d="M548.558 191.324C548.8 191.81 548.79 192.169 548.775 192.797C523.443 187.906 499.938 178.267 478.055 164.54C443.382 142.791 417.5 112.532 394.89 79.0523C383.859 62.719 373.875 45.6923 362.192 29.7936C358.037 24.1394 353.51 18.8378 347.963 14.4625C341.768 9.57677 335.047 7.6313 327.281 10.1228C322.191 11.7559 316.953 12.8244 311.662 13.6273C299.034 15.5438 288.375 11.4963 279.131 3.02094C268.915 -6.34633 258.816 -15.8532 247.347 -24.1394C247.076 -24.8356 247.24 -25.2316 248.02 -25.472C256.239 -20.4423 263.087 -14.1794 269.995 -8.00217C275.109 -3.42882 280.035 1.34793 285.511 5.51444C292.677 10.9677 300.738 12.8453 309.572 11.8667C314.765 11.2914 319.952 10.4703 324.853 8.69526C335.642 4.78779 344.476 8.00333 352.382 15.5101C360.101 22.8381 366.115 31.5006 371.934 40.3069C386.153 61.8289 399.567 83.8975 415.574 104.201C438.12 132.8 464.562 156.763 497.388 173.172C513.62 181.286 530.671 187.065 548.558 191.324Z" fill="#FE9F88"/>
<path id="Vector_25" d="M146.535 76.4515C146.521 76.5465 146.325 76.7381 145.941 77.0123C145.953 76.9127 146.154 76.7305 146.535 76.4515Z" fill="#F05C42"/>
</g>
</g>
</g>
</g>
</g>
</g>
</svg>
