<svg width="430" height="320" viewBox="0 0 430 320" fill="none" xmlns="http://www.w3.org/2000/svg">
<g id="Logo Vertical">
<g id="LogoCompleto">
<g id="O melhor do Sushi, em Festival!">
<path d="M88.5472 285.789C88.5429 284.221 88.2998 283.081 87.8178 282.367C87.3359 281.654 86.6843 281.298 85.8629 281.301C85.0416 281.303 84.2852 281.63 83.5936 282.283C82.902 282.935 82.3763 283.753 82.0163 284.735C81.6563 285.707 81.4776 286.705 81.4804 287.729C81.4842 289.105 81.7379 290.235 82.2417 291.119C82.7561 292.002 83.52 292.443 84.5333 292.44C85.3546 292.438 86.079 292.1 86.7065 291.426C87.334 290.753 87.7958 289.919 88.0917 288.927C88.3983 287.934 88.5502 286.888 88.5472 285.789ZM88.3391 291.646C87.8819 292.17 87.307 292.593 86.6146 292.915C85.9328 293.236 85.1812 293.399 84.3599 293.401C83.5492 293.403 82.8287 293.213 82.1983 292.831C81.5786 292.448 81.0866 291.938 80.7222 291.299C79.9826 289.999 79.6106 288.512 79.606 286.838C79.6014 285.163 80.008 283.674 80.8258 282.37C81.6436 281.056 82.7079 280.189 84.0187 279.77C84.2002 279.812 84.3018 279.897 84.3234 280.025C83.578 280.486 82.9662 281.026 82.4879 281.646C82.0202 282.266 81.6972 283.104 81.5187 284.16C81.9633 282.911 82.6593 281.928 83.6067 281.211C84.5541 280.494 85.5451 280.133 86.5797 280.131C87.6251 280.128 88.5116 280.573 89.2394 281.467C89.9778 282.351 90.3493 283.635 90.3539 285.32C90.3584 286.963 90.0691 288.452 89.4861 289.787C89.1787 290.492 88.7963 291.111 88.3391 291.646Z" fill="#0B090A"/>
<path d="M106.1 286.877C105.824 287.38 105.591 288.02 105.401 288.799C105.211 289.579 105.117 290.315 105.119 291.008C105.121 291.702 105.154 292.347 105.22 292.944C104.943 292.966 104.778 292.977 104.724 292.977C103.796 292.98 103.331 292.528 103.328 291.621C103.328 291.29 103.437 290.469 103.658 289.156C103.889 287.844 104.004 286.862 104.002 286.211C104 285.55 103.754 285.22 103.263 285.221C102.655 285.223 102.038 285.811 101.412 286.986C100.786 288.161 100.475 289.586 100.48 291.261C100.481 291.794 100.514 292.359 100.58 292.957C100.303 292.979 100.138 292.99 100.084 292.99C99.1562 292.992 98.691 292.54 98.6885 291.634C98.6882 291.516 98.7927 290.721 99.002 289.249C99.222 287.776 99.3308 286.613 99.3285 285.76C99.3261 284.896 99.2333 284.107 99.0501 283.393C99.6907 283.636 100.134 283.987 100.381 284.445C100.638 284.903 100.768 285.468 100.77 286.14C100.77 286.481 100.734 286.913 100.661 287.436C101.021 286.369 101.52 285.482 102.158 284.776C102.796 284.07 103.382 283.717 103.915 283.715C105.11 283.712 105.709 284.633 105.714 286.479C106.107 285.624 106.558 284.951 107.069 284.459C107.59 283.956 108.075 283.704 108.523 283.703C109.174 283.701 109.633 283.897 109.901 284.291C110.168 284.674 110.303 285.202 110.305 285.874C110.307 286.535 110.203 287.469 109.992 288.675C109.793 289.881 109.694 290.761 109.696 291.316C109.697 291.86 109.768 292.26 109.907 292.515C110.046 292.76 110.282 292.973 110.613 293.153C110.474 293.164 110.277 293.17 110.021 293.171C109.338 293.173 108.831 293.035 108.5 292.759C108.179 292.472 108.018 291.987 108.016 291.304C108.015 290.91 108.119 290.115 108.329 288.919C108.539 287.714 108.643 286.828 108.642 286.263C108.64 285.559 108.394 285.207 107.903 285.209C107.626 285.209 107.327 285.359 107.008 285.659C106.689 285.959 106.386 286.365 106.1 286.877Z" fill="#0B090A"/>
<path d="M117.27 284.511C116.63 284.513 116.087 284.882 115.641 285.619C115.205 286.357 114.914 287.221 114.768 288.214L115.216 288.213C115.781 288.211 116.272 288.13 116.687 287.969C117.103 287.808 117.422 287.599 117.645 287.342C118.071 286.85 118.283 286.295 118.281 285.676C118.28 285.324 118.194 285.042 118.023 284.829C117.862 284.616 117.611 284.51 117.27 284.511ZM119.543 290.985C119.055 291.786 118.518 292.348 117.932 292.669C117.346 292.991 116.664 293.153 115.885 293.155C115.117 293.157 114.444 292.817 113.866 292.136C113.289 291.455 112.998 290.496 112.995 289.259C112.991 287.851 113.366 286.591 114.12 285.48C114.492 284.945 114.976 284.512 115.573 284.18C116.18 283.847 116.846 283.68 117.571 283.678C119.171 283.674 119.973 284.445 119.978 285.992C119.98 286.92 119.62 287.651 118.896 288.187C118.182 288.711 117.351 288.975 116.402 288.977C115.773 288.979 115.207 288.922 114.705 288.806C114.695 288.913 114.69 289.078 114.691 289.302C114.696 291.19 115.258 292.133 116.378 292.129C117.434 292.127 118.292 291.602 118.95 290.554C119.345 290.607 119.543 290.75 119.543 290.985Z" fill="#0B090A"/>
<path d="M122.265 291.729C122.254 291.559 122.248 291.287 122.247 290.913C122.246 290.529 122.418 288.908 122.762 286.048C123.117 283.188 123.293 281.225 123.29 280.159C123.287 279.092 123.221 278.399 123.092 278.079C123.69 278.302 124.112 278.631 124.359 279.068C124.605 279.504 124.729 280.032 124.731 280.651C124.733 281.269 124.582 282.87 124.28 285.452C123.978 288.034 123.829 290.115 123.833 291.693C123.834 292.035 123.857 292.514 123.901 293.133C123.314 293.092 122.898 292.954 122.652 292.72C122.449 292.529 122.32 292.199 122.265 291.729Z" fill="#0B090A"/>
<path d="M129.212 287.934C129.561 286.728 130.097 285.713 130.82 284.89C131.554 284.056 132.24 283.638 132.88 283.636C133.52 283.635 133.974 283.831 134.242 284.225C134.51 284.608 134.645 285.136 134.646 285.808C134.648 286.469 134.544 287.403 134.334 288.609C134.135 289.814 134.036 290.695 134.037 291.249C134.039 291.793 134.109 292.193 134.248 292.449C134.388 292.694 134.623 292.906 134.954 293.087C134.816 293.098 134.618 293.104 134.362 293.104C133.68 293.106 133.173 292.969 132.841 292.693C132.52 292.405 132.359 291.921 132.357 291.238C132.356 290.843 132.461 290.048 132.671 288.853C132.881 287.647 132.985 286.762 132.983 286.196C132.982 285.492 132.735 285.141 132.245 285.142C131.957 285.143 131.637 285.299 131.286 285.609C130.935 285.908 130.594 286.32 130.265 286.844C129.947 287.356 129.676 288.013 129.455 288.814C129.243 289.604 129.139 290.388 129.141 291.167C129.143 291.935 129.177 292.505 129.242 292.878C128.986 292.9 128.842 292.912 128.81 292.912C128.308 292.913 127.935 292.807 127.689 292.595C127.454 292.382 127.335 292.052 127.334 291.604C127.333 291.145 127.427 290.27 127.615 288.979C128.17 285.009 128.444 281.995 128.438 279.937C128.436 279.009 128.37 278.385 128.241 278.065C128.861 278.287 129.293 278.617 129.54 279.054C129.797 279.49 129.927 280.093 129.929 280.861C129.93 281.394 129.827 282.514 129.618 284.221C129.42 285.929 129.285 287.166 129.212 287.934Z" fill="#0B090A"/>
<path d="M143.565 287.591C143.562 286.546 143.427 285.8 143.159 285.352C142.901 284.894 142.527 284.666 142.037 284.668C141.557 284.669 141.072 284.91 140.583 285.391C140.093 285.862 139.706 286.45 139.42 287.155C139.144 287.849 139.007 288.574 139.01 289.332C139.012 290.078 139.157 290.729 139.447 291.283C139.736 291.826 140.174 292.097 140.761 292.095C141.593 292.093 142.269 291.6 142.789 290.617C143.309 289.635 143.568 288.626 143.565 287.591ZM138.923 286.98C139.325 285.827 139.867 284.988 140.548 284.464C141.24 283.928 141.938 283.66 142.642 283.658C143.357 283.656 143.95 283.969 144.421 284.597C144.892 285.214 145.129 286.056 145.132 287.123C145.135 288.296 144.914 289.385 144.468 290.389C143.97 291.5 143.247 292.275 142.299 292.715C141.787 292.962 141.222 293.086 140.604 293.087C139.74 293.09 138.981 292.735 138.329 292.022C137.676 291.298 137.348 290.27 137.344 288.936C137.341 287.592 137.626 286.429 138.199 285.446C138.772 284.463 139.554 283.778 140.545 283.392C140.759 283.391 140.866 283.497 140.866 283.711C139.812 284.407 139.164 285.497 138.923 286.98Z" fill="#0B090A"/>
<path d="M149.808 287.622C150.188 286.235 150.644 285.215 151.176 284.563C151.718 283.9 152.218 283.568 152.677 283.567C153.146 283.565 153.499 283.74 153.734 284.092C153.97 284.432 154.088 284.869 154.09 285.403C154.091 285.936 153.954 286.4 153.678 286.796C153.401 287.181 152.997 287.374 152.463 287.375C152.293 287.376 152.159 287.365 152.063 287.344C152.424 286.821 152.604 286.287 152.603 285.743C152.602 285.359 152.447 285.167 152.137 285.168C151.892 285.169 151.631 285.313 151.354 285.602C151.078 285.891 150.812 286.292 150.558 286.804C150.303 287.317 150.092 287.984 149.923 288.806C149.755 289.628 149.672 290.513 149.674 291.463C149.675 291.569 149.703 292.023 149.758 292.823C149.481 292.845 149.321 292.856 149.278 292.856C148.34 292.858 147.869 292.401 147.866 291.484C147.866 291.27 147.976 290.449 148.196 289.019C148.416 287.589 148.525 286.453 148.522 285.61C148.52 284.757 148.427 283.973 148.244 283.259C148.874 283.502 149.312 283.853 149.559 284.311C149.816 284.758 149.946 285.286 149.947 285.894C149.949 286.491 149.902 287.067 149.808 287.622Z" fill="#0B090A"/>
<path d="M162.373 289.556C162.374 290.164 162.493 290.66 162.729 291.043C162.964 291.426 163.328 291.618 163.818 291.616C164.32 291.615 164.772 291.395 165.177 290.956C165.591 290.507 165.92 289.909 166.164 289.162C166.418 288.404 166.634 287.603 166.813 286.76C167.003 285.906 167.139 284.999 167.222 284.039C167.377 282.257 167.453 280.844 167.45 279.798C167.447 278.753 167.402 277.974 167.316 277.463C168.415 277.812 168.968 278.914 168.973 280.77C168.975 281.527 168.798 283.053 168.441 285.348C168.096 287.642 167.924 289.317 167.927 290.373C167.93 291.429 167.98 292.325 168.078 293.061C167.47 292.86 167.053 292.498 166.827 291.976C166.602 291.454 166.488 290.788 166.486 289.977C166.158 290.895 165.669 291.622 165.02 292.157C164.371 292.692 163.694 292.961 162.99 292.962C162.297 292.964 161.731 292.699 161.292 292.167C160.864 291.624 160.648 290.83 160.645 289.785C160.641 288.046 161.09 286.616 161.994 285.493C162.908 284.371 164.042 283.808 165.397 283.804C165.781 283.803 166.192 283.86 166.63 283.976C165.905 284.096 165.255 284.364 164.68 284.782C164.105 285.189 163.658 285.67 163.34 286.225C162.692 287.358 162.37 288.468 162.373 289.556Z" fill="#0B090A"/>
<path d="M177.267 287.499C177.264 286.454 177.128 285.708 176.86 285.261C176.603 284.803 176.229 284.574 175.739 284.576C175.259 284.577 174.774 284.818 174.285 285.3C173.795 285.77 173.407 286.358 173.121 287.063C172.846 287.757 172.709 288.483 172.711 289.24C172.713 289.987 172.859 290.637 173.149 291.191C173.438 291.734 173.876 292.005 174.463 292.003C175.295 292.001 175.971 291.508 176.491 290.526C177.011 289.543 177.269 288.534 177.267 287.499ZM172.625 286.888C173.027 285.735 173.569 284.896 174.25 284.372C174.942 283.836 175.64 283.568 176.344 283.566C177.058 283.564 177.651 283.877 178.122 284.505C178.593 285.123 178.83 285.965 178.833 287.031C178.836 288.205 178.615 289.293 178.17 290.297C177.672 291.408 176.949 292.183 176 292.623C175.489 292.87 174.924 292.994 174.306 292.996C173.442 292.998 172.683 292.643 172.031 291.93C171.378 291.206 171.05 290.178 171.046 288.844C171.043 287.5 171.327 286.337 171.901 285.354C172.474 284.371 173.256 283.686 174.247 283.3C174.46 283.299 174.567 283.406 174.568 283.619C173.514 284.315 172.866 285.405 172.625 286.888Z" fill="#0B090A"/>
<path d="M190.143 284.776C190.464 285.064 190.817 285.351 191.202 285.638C191.597 285.914 191.987 286.195 192.372 286.482C192.768 286.769 193.126 287.062 193.446 287.359C194.174 288.029 194.538 288.77 194.541 289.58C194.543 290.583 194.162 291.421 193.395 292.096C192.64 292.77 191.638 293.108 190.39 293.112C189.142 293.115 188.181 292.835 187.508 292.272C186.834 291.708 186.496 291.037 186.494 290.258C186.493 289.682 186.662 289.218 187.003 288.865C187.343 288.501 187.785 288.319 188.329 288.317C188.478 288.317 188.622 288.338 188.761 288.38C188.432 288.882 188.268 289.422 188.27 289.998C188.271 290.563 188.47 291.048 188.866 291.452C189.261 291.856 189.854 292.057 190.643 292.055C191.209 292.054 191.709 291.881 192.146 291.539C192.593 291.186 192.816 290.7 192.814 290.081C192.813 289.676 192.678 289.281 192.411 288.898C192.143 288.504 191.811 288.159 191.416 287.861C191.02 287.563 190.587 287.234 190.117 286.872C189.647 286.5 189.214 286.144 188.818 285.804C188.423 285.464 188.091 285.049 187.823 284.559C187.555 284.069 187.42 283.557 187.419 283.024C187.416 282.01 187.755 281.21 188.436 280.621C189.128 280.022 190.124 279.72 191.426 279.717C192.482 279.714 193.309 279.994 193.908 280.558C194.517 281.111 194.823 281.692 194.825 282.3C194.826 282.897 194.662 283.388 194.333 283.773C194.014 284.158 193.572 284.351 193.006 284.353C192.814 284.353 192.628 284.332 192.446 284.29C192.967 283.734 193.227 283.147 193.225 282.528C193.224 281.909 193.03 281.446 192.646 281.138C192.261 280.819 191.77 280.66 191.172 280.662C190.586 280.663 190.085 280.835 189.67 281.178C189.255 281.52 189.048 282.038 189.05 282.731C189.052 283.425 189.416 284.106 190.143 284.776Z" fill="#0B090A"/>
<path d="M203.21 283.413C204.128 283.41 204.588 283.884 204.59 284.833C204.591 285.004 204.491 285.756 204.292 287.09C204.093 288.413 203.995 289.549 203.998 290.499C204 291.448 204.104 292.285 204.308 293.01C203.657 292.756 203.203 292.394 202.945 291.926C202.699 291.457 202.575 290.876 202.573 290.183C202.572 289.916 202.629 289.313 202.744 288.374C202.427 289.591 201.934 290.616 201.264 291.45C200.594 292.273 199.972 292.686 199.396 292.687C198.18 292.691 197.569 291.807 197.564 290.036C197.563 289.45 197.646 288.633 197.814 287.587C197.992 286.531 198.081 285.731 198.079 285.187C198.078 284.643 198.001 284.094 197.851 283.539C198.533 283.538 199.046 283.653 199.388 283.887C199.729 284.121 199.901 284.574 199.903 285.246C199.904 285.608 199.794 286.355 199.573 287.487C199.352 288.618 199.243 289.456 199.244 290C199.246 290.789 199.493 291.183 199.983 291.182C200.389 291.18 200.809 290.865 201.245 290.234C201.691 289.593 202.062 288.765 202.358 287.751C202.654 286.737 202.801 285.734 202.798 284.742C202.797 284.294 202.763 283.862 202.698 283.446C202.933 283.424 203.104 283.413 203.21 283.413Z" fill="#0B090A"/>
<path d="M210.724 284.208C210.372 284.209 210.052 284.322 209.764 284.547C209.488 284.772 209.35 285.081 209.351 285.476C209.352 285.86 209.481 286.222 209.738 286.563C210.006 286.904 210.326 287.207 210.7 287.472C211.075 287.738 211.454 288.009 211.839 288.285C212.736 288.944 213.186 289.652 213.188 290.41C213.191 291.167 212.888 291.786 212.282 292.268C211.675 292.739 210.897 292.976 209.947 292.978C209.009 292.981 208.278 292.796 207.754 292.424C207.241 292.052 206.984 291.616 206.982 291.115C206.981 290.603 207.108 290.202 207.363 289.913C207.618 289.625 207.927 289.48 208.29 289.479C208.482 289.478 208.663 289.521 208.834 289.605C208.6 289.905 208.484 290.257 208.485 290.662C208.486 291.068 208.61 291.409 208.856 291.685C209.113 291.962 209.46 292.1 209.897 292.099C210.345 292.097 210.723 291.984 211.032 291.759C211.341 291.524 211.495 291.23 211.494 290.878C211.493 290.526 211.401 290.217 211.219 289.951C211.037 289.685 210.807 289.456 210.529 289.265C210.262 289.074 209.968 288.861 209.648 288.627C209.327 288.393 209.028 288.165 208.75 287.942C208.482 287.708 208.258 287.42 208.075 287.08C207.893 286.728 207.801 286.344 207.8 285.928C207.798 285.171 208.084 284.551 208.659 284.07C209.234 283.578 209.958 283.33 210.833 283.328C211.708 283.326 212.348 283.505 212.755 283.867C213.161 284.228 213.365 284.638 213.366 285.097C213.367 285.545 213.256 285.919 213.033 286.218C212.81 286.507 212.522 286.651 212.17 286.652C212 286.653 211.802 286.605 211.578 286.51C211.854 286.168 211.992 285.799 211.991 285.405C211.99 285.01 211.866 284.712 211.62 284.51C211.385 284.308 211.086 284.207 210.724 284.208Z" fill="#0B090A"/>
<path d="M217.724 287.693C218.073 286.487 218.609 285.472 219.332 284.649C220.066 283.815 220.753 283.397 221.393 283.395C222.033 283.393 222.487 283.59 222.754 283.983C223.022 284.367 223.157 284.894 223.159 285.566C223.16 286.228 223.056 287.161 222.846 288.367C222.647 289.573 222.548 290.453 222.549 291.008C222.551 291.552 222.621 291.952 222.761 292.208C222.9 292.452 223.135 292.665 223.466 292.846C223.328 292.857 223.13 292.862 222.874 292.863C222.192 292.865 221.685 292.728 221.353 292.451C221.033 292.164 220.871 291.679 220.869 290.997C220.868 290.602 220.973 289.807 221.183 288.612C221.393 287.406 221.497 286.52 221.496 285.955C221.494 285.251 221.247 284.9 220.757 284.901C220.469 284.902 220.149 285.057 219.798 285.368C219.447 285.667 219.107 286.079 218.777 286.602C218.459 287.115 218.189 287.772 217.967 288.573C217.756 289.362 217.651 290.147 217.653 290.925C217.655 291.693 217.689 292.264 217.754 292.637C217.498 292.659 217.354 292.67 217.322 292.67C216.821 292.672 216.447 292.566 216.201 292.353C215.966 292.141 215.848 291.81 215.846 291.362C215.845 290.904 215.939 290.029 216.127 288.738C216.682 284.768 216.956 281.754 216.951 279.695C216.948 278.767 216.882 278.143 216.753 277.824C217.373 278.046 217.806 278.376 218.052 278.812C218.309 279.249 218.439 279.851 218.441 280.619C218.443 281.153 218.339 282.273 218.13 283.98C217.932 285.687 217.797 286.925 217.724 287.693Z" fill="#0B090A"/>
<path d="M228.092 292.849C227.483 292.637 227.056 292.313 226.809 291.876C226.573 291.429 226.455 290.891 226.453 290.261C226.451 289.632 226.534 288.731 226.701 287.557C226.869 286.383 226.952 285.471 226.95 284.82C226.948 284.169 226.915 283.668 226.85 283.316C227.042 283.294 227.197 283.283 227.314 283.283C227.794 283.282 228.141 283.387 228.355 283.6C228.569 283.813 228.676 284.165 228.678 284.655C228.678 284.815 228.547 285.658 228.284 287.184C228.033 288.7 227.903 289.953 227.895 290.946C227.897 291.927 227.963 292.561 228.092 292.849ZM228.302 281.696C227.406 281.699 226.957 281.396 226.955 280.788C226.954 280.575 227.034 280.276 227.193 279.891C227.427 279.848 227.63 279.826 227.8 279.826C228.696 279.823 229.145 280.126 229.147 280.734C229.147 280.947 229.068 281.246 228.909 281.631C228.675 281.674 228.472 281.696 228.302 281.696Z" fill="#0B090A"/>
<path d="M232.202 290.262C232.884 290.26 233.226 290.584 233.228 291.235C233.23 291.886 233.008 292.51 232.561 293.109C232.115 293.707 231.466 294.242 230.614 294.714L230.228 294.235C231.016 293.476 231.408 292.611 231.405 291.64C231.404 291.288 231.323 290.888 231.162 290.441C231.514 290.322 231.86 290.263 232.202 290.262Z" fill="#0B090A"/>
<path d="M244.858 284.163C244.218 284.165 243.675 284.534 243.229 285.272C242.794 286.009 242.503 286.874 242.356 287.866L242.804 287.865C243.369 287.863 243.86 287.782 244.275 287.621C244.691 287.46 245.01 287.251 245.234 286.994C245.659 286.502 245.871 285.947 245.869 285.328C245.868 284.976 245.782 284.694 245.611 284.481C245.45 284.268 245.199 284.162 244.858 284.163ZM247.132 290.637C246.643 291.438 246.106 292 245.52 292.321C244.934 292.643 244.252 292.805 243.474 292.807C242.706 292.809 242.033 292.47 241.455 291.789C240.877 291.107 240.586 290.148 240.583 288.911C240.579 287.503 240.954 286.243 241.709 285.132C242.08 284.597 242.565 284.164 243.161 283.832C243.768 283.5 244.434 283.332 245.16 283.33C246.76 283.326 247.562 284.097 247.566 285.644C247.569 286.572 247.208 287.304 246.484 287.839C245.771 288.363 244.939 288.627 243.99 288.63C243.361 288.631 242.795 288.574 242.294 288.458C242.283 288.565 242.278 288.73 242.279 288.954C242.284 290.842 242.847 291.785 243.967 291.782C245.023 291.779 245.88 291.254 246.538 290.207C246.933 290.259 247.131 290.402 247.132 290.637Z" fill="#0B090A"/>
<path d="M257.312 286.465C257.036 286.967 256.803 287.608 256.613 288.387C256.423 289.166 256.329 289.903 256.331 290.596C256.333 291.289 256.367 291.935 256.433 292.532C256.155 292.554 255.99 292.565 255.937 292.565C255.009 292.568 254.544 292.116 254.541 291.209C254.54 290.878 254.65 290.057 254.87 288.744C255.101 287.431 255.216 286.45 255.214 285.799C255.213 285.138 254.966 284.808 254.476 284.809C253.868 284.811 253.251 285.399 252.624 286.574C251.998 287.749 251.688 289.174 251.692 290.849C251.694 291.382 251.727 291.947 251.793 292.544C251.515 292.566 251.35 292.578 251.297 292.578C250.369 292.58 249.904 292.128 249.901 291.222C249.901 291.104 250.005 290.309 250.215 288.837C250.435 287.364 250.543 286.201 250.541 285.348C250.539 284.484 250.446 283.695 250.263 282.98C250.903 283.224 251.347 283.575 251.593 284.033C251.851 284.491 251.98 285.056 251.982 285.728C251.983 286.069 251.947 286.501 251.874 287.024C252.233 285.956 252.732 285.07 253.37 284.364C254.008 283.658 254.594 283.305 255.128 283.303C256.322 283.3 256.922 284.221 256.927 286.066C257.319 285.212 257.771 284.539 258.282 284.047C258.803 283.544 259.287 283.292 259.735 283.291C260.386 283.289 260.845 283.485 261.113 283.879C261.381 284.262 261.516 284.79 261.517 285.462C261.519 286.123 261.415 287.057 261.205 288.263C261.006 289.469 260.907 290.349 260.908 290.904C260.91 291.448 260.98 291.847 261.12 292.103C261.259 292.348 261.494 292.561 261.825 292.741C261.687 292.752 261.489 292.758 261.233 292.759C260.551 292.76 260.044 292.623 259.712 292.347C259.391 292.06 259.23 291.575 259.228 290.892C259.227 290.497 259.332 289.702 259.542 288.507C259.752 287.301 259.856 286.416 259.854 285.85C259.853 285.146 259.606 284.795 259.116 284.796C258.838 284.797 258.54 284.947 258.221 285.247C257.902 285.546 257.599 285.953 257.312 286.465Z" fill="#0B090A"/>
<path d="M275.148 287.041L273.723 287.029C273.201 287.03 272.801 287.042 272.524 287.064C272.357 288.6 272.275 289.838 272.278 290.777C272.28 291.705 272.314 292.355 272.379 292.728C272.102 292.75 271.952 292.761 271.931 292.761C271.44 292.763 271.072 292.657 270.826 292.444C270.591 292.232 270.473 291.869 270.471 291.357C270.47 290.845 270.621 289.496 270.924 287.308C270.626 287.384 270.37 287.464 270.157 287.55C270.135 287.358 270.124 287.204 270.124 287.086C270.122 286.436 270.451 286.029 271.112 285.868C271.353 284.075 271.482 282.651 271.501 281.595C271.085 281.596 270.802 281.543 270.652 281.437C270.503 281.32 270.427 281.102 270.426 280.782C270.426 280.451 270.467 280.168 270.552 279.933C271.651 280.08 272.846 280.151 274.137 280.147C275.427 280.144 276.659 280.023 277.832 279.785C277.695 280.65 277.094 281.169 276.028 281.342C275.399 281.451 274.444 281.528 273.165 281.574C273.166 282.075 273.004 283.484 272.68 285.799C273.342 285.819 273.822 285.828 274.12 285.827C275.059 285.825 275.725 285.668 276.119 285.358C276.141 285.529 276.152 285.667 276.152 285.774C276.154 286.617 275.82 287.039 275.148 287.041Z" fill="#0B090A"/>
<path d="M282.232 284.061C281.592 284.063 281.049 284.433 280.603 285.17C280.167 285.907 279.876 286.772 279.73 287.764L280.178 287.763C280.743 287.761 281.233 287.68 281.649 287.519C282.065 287.358 282.384 287.149 282.607 286.892C283.033 286.401 283.244 285.845 283.243 285.227C283.242 284.875 283.156 284.592 282.984 284.379C282.824 284.166 282.573 284.06 282.232 284.061ZM284.505 290.535C284.017 291.337 283.48 291.898 282.894 292.22C282.308 292.541 281.626 292.703 280.847 292.705C280.079 292.707 279.406 292.368 278.828 291.687C278.25 291.006 277.96 290.046 277.956 288.809C277.953 287.401 278.328 286.141 279.082 285.03C279.454 284.496 279.938 284.062 280.535 283.73C281.142 283.398 281.808 283.231 282.533 283.229C284.133 283.224 284.935 283.995 284.94 285.542C284.942 286.47 284.581 287.202 283.858 287.737C283.144 288.262 282.313 288.525 281.364 288.528C280.734 288.529 280.169 288.472 279.667 288.356C279.657 288.463 279.652 288.628 279.653 288.852C279.658 290.74 280.22 291.683 281.34 291.68C282.396 291.677 283.254 291.152 283.912 290.105C284.307 290.157 284.505 290.301 284.505 290.535Z" fill="#0B090A"/>
<path d="M290.423 283.991C290.071 283.992 289.752 284.105 289.464 284.33C289.187 284.554 289.05 284.864 289.051 285.259C289.052 285.643 289.181 286.005 289.438 286.346C289.705 286.686 290.026 286.989 290.4 287.255C290.774 287.521 291.154 287.792 291.538 288.068C292.436 288.727 292.886 289.435 292.888 290.192C292.89 290.95 292.588 291.569 291.981 292.051C291.375 292.522 290.596 292.759 289.647 292.761C288.709 292.764 287.977 292.579 287.454 292.207C286.941 291.835 286.683 291.399 286.682 290.897C286.681 290.385 286.808 289.985 287.063 289.696C287.318 289.408 287.627 289.263 287.99 289.262C288.182 289.261 288.363 289.303 288.534 289.388C288.3 289.688 288.184 290.04 288.185 290.445C288.186 290.85 288.31 291.191 288.556 291.468C288.812 291.745 289.159 291.883 289.597 291.881C290.045 291.88 290.423 291.767 290.732 291.542C291.041 291.307 291.194 291.013 291.193 290.661C291.192 290.309 291.101 290 290.919 289.734C290.737 289.468 290.507 289.239 290.229 289.048C289.962 288.856 289.668 288.644 289.347 288.41C289.027 288.176 288.727 287.948 288.449 287.724C288.182 287.49 287.957 287.203 287.775 286.862C287.593 286.511 287.501 286.127 287.5 285.711C287.498 284.954 287.784 284.334 288.359 283.853C288.934 283.36 289.658 283.113 290.533 283.111C291.408 283.108 292.048 283.288 292.454 283.649C292.861 284.011 293.064 284.421 293.066 284.88C293.067 285.328 292.956 285.701 292.733 286.001C292.51 286.289 292.222 286.434 291.87 286.435C291.699 286.436 291.502 286.388 291.278 286.293C291.554 285.951 291.692 285.582 291.691 285.188C291.689 284.793 291.566 284.495 291.32 284.293C291.085 284.091 290.786 283.99 290.423 283.991Z" fill="#0B090A"/>
<path d="M300.582 283.643C300.583 284.091 300.498 284.401 300.328 284.572C300.158 284.743 299.908 284.829 299.577 284.83L298.425 284.833C298.383 285.111 298.273 285.772 298.094 286.818C297.737 288.803 297.56 290.302 297.563 291.316C297.565 292.329 297.642 293.001 297.792 293.331C297.183 293.109 296.75 292.774 296.493 292.327C296.236 291.869 296.107 291.314 296.105 290.664C296.103 290.013 296.139 289.399 296.212 288.823C296.295 288.236 296.411 287.553 296.558 286.774C296.705 285.995 296.81 285.371 296.873 284.901C296.265 284.988 295.668 285.161 295.082 285.418C295.061 285.248 295.05 285.093 295.049 284.954C295.048 284.442 295.218 284.101 295.558 283.929C295.899 283.747 296.39 283.655 297.03 283.653C297.102 282.863 297.138 282.277 297.137 281.893C297.136 281.498 297.13 281.183 297.118 280.949C297.118 280.714 297.117 280.538 297.117 280.421C297.608 280.494 297.987 280.712 298.255 281.074C298.522 281.425 298.657 281.91 298.659 282.529C298.659 282.849 298.634 283.238 298.582 283.697C299.51 283.694 300.165 283.538 300.548 283.227C300.57 283.377 300.581 283.515 300.582 283.643Z" fill="#0B090A"/>
<path d="M304.026 292.642C303.417 292.43 302.99 292.106 302.743 291.669C302.507 291.222 302.389 290.684 302.387 290.054C302.385 289.425 302.468 288.524 302.636 287.35C302.803 286.176 302.886 285.264 302.884 284.613C302.882 283.962 302.849 283.461 302.784 283.109C302.976 283.087 303.131 283.076 303.248 283.076C303.728 283.075 304.075 283.18 304.289 283.393C304.503 283.606 304.61 283.958 304.612 284.448C304.612 284.608 304.481 285.451 304.219 286.977C303.967 288.493 303.837 289.746 303.829 290.739C303.832 291.72 303.897 292.354 304.026 292.642ZM304.236 281.489C303.34 281.492 302.891 281.189 302.889 280.581C302.889 280.368 302.968 280.069 303.127 279.684C303.361 279.641 303.564 279.619 303.735 279.619C304.631 279.616 305.079 279.919 305.081 280.527C305.082 280.74 305.002 281.039 304.843 281.424C304.609 281.467 304.406 281.489 304.236 281.489Z" fill="#0B090A"/>
<path d="M310.318 292.385C310.062 292.535 309.775 292.61 309.455 292.611C309.145 292.612 308.974 292.532 308.942 292.373C308.769 291.69 308.569 290.672 308.342 289.318C308.114 287.953 307.881 286.765 307.644 285.752C307.417 284.729 307.143 283.956 306.822 283.434C307.205 283.156 307.583 283.016 307.956 283.015C308.436 283.014 308.779 283.29 308.983 283.844C309.187 284.388 309.382 285.539 309.568 287.299C309.754 289.048 309.917 290.183 310.057 290.706C312.116 286.711 313.143 284.073 313.14 282.793C313.802 283.239 314.134 283.702 314.136 284.182C314.137 284.652 313.915 285.308 313.469 286.152C313.034 286.985 312.482 288 311.813 289.197C311.155 290.383 310.657 291.445 310.318 292.385Z" fill="#0B090A"/>
<path d="M318.311 286.107C318.003 286.641 317.765 287.191 317.595 287.757C317.437 288.312 317.358 288.846 317.36 289.358C317.361 289.87 317.474 290.307 317.699 290.669C317.935 291.02 318.266 291.195 318.693 291.194C319.29 291.192 319.849 290.866 320.37 290.213C320.891 289.551 321.289 288.755 321.564 287.826C321.849 286.887 321.991 286.022 321.989 285.233C321.986 284.433 321.953 283.777 321.887 283.265C322.143 283.243 322.303 283.232 322.367 283.232C323.274 283.229 323.728 283.692 323.731 284.62C323.731 284.823 323.606 285.65 323.354 287.101C323.102 288.542 322.977 289.7 322.979 290.574C322.981 291.438 323.149 292.206 323.481 292.877C322.809 292.74 322.318 292.448 322.007 292.001C321.707 291.543 321.556 290.888 321.554 290.034C321.553 289.885 321.574 289.597 321.615 289.17C321.33 290.184 320.826 291.002 320.102 291.622C319.378 292.243 318.664 292.554 317.96 292.556C317.267 292.558 316.706 292.298 316.278 291.777C315.85 291.244 315.635 290.514 315.632 289.586C315.63 288.648 315.798 287.735 316.137 286.849C316.486 285.952 317.007 285.177 317.699 284.525C318.401 283.872 319.184 283.545 320.048 283.542C320.421 283.541 320.832 283.615 321.281 283.763C320.652 283.925 320.076 284.22 319.555 284.648C319.033 285.076 318.619 285.562 318.311 286.107Z" fill="#0B090A"/>
<path d="M326.577 291.172C326.566 291.002 326.56 290.73 326.559 290.357C326.558 289.973 326.729 288.351 327.073 285.491C327.428 282.631 327.604 280.668 327.601 279.602C327.599 278.535 327.533 277.842 327.404 277.522C328.002 277.745 328.424 278.074 328.67 278.511C328.917 278.947 329.041 279.475 329.043 280.094C329.044 280.712 328.894 282.313 328.592 284.895C328.29 287.477 328.141 289.558 328.145 291.136C328.146 291.478 328.168 291.957 328.213 292.576C327.626 292.535 327.21 292.397 326.964 292.163C326.76 291.972 326.632 291.642 326.577 291.172Z" fill="#0B090A"/>
<path d="M334.739 281.07C334.74 281.401 334.65 281.924 334.471 282.639C333.901 284.827 333.618 286.524 333.621 287.729C333.622 288.263 333.666 288.63 333.752 288.833C333.229 288.642 332.855 288.361 332.63 287.988C332.405 287.615 332.291 287.114 332.289 286.485C332.288 285.845 332.418 284.858 332.681 283.524C332.944 282.19 333.075 281.24 333.074 280.675C333.072 280.099 333.055 279.725 333.023 279.555C333.375 279.554 333.748 279.686 334.144 279.952C334.539 280.207 334.737 280.58 334.739 281.07ZM331.853 290.63C332.14 290.523 332.423 290.469 332.7 290.468C332.978 290.467 333.212 290.53 333.405 290.658C333.597 290.785 333.694 290.961 333.694 291.185C333.695 291.398 333.6 291.783 333.409 292.338C333.122 292.445 332.839 292.499 332.562 292.5C332.285 292.501 332.05 292.438 331.857 292.31C331.665 292.183 331.569 292.012 331.568 291.799C331.567 291.575 331.662 291.185 331.853 290.63Z" fill="#0B090A"/>
</g>
<g id="Sushi Fest">
<path d="M43.9781 266.805C42.5621 266.809 41.0265 266.223 39.3713 265.048C37.7947 263.872 37.0043 262.498 37 260.924C36.9968 259.744 37.2297 258.603 37.6987 257.5C38.1675 256.319 38.6758 255.216 39.2237 254.192L39.2227 253.838C39.8495 252.893 40.634 252.104 41.5763 251.472C41.8112 251.078 42.0459 250.605 42.2804 250.054C42.5934 249.424 42.9857 249.069 43.4575 248.989L44.0485 249.341C43.1862 250.445 42.3636 251.706 41.5808 253.124L40.1847 260.444C40.6587 261.15 41.407 261.502 42.4296 261.5C43.8456 261.496 45.5755 261.216 47.6194 260.659C49.6634 260.182 51.7072 259.626 53.7508 258.991C55.7944 258.356 57.5236 257.8 58.9383 257.325L58.938 257.207C59.3313 257.205 59.7245 257.165 60.1177 257.085C60.5892 256.927 60.903 256.611 61.0591 256.139L60.9401 255.785L61.8844 255.901C62.3558 255.663 62.8271 255.426 63.2985 255.189C63.7699 254.951 64.2808 254.793 64.8312 254.712C65.145 254.397 65.9692 253.726 67.3037 252.7C68.6381 251.595 70.1296 250.45 71.7784 249.266C73.4269 248.002 74.9186 246.897 76.2534 245.949C77.5881 245.002 78.4126 244.449 78.7268 244.291L79.5493 242.99L80.492 242.516L80.4888 241.336C80.6429 240.155 80.0898 239.252 78.8294 238.626C77.5688 237.922 75.9152 237.336 73.8686 236.87C71.822 236.403 69.618 235.937 67.2568 235.472C64.9742 235.006 62.7698 234.383 60.6436 233.602C58.596 232.742 56.9016 231.645 55.5607 230.312C54.2983 228.978 53.6642 227.209 53.6582 225.007L53.0692 225.362L52.8322 225.009C52.8277 223.357 53.7669 221.585 55.6497 219.691C57.6112 217.798 60.0842 215.943 63.0686 214.125C66.0527 212.229 69.1553 210.49 72.3764 208.908C75.6759 207.247 78.7008 205.862 81.4511 204.753C84.2799 203.565 86.4409 202.733 87.9343 202.257C89.2721 202.411 90.4922 202.722 91.5949 203.191C92.7759 203.581 93.5259 204.563 93.8449 206.135C94.7094 205.818 95.1402 205.148 95.1374 204.126C95.1359 203.575 95.0952 203.064 95.0152 202.592C94.9351 202.042 94.7765 201.57 94.5394 201.177L95.0107 200.94C95.4041 200.939 96.1125 201.094 97.136 201.406C98.238 201.639 99.4188 201.951 100.679 202.341C101.938 202.73 103.041 203.121 103.986 203.512C105.01 203.902 105.6 204.254 105.759 204.569L105.291 206.34L103.17 207.172L102.343 206.82C101.557 207.137 101.205 207.806 101.286 208.829C101.368 209.851 101.133 210.442 100.583 210.601L99.5198 210.132L99.5201 210.25L100.351 211.899L100.116 212.254L100.471 212.843L100.118 212.962L99.2906 212.61C98.9776 213.241 98.7441 214.146 98.59 215.326C98.4356 216.428 97.9259 217.019 97.0608 217.1C96.1976 217.89 95.2564 218.915 94.2372 220.176C93.2177 221.359 92.0396 222.031 90.7027 222.192L90.702 221.956L91.0496 219.595L90.694 219.006C90.9263 217.668 91.2371 216.251 91.6264 214.755C92.0156 213.26 92.4448 211.96 92.9138 210.858C92.2819 209.915 91.5322 209.052 90.6647 208.268C89.8759 207.483 88.8915 207.093 87.7115 207.096C86.2955 207.1 84.33 207.538 81.8151 208.41C79.2999 209.204 76.5496 210.312 73.5641 211.737C70.6571 213.082 67.9079 214.623 65.3167 216.361C62.7254 218.099 60.6456 219.874 59.0772 221.688C57.5088 223.502 56.8448 225.234 57.0853 226.885C56.77 226.65 56.5725 226.336 56.4928 225.943C56.413 225.55 56.3726 225.157 56.3715 224.763C56.3705 224.37 56.3694 223.977 56.3683 223.583C56.4459 223.19 56.5236 222.836 56.6014 222.521C56.0529 223.309 55.78 224.214 55.7828 225.237C55.788 227.125 56.5786 228.578 58.1547 229.597C59.7308 230.615 61.7783 231.396 64.2971 231.94C66.816 232.484 69.492 232.988 72.3253 233.452C75.1583 233.838 77.8343 234.302 80.3531 234.846C82.8719 235.39 84.9195 236.21 86.4958 237.307C88.072 238.326 88.8626 239.779 88.8677 241.667C88.8705 242.69 88.6371 243.634 88.1675 244.501C87.6976 245.289 87.2672 246.116 86.8762 246.982C86.0117 247.299 85.4623 247.734 85.2278 248.285C84.9933 248.836 84.641 249.466 84.1709 250.176C83.542 250.335 82.7175 250.888 81.6974 251.834C80.7558 252.702 80.0489 253.098 79.5766 253.02C79.2624 253.178 78.9091 253.415 78.5166 253.731C78.2026 253.968 77.9674 254.283 77.8112 254.677L77.4565 254.442C76.5944 255.624 75.1423 256.808 73.1002 257.994C71.0581 259.18 68.6617 260.287 65.9112 261.318C63.2393 262.348 60.4885 263.26 57.6586 264.054C54.9077 264.927 52.3135 265.603 49.8761 266.081C47.4388 266.56 45.4728 266.801 43.9781 266.805ZM89.4104 224.319L89.9956 222.548L90.5869 223.018L89.4104 224.319ZM82.3707 239.089L82.6051 238.498L82.2498 238.027L81.5428 238.383L82.3707 239.089ZM87.5746 243.44L87.5739 243.204L86.863 242.144L86.7466 242.735L86.7479 243.207L87.5746 243.44ZM85.338 245.453L86.1628 244.978L86.2779 243.916L86.157 242.854C85.3724 243.643 84.942 244.47 84.8657 245.336L85.338 245.453ZM85.4605 247.104L86.637 245.803L86.6367 245.685L84.7503 246.28L84.9882 246.988L85.4605 247.104ZM82.1623 249.237L83.46 249.116L84.3989 247.225L82.9864 248.527L82.5131 248.056L82.162 249.119L82.1623 249.237Z" fill="#0B090A"/>
<path d="M119.622 266.009L117.844 263.182C117.764 262.71 117.605 262.239 117.368 261.767C117.209 261.296 117.129 260.785 117.128 260.234C117.126 259.447 117.163 258.739 117.24 258.11C117.317 257.401 117.393 256.654 117.47 255.867L118.291 253.977L118.172 253.741C118.329 253.426 118.446 253.111 118.524 252.796C118.68 252.402 118.797 252.048 118.875 251.733L118.402 251.38C117.851 251.382 117.066 251.935 116.046 253.039C115.105 254.064 114.006 255.09 112.751 256.116C111.573 257.142 110.198 257.657 108.625 257.661C107.602 257.664 106.657 257.352 105.79 256.725C104.923 256.098 104.527 255.155 104.603 253.896L104.484 253.66C105.345 252.085 106.088 250.47 106.713 248.816C107.337 247.163 108.002 245.548 108.705 243.973L107.994 242.677L107.64 242.796L107.05 242.561L105.873 243.745L104.222 244.103L104.459 244.692L104.223 244.693L103.044 245.05L102.81 245.523L102.102 245.525L101.986 246.233C101.593 246.628 101.162 247.061 100.691 247.535C100.22 248.008 99.6705 248.285 99.0414 248.365L91.9798 255.11L91.8608 254.757C91.8593 254.206 92.0548 253.773 92.4473 253.457C92.8395 253.063 93.1926 252.708 93.5064 252.392L93.6237 252.156L93.9771 251.919L94.0954 252.037L94.4471 251.21L94.3291 251.21C94.486 251.052 94.6428 250.855 94.7995 250.619C95.0347 250.303 95.3096 250.145 95.6242 250.145L95.8602 250.144C95.8602 250.144 95.86 250.065 95.8596 249.908C96.3297 249.199 96.9573 248.568 97.7424 248.015L98.0964 248.014L98.4495 247.659L98.3308 247.423L99.5095 246.948C99.4287 246.161 100.056 245.294 101.39 244.347C102.725 243.399 104.178 242.569 105.75 241.857C107.321 241.066 108.421 240.67 109.05 240.668C109.916 240.666 110.939 240.899 112.12 241.368C113.301 241.758 113.893 242.503 113.896 243.605C113.902 245.807 113.514 247.578 112.731 248.918C111.948 250.257 111.518 251.124 111.44 251.517L111.795 251.752C112.739 251.75 113.485 251.473 114.034 250.92C114.583 250.29 115.132 249.659 115.681 249.028C116.309 248.397 117.055 248.041 117.92 247.96C117.841 247.881 117.881 247.842 118.038 247.841C118.195 247.762 118.274 247.801 118.274 247.959C118.588 247.407 119.293 246.54 120.391 245.357C121.489 244.095 122.627 242.912 123.804 241.808C124.981 240.703 125.805 240.15 126.277 240.149C127.142 240.147 128.127 240.459 129.23 241.085C130.333 241.711 130.886 242.496 130.888 243.44C130.889 243.834 130.577 244.582 129.95 245.685C129.402 246.709 128.737 247.812 127.953 248.994C127.17 250.177 126.386 251.241 125.602 252.187C124.896 253.054 124.347 253.567 123.954 253.725C123.25 254.986 122.27 256.444 121.016 258.099C119.84 259.676 119.255 261.251 119.259 262.824C119.26 263.375 119.34 263.886 119.499 264.357C119.658 264.829 119.738 265.301 119.739 265.773L119.622 266.009Z" fill="#0B090A"/>
<path d="M133.703 265.971C133.229 265.264 132.991 264.557 132.989 263.849C132.988 263.298 133.104 262.786 133.339 262.314C133.495 261.841 133.691 261.408 133.926 261.014L134.044 261.014L133.925 260.896C134.474 260.108 135.336 259.083 136.513 257.821C137.768 256.559 139.102 255.415 140.516 254.388C141.929 253.362 143.068 252.808 143.933 252.727L144.64 252.253C145.031 251.623 145.62 251.031 146.405 250.478C147.269 249.846 148.015 249.333 148.643 248.938L149.351 249.054L149.232 248.582L149.585 248.345L149.228 247.166C148.44 246.854 147.417 246.463 146.157 245.995C144.975 245.526 143.873 244.939 142.848 244.234C141.902 243.45 141.427 242.546 141.425 241.524C141.422 240.737 142.127 239.634 143.54 238.214C144.952 236.794 146.639 235.373 148.602 233.952C150.643 232.452 152.567 231.188 154.374 230.16C156.259 229.132 157.595 228.618 158.381 228.615C159.403 228.219 160.149 227.588 160.618 226.721C161.088 225.855 161.518 225.067 161.91 224.358C162.38 223.57 163.008 223.175 163.795 223.173C164.817 223.17 165.684 223.679 166.395 224.7C167.184 225.72 167.737 226.623 168.054 227.409C167.976 227.724 167.741 228 167.348 228.237C167.034 228.474 166.799 228.789 166.643 229.183C165.701 229.972 164.917 230.958 164.291 232.139C163.743 233.242 163.196 234.345 162.648 235.448L160.527 236.634L160.172 236.163L160.054 236.163C159.74 236.557 159.427 236.912 159.113 237.227C158.799 237.543 158.564 237.898 158.408 238.291C158.094 238.607 157.781 239.08 157.468 239.71C157.233 240.261 156.88 240.577 156.408 240.657L156.29 240.421C156.68 239.161 157.069 237.902 157.459 236.642C157.849 235.304 158.278 234.004 158.747 232.744L158.982 232.626L159.214 230.855C158.427 230.857 157.68 231.056 156.973 231.451C156.266 231.846 155.48 232.006 154.614 231.93C154.3 232.167 153.751 232.64 152.966 233.35C152.26 234.06 151.554 234.691 150.847 235.244C150.141 235.797 149.591 236.113 149.198 236.192C148.728 237.059 148.023 237.887 147.081 238.676C146.218 239.465 145.788 240.41 145.791 241.512C145.792 241.984 146.029 242.298 146.501 242.454C146.973 242.531 147.406 242.569 147.799 242.568L147.801 243.276L148.037 243.158L149.926 243.624L150.279 243.27C151.303 243.503 152.562 243.893 154.059 244.439C155.633 244.907 157.012 245.572 158.194 246.434C159.455 247.296 160.087 248.435 160.091 249.851C160.093 250.401 159.976 250.952 159.742 251.504C159.507 252.055 159.194 252.607 158.802 253.158L156.919 255.051L153.969 254.823C153.419 255.218 152.476 255.575 151.14 255.893C149.803 256.133 148.545 256.372 147.366 256.612C146.265 256.851 145.715 257.127 145.716 257.442L144.651 256.501C144.26 257.21 143.671 257.566 142.884 257.568C142.098 257.57 141.311 257.572 140.524 257.574C139.816 257.576 138.991 258.011 138.05 258.879C137.187 259.747 136.403 260.693 135.698 261.717C134.993 262.821 134.562 263.726 134.407 264.435L133.703 265.971Z" fill="#0B090A"/>
<path d="M170.264 261.741C169.242 261.744 168.572 261.234 168.254 260.213C168.016 259.269 167.895 258.404 167.893 257.618C167.892 257.067 168.007 256.005 168.238 254.431C168.549 252.856 168.938 251.361 169.406 249.943C169.874 248.447 170.383 247.699 170.934 247.697C171.01 246.832 171.322 245.729 171.869 244.391C172.416 243.052 173.122 242.263 173.987 242.025L173.986 241.907C174.143 241.67 174.339 241.434 174.574 241.197C174.81 240.961 175.045 240.724 175.28 240.487L175.398 240.251L175.398 240.369L175.512 238.717C175.904 238.48 176.218 238.085 176.452 237.534C176.687 236.904 177 236.431 177.393 236.116L177.748 236.469C178.296 235.838 178.885 235.207 179.512 234.576C180.218 233.866 180.57 233.039 180.568 232.095C180.959 231.465 181.39 230.913 181.861 230.439C182.41 229.887 182.92 229.335 183.391 228.783L183.745 228.782C184.137 228.388 184.569 228.19 185.041 228.189L185.511 227.597L185.508 226.299L185.979 225.944C186.371 225.392 186.88 224.604 187.506 223.58C188.133 222.556 188.445 221.768 188.444 221.217C188.443 220.981 188.246 220.864 187.853 220.865C187.538 220.866 187.185 220.945 186.792 221.104C186.399 221.184 186.123 221.224 185.966 221.224L185.964 220.634L191.969 215.544L191.968 215.426C192.989 214.715 193.97 213.965 194.912 213.176C195.854 212.308 196.835 211.558 197.856 210.926C198.722 211.081 199.666 211.353 200.69 211.744C201.714 212.056 202.423 212.644 202.819 213.508L202.823 215.042C202.274 215.594 201.333 216.58 199.999 218C198.666 219.42 197.136 221.036 195.41 222.85C193.685 224.586 191.959 226.321 190.233 228.057C188.506 229.713 186.976 231.094 185.642 232.199C184.386 233.304 183.523 233.896 183.051 233.976L181.638 235.278L182.231 236.338L181.644 237.52C181.016 237.679 180.348 238.192 179.643 239.059C179.015 239.848 178.703 240.596 178.705 241.304C177.998 241.621 177.527 241.976 177.292 242.37C177.135 242.764 176.9 243.158 176.587 243.552C176.352 243.946 175.684 244.341 174.584 244.737L174.232 245.328L174.239 247.924L174.712 248.277L174.121 248.043L173.652 248.988L173.416 248.988C173.182 249.776 173.066 250.602 173.068 251.467L173.662 252.882C173.976 252.488 174.604 251.896 175.545 251.107C176.487 250.239 176.918 249.608 176.838 249.215L177.78 248.269C178.014 247.481 178.562 246.496 179.424 245.314C180.364 244.053 181.384 242.909 182.482 241.884C183.581 240.858 184.523 240.344 185.31 240.342L185.31 240.224L187.08 240.337C188.183 240.885 188.854 241.827 189.094 243.164C189.333 244.5 189.692 246.073 190.169 247.881C190.724 249.61 191.909 251.416 193.723 253.299L195.608 252.114L195.962 252.113C196.276 251.719 196.747 251.364 197.375 251.047C198.082 250.731 198.672 250.454 199.143 250.216L199.261 250.334C199.262 250.727 198.674 251.398 197.497 252.345C196.398 253.292 195.22 254.16 193.964 254.95C192.707 255.741 191.804 256.215 191.254 256.374L190.899 256.139L189.72 256.378L189.364 255.789C187.397 255.558 185.98 255.051 185.112 254.267C184.244 253.404 183.652 252.461 183.334 251.439C183.096 250.417 182.896 249.474 182.737 248.609C182.577 247.744 182.143 247.195 181.434 246.961C180.885 247.513 180.375 248.065 179.905 248.617C179.434 249.169 178.964 249.76 178.493 250.391C177.786 250.707 177.08 251.456 176.376 252.638C175.749 253.82 175.124 255.12 174.498 256.538C173.951 257.955 173.325 259.176 172.62 260.201C171.915 261.225 171.13 261.739 170.264 261.741ZM184.317 222.291L184.198 221.937L184.55 221.11L185.258 221.226L185.496 222.051L184.317 222.291Z" fill="#0B090A"/>
<path d="M218.916 229.276C218.68 229.277 218.05 229.2 217.027 229.046C216.082 228.812 215.61 228.538 215.609 228.223C215.606 227.043 216.193 226.176 217.372 225.623C218.629 225.068 219.65 224.515 220.435 223.962L220.671 223.962C221.77 223.093 223.066 222.5 224.56 222.181C226.133 221.862 227.588 221.661 228.925 221.579L228.807 221.697C227.314 222.173 225.979 223.042 224.802 224.304C223.625 225.488 222.527 226.631 221.507 227.735C220.566 228.761 219.702 229.274 218.916 229.276ZM203.783 262.122L201.888 259.413C201.808 258.862 201.688 258.351 201.53 257.88C201.371 257.33 201.291 256.779 201.289 256.229C201.287 255.521 201.324 254.812 201.401 254.104C201.478 253.396 201.555 252.688 201.631 251.98L202.452 249.971L202.334 249.854C202.724 248.909 203.114 247.688 203.504 246.192C203.893 244.697 204.361 243.201 204.907 241.705C205.532 240.13 206.276 238.83 207.139 237.804C208.001 236.701 209.062 236.147 210.32 236.144C211.186 236.141 212.17 236.453 213.273 237.08C214.376 237.706 214.929 238.531 214.932 239.553C214.933 239.947 214.62 240.655 213.993 241.68C213.446 242.704 212.78 243.846 211.997 245.107C211.213 246.289 210.43 247.354 209.645 248.3C208.94 249.167 208.43 249.68 208.116 249.838C207.411 251.098 206.432 252.556 205.178 254.212C203.923 255.867 203.298 257.403 203.302 258.819C203.304 259.37 203.384 259.881 203.542 260.352C203.78 260.824 203.899 261.335 203.9 261.885L203.783 262.122Z" fill="#0B090A"/>
<path d="M249.478 266.835C247.982 266.289 246.406 265.585 244.752 264.724C243.098 263.942 241.679 262.884 240.495 261.55C239.39 260.215 238.835 258.604 238.83 256.716C238.828 255.851 238.943 254.985 239.177 254.119C239.411 253.175 239.88 252.426 240.587 251.873C240.666 252.188 240.667 252.502 240.59 252.817C240.59 253.132 240.591 253.486 240.592 253.879C240.599 256.397 241.509 258.243 243.322 259.418C245.134 260.593 247.142 261.178 249.344 261.172C251.862 261.165 254.181 260.529 256.301 259.265C258.5 258 260.345 256.5 261.835 254.765L261.833 253.939L261.951 253.939L262.656 252.993C263.049 252.835 263.402 252.637 263.716 252.4C264.031 252.163 264.305 251.927 264.541 251.69L264.538 250.746C265.638 250.192 266.619 249.285 267.481 248.024C268.421 246.684 269.204 245.502 269.831 244.478C270.46 244.476 270.892 244.121 271.126 243.412C271.36 242.625 271.515 241.995 271.593 241.523L271.711 241.404L271.592 241.169C269.94 241.173 268.249 241.375 266.52 241.773C264.868 242.092 263.178 242.332 261.447 242.494C259.956 243.757 258.267 244.391 256.379 244.396C255.513 244.399 254.608 244.165 253.663 243.696C252.717 243.226 252.243 242.48 252.241 241.458C252.239 240.907 252.434 240.238 252.825 239.45C253.295 238.662 253.844 237.953 254.471 237.321C255.177 236.612 255.806 236.256 256.356 236.254L256.594 236.962L258.482 236.957C259.348 236.954 260.174 236.913 260.96 236.832C261.825 236.751 262.651 236.709 263.438 236.707L264.498 236.114L265.562 236.701C265.954 236.385 266.74 236.226 267.92 236.223C269.022 236.22 270.241 236.295 271.579 236.449C272.995 236.602 274.058 236.639 274.765 236.558C275.391 235.219 276.056 233.959 276.761 232.777C277.466 231.516 278.052 230.256 278.521 228.996L279.345 228.286C280.046 225.609 280.904 223.011 281.92 220.491C282.935 217.892 283.872 215.293 284.73 212.695L280.6 212.706C279.735 212.709 278.83 212.75 277.887 212.832C277.022 212.913 276.196 213.151 275.411 213.546L273.994 213.432C272.893 213.278 271.792 213.399 270.691 213.795C269.67 214.191 268.688 214.627 267.745 215.101L267.273 214.984L266.919 215.339C262.752 216.059 258.744 217.682 254.897 220.21C251.128 222.738 247.95 225.657 245.363 228.968L246.544 229.673L248.668 229.431L249.023 229.784C248.631 230.179 248.159 230.495 247.609 230.732C247.059 230.97 246.509 231.168 245.959 231.327L245.013 230.503L244.07 230.86C243.832 230.388 243.713 229.956 243.712 229.563C243.708 228.147 244.373 226.572 245.705 224.837C247.117 223.103 248.293 221.723 249.234 220.698L249.232 219.99C250.88 218.648 252.961 217.305 255.475 215.961C258.067 214.538 260.856 213.271 263.843 212.162C266.829 211.052 269.816 210.179 272.804 209.541C275.791 208.825 278.504 208.464 280.943 208.457C281.493 208.456 282.005 208.494 282.477 208.571C282.949 208.57 283.421 208.608 283.893 208.685C284.207 208.448 284.561 208.29 284.954 208.21C285.347 208.131 285.701 208.051 286.015 207.971L285.425 207.855C286.052 206.831 286.363 205.768 286.36 204.666C286.518 204.587 286.675 204.508 286.832 204.429C287.068 204.35 287.264 204.31 287.421 204.31C288.287 204.307 289.428 204.383 290.844 204.536C292.339 204.689 293.638 205.079 294.741 205.706C295.923 206.253 296.437 207.196 296.283 208.533C297.62 208.372 298.957 208.29 300.294 208.286C301.632 208.204 302.969 208.161 304.306 208.158C306.666 208.151 309.026 208.302 311.387 208.61C313.827 208.918 316.11 209.738 318.238 211.07L317.885 211.543C318.123 212.329 318.597 212.839 319.305 213.073L319.662 214.016L318.838 214.608L319.313 215.905C318.767 217.401 318.219 218.386 317.669 218.859C317.12 219.333 316.019 219.65 314.368 219.812L313.422 219.225L309.415 221.006L309.297 220.888L309.766 219.825L309.766 219.707C309.295 220.101 308.784 220.457 308.234 220.773C307.685 221.089 307.095 221.287 306.466 221.368L306.111 221.133L306.464 220.778C307.958 220.302 309.214 219.551 310.234 218.525C311.254 217.5 312.156 216.357 312.939 215.096L312.698 213.209L309.508 211.683L309.389 211.33C308.365 211.018 307.303 210.863 306.201 210.866C305.1 210.791 303.998 210.754 302.897 210.757C301.796 210.76 300.695 210.881 299.594 211.12C298.572 211.359 297.51 211.519 296.409 211.601L296.884 212.544C296.806 212.859 296.65 213.41 296.416 214.197C296.183 214.984 295.869 215.418 295.476 215.498L294.057 214.557L293.94 214.676C293.864 215.699 293.591 216.722 293.122 217.746C292.653 218.691 292.104 219.558 291.477 220.347C290.14 220.429 289.473 221.178 289.477 222.594L290.187 223.064L290.657 222.355L291.128 222.235L291.365 222.589C290.817 223.456 290.229 224.087 289.6 224.482C288.971 224.483 288.421 224.721 287.95 225.194C287.558 225.667 287.048 225.944 286.419 226.024C285.79 226.341 285.359 226.775 285.124 227.326C284.968 227.877 284.458 228.39 283.594 228.864L283.713 229.1C283.399 229.415 282.89 230.046 282.184 230.992C281.557 231.859 280.97 232.765 280.422 233.711C279.873 234.578 279.56 235.247 279.483 235.719L279.719 235.719L280.075 236.426C280.861 236.188 281.608 236.067 282.316 236.066C283.024 235.985 283.771 235.944 284.558 235.941C285.344 235.939 286.092 235.937 286.8 235.935C287.508 235.933 288.216 235.892 288.923 235.812C296.786 234.453 304.493 233.37 312.043 232.563L312.632 232.325L312.869 232.56C312.634 233.19 311.613 233.783 309.805 234.339C308.076 234.894 305.954 235.411 303.438 235.89C300.921 236.29 298.366 236.651 295.771 236.973C293.175 237.295 290.816 237.537 288.693 237.7C286.648 237.863 285.192 237.946 284.327 237.948C284.328 238.263 283.7 238.618 282.442 239.015C281.184 239.412 279.848 239.848 278.434 240.324C277.097 240.721 276.155 241.274 275.606 241.984L275.61 243.518L275.02 243.283C274.391 243.364 273.959 243.68 273.724 244.231C273.49 244.704 273.334 245.255 273.257 245.884C272.471 246.358 271.726 246.95 271.02 247.66C270.313 248.292 269.568 248.923 268.783 249.555L268.904 250.852L268.432 250.853C268.276 251.405 267.806 251.957 267.021 252.509C266.314 252.983 265.725 253.418 265.254 253.812L264.667 254.876L265.259 255.346L264.434 255.82C263.729 256.845 262.591 258.146 261.022 259.724C259.532 261.301 258.237 262.327 257.137 262.802C256.196 263.985 255.058 264.853 253.722 265.408C252.386 265.962 250.971 266.438 249.478 266.835ZM285.227 221.898L286.525 221.894L286.642 221.304L286.523 220.832C286.129 220.912 285.698 221.267 285.227 221.898ZM288.177 221.654L288.529 221.181L288.293 220.945L288.057 220.946L287.822 221.3L288.177 221.654ZM285.469 223.785L285.349 223.195L284.878 223.551L285.469 223.785ZM285.828 225.908L286.182 225.789L286.298 225.199L285.944 225.082L285.71 225.79L285.828 225.908ZM250.319 229.073L250.553 228.364L250.907 228.481L251.027 228.953L250.909 229.071L250.319 229.073Z" fill="#0B090A"/>
<path d="M315.279 259.34C314.571 259.342 313.705 258.872 312.68 257.931C311.733 256.989 310.944 256.284 310.314 255.813C310.154 254.791 309.876 253.887 309.48 253.102C309.085 252.237 308.886 251.333 308.883 250.389C308.879 248.973 309.386 247.32 310.404 245.429C311.5 243.459 312.871 241.528 314.518 239.636C316.243 237.743 317.97 236.165 319.697 234.902C321.503 233.638 323.114 233.004 324.53 233L324.529 232.764C325.631 232.997 326.656 233.703 327.603 234.88C328.629 236.057 329.143 237.157 329.146 238.18C329.148 239.124 328.561 240.109 327.384 241.135C326.285 242.082 324.911 242.99 323.261 243.86C321.69 244.651 320.118 245.285 318.546 245.761C317.053 246.237 315.874 246.476 315.008 246.478L315.009 246.714C314.461 247.581 313.913 248.684 313.366 250.023C312.897 251.283 312.665 252.464 312.668 253.565C312.669 253.958 312.788 254.391 313.025 254.862C313.577 255.254 314.286 255.448 315.151 255.446C316.016 255.365 316.724 255.363 317.275 255.44L317.393 255.558L317.746 254.967C318.768 254.886 319.751 254.647 320.694 254.251L320.692 253.543L321.4 253.541L321.399 253.187L321.871 253.304C322.264 253.145 322.539 252.987 322.696 252.83C322.931 252.593 323.206 252.395 323.52 252.237L324.229 252.589L324.229 252.471L326.347 250.46L326.465 250.459L326.82 250.694L326.82 250.576C327.84 249.63 328.939 248.761 330.117 247.971C331.294 247.181 332.157 246.156 332.704 244.896L334 243.949L334.236 244.184C334.238 244.735 334.042 245.247 333.65 245.72C333.258 246.193 332.787 246.509 332.237 246.668C331.612 248.164 330.671 249.425 329.415 250.451C328.238 251.477 327.022 252.542 325.766 253.647L325.412 253.648L325.296 254.238C323.804 255.265 322.233 256.371 320.585 257.555C319.015 258.74 317.246 259.334 315.279 259.34ZM317.48 244.23L317.716 244.229L317.716 243.993C318.266 243.834 319.209 243.36 320.544 242.569C321.958 241.779 323.293 240.949 324.549 240.08C325.805 239.133 326.472 238.463 326.55 238.069L326.668 238.069L326.548 237.479L326.664 236.889C326.586 236.889 326.428 236.889 326.192 236.89C325.956 236.812 325.759 236.773 325.602 236.774C324.581 237.484 323.56 238.156 322.539 238.788C321.519 239.42 320.498 240.052 319.477 240.684L319.241 240.685L319.125 241.629C318.654 241.945 318.301 242.339 318.066 242.812C317.832 243.206 317.636 243.679 317.48 244.23ZM335.415 243.827L334.707 243.593L334.587 242.885L335.766 242.528L335.885 242.882L335.415 243.827Z" fill="#0B090A"/>
<path d="M331.071 265.433C330.597 264.726 330.359 264.019 330.358 263.311C330.356 262.76 330.473 262.248 330.707 261.776C330.863 261.303 331.059 260.87 331.294 260.476L331.412 260.476L331.293 260.358C331.842 259.57 332.704 258.545 333.881 257.283C335.136 256.021 336.471 254.877 337.884 253.85C339.297 252.824 340.436 252.27 341.301 252.189L342.008 251.715C342.4 251.084 342.988 250.493 343.773 249.94C344.637 249.308 345.383 248.795 346.011 248.4L346.719 248.516L346.6 248.044L346.953 247.807L346.596 246.628C345.809 246.316 344.785 245.925 343.525 245.457C342.344 244.988 341.241 244.401 340.216 243.696C339.27 242.912 338.795 242.008 338.793 240.986C338.791 240.199 339.496 239.096 340.908 237.676C342.32 236.256 344.007 234.835 345.97 233.414C348.011 231.914 349.935 230.65 351.742 229.622C353.627 228.594 354.963 228.079 355.75 228.077C356.771 227.681 357.517 227.05 357.986 226.183C358.456 225.317 358.887 224.529 359.278 223.82C359.748 223.032 360.376 222.637 361.163 222.635C362.185 222.632 363.052 223.141 363.763 224.161C364.552 225.182 365.105 226.085 365.422 226.871C365.344 227.186 365.109 227.462 364.717 227.699C364.403 227.936 364.167 228.251 364.011 228.645C363.069 229.434 362.285 230.42 361.659 231.601C361.112 232.704 360.564 233.807 360.016 234.91L357.895 236.096L357.54 235.625L357.422 235.625C357.109 236.019 356.795 236.374 356.481 236.689C356.167 237.005 355.932 237.36 355.776 237.753C355.462 238.069 355.149 238.542 354.836 239.172C354.601 239.723 354.248 240.039 353.776 240.119L353.658 239.883C354.048 238.623 354.438 237.364 354.827 236.104C355.217 234.765 355.646 233.466 356.115 232.206L356.35 232.088L356.582 230.317C355.795 230.319 355.048 230.518 354.341 230.913C353.634 231.308 352.848 231.468 351.983 231.392C351.669 231.628 351.119 232.102 350.334 232.812C349.628 233.522 348.922 234.153 348.216 234.706C347.509 235.259 346.959 235.575 346.566 235.654C346.097 236.521 345.391 237.349 344.449 238.138C343.586 238.927 343.156 239.872 343.159 240.974C343.16 241.446 343.397 241.76 343.869 241.916C344.341 241.993 344.774 242.031 345.168 242.03L345.169 242.738L345.405 242.62L347.294 243.086L347.647 242.731C348.671 242.965 349.931 243.355 351.427 243.901C353.001 244.369 354.38 245.034 355.562 245.896C356.823 246.758 357.456 247.897 357.459 249.313C357.461 249.863 357.344 250.414 357.11 250.966C356.875 251.517 356.562 252.069 356.17 252.62L354.288 254.513L351.337 254.285C350.787 254.68 349.844 255.037 348.508 255.355C347.171 255.595 345.913 255.834 344.734 256.073C343.633 256.312 343.083 256.589 343.084 256.904L342.02 255.963C341.628 256.672 341.039 257.028 340.252 257.03C339.466 257.032 338.679 257.034 337.892 257.036C337.184 257.038 336.36 257.473 335.418 258.341C334.555 259.209 333.771 260.155 333.066 261.179C332.361 262.283 331.931 263.188 331.775 263.897L331.071 265.433Z" fill="#0B090A"/>
<path d="M367.52 263.327C366.262 263.331 365.237 262.783 364.448 261.684C363.658 260.663 363.262 259.524 363.258 258.265C363.256 257.321 363.527 255.904 364.073 254.015C364.697 252.046 365.439 249.999 366.298 247.873C367.157 245.668 368.057 243.699 368.996 241.965C369.935 240.232 370.798 239.089 371.583 238.536C372.679 236.803 373.658 235.187 374.52 233.69C373.262 233.93 372.004 234.208 370.746 234.526C369.488 234.766 368.309 235.123 367.209 235.598C366.66 236.308 366.032 236.663 365.324 236.665C365.087 236.509 364.811 236.352 364.496 236.196C364.181 236.039 363.905 235.843 363.669 235.608L363.786 235.371L363.668 235.372L363.667 235.136C363.666 234.742 363.587 234.389 363.429 234.074C363.349 233.681 363.269 233.328 363.19 233.013C363.111 232.935 363.071 232.738 363.07 232.423C363.067 231.401 363.537 230.731 364.481 230.414C365.502 230.096 366.525 229.936 367.547 229.933C369.042 229.929 370.065 230.044 370.616 230.279L371.796 230.04L374.746 230.032C375.296 230.03 375.808 230.029 376.28 230.027C376.752 230.026 377.223 229.985 377.695 229.906L378.165 229.196L378.046 228.725C378.28 228.173 378.789 227.267 379.573 226.006C380.356 224.746 381.178 223.406 382.04 221.988C382.901 220.569 383.645 219.348 384.272 218.324C384.977 217.22 385.329 216.669 385.329 216.669C385.328 216.197 385.72 215.92 386.507 215.839C387.293 215.759 387.805 215.718 388.041 215.717C388.906 215.715 390.087 215.987 391.583 216.534C393.079 217.002 393.828 217.826 393.832 219.006C393.833 219.714 393.56 220.304 393.01 220.778C392.461 221.173 391.872 221.45 391.243 221.609L391.243 221.727C391.244 222.199 390.892 222.75 390.185 223.381C389.558 224.013 388.812 224.565 387.948 225.04C387.084 225.514 386.416 225.83 385.945 225.989C385.709 226.068 385.395 226.384 385.003 226.936C384.69 227.408 384.455 227.763 384.298 228L384.299 228.472C383.985 228.708 383.632 228.985 383.24 229.3C382.926 229.537 382.651 229.853 382.416 230.247C382.81 230.324 383.203 230.363 383.596 230.361C383.99 230.36 384.383 230.359 384.776 230.358C385.406 230.357 385.996 230.355 386.546 230.353C387.176 230.352 387.766 230.389 388.317 230.467L391.976 230.929C391.034 231.718 389.973 232.193 388.794 232.353C387.614 232.435 386.395 232.478 385.136 232.481C383.956 232.406 382.816 232.606 381.716 233.081C381.166 233.239 380.42 233.713 379.478 234.503C378.615 235.292 377.83 236.159 377.125 237.105C376.419 237.972 376.067 238.721 376.069 239.35L373.365 243.015C372.579 243.411 372.188 244.002 372.19 244.789C372.192 245.575 371.76 245.97 370.895 245.972L369.253 249.753C369.176 250.225 369.06 250.972 368.905 251.996C368.829 252.94 368.516 253.491 367.966 253.65C367.969 254.673 367.932 255.696 367.856 256.718C367.78 257.663 367.743 258.607 367.746 259.551L367.983 260.022L368.927 260.02C370.496 258.442 372.105 256.943 373.753 255.522C375.48 254.023 377.088 252.445 378.578 250.789L379.168 250.552L379.404 250.551L380.109 249.605L380.58 249.368L380.462 249.25L381.168 248.658C381.794 247.476 382.814 246.49 384.228 245.7L384.347 245.935C384.348 246.329 383.839 247.196 382.82 248.536C381.801 249.797 380.507 251.295 378.938 253.03C377.448 254.686 375.879 256.303 374.231 257.881C372.662 259.459 371.25 260.761 369.994 261.787C368.738 262.813 367.914 263.326 367.52 263.327Z" fill="#0B090A"/>
</g>
<g id="Salmon">
<ellipse id="Ellipse 3" cx="206.962" cy="111.234" rx="85.8528" ry="86" transform="rotate(-0.156185 206.962 111.234)" fill="#0B090A"/>
<ellipse id="Ellipse 1" cx="206.962" cy="111.234" rx="76.6543" ry="76.7857" transform="rotate(-0.156185 206.962 111.234)" fill="#EEEBE3"/>
<g id="Mask group">
<mask id="mask0_7_2" style="mask-type:alpha" maskUnits="userSpaceOnUse" x="145" y="49" width="124" height="124">
<ellipse id="Ellipse 4" cx="206.962" cy="111.234" rx="61.3234" ry="61.4286" transform="rotate(-0.156185 206.962 111.234)" fill="#C4C4C4"/>
</mask>
<g mask="url(#mask0_7_2)">
<g id="salmao">
<path id="Vector" d="M89.1961 185.411C88.9928 179.351 88.9928 173.483 88.9928 167.257C92.9153 164.314 97.6513 164.394 101.961 163.075C111.602 160.124 120.641 155.93 129.375 151.053C143.479 143.178 156.299 133.404 168.736 123.189C179.691 114.189 190.233 104.67 201.174 95.6568C216.22 83.2599 231.458 71.0561 249.859 63.6139C256.572 60.8989 262.511 56.7206 267.146 50.9641C274.307 42.0716 272.557 32.0128 267.195 23.4113C260.485 12.6444 250.821 4.81844 240.714 -2.46626C223.786 -14.6681 205.316 -24.1129 186.432 -32.8947C172.863 -39.205 158.983 -44.7262 144.942 -49.7543C130.797 -54.8194 116.367 -59.1595 101.671 -62.4693C100.311 -62.7755 98.9545 -63.0664 97.6693 -64.1996C97.3574 -65.0744 97.4414 -65.653 97.9638 -66.4361C118.015 -66.6766 137.877 -66.6766 158.097 -66.6766C171.708 -63.8589 184.126 -58.6284 196.594 -53.5268C209.937 -48.0672 222.721 -41.5017 235.442 -34.1744C239.453 -31.4383 243.217 -28.8243 247.39 -26.3204C258.88 -17.717 269.259 -8.24744 279.581 1.29546C286.588 7.77322 294.895 12.0043 304.43 12.0839C310.883 12.1377 317.453 10.9061 323.736 8.90131C329.606 7.02835 335.464 5.76917 341.475 8.47262C348.137 11.4691 353.36 16.3194 357.819 21.8458C371.051 38.2463 381.443 56.598 393.193 74.0195C402.245 87.4396 411.616 100.636 422.25 112.931C429.325 121.112 436.68 128.987 444.504 136.401C454.249 145.636 464.833 153.827 476.126 161.181C489.051 169.598 502.68 176.503 517.104 181.812C526.688 185.34 536.279 188.998 546.531 190.279C547.289 190.374 547.973 190.767 548.967 191.136C553.941 192.511 558.763 193.148 563.545 193.975C564.72 194.178 565.72 194.423 566.619 195.674C567.298 198.237 565.528 197.404 564.559 197.407C551.896 197.445 539.232 197.433 526.568 197.433C516.31 197.433 506.053 197.433 495.437 197.433C477.524 192.641 462.778 182.687 448.543 171.884C442.188 167.062 435.959 162 430.559 156.104C422.437 147.236 414.354 138.361 407.01 128.77C393.501 111.129 381.966 92.1946 369.666 73.7599C365.588 67.6477 361.668 61.2116 356.287 56.3494C347.317 48.2444 338.496 39.6011 327.153 34.7479C317.392 30.5718 308.273 32.6094 299.33 40.9366C294.38 45.5469 291.08 51.5456 286.284 56.2528C278.833 63.5665 270.204 69.3764 261.541 75.1172C250.978 82.1177 240.369 89.0699 230.213 96.6413C223.831 101.399 217.834 106.711 212.071 112.23C200.806 123.018 188.787 132.916 176.665 142.705C166.409 150.987 155.829 158.863 144.59 165.705C133.001 172.76 120.887 178.904 107.679 182.579C102.814 183.932 97.8947 184.991 92.973 186.074C91.6939 186.355 90.4773 186.63 89.1961 185.411Z" fill="#FC5231"/>
<path id="Vector_2" d="M164.498 -66.3943C184.424 -66.6766 204.286 -66.6766 224.506 -66.6766C234.775 -62.9514 243.247 -56.7405 251.805 -50.7647C265.144 -41.4509 277.823 -31.1812 291.905 -22.947C297.318 -19.7815 302.619 -16.1392 309.632 -16.2803C318.374 -15.6041 326.844 -16.1149 335.618 -15.9094C346.986 -15.2024 355.123 -8.58495 363.131 -2.04848C380.658 12.2578 394.089 30.2616 407.634 48.1411C418.176 62.0578 428.612 76.0451 439.94 89.3651C450.366 101.624 461.455 113.17 473.673 123.608C488.924 136.639 505.478 147.674 523.65 156.332C535.903 162.17 548.46 167.064 561.466 170.872C563.263 171.398 565.22 171.669 566.64 173.566C566.832 180.146 566.832 186.523 566.832 193.258C563.409 194.998 560.185 193.276 556.887 192.905C554.471 192.633 552.078 192.053 549.384 191.527C539.696 189.046 530.285 186.722 521.131 183.426C505.936 177.956 491.469 171.083 477.825 162.401C469.833 157.315 462.274 151.69 454.957 145.711C444.961 137.541 435.915 128.401 427.237 118.855C414.782 105.155 403.943 90.2139 393.665 74.8904C385.557 62.8036 377.86 50.4314 369.8 38.3073C363.422 28.7123 356.962 19.1045 347.513 12.0837C341.484 7.6041 334.999 5.48609 327.503 7.96656C320.378 10.3241 312.997 11.8774 305.556 12.1725C298.731 12.4432 292.088 10.574 286.371 6.54226C280.191 2.18477 274.792 -3.1051 269.191 -8.16718C262.489 -14.2251 255.814 -20.3627 247.931 -25.4365C244.086 -28.362 240.446 -31.0842 236.141 -33.3245C224.823 -40.6632 212.927 -46.2812 200.893 -51.6204C189.908 -56.494 178.676 -60.7249 167.232 -64.4014C166.243 -64.7191 164.914 -64.8165 164.498 -66.3943Z" fill="#FC5231"/>
<path id="Vector_3" d="M488.32 197.173C471.401 197.432 454.592 197.432 437.425 197.432C429.765 192.489 423.944 185.925 418.063 179.513C405.713 166.048 395.498 150.946 385.591 135.651C376.635 121.824 368.705 107.37 359.781 93.5128C352.956 82.9143 344.241 74.5721 332.994 68.4166C332.494 68.0477 332.224 67.819 331.749 67.4298C331.391 67.1846 331.245 67.0934 330.893 66.8472C329.432 65.4165 327.769 65.1115 325.876 64.6892C325.473 64.5385 325.311 64.4789 324.898 64.3535C322.237 63.1229 319.668 63.4173 316.866 63.4728C316.092 63.4799 315.578 63.49 314.845 63.7259C313.726 64.3179 312.68 64.3302 311.539 64.8516C310.973 64.9892 310.652 65.0733 310.114 65.2913C308.472 66.0174 306.562 65.2078 305.355 67.0912C305.076 67.386 304.956 67.4956 304.654 67.7639C304.348 68.024 304.224 68.1255 303.918 68.3791C303.61 68.6251 303.485 68.719 303.166 68.9442C302.722 69.2522 302.474 69.4345 302.052 69.7631C301.75 69.9919 301.628 70.081 301.322 70.299C301.023 70.5234 300.909 70.6188 300.637 70.8716C300.27 71.2365 300.047 71.428 299.628 71.72C299.085 72.0729 298.727 72.3129 298.199 72.6803C297.915 72.8947 297.804 72.9841 297.525 73.2064C297.239 73.4222 297.121 73.5049 296.829 73.7184C296.532 73.9329 296.411 74.0165 296.098 74.2166C295.641 74.4838 295.367 74.6169 294.854 74.7958C294.463 74.881 294.302 74.9043 293.896 74.9648C291.606 75.4275 290.941 76.8595 290.881 79.0051C290.765 79.5705 290.642 79.8704 290.326 80.3341C289.872 80.849 289.54 81.1583 289.095 81.6551C288.852 81.9123 288.755 82.0128 288.512 82.2614C288.271 82.5054 288.174 82.6014 287.793 82.9828C287.414 83.3624 287.32 83.4566 286.943 83.8346C286.567 84.2149 286.474 84.3113 286.244 84.5579C285.921 84.9077 285.728 85.1012 285.376 85.4322C285.019 85.7733 284.821 85.9769 284.478 86.3448C283.794 87.0184 283.294 87.5674 282.565 88.2076C282.152 88.5438 281.924 88.7472 281.552 89.1358C281.18 89.5388 280.944 89.7461 280.487 90.0649C279.876 90.479 279.461 90.7519 278.829 91.169C263.053 103.741 245.482 113.308 229.834 125.605C224.762 129.591 219.844 133.761 215.087 138.132C205.849 146.619 196.355 154.815 186.778 162.923C177.965 170.384 168.769 177.329 159.279 183.851C152.105 188.781 145.047 194.042 136.522 197.251C121.651 197.432 106.982 197.321 92.3167 197.524C89.2602 197.566 88.6333 196.617 88.9504 193.922C89.1705 192.051 88.9928 190.134 88.9928 187.873C91.086 185.539 93.8651 185.844 96.3804 185.329C111.944 182.138 126.411 176.184 140.085 168.177C153.853 160.117 166.593 150.631 179.011 140.649C191.069 130.956 202.804 120.921 214.045 110.282C228.493 96.606 245.181 85.9012 261.689 74.9635C270.341 69.2311 278.994 63.4313 286.385 56.0685C291.03 51.4409 294.396 45.6925 299.118 41.0768C309.26 31.1624 320.402 29.9434 332.507 37.3979C340.892 42.5618 348.457 48.8479 355.552 55.5138C362.438 61.9847 367.456 70.2043 372.67 78.1272C382.673 93.3236 392.285 108.778 403.055 123.465C414.067 138.479 426.198 152.535 440.102 164.884C452.629 176.009 466.497 185.344 481.729 192.528C484.136 193.663 486.997 194.239 488.32 197.173Z" fill="#FC5231"/>
<path id="Vector_4" d="M229.322 -66.4161C241.927 -66.6766 254.411 -66.6766 267.252 -66.6766C274.65 -60.7649 281.269 -54.3514 288.775 -48.9951C293.427 -45.6758 298.227 -42.5568 303.591 -40.5809C313.239 -37.0276 321.178 -39.4995 327.549 -47.9828C330.532 -51.9544 332.837 -56.3303 335.096 -60.732C336.136 -62.7574 337.06 -64.8666 339.16 -66.4873C346.502 -66.6766 353.643 -66.6766 361.141 -66.6766C362.608 -64.9208 361.18 -63.8308 360.386 -62.6174C357.186 -57.7259 354.33 -52.7729 353.34 -46.8073C352.364 -40.9258 354.581 -36.573 359.052 -33.4247C365.565 -28.8384 372.838 -25.4023 379.05 -20.3078C386.82 -13.9353 393.828 -6.82397 400.469 0.701279C418.323 20.9336 433.278 43.4266 450.245 64.3479C458.152 74.0977 466.447 83.5548 475.367 92.3346C492.374 109.076 510.904 123.952 532.291 134.928C542.659 140.249 553.133 145.321 564.189 149.087C565.045 149.378 565.793 149.848 566.633 150.678C566.832 157.501 566.832 164.133 566.832 171.122C563.276 172.942 560.304 170.512 557.288 169.627C539.699 164.464 522.994 157.048 507.19 147.806C495.163 140.773 483.952 132.495 473.332 123.426C464.05 115.5 455.356 106.965 447.223 97.9114C437.13 86.6763 427.661 74.9016 418.568 62.8256C408.858 49.9312 399.189 37.0086 389.031 24.4484C383.131 17.1533 376.536 10.601 369.956 3.99063C363.299 -2.69626 355.583 -7.97883 347.5 -12.7372C344.219 -14.6688 340.509 -15.3623 336.408 -15.5275C329.005 -16.4311 321.909 -15.365 314.812 -15.515C313.299 -15.5469 311.813 -15.7033 310.02 -15.9732C302.955 -16.0585 297.518 -19.5958 291.957 -22.7674C278.933 -30.1954 267.285 -39.6274 255.102 -48.2738C247.349 -53.7767 239.49 -59.0812 231.233 -63.7847C230.192 -64.3778 229.152 -64.7332 229.322 -66.4161Z" fill="#FC5231"/>
<path id="Vector_5" d="M178.509 197.249C165.818 197.432 153.334 197.432 140.493 197.432C139.4 195.668 140.828 195.268 141.898 194.654C159.551 184.532 175.61 172.222 191.125 159.12C202.191 149.775 212.734 139.849 223.703 130.409C234.817 120.843 247.257 113.054 259.434 104.934C269.441 98.2601 279.614 91.7282 287.785 82.7819C292.001 78.1656 296.239 73.6939 301.347 70.0638C306.927 66.0985 312.856 63.1048 319.913 63.4965C325.778 63.8221 330.701 66.6695 335.598 69.6602C346.365 76.236 354.603 85.1012 361.333 95.76C371.346 111.619 380.425 128.047 390.872 143.638C400.814 158.477 411.489 172.731 423.829 185.673C426.533 188.51 429.618 190.985 432.317 193.844C433.157 194.735 434.417 195.4 434.139 197.183C423.82 197.432 413.627 197.432 403.076 197.432C399.416 195.892 397.82 192.662 395.915 189.953C382.849 171.371 371.905 151.498 360.865 131.682C355.382 121.841 350.377 111.509 341.978 103.777C335.54 97.8506 328.037 93.3998 318.577 94.0123C313.226 94.3587 308.687 96.6577 304.295 99.3471C296.374 104.198 289.514 110.438 282.602 116.56C275.644 122.723 267.914 127.772 260.261 132.955C247.579 141.543 234.656 149.788 223.061 159.892C211.453 170.006 200.319 180.67 188.218 190.212C185.156 192.627 182.405 195.508 178.509 197.249Z" fill="#FC5231"/>
<path id="Vector_6" d="M89.1977 -49.6863C88.9928 -54.2253 88.9928 -58.5671 88.9928 -63.2661C90.4353 -65.1953 92.146 -64.7902 93.9359 -64.4045C118.26 -59.1626 141.884 -51.5926 164.921 -42.3043C182.51 -35.2129 199.706 -27.247 216.277 -17.8906C232.157 -8.925 247.413 0.768071 260.046 14.0392C264.841 19.0762 269.137 24.5915 271.023 31.6122C273.363 40.3259 271.152 47.7536 264.851 53.8713C260.38 58.212 255.112 61.5752 249.328 64.0079C233.535 70.6509 219.943 80.6404 206.747 91.3775C195.717 100.353 185.092 109.797 174.111 118.822C161.738 128.991 149.283 139.058 135.602 147.458C122.384 155.574 108.582 162.361 93.1969 165.385C91.9649 165.627 90.7594 165.901 89.2483 165.507C88.9928 160.014 88.9928 154.655 88.9928 148.938C91.5175 146.701 94.6586 146.725 97.5153 146.014C111.384 142.563 123.552 135.718 135.29 127.855C151.135 117.242 165.17 104.423 179.555 92.0167C187.031 85.5691 194.498 79.0961 202.515 73.3032C210.039 67.867 217.948 63.0906 226.347 59.1288C230.153 57.3333 233.752 55.1739 236.772 52.2283C246.669 42.5757 245.816 33.8736 238.865 23.4153C231.007 11.5933 219.279 4.12806 207.642 -3.3566C195.007 -11.4836 181.536 -18.0803 167.773 -23.9679C143.558 -34.3257 118.808 -43.1711 92.7897 -47.9516C91.4745 -48.1932 90.3565 -48.5878 89.1977 -49.6863Z" fill="#FB5232"/>
<path id="Vector_7" d="M212.854 197.244C202.712 197.433 192.773 197.433 182.476 197.433C181.038 196.038 181.769 195.243 182.939 194.338C197.846 182.794 211.318 169.584 225.695 157.432C234.469 150.017 244.03 143.573 253.644 137.257C264.539 130.1 275.548 123.064 285.28 114.341C291.159 109.072 297.094 103.927 303.701 99.5987C318.135 90.1429 328.992 92.7621 341.69 103.398C349.257 109.736 353.623 118.755 358.456 127.236C369.443 146.517 379.737 166.208 392.363 184.519C394.629 187.807 396.917 191.081 399.247 194.323C399.855 195.17 400.565 195.864 399.844 197.213C392.015 197.433 384.366 197.433 376.359 197.433C372.771 194.564 371.446 190.481 369.475 186.855C363.366 175.625 357.625 164.197 351.745 152.846C347.512 144.674 343.032 136.538 337.135 129.335C332.206 123.313 320.716 120.678 313.756 124.167C306.241 127.934 299.657 133.16 293.165 138.358C272.782 154.676 249.661 167.055 229.198 183.228C223.638 187.623 218.698 192.75 212.854 197.244Z" fill="#FC5231"/>
<path id="Vector_8" d="M89.2062 146.488C88.9928 141.185 88.9928 136.08 88.9928 130.618C90.1569 128.839 91.9555 128.741 93.4881 128.494C105.928 126.489 116.762 120.754 126.995 113.864C139.948 105.143 151.449 94.6157 163.024 84.169C173.076 75.0961 183.249 66.1062 194.904 59.0287C198.698 56.7252 202.906 55.1488 206.415 52.3448C209.395 49.9632 212.312 47.5509 214.305 44.2054C218.393 37.3412 214.737 28.0721 209.848 22.5066C199.785 11.0509 187.031 3.34727 173.712 -3.51575C151.676 -14.8708 128.53 -23.3373 104.482 -29.3087C100.454 -30.309 96.39 -31.2594 92.2801 -31.9071C91.0725 -32.0974 90.0669 -32.3897 89.1873 -33.6456C88.9928 -38.1956 88.9928 -42.5374 88.9928 -47.2364C90.1092 -48.9449 91.5402 -48.4716 92.8841 -48.1996C111.341 -44.4642 129.299 -39.0562 146.928 -32.4343C162.159 -26.7129 177.096 -20.3554 191.467 -12.7355C206.505 -4.76105 221.103 3.92332 233.192 16.1561C237.132 20.1425 240.4 24.6796 242.605 29.8958C246.658 39.4814 242.824 47.6158 234.675 54.1369C231.602 56.5959 228.179 58.5513 224.58 60.1892C211.196 66.2812 199.639 75.1227 188.496 84.5167C173.2 97.4116 158.61 111.157 142.439 122.996C127.608 133.854 112.017 143.236 93.6869 147.047C92.1905 147.358 90.7613 147.79 89.2062 146.488Z" fill="#FB5232"/>
<path id="Vector_9" d="M89.2073 128.169C88.9928 122.865 88.9928 117.761 88.9928 112.298C91.0228 110.131 93.6644 110.248 96.0903 109.723C108.57 107.027 118.901 100.251 128.64 92.4479C139.594 83.6711 149.381 73.5813 159.869 64.2774C165.651 59.1483 171.779 54.4879 178.486 50.6114C180.691 49.3368 182.574 47.6617 184.409 45.8851C188.933 41.5052 188.699 32.1756 185.85 28.2651C180.603 21.0652 173.815 15.6941 166.289 11.1889C155.939 4.99257 144.963 0.0917015 133.668 -4.12039C131.644 -4.87509 129.453 -5.00083 127.239 -6.0853C117.922 -10.0483 108.371 -12.1684 98.8518 -14.4066C95.7141 -15.1443 92.4361 -15.2991 89.2181 -16.8521C88.9928 -21.6568 88.9928 -26.2529 88.9928 -31.2064C90.7598 -33.1092 92.632 -31.9549 94.3558 -31.6037C115.357 -27.3247 135.597 -20.7017 155.3 -12.2438C170.621 -5.6667 185.397 1.8037 198.704 11.8957C205.8 17.2775 212.581 23.1447 215.373 32.0795C217.041 37.4165 216.382 42.5049 212.496 46.9062C209.27 50.5608 205.587 53.6699 201.22 55.7842C188.278 62.0494 177.685 71.4944 167.025 80.8332C151.649 94.3039 136.995 108.672 119.054 118.904C110.999 123.498 102.574 127.145 93.371 128.756C92.0163 128.993 90.6382 129.519 89.2073 128.169Z" fill="#FB5232"/>
<path id="Vector_10" d="M373.892 197.211C367.589 197.433 361.467 197.433 354.986 197.433C351.019 193.536 349.69 188.427 347.439 183.815C342.781 174.276 338.505 164.535 332.179 155.909C329.866 152.755 327.031 150.393 323.131 149.393C319.22 148.39 315.689 148.923 312.869 151.893C298.584 166.932 281.326 177.906 263.572 188.241C259.868 190.397 256.081 192.466 252.721 195.178C251.395 196.249 249.759 196.566 247.988 197.268C237.061 197.433 226.359 197.433 215.299 197.433C214.098 195.65 215.585 194.896 216.551 194.022C226.746 184.793 237.631 176.473 249.072 168.827C262.003 160.186 275.303 152.087 287.57 142.458C295.104 136.544 302.945 131.033 310.794 125.529C320.115 118.993 332.185 123.354 338.095 130.678C344.11 138.132 348.46 146.581 352.867 155C359.535 167.739 365.98 180.595 372.948 193.176C373.605 194.364 374.744 195.41 373.892 197.211Z" fill="#FC5231"/>
<path id="Vector_11" d="M89.2085 109.85C88.9928 104.291 88.9928 98.9321 88.9928 93.2152C89.7194 92.0531 90.6256 91.7222 91.7069 91.7228C100.739 91.7279 108.08 87.4874 115.085 82.3958C125.627 74.7341 133.821 64.5964 143.22 55.7289C146.634 52.5072 150.266 49.5827 154.027 46.7782C157.98 43.8303 160.938 40.0128 160.324 34.8078C159.704 29.5519 155.928 26.104 151.994 23.0407C142.79 15.8738 132.081 11.6658 121.227 7.83381C113.138 4.97844 104.764 3.14565 96.4111 1.22541C94.076 0.688585 91.5343 1.7249 89.2051 -0.0747833C88.9928 -4.86375 88.9928 -9.45982 88.9928 -14.4133C90.0053 -16.02 91.3903 -16.063 92.7699 -15.7909C104.352 -13.5066 115.788 -10.6719 127.172 -6.49714C142.88 -1.2574 157.633 5.35371 171.278 14.2277C176.564 17.6651 181.291 21.9247 185.035 27.0466C190.754 34.8716 188.911 43.5501 180.605 49.3597C177.487 51.5412 174.091 53.279 171.009 55.5119C162.815 61.4493 155.345 68.2231 147.96 75.5023C147.636 75.8058 147.507 75.9241 147.171 76.196C146.817 76.4309 146.669 76.5122 146.314 76.7329C145.983 76.9797 145.858 77.0871 145.415 77.564C144.985 78.0512 144.874 78.1689 144.592 78.4574C143.388 79.4084 142.685 80.526 141.465 81.4468C140.309 82.0744 139.261 82.4447 138.542 83.6404C138.35 83.9794 138.272 84.115 138.06 84.4421C137.619 84.9857 137.292 85.3183 136.808 85.8188C136.427 86.1936 136.188 86.3807 135.733 86.6524C135.151 86.992 134.772 87.2302 134.31 87.7217C134.063 87.998 133.961 88.1051 133.69 88.3558C133.168 88.7649 132.858 89.0766 132.387 89.535C132.005 89.8684 131.77 90.036 131.335 90.2987C131.032 90.5043 130.917 90.5965 130.653 90.8568C129.849 91.6779 129.237 92.3766 128.266 93.0362C127.526 93.5351 127.03 93.9704 126.197 94.3539C125.846 94.6031 125.711 94.7125 125.381 95.0058C125.059 95.3202 124.931 95.4508 124.6 95.7734C115.821 102.158 106.804 107.468 96.3449 109.847C94.0634 110.366 91.7726 111.446 89.2085 109.85Z" fill="#FB5232"/>
<path id="Vector_12" d="M89.2034 15.9579C88.9928 11.166 88.9928 6.56992 88.9928 1.61641C92.8287 -0.385068 96.5511 1.13928 100.186 1.92995C115.602 5.28329 130.48 10.2558 144.403 17.7821C149.367 20.4655 153.836 23.9288 157.544 28.1982C162.181 33.5368 161.347 41.4303 155.072 46.0614C145.585 53.0629 137.61 61.5672 129.404 69.9018C122.886 76.5213 116.033 82.8223 107.732 87.2697C102.02 90.3303 96.1293 92.6176 89.225 91.517C88.9928 85.9716 88.9928 80.6124 88.9928 74.8955C89.9806 73.3449 91.2967 73.4145 92.6908 73.4196C99.3213 73.4439 104.893 70.6649 109.66 66.3509C117.681 59.0936 123.658 50.0654 130.303 41.6414C134.356 36.5043 133.057 31.7238 127.535 27.865C120.523 22.9646 112.355 21.2498 104.294 19.1611C99.3805 17.8881 94.2842 17.5926 89.2034 15.9579Z" fill="#FB5232"/>
<path id="Vector_13" d="M352.52 197.206C346.979 197.433 341.62 197.433 335.903 197.433C334.336 196.612 333.805 195.36 333.223 194.073C330.764 188.648 327.981 183.407 324.196 178.752C319.565 173.057 313.134 173.451 309.485 179.719C305.797 186.054 302.332 192.552 296.052 197.245C281.588 197.433 267.324 197.433 252.701 197.433C251.553 195.022 253.553 194.369 254.957 193.466C262.647 188.523 270.511 183.857 278.35 179.159C290.062 172.139 301.197 164.225 310.262 154.096C318.09 145.348 327.817 149.292 332.649 156.351C337.285 163.124 340.973 170.372 344.569 177.702C347.228 183.123 349.688 188.635 352.228 194.111C352.644 195.008 353.281 195.903 352.52 197.206Z" fill="#FB5232"/>
<path id="Vector_14" d="M488.553 197.433C480.808 193.311 473.292 189.382 466.026 185.034C443.111 171.322 424.649 152.728 408.265 131.884C393.704 113.359 381.362 93.3126 368.558 73.6022C359.13 59.0874 346.745 47.8282 332.476 38.5507C320.134 30.5262 309.612 32.0404 299.117 42.4024C298.303 43.2059 297.403 43.9686 296.773 44.9047C286.69 59.8776 272.042 69.6436 257.233 79.0604C238.167 91.1839 220.827 105.364 204.145 120.55C182.689 140.08 160.256 158.441 134.589 172.37C120.495 180.018 105.531 185.158 89.3068 187.469C88.9928 186.937 88.9928 186.364 88.9928 185.506C102.329 183.938 114.8 179.699 126.822 174.016C148.517 163.761 167.233 149.116 185.684 134.058C199.78 122.554 212.622 109.625 226.73 98.1477C238.789 88.3381 252.122 80.3367 264.928 71.5896C275.781 64.1758 285.972 56.1966 293.935 45.4304C299.972 37.2681 307.797 31.1689 318.943 31.6575C325.743 31.9556 331.241 35.2806 336.707 38.8793C354.321 50.4763 366.934 66.4933 377.919 84.1901C390.192 103.962 403.077 123.354 418.24 141.103C438.88 165.265 463.045 184.651 492.962 196.246C493.55 196.474 494.09 196.827 494.866 197.277C493.019 197.433 490.958 197.433 488.553 197.433Z" fill="#FEA088"/>
<path id="Vector_15" d="M88.9928 165.627C116.807 160.249 139.516 145.176 161.074 128.045C172.618 118.872 183.834 109.279 195.036 99.6855C213.065 84.2439 231.771 69.8695 253.851 60.5199C256.912 59.2238 259.527 57.1268 262.102 55.0562C271.24 47.7088 273.445 37.1357 268.033 26.7058C263.607 18.1754 256.891 11.5888 249.629 5.54127C231.692 -9.39544 211.275 -20.2702 190.302 -30.1547C165.98 -41.6175 140.869 -51.0274 114.938 -58.1735C106.614 -60.4675 98.2857 -62.8322 89.3178 -63.6675C88.9928 -64.1958 88.9928 -64.7683 88.9928 -65.6271C91.9725 -66.2163 94.9157 -66.2189 97.9376 -64.6457C134.044 -56.1748 168.296 -43.4314 201.207 -27.0741C220.031 -17.7187 238.165 -7.20679 254.039 6.78989C260.184 12.2078 265.667 18.1849 269.585 25.4444C275.655 36.6891 273.526 47.645 263.878 55.9539C259.299 59.8973 254.258 63.0884 248.723 65.3912C233.744 71.6236 220.903 81.1295 208.412 91.2237C187.755 107.918 168.377 126.195 146.524 141.404C130.03 152.883 112.662 162.561 92.6458 166.513C91.6526 166.71 90.639 166.802 89.3138 166.921C88.9928 166.56 88.9928 166.221 88.9928 165.627Z" fill="#FE9F87"/>
<path id="Vector_16" d="M434.319 197.432C429.984 191.994 424.459 188.028 419.931 183.045C404.12 165.644 391.053 146.306 378.782 126.352C370.2 112.397 362.531 97.8494 352.311 84.9415C346.011 76.9849 337.624 71.6574 328.811 67.0801C320.779 62.9088 312.784 64.2292 305.194 68.7584C301.022 71.248 297.054 74.0997 293.896 77.7571C284.142 89.0525 272.429 97.9494 259.865 105.745C237.827 119.42 218.353 136.28 199.114 153.513C181.191 169.567 162.171 184.216 141.223 196.212C140.901 196.396 140.656 196.714 140.255 197.201C139.075 197.432 138.015 197.432 136.637 197.432C140.417 193.768 145.511 191.676 150.079 188.75C172.319 174.506 192.447 157.585 211.756 139.708C225.442 127.037 240.488 116.293 255.963 106.039C263.479 101.058 271.089 96.2052 278.179 90.2029C278.559 89.5627 278.98 89.4361 279.556 89.1649C279.902 88.8352 280.114 88.6847 280.453 88.3844C280.775 88.0916 280.958 87.9343 281.263 87.6407C282.066 86.9213 282.736 86.3241 283.541 85.5472C283.813 85.1181 283.984 84.8967 284.381 84.6032C284.751 84.4006 284.908 84.2684 285.116 83.9695C285.329 83.6116 285.483 83.4014 285.808 83.0811C285.959 82.9556 285.927 82.9376 285.94 82.951C286.096 82.7719 286.256 82.5948 286.569 82.3157C286.704 82.1983 286.708 82.1863 286.714 82.1839C286.839 82.0499 286.958 81.9183 287.266 81.599C287.455 81.4113 287.457 81.4086 287.458 81.4072C287.811 80.9586 288.071 80.4254 288.769 80.0074C289.134 79.718 289.324 79.5545 289.598 79.2069C290.75 77.084 291.956 75.2601 294.257 74.0943C294.482 73.9751 294.483 73.8759 294.433 73.8753C294.632 73.4413 295.088 73.4063 295.677 73.1576C295.85 73.0228 295.86 73.0195 295.862 73.0149C296.029 72.8349 296.197 72.6637 296.508 72.3805C296.646 72.2641 296.613 72.2663 296.629 72.2733C297.021 71.5209 297.601 71.0614 298.609 70.8384C298.96 70.5013 299.176 70.357 299.526 70.0692C299.858 69.7853 300.036 69.6224 300.336 69.3241C300.479 69.2112 300.434 69.2205 300.45 69.2366C300.927 68.57 301.676 68.3094 302.551 67.8223C302.739 67.6852 302.727 67.6665 302.729 67.6761C302.892 67.4984 303.063 67.321 303.395 67.0468C303.547 66.9404 303.52 67.0222 303.561 67.0358C305.116 65.2794 307.186 64.6003 309.622 64.0477C310.155 63.9299 310.422 63.8864 310.883 63.7803C311.927 62.9984 312.962 62.7507 314.287 62.5327C315.016 62.5322 315.481 62.5624 316.174 62.5389C319.337 60.9855 322.167 62.7093 325.313 62.9864C325.575 63.2082 325.563 63.1111 325.561 63.161C327.588 63.8565 329.598 64.5459 331.579 65.9365C331.785 66.1066 331.979 66.1935 332.084 66.202C332.48 66.2796 332.736 66.411 333.102 66.7782C342.855 73.2079 351.925 79.8748 358.476 89.7321C368.401 104.669 377.13 120.322 386.764 135.427C400.897 157.586 416.465 178.54 436.333 195.995C436.608 196.237 436.767 196.612 437.024 197.179C436.253 197.432 435.439 197.432 434.319 197.432Z" fill="#FE9F87"/>
<path id="Vector_17" d="M88.9928 146.576C96.2719 146.293 102.945 143.774 109.52 141.1C126.812 134.068 141.514 122.964 155.83 111.276C171.189 98.7361 185.501 84.9508 201.411 73.0611C208.364 67.8651 215.654 63.2857 223.539 59.6403C228.878 57.1721 233.875 54.1686 237.898 49.7651C243.736 43.375 244.749 36.4198 240.96 28.6564C236.769 20.0701 229.975 13.7499 222.609 8.03412C205.507 -5.23654 186.379 -15.0011 166.598 -23.5059C142.838 -33.7218 118.462 -42.1157 93.0248 -47.1571C91.9061 -47.3788 90.7652 -47.4884 89.3137 -47.6219C88.9928 -48.1661 88.9928 -48.7386 88.9928 -49.5973C135.111 -40.6348 178.335 -24.1587 217.628 1.97103C226.012 7.54619 233.682 14.0564 239.546 22.4178C248.659 35.4099 246.493 47.1925 233.48 56.2116C226.754 60.8726 218.995 63.5905 212.135 68.0139C196.023 78.4039 182.115 91.4976 167.623 103.878C151.845 117.358 135.908 130.608 117.125 139.859C108.409 144.151 99.3634 147.447 89.3178 148.589C88.9928 148.007 88.9928 147.435 88.9928 146.576Z" fill="#FE9F87"/>
<path id="Vector_18" d="M399.97 197.433C397.232 192.22 393.401 187.93 390.229 183.208C378.377 165.562 368.395 146.823 357.981 128.335C354.799 122.686 351.326 117.221 347.745 111.81C343.078 104.759 336.672 100.021 329.053 96.6954C321.533 93.4139 314.393 94.6755 307.482 98.4902C299.403 102.95 292.557 109.023 285.747 115.151C274.45 125.317 261.515 133.216 248.898 141.539C233.135 151.936 219.024 164.338 205.061 176.961C198.467 182.921 191.489 188.457 184.687 194.188C183.727 194.996 182.535 195.586 182.111 197.166C181.058 197.433 179.998 197.433 178.619 197.433C182.409 192.706 187.683 189.331 192.461 185.402C205.92 174.336 218.055 161.754 231.986 151.232C244.782 141.567 258.402 133.112 271.572 123.998C281.333 117.243 289.281 108.306 299.061 101.604C301.471 99.9524 303.915 98.3403 306.422 96.8419C315.695 91.3005 324.789 91.6799 334.252 96.891C343.018 101.718 348.848 109.066 353.705 117.348C363.738 134.457 373.47 151.741 383.449 168.882C389.148 178.671 395.774 187.856 402.579 197.218C401.904 197.433 401.089 197.433 399.97 197.433Z" fill="#FEA087"/>
<path id="Vector_19" d="M88.9928 128.257C96.7047 128.037 103.714 125.314 110.516 122.169C126.155 114.938 139.271 104.072 152.121 92.8292C164.45 82.0417 176.129 70.4554 189.813 61.304C194.026 58.4864 198.569 56.1604 202.98 53.6425C205.427 52.2458 207.607 50.523 209.637 48.5779C215.805 42.6662 216.957 35.6253 212.727 28.2036C208.001 19.9142 200.727 14.1283 192.996 8.92012C172.259 -5.04993 149.417 -14.538 125.785 -22.2965C113.937 -26.1865 101.933 -29.4833 89.2989 -31.5287C88.9928 -32.1363 88.9928 -32.7088 88.9928 -33.5676C105.85 -30.4956 122.416 -26.0749 138.523 -20.0444C159.416 -12.2216 179.772 -3.2989 197.873 10.0279C204.04 14.5682 209.797 19.5962 213.823 26.2382C219.436 35.4987 218.217 43.6069 210.12 50.7798C208.04 52.6228 205.792 54.4352 203.32 55.6523C187.339 63.5237 174.516 75.5477 161.398 87.1952C146.467 100.452 131.713 113.946 113.577 122.906C105.999 126.651 98.0949 129.359 89.3154 130.256C88.9928 129.688 88.9928 129.115 88.9928 128.257Z" fill="#FE9F87"/>
<path id="Vector_20" d="M373.998 197.432C373.464 195.04 371.835 193.292 370.779 191.292C362.061 174.763 353.315 158.249 344.498 141.773C342.276 137.621 339.617 133.724 336.452 130.209C329.602 122.603 320.006 121.184 311.292 126.484C304.216 130.788 297.67 135.853 291.191 140.968C274.989 153.755 257.092 164.066 240.361 176.069C231.477 182.443 222.754 189.029 215.054 197.203C214.368 197.432 213.796 197.432 212.937 197.432C214.991 192.881 219.328 190.278 223.001 187.09C237.457 174.542 253.718 164.514 269.681 154.08C282.044 146 293.273 136.372 305.399 127.97C305.922 127.608 306.437 127.234 306.941 126.847C321.161 115.947 333.876 122.333 341.591 133.541C347.664 142.362 352.414 151.944 357.323 161.435C363.455 173.29 369.732 185.071 375.974 197.158C375.429 197.432 374.857 197.432 373.998 197.432Z" fill="#FE9F87"/>
<path id="Vector_21" d="M140.664 80.7811C141.787 79.7591 142.737 78.9124 143.829 77.8724C144.123 77.4734 144.286 77.2752 144.607 76.9641C144.756 76.8424 144.716 76.8289 144.723 76.849C144.878 76.6692 145.043 76.4858 145.368 76.1988C145.51 76.0786 145.478 76.0615 145.484 76.0782C145.663 75.8799 145.859 75.6898 146.267 75.4397C154.411 68.0781 162.059 60.4371 171.019 54.3374C174.269 52.1247 177.745 50.2131 180.84 47.8074C188.917 41.5297 189.527 33.43 182.788 25.7329C173.853 15.528 162.134 9.41091 150.177 3.75931C143.073 0.401758 135.665 -2.31294 128.157 -5.44547C127.634 -5.87838 127.519 -6.23763 127.749 -6.89074C146.074 -1.0463 163.486 6.48407 178.519 18.6755C181.195 20.8454 183.539 23.3382 185.574 26.1207C191.164 33.7648 190.36 41.8739 183.432 48.2943C179.851 51.6119 175.388 53.5992 171.469 56.4033C160.062 64.5648 150.427 74.7326 140.06 84.0718C129.179 93.8732 117.992 103.22 104.054 108.546C99.3869 110.33 94.5669 111.326 89.3126 111.916C88.9928 111.368 88.9928 110.796 88.9928 109.937C98.377 109.733 106.48 105.762 114.394 101.4C117.711 99.5718 120.702 97.1535 124.003 94.8139C124.255 94.3592 124.393 94.1215 124.746 93.786C124.912 93.6606 124.892 93.7598 124.941 93.7703C125.433 93.0297 126.231 92.7566 127.158 92.2648C128.494 91.6731 129.38 90.9558 129.67 89.4378C130.308 89.5853 130.878 89.2627 131.623 88.7486C131.972 88.0797 132.39 87.9138 133.005 87.6354C133.155 87.4584 133.2 87.4515 133.207 87.4295C133.676 87.0727 133.904 86.4818 134.637 86.1242C135.018 85.8832 135.205 85.7428 135.473 85.4288C135.901 84.7868 136.171 84.2393 136.946 83.8552C137.141 83.7438 137.087 83.7504 137.112 83.761C138.089 82.6351 139.064 81.5261 140.664 80.7811Z" fill="#FE9F87"/>
<path id="Vector_22" d="M88.9928 91.5853C101.487 91.1952 111.234 84.9671 120.266 77.1886C125.861 72.3701 131.008 67.0854 136.074 61.7244C141.412 56.0752 147.146 50.89 153.314 46.1441C161.2 40.076 161.473 33.1649 154.281 26.2233C147.453 19.6329 138.978 15.8004 130.359 12.3122C117.238 7.00207 103.775 2.86263 89.3122 1.27337C88.9928 0.919707 88.9928 0.580449 88.9928 -0.0132459C96.5216 -0.71999 103.596 1.61268 110.673 3.55843C125.311 7.58251 139.558 12.6194 152.009 21.6844C152.626 22.1334 153.236 22.5959 153.815 23.091C164.346 32.0873 164.007 40.683 152.867 48.966C143.418 55.991 135.941 65.0959 127.49 73.1746C120.666 79.6986 113.583 85.8499 104.848 89.7951C100.006 91.9823 95.0085 93.191 89.339 92.9064C88.9928 92.5182 88.9928 92.179 88.9928 91.5853Z" fill="#FEA088"/>
<path id="Vector_23" d="M352.625 197.433C346.239 183.196 340.101 168.972 331.212 156.172C329.137 153.184 326.323 151.016 322.659 150.185C319.367 149.438 316.236 149.743 313.822 152.306C297.649 169.48 277.489 181.111 257.507 193.006C255.685 194.091 253.647 195.001 252.381 197.169C251.035 197.433 249.726 197.433 248.091 197.433C254.965 191.536 263.139 187.127 271.125 182.481C285.584 174.071 298.894 164.253 310.79 152.462C317.392 145.919 324.56 146.274 331.076 153.031C334.912 157.009 337.558 161.828 340.1 166.641C345.317 176.52 350.06 186.638 354.569 197.161C354.056 197.433 353.484 197.433 352.625 197.433Z" fill="#FEA086"/>
<path id="Vector_24" d="M548.297 190.324C548.538 190.81 548.529 191.169 548.513 191.797C523.181 186.906 499.676 177.267 477.794 163.54C443.121 141.791 417.239 111.532 394.628 78.0523C383.598 61.7191 373.614 44.6923 361.931 28.7936C357.776 23.1394 353.249 17.8378 347.702 13.4625C341.507 8.5768 334.785 6.63133 327.02 9.12285C321.93 10.7559 316.691 11.8244 311.4 12.6274C298.772 14.5438 288.114 10.4963 278.87 2.02097C268.654 -7.3463 258.554 -16.8532 247.086 -25.1394C246.814 -25.8356 246.979 -26.2316 247.759 -26.472C255.977 -21.4423 262.826 -15.1793 269.733 -9.00214C274.847 -4.42879 279.774 0.347965 285.249 4.51447C292.416 9.9677 300.477 11.8453 309.311 10.8667C314.504 10.2914 319.691 9.47033 324.592 7.69529C335.38 3.78782 344.214 7.00336 352.121 14.5101C359.839 21.8382 365.854 30.5006 371.672 39.3069C385.892 60.8289 399.306 82.8975 415.312 103.201C437.859 131.8 464.3 155.763 497.126 172.172C513.359 180.286 530.409 186.065 548.297 190.324Z" fill="#FE9F88"/>
<path id="Vector_25" d="M146.274 75.4516C146.259 75.5465 146.064 75.7381 145.68 76.0123C145.692 75.9127 145.893 75.7305 146.274 75.4516Z" fill="#F05C42"/>
</g>
</g>
</g>
</g>
</g>
</g>
</svg>
