<svg width="173" height="173" viewBox="0 0 173 173" fill="none" xmlns="http://www.w3.org/2000/svg">
<ellipse cx="86.0869" cy="86.2337" rx="85.8528" ry="86" transform="rotate(-0.156185 86.0869 86.2337)" fill="#0B090A"/>
<ellipse cx="86.0869" cy="86.2337" rx="76.6543" ry="76.7857" transform="rotate(-0.156185 86.0869 86.2337)" fill="#EEEBE3"/>
<mask id="mask0_48_361" style="mask-type:alpha" maskUnits="userSpaceOnUse" x="24" y="24" width="124" height="124">
<ellipse cx="86.0869" cy="86.2337" rx="61.3234" ry="61.4286" transform="rotate(-0.156185 86.0869 86.2337)" fill="#C4C4C4"/>
</mask>
<g mask="url(#mask0_48_361)">
<path d="M-31.6792 160.411C-31.8825 154.351 -31.8825 148.483 -31.8825 142.257C-27.96 139.314 -23.224 139.394 -18.9143 138.075C-9.27364 135.124 -0.234619 130.93 8.50018 126.053C22.6035 118.178 35.4241 108.404 47.8602 98.1888C58.8159 89.1893 69.358 79.6703 80.2983 70.6568C95.3451 58.2599 110.583 46.0561 128.984 38.6139C135.697 35.8989 141.636 31.7206 146.271 25.9641C153.432 17.0715 151.681 7.01276 146.32 -1.58874C139.609 -12.3556 129.946 -20.1816 119.839 -27.4663C102.91 -39.6681 84.4406 -49.113 65.5566 -57.8947C51.9873 -64.205 38.1079 -69.7263 24.0665 -74.7543C9.92157 -79.8194 -4.50837 -84.1595 -19.2045 -87.4693C-20.5641 -87.7755 -21.9208 -88.0664 -23.206 -89.1997C-23.5179 -90.0744 -23.4339 -90.6531 -22.9115 -91.4361C-2.86036 -91.6766 17.0019 -91.6766 37.222 -91.6766C50.8328 -88.8589 63.2505 -83.6284 75.7188 -78.5268C89.0622 -73.0672 101.846 -66.5018 114.566 -59.1745C118.578 -56.4383 122.342 -53.8243 126.515 -51.3205C138.005 -42.717 148.384 -33.2475 158.706 -23.7046C165.712 -17.2268 174.02 -12.9958 183.554 -12.9162C190.007 -12.8623 196.578 -14.0939 202.861 -16.0987C208.73 -17.9717 214.589 -19.2309 220.599 -16.5274C227.261 -13.5309 232.484 -8.68063 236.943 -3.15421C250.176 13.2462 260.567 31.598 272.318 49.0195C281.369 62.4396 290.74 75.6359 301.374 87.9312C308.449 96.1116 315.805 103.987 323.628 111.401C333.373 120.636 343.958 128.827 355.25 136.181C368.176 144.598 381.804 151.503 396.228 156.812C405.813 160.34 415.404 163.998 425.656 165.279C426.414 165.374 427.098 165.767 428.092 166.136C433.066 167.511 437.887 168.148 442.669 168.975C443.845 169.178 444.845 169.423 445.743 170.674C446.423 173.237 444.653 172.404 443.684 172.407C431.02 172.445 418.356 172.432 405.693 172.432C395.435 172.432 385.177 172.432 374.562 172.432C356.649 167.641 341.903 157.687 327.667 146.884C321.312 142.062 315.084 137 309.684 131.104C301.562 122.236 293.479 113.361 286.134 103.77C272.626 86.1289 261.09 67.1946 248.791 48.7599C244.713 42.6477 240.793 36.2116 235.412 31.3494C226.442 23.2444 217.621 14.6011 206.278 9.74792C196.517 5.5718 187.397 7.60939 178.455 15.9366C173.504 20.5469 170.205 26.5456 165.409 31.2528C157.957 38.5665 149.329 44.3764 140.666 50.1172C130.102 57.1177 119.494 64.0699 109.338 71.6413C102.955 76.3994 96.9583 81.7114 91.1955 87.2299C79.9302 98.0176 67.9112 107.916 55.7893 117.705C45.5335 125.987 34.9532 133.863 23.7148 140.705C12.1257 147.76 0.0113849 153.904 -13.1967 157.579C-18.0618 158.932 -22.9806 159.991 -27.9023 161.074C-29.1814 161.355 -30.398 161.63 -31.6792 160.411Z" fill="#FC5231"/>
<path d="M43.6224 -91.3943C63.5486 -91.6766 83.4109 -91.6766 103.631 -91.6766C113.899 -87.9514 122.371 -81.7405 130.93 -75.7647C144.269 -66.4509 156.948 -56.1813 171.03 -47.947C176.443 -44.7815 181.743 -41.1392 188.756 -41.2803C197.499 -40.6041 205.969 -41.1149 214.743 -40.9094C226.111 -40.2024 234.248 -33.585 242.256 -27.0485C259.783 -12.7422 273.214 5.26163 286.758 23.1411C297.301 37.0578 307.737 51.0451 319.065 64.3651C329.49 76.6239 340.58 88.1698 352.798 98.6083C368.049 111.639 384.603 122.674 402.775 131.332C415.028 137.17 427.584 142.064 440.59 145.872C442.388 146.398 444.345 146.669 445.765 148.566C445.957 155.146 445.957 161.523 445.957 168.258C442.533 169.998 439.309 168.276 436.012 167.905C433.596 167.633 431.203 167.053 428.509 166.527C418.82 164.046 409.409 161.722 400.255 158.426C385.061 152.956 370.594 146.083 356.95 137.401C348.958 132.315 341.399 126.69 334.082 120.711C324.085 112.541 315.039 103.401 306.361 93.8554C293.907 80.155 283.068 65.2139 272.789 49.8904C264.682 37.8036 256.984 25.4314 248.925 13.3073C242.547 3.71233 236.087 -5.89553 226.638 -12.9163C220.608 -17.3959 214.124 -19.5139 206.627 -17.0335C199.502 -14.6759 192.122 -13.1226 184.681 -12.8275C177.856 -12.5568 171.213 -14.4261 165.496 -18.4578C159.316 -22.8152 153.916 -28.1051 148.316 -33.1672C141.614 -39.2251 134.939 -45.3627 127.056 -50.4365C123.211 -53.362 119.571 -56.0843 115.266 -58.3245C103.947 -65.6632 92.0515 -71.2812 80.0173 -76.6205C69.0327 -81.4941 57.8011 -85.7249 46.3569 -89.4014C45.368 -89.7191 44.0383 -89.8165 43.6224 -91.3943Z" fill="#FC5231"/>
<path d="M367.445 172.173C350.525 172.432 333.716 172.432 316.55 172.432C308.889 167.489 303.069 160.925 297.188 154.513C284.838 141.048 274.623 125.946 264.716 110.651C255.76 96.8243 247.829 82.3698 238.905 68.5128C232.08 57.9143 223.366 49.5721 212.119 43.4166C211.619 43.0477 211.349 42.819 210.873 42.4298C210.516 42.1846 210.37 42.0934 210.018 41.8472C208.556 40.4165 206.894 40.1115 205.001 39.6892C204.598 39.5385 204.436 39.4789 204.023 39.3535C201.361 38.1229 198.792 38.4173 195.99 38.4728C195.217 38.4799 194.703 38.49 193.97 38.7259C192.851 39.3179 191.805 39.3302 190.664 39.8516C190.098 39.9892 189.777 40.0733 189.239 40.2913C187.596 41.0174 185.687 40.2078 184.48 42.0912C184.2 42.386 184.081 42.4956 183.778 42.7639C183.472 43.024 183.349 43.1255 183.043 43.3791C182.735 43.6251 182.609 43.719 182.291 43.9442C181.847 44.2522 181.599 44.4345 181.176 44.7631C180.875 44.9919 180.753 45.081 180.447 45.299C180.148 45.5234 180.033 45.6188 179.761 45.8716C179.395 46.2365 179.172 46.428 178.752 46.72C178.209 47.0729 177.852 47.3129 177.323 47.6803C177.04 47.8947 176.929 47.9841 176.65 48.2064C176.363 48.4222 176.246 48.5049 175.953 48.7184C175.657 48.9329 175.536 49.0165 175.223 49.2166C174.766 49.4838 174.492 49.6169 173.979 49.7958C173.587 49.881 173.426 49.9043 173.021 49.9648C170.731 50.4275 170.066 51.8595 170.005 54.0051C169.89 54.5705 169.767 54.8704 169.451 55.3341C168.997 55.849 168.665 56.1583 168.22 56.6551C167.977 56.9123 167.879 57.0128 167.637 57.2614C167.396 57.5054 167.299 57.6014 166.918 57.9828C166.539 58.3624 166.445 58.4566 166.068 58.8346C165.692 59.2149 165.599 59.3113 165.369 59.5579C165.046 59.9077 164.853 60.1012 164.501 60.4322C164.144 60.7733 163.946 60.9769 163.603 61.3448C162.919 62.0184 162.418 62.5674 161.69 63.2076C161.276 63.5438 161.049 63.7472 160.676 64.1358C160.305 64.5388 160.069 64.7461 159.612 65.0649C159 65.479 158.586 65.7519 157.954 66.169C142.178 78.7408 124.607 88.3083 108.959 100.605C103.887 104.591 98.9691 108.761 94.2116 113.132C84.9738 121.619 75.4797 129.815 65.9026 137.923C57.0896 145.384 47.8936 152.329 38.4038 158.851C31.2301 163.781 24.1722 169.042 15.6469 172.251C0.775635 172.432 -13.8937 172.321 -28.5586 172.524C-31.6151 172.566 -32.242 171.617 -31.9249 168.922C-31.7048 167.051 -31.8825 165.134 -31.8825 162.873C-29.7893 160.539 -27.0102 160.844 -24.4949 160.329C-8.93124 157.138 5.53527 151.184 19.2101 143.177C32.9776 135.117 45.7175 125.631 58.1354 115.649C70.1939 105.956 81.9283 95.9215 93.1693 85.2819C107.618 71.606 124.306 60.9012 140.814 49.9635C149.465 44.2311 158.119 38.4313 165.51 31.0685C170.155 26.4409 173.521 20.6925 178.242 16.0768C188.385 6.16239 199.527 4.94344 211.631 12.3979C220.016 17.5618 227.582 23.8479 234.676 30.5138C241.563 36.9847 246.58 45.2043 251.795 53.1272C261.797 68.3236 271.41 83.7782 282.18 98.4645C293.191 113.479 305.323 127.535 319.227 139.884C331.753 151.009 345.621 160.344 360.854 167.528C363.261 168.663 366.121 169.239 367.445 172.173Z" fill="#FC5231"/>
<path d="M108.447 -91.4161C121.052 -91.6766 133.536 -91.6766 146.377 -91.6766C153.775 -85.7649 160.393 -79.3514 167.9 -73.9952C172.552 -70.6758 177.352 -67.5568 182.716 -65.5809C192.363 -62.0276 200.303 -64.4995 206.674 -72.9828C209.657 -76.9545 211.962 -81.3303 214.221 -85.732C215.261 -87.7574 216.184 -89.8666 218.285 -91.4873C225.627 -91.6766 232.767 -91.6766 240.265 -91.6766C241.733 -89.9208 240.304 -88.8308 239.51 -87.6174C236.31 -82.7259 233.455 -77.7729 232.465 -71.8073C231.489 -65.9258 233.706 -61.5731 238.177 -58.4247C244.69 -53.8384 251.963 -50.4023 258.175 -45.3078C265.944 -38.9353 272.953 -31.824 279.594 -24.2987C297.448 -4.06645 312.402 18.4266 329.37 39.3479C337.277 49.0977 345.572 58.5548 354.491 67.3346C371.499 84.0761 390.029 98.9519 411.416 109.928C421.784 115.249 432.258 120.321 443.314 124.087C444.17 124.378 444.918 124.848 445.758 125.678C445.957 132.501 445.957 139.133 445.957 146.122C442.4 147.942 439.429 145.512 436.413 144.627C418.824 139.464 402.119 132.048 386.315 122.806C374.288 115.773 363.077 107.495 352.456 98.4258C343.175 90.5004 334.48 81.9651 326.347 72.9114C316.255 61.6763 306.786 49.9016 297.693 37.8256C287.983 24.9312 278.314 12.0086 268.156 -0.551643C262.256 -7.84669 255.661 -14.399 249.08 -21.0094C242.423 -27.6963 234.708 -32.9788 226.625 -37.7372C223.344 -39.6689 219.633 -40.3623 215.532 -40.5276C208.13 -41.4311 201.034 -40.365 193.936 -40.515C192.423 -40.547 190.938 -40.7033 189.144 -40.9732C182.08 -41.0585 176.643 -44.5959 171.082 -47.7674C158.058 -55.1954 146.409 -64.6274 134.227 -73.2738C126.473 -78.7768 118.614 -84.0812 110.358 -88.7847C109.317 -89.3778 108.277 -89.7333 108.447 -91.4161Z" fill="#FC5231"/>
<path d="M57.6334 172.249C44.9425 172.432 32.459 172.432 19.6177 172.432C18.525 170.668 19.9529 170.268 21.0227 169.654C38.6762 159.532 54.7349 147.222 70.2501 134.12C81.3154 124.775 91.8592 114.849 102.828 105.409C113.941 95.8434 126.381 88.0542 138.558 79.9338C148.566 73.2601 158.738 66.7282 166.909 57.7819C171.126 53.1656 175.364 48.6939 180.472 45.0638C186.052 41.0985 191.981 38.1048 199.038 38.4965C204.903 38.8221 209.826 41.6694 214.722 44.6601C225.489 51.236 233.728 60.1011 240.458 70.7599C250.471 86.6187 259.55 103.047 269.997 118.638C279.939 133.477 290.614 147.731 302.953 160.673C305.658 163.51 308.743 165.985 311.442 168.844C312.282 169.735 313.542 170.4 313.263 172.183C302.945 172.432 292.752 172.432 282.2 172.432C278.541 170.892 276.945 167.662 275.04 164.953C261.973 146.371 251.03 126.498 239.989 106.682C234.506 96.841 229.501 86.5093 221.102 78.7772C214.665 72.8505 207.162 68.3998 197.701 69.0123C192.351 69.3587 187.812 71.6576 183.42 74.3471C175.499 79.1981 168.638 85.4377 161.727 91.5597C154.768 97.7232 147.039 102.772 139.386 107.954C126.703 116.543 113.781 124.788 102.186 134.892C90.5774 145.006 79.4441 155.67 67.3428 165.212C64.2802 167.627 61.53 170.508 57.6334 172.249Z" fill="#FC5231"/>
<path d="M-31.6776 -74.6863C-31.8825 -79.2254 -31.8825 -83.5672 -31.8825 -88.2661C-30.44 -90.1953 -28.7293 -89.7902 -26.9395 -89.4045C-2.61514 -84.1626 21.0086 -76.5926 44.046 -67.3043C61.6344 -60.2129 78.8302 -52.247 95.402 -42.8906C111.282 -33.925 126.537 -24.2319 139.171 -10.9608C143.966 -5.92377 148.262 -0.408493 150.148 6.61222C152.488 15.3259 150.277 22.7536 143.975 28.8713C139.505 33.212 134.236 36.5752 128.453 39.0079C112.659 45.6509 99.0676 55.6404 85.872 66.3775C74.8415 75.3529 64.2169 84.7967 53.2355 93.822C40.8622 103.991 28.4074 114.058 14.7269 122.458C1.50848 130.574 -12.2932 137.361 -27.6784 140.385C-28.9104 140.627 -30.1159 140.901 -31.627 140.507C-31.8825 135.014 -31.8825 129.655 -31.8825 123.938C-29.3578 121.701 -26.2168 121.725 -23.36 121.014C-9.4916 117.563 2.67632 110.718 14.4146 102.855C30.26 92.2421 44.2948 79.4234 58.6802 67.0167C66.1561 60.5691 73.6223 54.0961 81.6398 48.3032C89.1638 42.867 97.0728 38.0906 105.472 34.1287C109.278 32.3333 112.876 30.1739 115.897 27.2283C125.794 17.5757 124.941 8.87361 117.989 -1.58474C110.132 -13.4067 98.4036 -20.8719 86.7669 -28.3566C74.1315 -36.4836 60.6612 -43.0803 46.8973 -48.9679C22.6828 -59.3257 -2.06738 -68.1711 -28.0856 -72.9516C-29.4008 -73.1932 -30.5188 -73.5878 -31.6776 -74.6863Z" fill="#FB5232"/>
<path d="M91.9786 172.244C81.8364 172.432 71.8972 172.432 61.6004 172.432C60.1625 171.038 60.8939 170.243 62.0632 169.338C76.971 157.794 90.4422 144.584 104.82 132.432C113.593 125.017 123.155 118.573 132.769 112.257C143.664 105.1 154.673 98.0636 164.405 89.3407C170.284 84.0717 176.218 78.9273 182.826 74.5987C197.259 65.1429 208.117 67.7621 220.814 78.3979C228.381 84.736 232.748 93.7551 237.58 102.236C248.568 121.517 258.862 141.208 271.487 159.519C273.754 162.807 276.041 166.081 278.371 169.323C278.98 170.17 279.69 170.864 278.969 172.212C271.14 172.432 263.491 172.432 255.484 172.432C251.895 169.564 250.571 165.481 248.599 161.855C242.491 150.625 236.749 139.197 230.87 127.846C226.637 119.674 222.156 111.538 216.26 104.335C211.33 98.3134 199.84 95.6776 192.881 99.1665C185.365 102.934 178.782 108.16 172.29 113.358C151.907 129.676 128.786 142.055 108.323 158.228C102.762 162.623 97.823 167.75 91.9786 172.244Z" fill="#FC5231"/>
<path d="M-31.6691 121.488C-31.8825 116.185 -31.8825 111.08 -31.8825 105.618C-30.7184 103.839 -28.9198 103.741 -27.3872 103.494C-14.9475 101.489 -4.11358 95.7544 6.11974 88.8642C19.0727 80.1428 30.5741 69.6156 42.1485 59.169C52.2008 50.0961 62.3738 41.1062 74.029 34.0287C77.8223 31.7252 82.0306 30.1488 85.5395 27.3448C88.5199 24.9631 91.4371 22.5509 93.4297 19.2054C97.5181 12.3412 93.8614 3.07205 88.9725 -2.49347C78.9096 -13.9491 66.1558 -21.6527 52.837 -28.5158C30.8006 -39.8709 7.65459 -48.3373 -16.3932 -54.3087C-20.4217 -55.309 -24.4853 -56.2594 -28.5952 -56.9071C-29.8028 -57.0974 -30.8084 -57.3897 -31.688 -58.6456C-31.8825 -63.1956 -31.8825 -67.5374 -31.8825 -72.2364C-30.7662 -73.9449 -29.3351 -73.4716 -27.9912 -73.1996C-9.53391 -69.4642 8.42405 -64.0562 26.0526 -57.4344C41.284 -51.7129 56.221 -45.3555 70.5913 -37.7355C85.63 -29.7611 100.228 -21.0767 112.317 -8.84389C116.256 -4.85756 119.524 -0.320435 121.73 4.8958C125.783 14.4814 121.949 22.6158 113.8 29.1369C110.727 31.5959 107.304 33.5512 103.705 35.1891C90.3205 41.2812 78.7642 50.1227 67.6208 59.5166C52.3245 72.4115 37.735 86.157 21.5638 97.9961C6.73234 108.854 -8.85855 118.236 -27.1884 122.047C-28.6849 122.358 -30.114 122.79 -31.6691 121.488Z" fill="#FB5232"/>
<path d="M-31.668 103.169C-31.8825 97.8655 -31.8825 92.7606 -31.8825 87.2982C-29.8525 85.1311 -27.2109 85.2477 -24.785 84.7235C-12.3057 82.0271 -1.97432 75.2506 7.76433 67.4479C18.7188 58.6711 28.5052 48.5813 38.9936 39.2774C44.7757 34.1483 50.9039 29.4879 57.6103 25.6114C59.8153 24.3368 61.6985 22.6617 63.5338 20.8851C68.0581 16.5052 67.8241 7.17564 64.9742 3.26507C59.7272 -3.93478 52.9392 -9.30585 45.4137 -13.8111C35.0634 -20.0074 24.0881 -24.9083 12.7929 -29.1204C10.7691 -29.8751 8.57812 -30.0008 6.36332 -31.0853C-2.95382 -35.0483 -12.5038 -37.1684 -22.0235 -39.4066C-25.1612 -40.1443 -28.4393 -40.2991 -31.6573 -41.8521C-31.8825 -46.6568 -31.8825 -51.2529 -31.8825 -56.2064C-30.1155 -58.1092 -28.2433 -56.9549 -26.5196 -56.6037C-5.51834 -52.3247 14.7216 -45.7017 34.4245 -37.2438C49.746 -30.6667 64.5213 -23.1963 77.8287 -13.1043C84.9251 -7.72251 91.7053 -1.85532 94.4976 7.07954C96.1655 12.4165 95.5066 17.5049 91.6209 21.9062C88.3945 25.5608 84.7117 28.6699 80.3444 30.7842C67.4031 37.0494 56.8096 46.4944 46.1498 55.8332C30.7737 69.3039 16.1199 83.6725 -1.82102 93.904C-9.87652 98.498 -18.3013 102.145 -27.5043 103.756C-28.8591 103.993 -30.2372 104.519 -31.668 103.169Z" fill="#FB5232"/>
<path d="M253.017 172.211C246.714 172.433 240.591 172.433 234.111 172.433C230.144 168.536 228.815 163.427 226.563 158.815C221.906 149.276 217.63 139.535 211.304 130.909C208.991 127.755 206.156 125.393 202.256 124.393C198.344 123.39 194.814 123.923 191.994 126.893C177.708 141.932 160.45 152.906 142.696 163.241C138.993 165.397 135.205 167.466 131.846 170.178C130.52 171.249 128.884 171.566 127.112 172.268C116.186 172.433 105.483 172.433 94.4232 172.433C93.223 170.65 94.7093 169.896 95.6754 169.022C105.871 159.793 116.756 151.473 128.197 143.827C141.127 135.186 154.428 127.087 166.695 117.458C174.229 111.544 182.07 106.033 189.919 100.529C199.24 93.9932 211.309 98.354 217.219 105.678C223.234 113.132 227.585 121.581 231.991 130C238.659 142.739 245.105 155.595 252.072 168.176C252.73 169.364 253.869 170.41 253.017 172.211Z" fill="#FC5231"/>
<path d="M-31.6668 84.8502C-31.8825 79.2913 -31.8825 73.9321 -31.8825 68.2151C-31.1559 67.0531 -30.2497 66.7222 -29.1684 66.7228C-20.1359 66.7279 -12.7955 62.4874 -5.7899 57.3958C4.75183 49.7341 12.9461 39.5964 22.3445 30.7289C25.7591 27.5071 29.3909 24.5827 33.1514 21.7782C37.1043 18.8303 40.0626 15.0128 39.4487 9.80776C38.8288 4.55184 35.0526 1.10394 31.1186 -1.95933C21.9148 -9.12619 11.206 -13.3343 0.351341 -17.1662C-7.73694 -20.0216 -16.1114 -21.8544 -24.4642 -23.7746C-26.7994 -24.3114 -29.341 -23.2751 -31.6702 -25.0748C-31.8825 -29.8638 -31.8825 -34.4598 -31.8825 -39.4134C-30.87 -41.02 -29.485 -41.0631 -28.1054 -40.791C-16.5234 -38.5066 -5.08755 -35.6719 6.29678 -31.4972C22.0045 -26.2574 36.7578 -19.6463 50.4029 -10.7724C55.6885 -7.33496 60.416 -3.07536 64.1596 2.04661C69.8788 9.87153 68.0355 18.5501 59.7301 24.3597C56.6114 26.5412 53.216 28.279 50.1341 30.5119C41.9393 36.4493 34.4701 43.2231 27.0842 50.5023C26.7612 50.8058 26.632 50.9241 26.2961 51.196C25.9414 51.4309 25.7936 51.5122 25.4389 51.7329C25.1075 51.9797 24.983 52.087 24.5395 52.564C24.1097 53.0512 23.9988 53.1688 23.7164 53.4574C22.5128 54.4084 21.8101 55.526 20.5898 56.4468C19.4336 57.0744 18.3856 57.4447 17.6666 58.6404C17.4743 58.9794 17.397 59.115 17.1845 59.4421C16.7434 59.9857 16.4167 60.3183 15.9327 60.8188C15.5514 61.1936 15.3127 61.3806 14.8575 61.6524C14.2757 61.992 13.897 62.2302 13.4347 62.7217C13.1879 62.998 13.0856 63.105 12.8146 63.3558C12.293 63.7649 11.9822 64.0766 11.5114 64.535C11.1301 64.8683 10.895 65.0359 10.4599 65.2987C10.1572 65.5043 10.0415 65.5965 9.77722 65.8568C8.97386 66.6779 8.36131 67.3766 7.39077 68.0362C6.65073 68.5351 6.1543 68.9704 5.32129 69.3538C4.97073 69.6031 4.83543 69.7125 4.50606 70.0058C4.18392 70.3202 4.05586 70.4507 3.72475 70.7734C-5.05472 77.1581 -14.0714 82.4683 -24.5304 84.8472C-26.8119 85.3661 -29.1028 86.4457 -31.6668 84.8502Z" fill="#FB5232"/>
<path d="M-31.6719 -9.04214C-31.8825 -13.834 -31.8825 -18.4301 -31.8825 -23.3836C-28.0466 -25.3851 -24.3242 -23.8607 -20.6893 -23.0701C-5.27292 -19.7167 9.60466 -14.7442 23.5274 -7.21792C28.4915 -4.53447 32.9603 -1.07117 36.6687 3.19818C41.306 8.5368 40.4714 16.4303 34.1964 21.0614C24.7096 28.0629 16.7345 36.5671 8.52834 44.9018C2.01094 51.5212 -4.84281 57.8223 -13.1434 62.2697C-18.8558 65.3303 -24.746 67.6176 -31.6503 66.517C-31.8825 60.9716 -31.8825 55.6124 -31.8825 49.8955C-30.8947 48.3449 -29.5786 48.4145 -28.1845 48.4196C-21.554 48.4439 -15.9826 45.6649 -11.2149 41.3509C-3.19443 34.0936 2.78251 25.0654 9.42799 16.6414C13.4806 11.5042 12.1816 6.7238 6.66002 2.86495C-0.351841 -2.03536 -8.52011 -3.75023 -16.5816 -5.83894C-21.4948 -7.11192 -26.5911 -7.4074 -31.6719 -9.04214Z" fill="#FB5232"/>
<path d="M231.645 172.206C226.104 172.433 220.745 172.433 215.028 172.433C213.46 171.612 212.93 170.36 212.347 169.073C209.889 163.648 207.106 158.407 203.321 153.752C198.69 148.057 192.259 148.451 188.61 154.719C184.922 161.054 181.457 167.552 175.176 172.245C160.713 172.433 146.448 172.433 131.826 172.433C130.677 170.022 132.678 169.369 134.082 168.466C141.772 163.523 149.636 158.857 157.475 154.159C169.187 147.139 180.322 139.225 189.387 129.096C197.215 120.348 206.942 124.292 211.774 131.351C216.41 138.124 220.098 145.372 223.693 152.702C226.353 158.123 228.813 163.635 231.353 169.111C231.769 170.008 232.406 170.903 231.645 172.206Z" fill="#FB5232"/>
<path d="M367.678 172.433C359.933 168.311 352.417 164.382 345.151 160.034C322.235 146.322 303.773 127.728 287.39 106.884C272.829 88.3595 260.487 68.3126 247.683 48.6022C238.254 34.0874 225.869 22.8282 211.6 13.5507C199.259 5.52622 188.736 7.04044 178.242 17.4025C177.428 18.2059 176.528 18.9686 175.898 19.9047C165.815 34.8777 151.166 44.6436 136.357 54.0604C117.292 66.1839 99.9518 80.3645 83.2699 95.5496C61.814 115.08 39.3811 133.441 13.7141 147.37C-0.380339 155.018 -15.3444 160.158 -31.5685 162.469C-31.8825 161.937 -31.8825 161.364 -31.8825 160.506C-18.5464 158.938 -6.07562 154.699 5.94665 149.016C27.6416 138.761 46.358 124.116 64.8091 109.058C78.9051 97.5537 91.7462 84.6248 105.855 73.1477C117.914 63.3381 131.246 55.3367 144.052 46.5896C154.906 39.1758 165.096 31.1966 173.06 20.4304C179.097 12.2681 186.921 6.16892 198.068 6.65754C204.868 6.95563 210.366 10.2806 215.832 13.8793C233.446 25.4763 246.059 41.4933 257.044 59.1901C269.317 78.9621 282.202 98.3536 297.364 116.103C318.005 140.265 342.17 159.651 372.087 171.246C372.675 171.474 373.214 171.827 373.99 172.277C372.143 172.433 370.082 172.433 367.678 172.433Z" fill="#FEA088"/>
<path d="M-31.8825 140.627C-4.06792 135.249 18.6402 120.176 40.1992 103.045C51.7428 93.8722 62.959 84.279 74.1603 74.6855C92.1898 59.2439 110.895 44.8695 132.976 35.5199C136.037 34.2238 138.652 32.1268 141.227 30.0562C150.365 22.7088 152.57 12.1357 147.158 1.70577C142.731 -6.82463 136.016 -13.4112 128.753 -19.4587C110.816 -34.3954 90.3995 -45.2702 69.4264 -55.1547C45.1046 -66.6175 19.9941 -76.0274 -5.9369 -83.1735C-14.2615 -85.4675 -22.5897 -87.8322 -31.5576 -88.6675C-31.8825 -89.1958 -31.8825 -89.7683 -31.8825 -90.6271C-28.9028 -91.2163 -25.9596 -91.2189 -22.9378 -89.6457C13.1691 -81.1748 47.4203 -68.4314 80.332 -52.0741C99.1554 -42.7188 117.289 -32.2068 133.164 -18.2101C139.308 -12.7922 144.791 -6.81516 148.71 0.444351C154.78 11.6891 152.651 22.645 143.003 30.9539C138.424 34.8973 133.382 38.0884 127.848 40.3912C112.868 46.6236 100.027 56.1295 87.5369 66.2237C66.8801 82.9176 47.5015 101.195 25.6482 116.404C9.15451 127.883 -8.21335 137.561 -28.2295 141.513C-29.2227 141.71 -30.2363 141.802 -31.5615 141.921C-31.8825 141.56 -31.8825 141.221 -31.8825 140.627Z" fill="#FE9F87"/>
<path d="M313.444 172.432C309.108 166.994 303.584 163.028 299.056 158.045C283.245 140.644 270.177 121.306 257.907 101.352C249.325 87.3967 241.656 72.8494 231.436 59.9415C225.136 51.9849 216.748 46.6574 207.935 42.0801C199.904 37.9088 191.909 39.2292 184.319 43.7584C180.147 46.248 176.179 49.0997 173.02 52.7571C163.267 64.0525 151.554 72.9494 138.99 80.7455C116.951 94.4202 97.4775 111.28 78.2387 128.513C60.3156 144.567 41.2953 159.216 20.3479 171.212C20.0259 171.396 19.7806 171.714 19.3798 172.201C18.1999 172.432 17.1397 172.432 15.7615 172.432C19.5413 168.768 24.6356 166.676 29.2037 163.75C51.4433 149.506 71.5713 132.585 90.8809 114.708C104.567 102.037 119.613 91.2925 135.087 81.0388C142.604 76.0583 150.214 71.2052 157.304 65.2029C157.683 64.5627 158.104 64.4361 158.68 64.1649C159.026 63.8352 159.239 63.6847 159.578 63.3844C159.899 63.0916 160.083 62.9343 160.388 62.6407C161.191 61.9213 161.86 61.3241 162.665 60.5472C162.937 60.1181 163.109 59.8967 163.506 59.6032C163.875 59.4006 164.032 59.2684 164.24 58.9695C164.454 58.6116 164.608 58.4014 164.933 58.0811C165.083 57.9556 165.052 57.9376 165.065 57.951C165.221 57.7719 165.381 57.5948 165.694 57.3157C165.829 57.1983 165.833 57.1863 165.839 57.1839C165.964 57.0499 166.083 56.9183 166.391 56.599C166.58 56.4113 166.582 56.4086 166.583 56.4072C166.936 55.9586 167.195 55.4254 167.894 55.0074C168.259 54.718 168.449 54.5545 168.722 54.2069C169.875 52.084 171.08 50.2601 173.382 49.0943C173.607 48.9751 173.608 48.8759 173.558 48.8753C173.757 48.4413 174.213 48.4063 174.801 48.1576C174.975 48.0228 174.984 48.0195 174.987 48.0149C175.153 47.8349 175.322 47.6637 175.633 47.3805C175.771 47.2641 175.738 47.2663 175.754 47.2733C176.145 46.5209 176.726 46.0614 177.734 45.8384C178.084 45.5013 178.301 45.357 178.65 45.0692C178.982 44.7853 179.161 44.6224 179.461 44.3241C179.603 44.2112 179.558 44.2205 179.575 44.2366C180.052 43.57 180.8 43.3094 181.676 42.8223C181.864 42.6852 181.852 42.6665 181.854 42.6761C182.017 42.4984 182.188 42.321 182.52 42.0468C182.671 41.9404 182.645 42.0222 182.685 42.0358C184.241 40.2794 186.311 39.6003 188.747 39.0477C189.279 38.9299 189.547 38.8864 190.007 38.7803C191.051 37.9984 192.087 37.7507 193.411 37.5327C194.141 37.5322 194.606 37.5624 195.298 37.5389C198.461 35.9855 201.292 37.7093 204.438 37.9864C204.7 38.2082 204.688 38.1111 204.686 38.161C206.713 38.8565 208.723 39.5459 210.704 40.9365C210.91 41.1066 211.103 41.1935 211.209 41.202C211.604 41.2796 211.861 41.411 212.227 41.7782C221.98 48.2079 231.05 54.8748 237.6 64.7321C247.526 79.6691 256.254 95.3222 265.888 110.427C280.021 132.586 295.59 153.54 315.457 170.995C315.733 171.237 315.892 171.612 316.148 172.179C315.378 172.432 314.564 172.432 313.444 172.432Z" fill="#FE9F87"/>
<path d="M-31.8825 121.576C-24.6034 121.293 -17.9308 118.774 -11.3558 116.1C5.93644 109.068 20.6384 97.9644 34.9547 86.2761C50.3142 73.7361 64.626 59.9508 80.5355 48.0611C87.4883 42.8651 94.7791 38.2857 102.664 34.6403C108.003 32.1721 113 29.1686 117.023 24.7651C122.861 18.375 123.874 11.4198 120.084 3.65639C115.894 -4.92987 109.1 -11.2501 101.734 -16.9659C84.6318 -30.2366 65.5039 -40.0011 45.7231 -48.5059C21.9628 -58.7218 -2.41318 -67.1157 -27.8505 -72.1571C-28.9692 -72.3788 -30.1101 -72.4885 -31.5616 -72.6219C-31.8825 -73.1661 -31.8825 -73.7386 -31.8825 -74.5973C14.2357 -65.6349 57.4594 -49.1587 96.7525 -23.029C105.136 -17.4538 112.806 -10.9436 118.671 -2.5822C127.784 10.4099 125.617 22.1925 112.604 31.2116C105.879 35.8726 98.1196 38.5905 91.2601 43.0139C75.1481 53.4039 61.2393 66.4976 46.748 78.8781C30.9698 92.3581 15.0328 105.608 -3.75076 114.859C-12.4666 119.151 -21.5119 122.447 -31.5575 123.589C-31.8825 123.007 -31.8825 122.435 -31.8825 121.576Z" fill="#FE9F87"/>
<path d="M279.095 172.433C276.357 167.22 272.526 162.93 269.354 158.208C257.502 140.562 247.52 121.823 237.106 103.335C233.924 97.6859 230.45 92.2206 226.869 86.81C222.203 79.7589 215.797 75.0208 208.177 71.6954C200.658 68.4139 193.518 69.6755 186.607 73.4902C178.528 77.95 171.681 84.023 164.872 90.1511C153.575 100.317 140.64 108.216 128.023 116.539C112.26 126.936 98.1492 139.338 84.1861 151.961C77.592 157.921 70.6133 163.457 63.8114 169.188C62.852 169.996 61.6595 170.586 61.2359 172.166C60.1825 172.433 59.1224 172.433 57.7441 172.433C61.5337 167.706 66.8076 164.331 71.5861 160.402C85.0447 149.336 97.1795 136.754 111.111 126.232C123.907 116.567 137.526 108.112 150.697 98.9977C160.458 92.2433 168.406 83.306 178.185 76.6042C180.595 74.9524 183.04 73.3403 185.547 71.8419C194.82 66.3005 203.914 66.6799 213.377 71.891C222.143 76.7183 227.973 84.066 232.829 92.3478C242.862 109.457 252.595 126.741 262.574 143.882C268.273 153.671 274.899 162.856 281.704 172.218C281.028 172.433 280.214 172.433 279.095 172.433Z" fill="#FEA087"/>
<path d="M-31.8825 103.257C-24.1706 103.037 -17.1609 100.314 -10.3592 97.169C5.27988 89.9378 18.3956 79.0718 31.2454 67.8292C43.5751 57.0416 55.2538 45.4554 68.9373 36.304C73.1504 33.4864 77.6939 31.1604 82.105 28.6425C84.5519 27.2458 86.7316 25.523 88.7612 23.5779C94.93 17.6662 96.0817 10.6253 91.8512 3.20362C87.1261 -5.08583 79.8522 -10.8717 72.121 -16.0799C51.3838 -30.0499 28.5413 -39.538 4.90962 -47.2965C-6.93882 -51.1865 -18.9421 -54.4833 -31.5764 -56.5287C-31.8825 -57.1363 -31.8825 -57.7088 -31.8825 -58.5676C-15.0253 -55.4956 1.54093 -51.0749 17.6476 -45.0444C38.541 -37.2216 58.897 -28.2989 76.9979 -14.9721C83.1647 -10.4318 88.922 -5.40383 92.948 1.23823C98.5611 10.4987 97.3417 18.6068 89.2448 25.7798C87.1645 27.6228 84.9163 29.4352 82.4452 30.6523C66.4633 38.5237 53.6403 50.5477 40.5227 62.1952C25.592 75.4524 10.838 88.9455 -7.29802 97.9064C-14.8768 101.651 -22.7804 104.359 -31.5599 105.256C-31.8825 104.688 -31.8825 104.115 -31.8825 103.257Z" fill="#FE9F87"/>
<path d="M253.123 172.433C252.589 170.04 250.959 168.292 249.904 166.292C241.186 149.763 232.44 133.249 223.623 116.773C221.401 112.621 218.742 108.724 215.577 105.209C208.727 97.6028 199.131 96.1839 190.417 101.484C183.341 105.788 176.795 110.853 170.315 115.968C154.113 128.755 136.217 139.066 119.485 151.069C110.602 157.443 101.879 164.029 94.1784 172.203C93.493 172.433 92.9205 172.433 92.0618 172.433C94.116 167.881 98.4522 165.278 102.126 162.09C116.581 149.542 132.842 139.514 148.806 129.08C161.169 121 172.398 111.372 184.524 102.97C185.046 102.608 185.562 102.234 186.066 101.847C200.286 90.9472 213 97.3328 220.716 108.541C226.788 117.362 231.539 126.944 236.448 136.435C242.58 148.29 248.856 160.071 255.098 172.158C254.554 172.433 253.981 172.433 253.123 172.433Z" fill="#FE9F87"/>
<path d="M19.789 55.7811C20.9118 54.7591 21.8619 53.9124 22.9532 52.8724C23.2478 52.4734 23.4102 52.2752 23.7321 51.9641C23.881 51.8424 23.8402 51.8289 23.8479 51.849C24.0026 51.6692 24.168 51.4858 24.4929 51.1988C24.6342 51.0786 24.6025 51.0615 24.6091 51.0782C24.7877 50.8799 24.9839 50.6898 25.3918 50.4397C33.536 43.0781 41.1836 35.4371 50.1438 29.3374C53.3941 27.1247 56.8692 25.2131 59.9646 22.8074C68.0421 16.5297 68.6518 8.43002 61.9126 0.732887C52.9778 -9.472 41.2591 -15.5891 29.3013 -21.2407C22.1972 -24.5982 14.7894 -27.3129 7.282 -30.4455C6.75873 -30.8784 6.64335 -31.2376 6.87412 -31.8907C25.1982 -26.0463 42.6109 -18.5159 57.6438 -6.32449C60.3194 -4.15457 62.6633 -1.66178 64.6983 1.1207C70.2888 8.76483 69.4846 16.8739 62.5562 23.2943C58.9762 26.6119 54.5131 28.5991 50.5939 31.4033C39.187 39.5648 29.5518 49.7326 19.1844 59.0718C8.30409 68.8732 -2.88378 78.2198 -16.8214 83.5461C-21.4884 85.3295 -26.3085 86.3258 -31.5628 86.9158C-31.8825 86.368 -31.8825 85.7955 -31.8825 84.9368C-22.4984 84.7331 -14.3949 80.7624 -6.48146 76.4002C-3.16464 74.5718 -0.172995 72.1535 3.12722 69.8139C3.37927 69.3592 3.51791 69.1215 3.8704 68.786C4.03696 68.6606 4.01663 68.7598 4.06617 68.7703C4.55796 68.0297 5.35579 67.7566 6.28226 67.2647C7.6188 66.6731 8.50418 65.9558 8.79516 64.4378C9.43272 64.5853 10.0029 64.2627 10.7474 63.7486C11.0968 63.0797 11.5144 62.9137 12.1292 62.6354C12.2793 62.4584 12.3248 62.4515 12.3315 62.4295C12.8009 62.0726 13.0284 61.4818 13.7618 61.1242C14.1428 60.8832 14.3298 60.7428 14.5974 60.4288C15.0253 59.7868 15.2956 59.2393 16.0705 58.8552C16.2659 58.7438 16.2118 58.7504 16.2369 58.761C17.2138 57.6351 18.1887 56.5261 19.789 55.7811Z" fill="#FE9F87"/>
<path d="M-31.8825 66.5853C-19.388 66.1952 -9.64133 59.967 -0.609137 52.1886C4.98606 47.3701 10.1329 42.0853 15.1988 36.7244C20.537 31.0752 26.2712 25.89 32.4387 21.1441C40.3242 15.076 40.5981 8.16489 33.4058 1.22325C26.5774 -5.36715 18.1025 -9.19962 9.48333 -12.6878C-3.6376 -17.998 -17.0999 -22.1374 -31.5631 -23.7267C-31.8825 -24.0803 -31.8825 -24.4196 -31.8825 -25.0133C-24.3537 -25.72 -17.2797 -23.3873 -10.2019 -21.4416C4.43575 -17.4175 18.6831 -12.3807 31.1341 -3.31562C31.7508 -2.86667 32.3605 -2.40416 32.9401 -1.90899C43.4708 7.08725 43.1315 15.683 31.9914 23.966C22.5431 30.991 15.0656 40.0959 6.61492 48.1746C-0.209446 54.6986 -7.29241 60.8499 -16.027 64.7951C-20.8694 66.9822 -25.8668 68.191 -31.5363 67.9064C-31.8825 67.5182 -31.8825 67.179 -31.8825 66.5853Z" fill="#FEA088"/>
<path d="M231.75 172.432C225.364 158.196 219.226 143.972 210.337 131.172C208.262 128.184 205.447 126.016 201.784 125.185C198.491 124.438 195.36 124.743 192.947 127.306C176.774 144.48 156.614 156.111 136.631 168.006C134.81 169.091 132.772 170.001 131.505 172.169C130.16 172.432 128.851 172.432 127.215 172.432C134.089 166.536 142.264 162.127 150.249 157.481C164.708 149.071 178.019 139.253 189.915 127.462C196.516 120.919 203.685 121.274 210.201 128.031C214.036 132.009 216.683 136.828 219.225 141.641C224.441 151.52 229.184 161.638 233.694 172.161C233.181 172.432 232.608 172.432 231.75 172.432Z" fill="#FEA086"/>
<path d="M427.422 165.324C427.663 165.81 427.654 166.169 427.638 166.797C402.306 161.906 378.801 152.267 356.918 138.54C322.246 116.791 296.364 86.5322 273.753 53.0523C262.722 36.7191 252.738 19.6923 241.055 3.79362C236.9 -1.86058 232.374 -7.16216 226.826 -11.5375C220.632 -16.4232 213.91 -18.3687 206.144 -15.8771C201.054 -14.2441 195.816 -13.1756 190.525 -12.3726C177.897 -10.4562 167.238 -14.5037 157.995 -22.979C147.778 -32.3463 137.679 -41.8532 126.21 -50.1394C125.939 -50.8356 126.104 -51.2316 126.883 -51.472C135.102 -46.4423 141.95 -40.1793 148.858 -34.0021C153.972 -29.4288 158.899 -24.652 164.374 -20.4855C171.54 -15.0323 179.601 -13.1547 188.435 -14.1333C193.628 -14.7086 198.816 -15.5297 203.716 -17.3047C214.505 -21.2122 223.339 -17.9966 231.246 -10.4899C238.964 -3.16184 244.979 5.5006 250.797 14.3069C265.017 35.8289 278.431 57.8975 294.437 78.2007C316.984 106.8 343.425 130.763 376.251 147.172C392.484 155.286 409.534 161.065 427.422 165.324Z" fill="#FE9F88"/>
<path d="M25.3988 50.4515C25.3839 50.5465 25.1885 50.7381 24.8044 51.0123C24.8165 50.9127 25.0174 50.7305 25.3988 50.4515Z" fill="#F05C42"/>
</g>
</svg>
