<svg width="543" height="173" viewBox="0 0 543 173" fill="none" xmlns="http://www.w3.org/2000/svg">
<path d="M237.342 123.803C237.342 122.235 237.102 121.093 236.622 120.379C236.142 119.664 235.492 119.307 234.67 119.307C233.849 119.307 233.092 119.632 232.398 120.283C231.705 120.933 231.177 121.749 230.814 122.731C230.452 123.701 230.27 124.699 230.27 125.723C230.27 127.099 230.521 128.229 231.022 129.115C231.534 130 232.297 130.443 233.31 130.443C234.132 130.443 234.857 130.107 235.486 129.435C236.116 128.763 236.58 127.931 236.878 126.939C237.188 125.947 237.342 124.901 237.342 123.803ZM237.118 129.659C236.66 130.181 236.084 130.603 235.39 130.923C234.708 131.243 233.956 131.403 233.134 131.403C232.324 131.403 231.604 131.211 230.974 130.827C230.356 130.443 229.865 129.931 229.502 129.291C228.766 127.989 228.398 126.501 228.398 124.827C228.398 123.152 228.809 121.664 229.63 120.363C230.452 119.051 231.518 118.187 232.83 117.771C233.012 117.813 233.113 117.899 233.134 118.027C232.388 118.485 231.774 119.024 231.294 119.643C230.825 120.261 230.5 121.099 230.318 122.155C230.766 120.907 231.465 119.925 232.414 119.211C233.364 118.496 234.356 118.139 235.39 118.139C236.436 118.139 237.321 118.587 238.046 119.483C238.782 120.368 239.15 121.653 239.15 123.339C239.15 124.981 238.857 126.469 238.27 127.803C237.961 128.507 237.577 129.125 237.118 129.659Z" fill="white"/>
<path d="M254.892 124.939C254.615 125.44 254.38 126.08 254.188 126.859C253.996 127.637 253.9 128.373 253.9 129.067C253.9 129.76 253.932 130.405 253.996 131.003C253.719 131.024 253.553 131.035 253.5 131.035C252.572 131.035 252.108 130.581 252.108 129.675C252.108 129.344 252.22 128.523 252.444 127.211C252.679 125.899 252.796 124.917 252.796 124.267C252.796 123.605 252.551 123.275 252.06 123.275C251.452 123.275 250.833 123.861 250.204 125.035C249.575 126.208 249.26 127.632 249.26 129.307C249.26 129.84 249.292 130.405 249.356 131.003C249.079 131.024 248.913 131.035 248.86 131.035C247.932 131.035 247.468 130.581 247.468 129.675C247.468 129.557 247.575 128.763 247.788 127.291C248.012 125.819 248.124 124.656 248.124 123.803C248.124 122.939 248.033 122.149 247.852 121.435C248.492 121.68 248.935 122.032 249.18 122.491C249.436 122.949 249.564 123.515 249.564 124.187C249.564 124.528 249.527 124.96 249.452 125.483C249.815 124.416 250.316 123.531 250.956 122.827C251.596 122.123 252.183 121.771 252.716 121.771C253.911 121.771 254.508 122.693 254.508 124.539C254.903 123.685 255.356 123.013 255.868 122.523C256.391 122.021 256.876 121.771 257.324 121.771C257.975 121.771 258.433 121.968 258.7 122.363C258.967 122.747 259.1 123.275 259.1 123.947C259.1 124.608 258.993 125.541 258.78 126.747C258.577 127.952 258.476 128.832 258.476 129.387C258.476 129.931 258.545 130.331 258.684 130.587C258.823 130.832 259.057 131.045 259.388 131.227C259.249 131.237 259.052 131.243 258.796 131.243C258.113 131.243 257.607 131.104 257.276 130.827C256.956 130.539 256.796 130.053 256.796 129.371C256.796 128.976 256.903 128.181 257.116 126.987C257.329 125.781 257.436 124.896 257.436 124.331C257.436 123.627 257.191 123.275 256.7 123.275C256.423 123.275 256.124 123.424 255.804 123.723C255.484 124.021 255.18 124.427 254.892 124.939Z" fill="white"/>
<path d="M266.068 122.603C265.428 122.603 264.884 122.971 264.436 123.707C263.999 124.443 263.706 125.307 263.556 126.299H264.004C264.57 126.299 265.06 126.219 265.476 126.059C265.892 125.899 266.212 125.691 266.436 125.435C266.863 124.944 267.076 124.389 267.076 123.771C267.076 123.419 266.991 123.136 266.82 122.923C266.66 122.709 266.41 122.603 266.068 122.603ZM268.324 129.083C267.834 129.883 267.295 130.443 266.708 130.763C266.122 131.083 265.439 131.243 264.66 131.243C263.892 131.243 263.22 130.901 262.644 130.219C262.068 129.536 261.78 128.576 261.78 127.339C261.78 125.931 262.159 124.672 262.916 123.563C263.29 123.029 263.775 122.597 264.372 122.267C264.98 121.936 265.647 121.771 266.372 121.771C267.972 121.771 268.772 122.544 268.772 124.091C268.772 125.019 268.41 125.749 267.684 126.283C266.97 126.805 266.138 127.067 265.188 127.067C264.559 127.067 263.994 127.008 263.492 126.891C263.482 126.997 263.476 127.163 263.476 127.387C263.476 129.275 264.036 130.219 265.156 130.219C266.212 130.219 267.071 129.696 267.732 128.651C268.127 128.704 268.324 128.848 268.324 129.083Z" fill="white"/>
<path d="M271.044 129.835C271.034 129.664 271.028 129.392 271.028 129.019C271.028 128.635 271.204 127.013 271.556 124.155C271.919 121.296 272.1 119.333 272.1 118.267C272.1 117.2 272.036 116.507 271.908 116.187C272.506 116.411 272.927 116.741 273.172 117.179C273.418 117.616 273.54 118.144 273.54 118.763C273.54 119.381 273.386 120.981 273.076 123.563C272.767 126.144 272.612 128.224 272.612 129.803C272.612 130.144 272.634 130.624 272.676 131.243C272.09 131.2 271.674 131.061 271.428 130.827C271.226 130.635 271.098 130.304 271.044 129.835Z" fill="white"/>
<path d="M278.001 126.059C278.353 124.853 278.892 123.84 279.617 123.019C280.353 122.187 281.041 121.771 281.681 121.771C282.321 121.771 282.775 121.968 283.041 122.363C283.308 122.747 283.441 123.275 283.441 123.947C283.441 124.608 283.335 125.541 283.121 126.747C282.919 127.952 282.817 128.832 282.817 129.387C282.817 129.931 282.887 130.331 283.025 130.587C283.164 130.832 283.399 131.045 283.729 131.227C283.591 131.237 283.393 131.243 283.137 131.243C282.455 131.243 281.948 131.104 281.617 130.827C281.297 130.539 281.137 130.053 281.137 129.371C281.137 128.976 281.244 128.181 281.457 126.987C281.671 125.781 281.777 124.896 281.777 124.331C281.777 123.627 281.532 123.275 281.041 123.275C280.753 123.275 280.433 123.429 280.081 123.739C279.729 124.037 279.388 124.448 279.057 124.971C278.737 125.483 278.465 126.139 278.241 126.939C278.028 127.728 277.921 128.512 277.921 129.291C277.921 130.059 277.953 130.629 278.017 131.003C277.761 131.024 277.618 131.035 277.585 131.035C277.084 131.035 276.711 130.928 276.465 130.715C276.231 130.501 276.113 130.171 276.113 129.723C276.113 129.264 276.209 128.389 276.401 127.099C276.967 123.131 277.249 120.117 277.249 118.059C277.249 117.131 277.185 116.507 277.057 116.187C277.676 116.411 278.108 116.741 278.353 117.179C278.609 117.616 278.737 118.219 278.737 118.987C278.737 119.52 278.631 120.64 278.417 122.347C278.215 124.053 278.076 125.291 278.001 126.059Z" fill="white"/>
<path d="M292.355 125.755C292.355 124.709 292.222 123.963 291.955 123.515C291.699 123.056 291.326 122.827 290.835 122.827C290.355 122.827 289.87 123.067 289.379 123.547C288.888 124.016 288.499 124.603 288.211 125.307C287.934 126 287.795 126.725 287.795 127.483C287.795 128.229 287.939 128.88 288.227 129.435C288.515 129.979 288.952 130.251 289.539 130.251C290.371 130.251 291.048 129.76 291.571 128.779C292.094 127.797 292.355 126.789 292.355 125.755ZM287.715 125.131C288.12 123.979 288.664 123.141 289.347 122.619C290.04 122.085 290.739 121.819 291.443 121.819C292.158 121.819 292.75 122.133 293.219 122.763C293.688 123.381 293.923 124.224 293.923 125.291C293.923 126.464 293.699 127.552 293.251 128.555C292.75 129.664 292.024 130.437 291.075 130.875C290.563 131.12 289.998 131.243 289.379 131.243C288.515 131.243 287.758 130.885 287.107 130.171C286.456 129.445 286.131 128.416 286.131 127.083C286.131 125.739 286.419 124.576 286.995 123.595C287.571 122.613 288.355 121.931 289.347 121.547C289.56 121.547 289.667 121.653 289.667 121.867C288.611 122.56 287.96 123.648 287.715 125.131Z" fill="white"/>
<path d="M298.598 125.803C298.982 124.416 299.441 123.397 299.974 122.747C300.518 122.085 301.019 121.755 301.478 121.755C301.947 121.755 302.299 121.931 302.534 122.283C302.769 122.624 302.886 123.061 302.886 123.595C302.886 124.128 302.747 124.592 302.47 124.987C302.193 125.371 301.787 125.563 301.254 125.563C301.083 125.563 300.95 125.552 300.854 125.531C301.217 125.008 301.398 124.475 301.398 123.931C301.398 123.547 301.243 123.355 300.934 123.355C300.689 123.355 300.427 123.499 300.15 123.787C299.873 124.075 299.606 124.475 299.35 124.987C299.094 125.499 298.881 126.165 298.71 126.987C298.539 127.808 298.454 128.693 298.454 129.643C298.454 129.749 298.481 130.203 298.534 131.003C298.257 131.024 298.097 131.035 298.054 131.035C297.115 131.035 296.646 130.576 296.646 129.659C296.646 129.445 296.758 128.624 296.982 127.195C297.206 125.765 297.318 124.629 297.318 123.787C297.318 122.933 297.227 122.149 297.046 121.435C297.675 121.68 298.113 122.032 298.358 122.491C298.614 122.939 298.742 123.467 298.742 124.075C298.742 124.672 298.694 125.248 298.598 125.803Z" fill="white"/>
<path d="M311.157 127.771C311.157 128.379 311.275 128.875 311.509 129.259C311.744 129.643 312.107 129.835 312.597 129.835C313.099 129.835 313.552 129.616 313.957 129.179C314.373 128.731 314.704 128.133 314.949 127.387C315.205 126.629 315.424 125.829 315.605 124.987C315.798 124.133 315.936 123.227 316.021 122.267C316.182 120.485 316.261 119.072 316.261 118.027C316.261 116.981 316.219 116.203 316.133 115.691C317.232 116.043 317.781 117.147 317.781 119.003C317.781 119.76 317.6 121.285 317.237 123.579C316.885 125.872 316.709 127.547 316.709 128.603C316.709 129.659 316.757 130.555 316.853 131.291C316.245 131.088 315.829 130.725 315.605 130.203C315.382 129.68 315.269 129.013 315.269 128.203C314.939 129.12 314.448 129.845 313.797 130.379C313.147 130.912 312.469 131.179 311.765 131.179C311.072 131.179 310.507 130.912 310.069 130.379C309.643 129.835 309.429 129.04 309.429 127.995C309.429 126.256 309.883 124.827 310.789 123.707C311.707 122.587 312.843 122.027 314.197 122.027C314.581 122.027 314.992 122.085 315.429 122.203C314.704 122.32 314.053 122.587 313.477 123.003C312.901 123.408 312.453 123.888 312.133 124.443C311.483 125.573 311.157 126.683 311.157 127.771Z" fill="white"/>
<path d="M326.057 125.755C326.057 124.709 325.924 123.963 325.657 123.515C325.401 123.056 325.028 122.827 324.537 122.827C324.057 122.827 323.572 123.067 323.081 123.547C322.59 124.016 322.201 124.603 321.913 125.307C321.636 126 321.497 126.725 321.497 127.483C321.497 128.229 321.641 128.88 321.929 129.435C322.217 129.979 322.654 130.251 323.241 130.251C324.073 130.251 324.75 129.76 325.273 128.779C325.796 127.797 326.057 126.789 326.057 125.755ZM321.417 125.131C321.822 123.979 322.366 123.141 323.049 122.619C323.742 122.085 324.441 121.819 325.145 121.819C325.86 121.819 326.452 122.133 326.921 122.763C327.39 123.381 327.625 124.224 327.625 125.291C327.625 126.464 327.401 127.552 326.953 128.555C326.452 129.664 325.726 130.437 324.777 130.875C324.265 131.12 323.7 131.243 323.081 131.243C322.217 131.243 321.46 130.885 320.809 130.171C320.158 129.445 319.833 128.416 319.833 127.083C319.833 125.739 320.121 124.576 320.697 123.595C321.273 122.613 322.057 121.931 323.049 121.547C323.262 121.547 323.369 121.653 323.369 121.867C322.313 122.56 321.662 123.648 321.417 125.131Z" fill="white"/>
<path d="M338.941 123.067C339.261 123.355 339.613 123.643 339.997 123.931C340.392 124.208 340.781 124.491 341.165 124.779C341.56 125.067 341.917 125.36 342.237 125.659C342.962 126.331 343.325 127.072 343.325 127.883C343.325 128.885 342.941 129.723 342.173 130.395C341.416 131.067 340.413 131.403 339.165 131.403C337.917 131.403 336.957 131.12 336.285 130.555C335.613 129.989 335.277 129.317 335.277 128.539C335.277 127.963 335.448 127.499 335.789 127.147C336.13 126.784 336.573 126.603 337.117 126.603C337.266 126.603 337.41 126.624 337.549 126.667C337.218 127.168 337.053 127.707 337.053 128.283C337.053 128.848 337.25 129.333 337.645 129.739C338.04 130.144 338.632 130.347 339.421 130.347C339.986 130.347 340.488 130.176 340.925 129.835C341.373 129.483 341.597 128.997 341.597 128.379C341.597 127.973 341.464 127.579 341.197 127.195C340.93 126.8 340.6 126.453 340.205 126.155C339.81 125.856 339.378 125.525 338.909 125.163C338.44 124.789 338.008 124.432 337.613 124.091C337.218 123.749 336.888 123.333 336.621 122.843C336.354 122.352 336.221 121.84 336.221 121.307C336.221 120.293 336.562 119.493 337.245 118.907C337.938 118.309 338.936 118.011 340.237 118.011C341.293 118.011 342.12 118.293 342.717 118.859C343.325 119.413 343.629 119.995 343.629 120.603C343.629 121.2 343.464 121.691 343.133 122.075C342.813 122.459 342.37 122.651 341.805 122.651C341.613 122.651 341.426 122.629 341.245 122.587C341.768 122.032 342.029 121.445 342.029 120.827C342.029 120.208 341.837 119.744 341.453 119.435C341.069 119.115 340.578 118.955 339.981 118.955C339.394 118.955 338.893 119.125 338.477 119.467C338.061 119.808 337.853 120.325 337.853 121.019C337.853 121.712 338.216 122.395 338.941 123.067Z" fill="white"/>
<path d="M352.012 121.739C352.929 121.739 353.388 122.213 353.388 123.163C353.388 123.333 353.286 124.085 353.084 125.419C352.881 126.741 352.78 127.877 352.78 128.827C352.78 129.776 352.881 130.613 353.084 131.339C352.433 131.083 351.98 130.72 351.724 130.251C351.478 129.781 351.356 129.2 351.356 128.507C351.356 128.24 351.414 127.637 351.532 126.699C351.212 127.915 350.716 128.939 350.044 129.771C349.372 130.592 348.748 131.003 348.172 131.003C346.956 131.003 346.348 130.117 346.348 128.347C346.348 127.76 346.433 126.944 346.604 125.899C346.785 124.843 346.876 124.043 346.876 123.499C346.876 122.955 346.801 122.405 346.652 121.851C347.334 121.851 347.846 121.968 348.188 122.203C348.529 122.437 348.7 122.891 348.7 123.563C348.7 123.925 348.588 124.672 348.364 125.803C348.14 126.933 348.028 127.771 348.028 128.315C348.028 129.104 348.273 129.499 348.764 129.499C349.169 129.499 349.59 129.184 350.028 128.555C350.476 127.915 350.849 127.088 351.148 126.075C351.446 125.061 351.596 124.059 351.596 123.067C351.596 122.619 351.564 122.187 351.5 121.771C351.734 121.749 351.905 121.739 352.012 121.739Z" fill="white"/>
<path d="M359.523 122.555C359.171 122.555 358.851 122.667 358.563 122.891C358.285 123.115 358.147 123.424 358.147 123.819C358.147 124.203 358.275 124.565 358.531 124.907C358.797 125.248 359.117 125.552 359.491 125.819C359.864 126.085 360.243 126.357 360.627 126.635C361.523 127.296 361.971 128.005 361.971 128.763C361.971 129.52 361.667 130.139 361.059 130.619C360.451 131.088 359.672 131.323 358.723 131.323C357.784 131.323 357.053 131.136 356.531 130.763C356.019 130.389 355.763 129.952 355.763 129.451C355.763 128.939 355.891 128.539 356.147 128.251C356.403 127.963 356.712 127.819 357.075 127.819C357.267 127.819 357.448 127.861 357.619 127.947C357.384 128.245 357.267 128.597 357.267 129.003C357.267 129.408 357.389 129.749 357.635 130.027C357.891 130.304 358.237 130.443 358.675 130.443C359.123 130.443 359.501 130.331 359.811 130.107C360.12 129.872 360.275 129.579 360.275 129.227C360.275 128.875 360.184 128.565 360.003 128.299C359.821 128.032 359.592 127.803 359.315 127.611C359.048 127.419 358.755 127.205 358.435 126.971C358.115 126.736 357.816 126.507 357.539 126.283C357.272 126.048 357.048 125.76 356.867 125.419C356.685 125.067 356.595 124.683 356.595 124.267C356.595 123.509 356.883 122.891 357.459 122.411C358.035 121.92 358.76 121.675 359.635 121.675C360.509 121.675 361.149 121.856 361.555 122.219C361.96 122.581 362.163 122.992 362.163 123.451C362.163 123.899 362.051 124.272 361.827 124.571C361.603 124.859 361.315 125.003 360.963 125.003C360.792 125.003 360.595 124.955 360.371 124.859C360.648 124.517 360.787 124.149 360.787 123.755C360.787 123.36 360.664 123.061 360.419 122.859C360.184 122.656 359.885 122.555 359.523 122.555Z" fill="white"/>
<path d="M366.514 126.059C366.866 124.853 367.405 123.84 368.13 123.019C368.866 122.187 369.554 121.771 370.194 121.771C370.834 121.771 371.287 121.968 371.554 122.363C371.821 122.747 371.954 123.275 371.954 123.947C371.954 124.608 371.847 125.541 371.634 126.747C371.431 127.952 371.33 128.832 371.33 129.387C371.33 129.931 371.399 130.331 371.538 130.587C371.677 130.832 371.911 131.045 372.242 131.227C372.103 131.237 371.906 131.243 371.65 131.243C370.967 131.243 370.461 131.104 370.13 130.827C369.81 130.539 369.65 130.053 369.65 129.371C369.65 128.976 369.757 128.181 369.97 126.987C370.183 125.781 370.29 124.896 370.29 124.331C370.29 123.627 370.045 123.275 369.554 123.275C369.266 123.275 368.946 123.429 368.594 123.739C368.242 124.037 367.901 124.448 367.57 124.971C367.25 125.483 366.978 126.139 366.754 126.939C366.541 127.728 366.434 128.512 366.434 129.291C366.434 130.059 366.466 130.629 366.53 131.003C366.274 131.024 366.13 131.035 366.098 131.035C365.597 131.035 365.223 130.928 364.978 130.715C364.743 130.501 364.626 130.171 364.626 129.723C364.626 129.264 364.722 128.389 364.914 127.099C365.479 123.131 365.762 120.117 365.762 118.059C365.762 117.131 365.698 116.507 365.57 116.187C366.189 116.411 366.621 116.741 366.866 117.179C367.122 117.616 367.25 118.219 367.25 118.987C367.25 119.52 367.143 120.64 366.93 122.347C366.727 124.053 366.589 125.291 366.514 126.059Z" fill="white"/>
<path d="M376.867 131.243C376.259 131.029 375.833 130.704 375.587 130.267C375.353 129.819 375.235 129.28 375.235 128.651C375.235 128.021 375.321 127.12 375.492 125.947C375.662 124.773 375.747 123.861 375.747 123.211C375.747 122.56 375.715 122.059 375.651 121.707C375.843 121.685 375.998 121.675 376.115 121.675C376.595 121.675 376.942 121.781 377.155 121.995C377.369 122.208 377.475 122.56 377.475 123.051C377.475 123.211 377.342 124.053 377.076 125.579C376.82 127.093 376.686 128.347 376.675 129.339C376.675 130.32 376.739 130.955 376.867 131.243ZM377.107 120.091C376.212 120.091 375.763 119.787 375.763 119.179C375.763 118.965 375.843 118.667 376.003 118.283C376.238 118.24 376.441 118.219 376.611 118.219C377.507 118.219 377.955 118.523 377.955 119.131C377.955 119.344 377.876 119.643 377.715 120.027C377.481 120.069 377.278 120.091 377.107 120.091Z" fill="white"/>
<path d="M380.984 128.667C381.667 128.667 382.008 128.992 382.008 129.643C382.008 130.293 381.784 130.917 381.336 131.515C380.888 132.112 380.237 132.645 379.384 133.115L379 132.635C379.789 131.877 380.184 131.013 380.184 130.043C380.184 129.691 380.104 129.291 379.944 128.843C380.296 128.725 380.643 128.667 380.984 128.667Z" fill="white"/>
<path d="M393.657 122.603C393.017 122.603 392.473 122.971 392.025 123.707C391.588 124.443 391.294 125.307 391.145 126.299H391.593C392.158 126.299 392.649 126.219 393.065 126.059C393.481 125.899 393.801 125.691 394.025 125.435C394.452 124.944 394.665 124.389 394.665 123.771C394.665 123.419 394.58 123.136 394.409 122.923C394.249 122.709 393.998 122.603 393.657 122.603ZM395.913 129.083C395.422 129.883 394.884 130.443 394.297 130.763C393.71 131.083 393.028 131.243 392.249 131.243C391.481 131.243 390.809 130.901 390.233 130.219C389.657 129.536 389.369 128.576 389.369 127.339C389.369 125.931 389.748 124.672 390.505 123.563C390.878 123.029 391.364 122.597 391.961 122.267C392.569 121.936 393.236 121.771 393.961 121.771C395.561 121.771 396.361 122.544 396.361 124.091C396.361 125.019 395.998 125.749 395.273 126.283C394.558 126.805 393.726 127.067 392.777 127.067C392.148 127.067 391.582 127.008 391.081 126.891C391.07 126.997 391.065 127.163 391.065 127.387C391.065 129.275 391.625 130.219 392.745 130.219C393.801 130.219 394.66 129.696 395.321 128.651C395.716 128.704 395.913 128.848 395.913 129.083Z" fill="white"/>
<path d="M406.105 124.939C405.828 125.44 405.593 126.08 405.401 126.859C405.209 127.637 405.113 128.373 405.113 129.067C405.113 129.76 405.145 130.405 405.209 131.003C404.932 131.024 404.766 131.035 404.713 131.035C403.785 131.035 403.321 130.581 403.321 129.675C403.321 129.344 403.433 128.523 403.657 127.211C403.892 125.899 404.009 124.917 404.009 124.267C404.009 123.605 403.764 123.275 403.273 123.275C402.665 123.275 402.046 123.861 401.417 125.035C400.788 126.208 400.473 127.632 400.473 129.307C400.473 129.84 400.505 130.405 400.569 131.003C400.292 131.024 400.126 131.035 400.073 131.035C399.145 131.035 398.681 130.581 398.681 129.675C398.681 129.557 398.788 128.763 399.001 127.291C399.225 125.819 399.337 124.656 399.337 123.803C399.337 122.939 399.246 122.149 399.065 121.435C399.705 121.68 400.148 122.032 400.393 122.491C400.649 122.949 400.777 123.515 400.777 124.187C400.777 124.528 400.74 124.96 400.665 125.483C401.028 124.416 401.529 123.531 402.169 122.827C402.809 122.123 403.396 121.771 403.929 121.771C405.124 121.771 405.721 122.693 405.721 124.539C406.116 123.685 406.569 123.013 407.081 122.523C407.604 122.021 408.089 121.771 408.537 121.771C409.188 121.771 409.646 121.968 409.913 122.363C410.18 122.747 410.313 123.275 410.313 123.947C410.313 124.608 410.206 125.541 409.993 126.747C409.79 127.952 409.689 128.832 409.689 129.387C409.689 129.931 409.758 130.331 409.897 130.587C410.036 130.832 410.27 131.045 410.601 131.227C410.462 131.237 410.265 131.243 410.009 131.243C409.326 131.243 408.82 131.104 408.489 130.827C408.169 130.539 408.009 130.053 408.009 129.371C408.009 128.976 408.116 128.181 408.329 126.987C408.542 125.781 408.649 124.896 408.649 124.331C408.649 123.627 408.404 123.275 407.913 123.275C407.636 123.275 407.337 123.424 407.017 123.723C406.697 124.021 406.393 124.427 406.105 124.939Z" fill="white"/>
<path d="M423.939 125.563L422.515 125.547C421.992 125.547 421.592 125.557 421.315 125.579C421.144 127.115 421.059 128.352 421.059 129.291C421.059 130.219 421.091 130.869 421.155 131.243C420.877 131.264 420.728 131.275 420.707 131.275C420.216 131.275 419.848 131.168 419.603 130.955C419.368 130.741 419.251 130.379 419.251 129.867C419.251 129.355 419.405 128.005 419.715 125.819C419.416 125.893 419.16 125.973 418.947 126.059C418.925 125.867 418.915 125.712 418.915 125.595C418.915 124.944 419.245 124.539 419.907 124.379C420.152 122.587 420.285 121.163 420.307 120.107C419.891 120.107 419.608 120.053 419.459 119.947C419.309 119.829 419.235 119.611 419.235 119.291C419.235 118.96 419.277 118.677 419.363 118.443C420.461 118.592 421.656 118.667 422.947 118.667C424.237 118.667 425.469 118.549 426.643 118.315C426.504 119.179 425.901 119.696 424.835 119.867C424.205 119.973 423.251 120.048 421.971 120.091C421.971 120.592 421.805 122 421.475 124.315C422.136 124.336 422.616 124.347 422.915 124.347C423.853 124.347 424.52 124.192 424.915 123.883C424.936 124.053 424.947 124.192 424.947 124.299C424.947 125.141 424.611 125.563 423.939 125.563Z" fill="white"/>
<path d="M431.031 122.603C430.391 122.603 429.847 122.971 429.399 123.707C428.962 124.443 428.668 125.307 428.519 126.299H428.967C429.532 126.299 430.023 126.219 430.439 126.059C430.855 125.899 431.175 125.691 431.399 125.435C431.826 124.944 432.039 124.389 432.039 123.771C432.039 123.419 431.954 123.136 431.783 122.923C431.623 122.709 431.372 122.603 431.031 122.603ZM433.287 129.083C432.796 129.883 432.258 130.443 431.671 130.763C431.084 131.083 430.402 131.243 429.623 131.243C428.855 131.243 428.183 130.901 427.607 130.219C427.031 129.536 426.743 128.576 426.743 127.339C426.743 125.931 427.122 124.672 427.879 123.563C428.252 123.029 428.738 122.597 429.335 122.267C429.943 121.936 430.61 121.771 431.335 121.771C432.935 121.771 433.735 122.544 433.735 124.091C433.735 125.019 433.372 125.749 432.647 126.283C431.932 126.805 431.1 127.067 430.151 127.067C429.522 127.067 428.956 127.008 428.455 126.891C428.444 126.997 428.439 127.163 428.439 127.387C428.439 129.275 428.999 130.219 430.119 130.219C431.175 130.219 432.034 129.696 432.695 128.651C433.09 128.704 433.287 128.848 433.287 129.083Z" fill="white"/>
<path d="M439.223 122.555C438.871 122.555 438.551 122.667 438.263 122.891C437.985 123.115 437.847 123.424 437.847 123.819C437.847 124.203 437.975 124.565 438.231 124.907C438.497 125.248 438.817 125.552 439.191 125.819C439.564 126.085 439.943 126.357 440.327 126.635C441.223 127.296 441.671 128.005 441.671 128.763C441.671 129.52 441.367 130.139 440.759 130.619C440.151 131.088 439.372 131.323 438.423 131.323C437.484 131.323 436.753 131.136 436.231 130.763C435.719 130.389 435.463 129.952 435.463 129.451C435.463 128.939 435.591 128.539 435.847 128.251C436.103 127.963 436.412 127.819 436.775 127.819C436.967 127.819 437.148 127.861 437.319 127.947C437.084 128.245 436.967 128.597 436.967 129.003C436.967 129.408 437.089 129.749 437.335 130.027C437.591 130.304 437.937 130.443 438.375 130.443C438.823 130.443 439.201 130.331 439.511 130.107C439.82 129.872 439.975 129.579 439.975 129.227C439.975 128.875 439.884 128.565 439.703 128.299C439.521 128.032 439.292 127.803 439.015 127.611C438.748 127.419 438.455 127.205 438.135 126.971C437.815 126.736 437.516 126.507 437.239 126.283C436.972 126.048 436.748 125.76 436.567 125.419C436.385 125.067 436.295 124.683 436.295 124.267C436.295 123.509 436.583 122.891 437.159 122.411C437.735 121.92 438.46 121.675 439.335 121.675C440.209 121.675 440.849 121.856 441.255 122.219C441.66 122.581 441.863 122.992 441.863 123.451C441.863 123.899 441.751 124.272 441.527 124.571C441.303 124.859 441.015 125.003 440.663 125.003C440.492 125.003 440.295 124.955 440.071 124.859C440.348 124.517 440.487 124.149 440.487 123.755C440.487 123.36 440.364 123.061 440.119 122.859C439.884 122.656 439.585 122.555 439.223 122.555Z" fill="white"/>
<path d="M449.382 122.235C449.382 122.683 449.297 122.992 449.126 123.163C448.955 123.333 448.705 123.419 448.374 123.419H447.222C447.179 123.696 447.067 124.357 446.886 125.403C446.523 127.387 446.342 128.885 446.342 129.899C446.342 130.912 446.417 131.584 446.566 131.915C445.958 131.691 445.526 131.355 445.27 130.907C445.014 130.448 444.886 129.893 444.886 129.243C444.886 128.592 444.923 127.979 444.998 127.403C445.083 126.816 445.201 126.133 445.35 125.355C445.499 124.576 445.606 123.952 445.67 123.483C445.062 123.568 444.465 123.739 443.878 123.995C443.857 123.824 443.846 123.669 443.846 123.531C443.846 123.019 444.017 122.677 444.358 122.507C444.699 122.325 445.19 122.235 445.83 122.235C445.905 121.445 445.942 120.859 445.942 120.475C445.942 120.08 445.937 119.765 445.926 119.531C445.926 119.296 445.926 119.12 445.926 119.003C446.417 119.077 446.795 119.296 447.062 119.659C447.329 120.011 447.462 120.496 447.462 121.115C447.462 121.435 447.435 121.824 447.382 122.283C448.31 122.283 448.966 122.128 449.35 121.819C449.371 121.968 449.382 122.107 449.382 122.235Z" fill="white"/>
<path d="M452.802 131.243C452.194 131.029 451.767 130.704 451.522 130.267C451.287 129.819 451.17 129.28 451.17 128.651C451.17 128.021 451.255 127.12 451.426 125.947C451.597 124.773 451.682 123.861 451.682 123.211C451.682 122.56 451.65 122.059 451.586 121.707C451.778 121.685 451.933 121.675 452.05 121.675C452.53 121.675 452.877 121.781 453.09 121.995C453.303 122.208 453.41 122.56 453.41 123.051C453.41 123.211 453.277 124.053 453.01 125.579C452.754 127.093 452.621 128.347 452.61 129.339C452.61 130.32 452.674 130.955 452.802 131.243ZM453.042 120.091C452.146 120.091 451.698 119.787 451.698 119.179C451.698 118.965 451.778 118.667 451.938 118.283C452.173 118.24 452.375 118.219 452.546 118.219C453.442 118.219 453.89 118.523 453.89 119.131C453.89 119.344 453.81 119.643 453.65 120.027C453.415 120.069 453.213 120.091 453.042 120.091Z" fill="white"/>
<path d="M459.094 131.003C458.839 131.152 458.551 131.227 458.23 131.227C457.921 131.227 457.75 131.147 457.718 130.987C457.548 130.304 457.35 129.285 457.126 127.931C456.902 126.565 456.673 125.376 456.438 124.363C456.214 123.339 455.943 122.565 455.622 122.043C456.007 121.765 456.385 121.627 456.758 121.627C457.238 121.627 457.58 121.904 457.783 122.459C457.985 123.003 458.177 124.155 458.359 125.915C458.54 127.664 458.7 128.8 458.839 129.323C460.908 125.333 461.943 122.699 461.943 121.419C462.604 121.867 462.934 122.331 462.934 122.811C462.934 123.28 462.71 123.936 462.262 124.779C461.825 125.611 461.27 126.624 460.598 127.819C459.937 129.003 459.436 130.064 459.094 131.003Z" fill="white"/>
<path d="M467.105 124.747C466.795 125.28 466.555 125.829 466.385 126.395C466.225 126.949 466.145 127.483 466.145 127.995C466.145 128.507 466.257 128.944 466.48 129.307C466.715 129.659 467.046 129.835 467.473 129.835C468.07 129.835 468.63 129.509 469.153 128.859C469.675 128.197 470.075 127.403 470.353 126.475C470.641 125.536 470.785 124.672 470.785 123.883C470.785 123.083 470.753 122.427 470.689 121.915C470.945 121.893 471.105 121.883 471.169 121.883C472.075 121.883 472.529 122.347 472.529 123.275C472.529 123.477 472.4 124.304 472.145 125.755C471.889 127.195 471.76 128.352 471.76 129.227C471.76 130.091 471.926 130.859 472.257 131.531C471.585 131.392 471.094 131.099 470.785 130.651C470.486 130.192 470.337 129.536 470.337 128.683C470.337 128.533 470.358 128.245 470.401 127.819C470.113 128.832 469.606 129.648 468.881 130.267C468.155 130.885 467.441 131.195 466.737 131.195C466.043 131.195 465.483 130.933 465.057 130.411C464.63 129.877 464.417 129.147 464.417 128.219C464.417 127.28 464.587 126.368 464.929 125.483C465.281 124.587 465.803 123.813 466.497 123.163C467.201 122.512 467.985 122.187 468.849 122.187C469.222 122.187 469.633 122.261 470.081 122.411C469.451 122.571 468.875 122.864 468.353 123.291C467.83 123.717 467.414 124.203 467.105 124.747Z" fill="white"/>
<path d="M475.357 129.835C475.346 129.664 475.341 129.392 475.341 129.019C475.341 128.635 475.517 127.013 475.869 124.155C476.231 121.296 476.413 119.333 476.413 118.267C476.413 117.2 476.349 116.507 476.221 116.187C476.818 116.411 477.239 116.741 477.485 117.179C477.73 117.616 477.853 118.144 477.853 118.763C477.853 119.381 477.698 120.981 477.389 123.563C477.079 126.144 476.925 128.224 476.925 129.803C476.925 130.144 476.946 130.624 476.989 131.243C476.402 131.2 475.986 131.061 475.741 130.827C475.538 130.635 475.41 130.304 475.357 129.835Z" fill="white"/>
<path d="M483.546 119.755C483.546 120.085 483.455 120.608 483.274 121.323C482.698 123.509 482.41 125.205 482.41 126.411C482.41 126.944 482.453 127.312 482.538 127.515C482.015 127.323 481.642 127.04 481.418 126.667C481.194 126.293 481.082 125.792 481.082 125.163C481.082 124.523 481.215 123.536 481.482 122.203C481.749 120.869 481.882 119.92 481.882 119.355C481.882 118.779 481.866 118.405 481.834 118.235C482.186 118.235 482.559 118.368 482.954 118.635C483.349 118.891 483.546 119.264 483.546 119.755ZM480.634 129.307C480.922 129.2 481.205 129.147 481.482 129.147C481.759 129.147 481.994 129.211 482.186 129.339C482.378 129.467 482.474 129.643 482.474 129.867C482.474 130.08 482.378 130.464 482.186 131.019C481.898 131.125 481.615 131.179 481.338 131.179C481.061 131.179 480.826 131.115 480.634 130.987C480.442 130.859 480.346 130.688 480.346 130.475C480.346 130.251 480.442 129.861 480.634 129.307Z" fill="white"/>
<path d="M192.825 105.786C191.409 105.786 189.875 105.196 188.223 104.016C186.65 102.836 185.863 101.46 185.863 99.8862C185.863 98.7062 186.099 97.5655 186.571 96.4642C187.043 95.2842 187.555 94.1828 188.105 93.1602V92.8062C188.735 91.8622 189.521 91.0755 190.465 90.4462C190.701 90.0529 190.937 89.5809 191.173 89.0302C191.488 88.4009 191.881 88.0469 192.353 87.9682L192.943 88.3222C192.078 89.4235 191.252 90.6822 190.465 92.0982L189.049 99.4142C189.521 100.122 190.269 100.476 191.291 100.476C192.707 100.476 194.438 100.201 196.483 99.6502C198.529 99.1782 200.574 98.6275 202.619 97.9982C204.665 97.3689 206.395 96.8182 207.811 96.3462V96.2282C208.205 96.2282 208.598 96.1889 208.991 96.1102C209.463 95.9529 209.778 95.6382 209.935 95.1662L209.817 94.8122L210.761 94.9302C211.233 94.6942 211.705 94.4582 212.177 94.2222C212.649 93.9862 213.161 93.8288 213.711 93.7502C214.026 93.4355 214.852 92.7668 216.189 91.7442C217.527 90.6428 219.021 89.5022 220.673 88.3222C222.325 87.0635 223.82 85.9622 225.157 85.0182C226.495 84.0742 227.321 83.5235 227.635 83.3662L228.461 82.0682L229.405 81.5962V80.4162C229.563 79.2362 229.012 78.3315 227.753 77.7022C226.495 76.9942 224.843 76.4042 222.797 75.9322C220.752 75.4602 218.549 74.9882 216.189 74.5162C213.908 74.0442 211.705 73.4148 209.581 72.6282C207.536 71.7628 205.845 70.6615 204.507 69.3242C203.249 67.9868 202.619 66.2168 202.619 64.0142L202.029 64.3682L201.793 64.0142C201.793 62.3622 202.737 60.5922 204.625 58.7042C206.592 56.8162 209.07 54.9675 212.059 53.1582C215.049 51.2702 218.156 49.5395 221.381 47.9662C224.685 46.3142 227.714 44.9375 230.467 43.8362C233.299 42.6562 235.463 41.8302 236.957 41.3582C238.295 41.5155 239.514 41.8302 240.615 42.3022C241.795 42.6955 242.543 43.6788 242.857 45.2522C243.723 44.9375 244.155 44.2688 244.155 43.2462C244.155 42.6955 244.116 42.1842 244.037 41.7122C243.959 41.1615 243.801 40.6895 243.565 40.2962L244.037 40.0602C244.431 40.0602 245.139 40.2175 246.161 40.5322C247.263 40.7682 248.443 41.0828 249.701 41.4762C250.96 41.8695 252.061 42.2628 253.005 42.6562C254.028 43.0495 254.618 43.4035 254.775 43.7182L254.303 45.4882L252.179 46.3142L251.353 45.9602C250.567 46.2748 250.213 46.9435 250.291 47.9662C250.37 48.9888 250.134 49.5788 249.583 49.7362L248.521 49.2642V49.3822L249.347 51.0342L249.111 51.3882L249.465 51.9782L249.111 52.0962L248.285 51.7422C247.971 52.3715 247.735 53.2762 247.577 54.4562C247.42 55.5575 246.909 56.1475 246.043 56.2262C245.178 57.0128 244.234 58.0355 243.211 59.2942C242.189 60.4742 241.009 61.1428 239.671 61.3002V61.0642L240.025 58.7042L239.671 58.1142C239.907 56.7768 240.222 55.3608 240.615 53.8662C241.009 52.3715 241.441 51.0735 241.913 49.9722C241.284 49.0282 240.537 48.1628 239.671 47.3762C238.885 46.5895 237.901 46.1962 236.721 46.1962C235.305 46.1962 233.339 46.6288 230.821 47.4942C228.304 48.2808 225.551 49.3822 222.561 50.7982C219.651 52.1355 216.897 53.6695 214.301 55.4002C211.705 57.1308 209.621 58.9008 208.047 60.7102C206.474 62.5195 205.805 64.2502 206.041 65.9022C205.727 65.6662 205.53 65.3515 205.451 64.9582C205.373 64.5648 205.333 64.1715 205.333 63.7782C205.333 63.3848 205.333 62.9915 205.333 62.5982C205.412 62.2048 205.491 61.8508 205.569 61.5362C205.019 62.3228 204.743 63.2275 204.743 64.2502C204.743 66.1382 205.53 67.5935 207.103 68.6162C208.677 69.6388 210.722 70.4255 213.239 70.9762C215.757 71.5268 218.431 72.0382 221.263 72.5102C224.095 72.9035 226.77 73.3755 229.287 73.9262C231.805 74.4768 233.85 75.3028 235.423 76.4042C236.997 77.4268 237.783 78.8822 237.783 80.7702C237.783 81.7929 237.547 82.7369 237.075 83.6022C236.603 84.3889 236.171 85.2149 235.777 86.0802C234.912 86.3949 234.361 86.8275 234.125 87.3782C233.889 87.9288 233.535 88.5582 233.063 89.2662C232.434 89.4235 231.608 89.9742 230.585 90.9182C229.641 91.7835 228.933 92.1768 228.461 92.0982C228.147 92.2555 227.793 92.4915 227.399 92.8062C227.085 93.0422 226.849 93.3568 226.691 93.7502L226.337 93.5142C225.472 94.6942 224.017 95.8742 221.971 97.0542C219.926 98.2342 217.527 99.3355 214.773 100.358C212.099 101.381 209.345 102.286 206.513 103.072C203.76 103.938 201.164 104.606 198.725 105.078C196.287 105.55 194.32 105.786 192.825 105.786ZM238.373 63.4242L238.963 61.6542L239.553 62.1262L238.373 63.4242ZM231.293 78.1742L231.529 77.5842L231.175 77.1122L230.467 77.4662L231.293 78.1742ZM236.485 82.5402V82.3042L235.777 81.2422L235.659 81.8322V82.3042L236.485 82.5402ZM234.243 84.5462L235.069 84.0742L235.187 83.0122L235.069 81.9502C234.283 82.7369 233.85 83.5629 233.771 84.4282L234.243 84.5462ZM234.361 86.1982L235.541 84.9002V84.7822L233.653 85.3722L233.889 86.0802L234.361 86.1982ZM231.057 88.3222L232.355 88.2042L233.299 86.3162L231.883 87.6142L231.411 87.1422L231.057 88.2042V88.3222Z" fill="white"/>
<path d="M268.471 105.196L266.701 102.364C266.622 101.892 266.465 101.42 266.229 100.948C266.071 100.476 265.993 99.9649 265.993 99.4142C265.993 98.6275 266.032 97.9195 266.111 97.2902C266.189 96.5822 266.268 95.8349 266.347 95.0482L267.173 93.1602L267.055 92.9242C267.212 92.6095 267.33 92.2948 267.409 91.9802C267.566 91.5868 267.684 91.2328 267.763 90.9182L267.291 90.5642C266.74 90.5642 265.953 91.1148 264.931 92.2162C263.987 93.2388 262.885 94.2615 261.627 95.2842C260.447 96.3069 259.07 96.8182 257.497 96.8182C256.474 96.8182 255.53 96.5035 254.665 95.8742C253.799 95.2449 253.406 94.3008 253.485 93.0422L253.367 92.8062C254.232 91.2328 254.979 89.6202 255.609 87.9682C256.238 86.3162 256.907 84.7035 257.615 83.1302L256.907 81.8322L256.553 81.9502L255.963 81.7142L254.783 82.8942L253.131 83.2482L253.367 83.8382H253.131L251.951 84.1922L251.715 84.6642H251.007L250.889 85.3722C250.495 85.7655 250.063 86.1982 249.591 86.6702C249.119 87.1422 248.568 87.4175 247.939 87.4962L240.859 94.2222L240.741 93.8682C240.741 93.3175 240.937 92.8848 241.331 92.5702C241.724 92.1768 242.078 91.8228 242.393 91.5082L242.511 91.2722L242.865 91.0362L242.983 91.1542L243.337 90.3282H243.219C243.376 90.1708 243.533 89.9742 243.691 89.7382C243.927 89.4235 244.202 89.2662 244.517 89.2662H244.753C244.753 89.2662 244.753 89.1875 244.753 89.0302C245.225 88.3222 245.854 87.6929 246.641 87.1422H246.995L247.349 86.7882L247.231 86.5522L248.411 86.0802C248.332 85.2935 248.961 84.4282 250.299 83.4842C251.636 82.5402 253.091 81.7142 254.665 81.0062C256.238 80.2195 257.339 79.8262 257.969 79.8262C258.834 79.8262 259.857 80.0622 261.037 80.5342C262.217 80.9275 262.807 81.6749 262.807 82.7762C262.807 84.9789 262.413 86.7489 261.627 88.0862C260.84 89.4235 260.407 90.2888 260.329 90.6822L260.683 90.9182C261.627 90.9182 262.374 90.6428 262.925 90.0922C263.475 89.4628 264.026 88.8335 264.577 88.2042C265.206 87.5749 265.953 87.2209 266.819 87.1422C266.74 87.0635 266.779 87.0242 266.937 87.0242C267.094 86.9455 267.173 86.9849 267.173 87.1422C267.487 86.5915 268.195 85.7262 269.297 84.5462C270.398 83.2875 271.539 82.1075 272.719 81.0062C273.899 79.9049 274.725 79.3542 275.197 79.3542C276.062 79.3542 277.045 79.6688 278.147 80.2982C279.248 80.9275 279.799 81.7142 279.799 82.6582C279.799 83.0515 279.484 83.7989 278.855 84.9002C278.304 85.9229 277.635 87.0242 276.849 88.2042C276.062 89.3842 275.275 90.4462 274.489 91.3902C273.781 92.2555 273.23 92.7668 272.837 92.9242C272.129 94.1828 271.145 95.6382 269.887 97.2902C268.707 98.8635 268.117 100.437 268.117 102.01C268.117 102.561 268.195 103.072 268.353 103.544C268.51 104.016 268.589 104.488 268.589 104.96L268.471 105.196Z" fill="white"/>
<path d="M282.552 105.196C282.08 104.488 281.844 103.78 281.844 103.072C281.844 102.522 281.962 102.01 282.198 101.538C282.356 101.066 282.552 100.634 282.788 100.24H282.906L282.788 100.122C283.339 99.3355 284.204 98.3129 285.384 97.0542C286.643 95.7955 287.98 94.6549 289.396 93.6322C290.812 92.6095 291.953 92.0588 292.818 91.9802L293.526 91.5082C293.92 90.8788 294.51 90.2888 295.296 89.7382C296.162 89.1088 296.909 88.5975 297.538 88.2042L298.246 88.3222L298.128 87.8502L298.482 87.6142L298.128 86.4342C297.342 86.1195 296.319 85.7262 295.06 85.2542C293.88 84.7822 292.779 84.1922 291.756 83.4842C290.812 82.6975 290.34 81.7929 290.34 80.7702C290.34 79.9835 291.048 78.8822 292.464 77.4662C293.88 76.0502 295.572 74.6342 297.538 73.2182C299.584 71.7235 301.511 70.4648 303.32 69.4422C305.208 68.4195 306.546 67.9082 307.332 67.9082C308.355 67.5148 309.102 66.8855 309.574 66.0202C310.046 65.1549 310.479 64.3682 310.872 63.6602C311.344 62.8735 311.974 62.4802 312.76 62.4802C313.783 62.4802 314.648 62.9915 315.356 64.0142C316.143 65.0368 316.694 65.9415 317.008 66.7282C316.93 67.0428 316.694 67.3182 316.3 67.5542C315.986 67.7902 315.75 68.1049 315.592 68.4982C314.648 69.2849 313.862 70.2682 313.232 71.4482C312.682 72.5495 312.131 73.6508 311.58 74.7522L309.456 75.9322L309.102 75.4602H308.984C308.67 75.8535 308.355 76.2075 308.04 76.5222C307.726 76.8368 307.49 77.1908 307.332 77.5842C307.018 77.8988 306.703 78.3708 306.388 79.0002C306.152 79.5508 305.798 79.8655 305.326 79.9442L305.208 79.7082C305.602 78.4495 305.995 77.1908 306.388 75.9322C306.782 74.5948 307.214 73.2968 307.686 72.0382L307.922 71.9202L308.158 70.1502C307.372 70.1502 306.624 70.3468 305.916 70.7402C305.208 71.1335 304.422 71.2908 303.556 71.2122C303.242 71.4482 302.691 71.9202 301.904 72.6282C301.196 73.3362 300.488 73.9655 299.78 74.5162C299.072 75.0668 298.522 75.3815 298.128 75.4602C297.656 76.3255 296.948 77.1515 296.004 77.9382C295.139 78.7248 294.706 79.6688 294.706 80.7702C294.706 81.2422 294.942 81.5569 295.414 81.7142C295.886 81.7929 296.319 81.8322 296.712 81.8322V82.5402L296.948 82.4222L298.836 82.8942L299.19 82.5402C300.213 82.7762 301.472 83.1695 302.966 83.7202C304.54 84.1922 305.916 84.8609 307.096 85.7262C308.355 86.5915 308.984 87.7322 308.984 89.1482C308.984 89.6988 308.866 90.2495 308.63 90.8002C308.394 91.3508 308.08 91.9015 307.686 92.4522L305.798 94.3402L302.848 94.1042C302.298 94.4975 301.354 94.8515 300.016 95.1662C298.679 95.4022 297.42 95.6382 296.24 95.8742C295.139 96.1102 294.588 96.3855 294.588 96.7002L293.526 95.7562C293.133 96.4642 292.543 96.8182 291.756 96.8182C290.97 96.8182 290.183 96.8182 289.396 96.8182C288.688 96.8182 287.862 97.2509 286.918 98.1162C286.053 98.9815 285.266 99.9255 284.558 100.948C283.85 102.05 283.418 102.954 283.26 103.662L282.552 105.196Z" fill="white"/>
<path d="M319.125 101.066C318.102 101.066 317.434 100.555 317.119 99.5322C316.883 98.5882 316.765 97.7229 316.765 96.9362C316.765 96.3855 316.883 95.3235 317.119 93.7502C317.434 92.1768 317.827 90.6822 318.299 89.2662C318.771 87.7715 319.282 87.0242 319.833 87.0242C319.912 86.1589 320.226 85.0575 320.777 83.7202C321.328 82.3829 322.036 81.5962 322.901 81.3602V81.2422C323.058 81.0062 323.255 80.7702 323.491 80.5342C323.727 80.2982 323.963 80.0622 324.199 79.8262L324.317 79.5902V79.7082L324.435 78.0562C324.828 77.8202 325.143 77.4268 325.379 76.8762C325.615 76.2468 325.93 75.7748 326.323 75.4602L326.677 75.8142C327.228 75.1848 327.818 74.5555 328.447 73.9262C329.155 73.2182 329.509 72.3922 329.509 71.4482C329.902 70.8188 330.335 70.2682 330.807 69.7962C331.358 69.2455 331.869 68.6949 332.341 68.1442H332.695C333.088 67.7508 333.521 67.5542 333.993 67.5542L334.465 66.9642V65.6662L334.937 65.3122C335.33 64.7615 335.842 63.9748 336.471 62.9522C337.1 61.9295 337.415 61.1429 337.415 60.5922C337.415 60.3562 337.218 60.2382 336.825 60.2382C336.51 60.2382 336.156 60.3168 335.763 60.4742C335.37 60.5529 335.094 60.5922 334.937 60.5922V60.0022L340.955 54.9282V54.8102C341.978 54.1022 342.961 53.3548 343.905 52.5682C344.849 51.7028 345.832 50.9555 346.855 50.3262C347.72 50.4835 348.664 50.7588 349.687 51.1522C350.71 51.4668 351.418 52.0569 351.811 52.9222V54.4562C351.26 55.0068 350.316 55.9902 348.979 57.4062C347.642 58.8222 346.108 60.4348 344.377 62.2442C342.646 63.9748 340.916 65.7055 339.185 67.4362C337.454 69.0882 335.92 70.4648 334.583 71.5662C333.324 72.6675 332.459 73.2575 331.987 73.3362L330.571 74.6342L331.161 75.6962L330.571 76.8762C329.942 77.0335 329.273 77.5448 328.565 78.4102C327.936 79.1968 327.621 79.9442 327.621 80.6522C326.913 80.9669 326.441 81.3209 326.205 81.7142C326.048 82.1075 325.812 82.5009 325.497 82.8942C325.261 83.2875 324.592 83.6809 323.491 84.0742L323.137 84.6642V87.2602L323.609 87.6142L323.019 87.3782L322.547 88.3222H322.311C322.075 89.1088 321.957 89.9348 321.957 90.8002L322.547 92.2162C322.862 91.8228 323.491 91.2329 324.435 90.4462C325.379 89.5809 325.812 88.9515 325.733 88.5582L326.677 87.6142C326.913 86.8275 327.464 85.8442 328.329 84.6642C329.273 83.4055 330.296 82.2649 331.397 81.2422C332.498 80.2195 333.442 79.7082 334.229 79.7082V79.5902L335.999 79.7082C337.1 80.2589 337.769 81.2029 338.005 82.5402C338.241 83.8775 338.595 85.4509 339.067 87.2602C339.618 88.9909 340.798 90.8002 342.607 92.6882L344.495 91.5082H344.849C345.164 91.1148 345.636 90.7609 346.265 90.4462C346.973 90.1315 347.563 89.8562 348.035 89.6202L348.153 89.7382C348.153 90.1315 347.563 90.8002 346.383 91.7442C345.282 92.6882 344.102 93.5535 342.843 94.3402C341.584 95.1269 340.68 95.5989 340.129 95.7562L339.775 95.5202L338.595 95.7562L338.241 95.1662C336.274 94.9302 334.858 94.4188 333.993 93.6322C333.128 92.7668 332.538 91.8228 332.223 90.8002C331.987 89.7775 331.79 88.8335 331.633 87.9682C331.476 87.1029 331.043 86.5522 330.335 86.3162C329.784 86.8669 329.273 87.4175 328.801 87.9682C328.329 88.5189 327.857 89.1088 327.385 89.7382C326.677 90.0528 325.969 90.8002 325.261 91.9802C324.632 93.1602 324.002 94.4582 323.373 95.8742C322.822 97.2902 322.193 98.5095 321.485 99.5322C320.777 100.555 319.99 101.066 319.125 101.066ZM333.285 61.6542L333.167 61.3002L333.521 60.4742L334.229 60.5922L334.465 61.4182L333.285 61.6542Z" fill="white"/>
<path d="M367.865 68.7342C367.629 68.7342 366.999 68.6555 365.977 68.4982C365.033 68.2622 364.561 67.9868 364.561 67.6722C364.561 66.4922 365.151 65.6268 366.331 65.0762C367.589 64.5255 368.612 63.9748 369.399 63.4242H369.635C370.736 62.5588 372.034 61.9688 373.529 61.6542C375.102 61.3395 376.557 61.1428 377.895 61.0642L377.777 61.1822C376.282 61.6542 374.945 62.5195 373.765 63.7782C372.585 64.9582 371.483 66.0989 370.461 67.2002C369.517 68.2229 368.651 68.7342 367.865 68.7342ZM352.643 101.538L350.755 98.8242C350.676 98.2735 350.558 97.7622 350.401 97.2902C350.243 96.7395 350.165 96.1889 350.165 95.6382C350.165 94.9302 350.204 94.2222 350.283 93.5142C350.361 92.8062 350.44 92.0982 350.519 91.3902L351.345 89.3842L351.227 89.2662C351.62 88.3222 352.013 87.1029 352.407 85.6082C352.8 84.1135 353.272 82.6189 353.823 81.1242C354.452 79.5508 355.199 78.2528 356.065 77.2302C356.93 76.1288 357.992 75.5782 359.251 75.5782C360.116 75.5782 361.099 75.8928 362.201 76.5222C363.302 77.1515 363.853 77.9775 363.853 79.0002C363.853 79.3935 363.538 80.1015 362.909 81.1242C362.358 82.1469 361.689 83.2875 360.903 84.5462C360.116 85.7262 359.329 86.7882 358.543 87.7322C357.835 88.5975 357.323 89.1088 357.009 89.2662C356.301 90.5248 355.317 91.9802 354.059 93.6322C352.8 95.2842 352.171 96.8182 352.171 98.2342C352.171 98.7849 352.249 99.2962 352.407 99.7682C352.643 100.24 352.761 100.752 352.761 101.302L352.643 101.538Z" fill="white"/>
<path d="M398.324 106.376C396.829 105.826 395.256 105.118 393.604 104.252C391.952 103.466 390.536 102.404 389.356 101.066C388.255 99.7289 387.704 98.1162 387.704 96.2282C387.704 95.3629 387.822 94.4975 388.058 93.6322C388.294 92.6882 388.766 91.9408 389.474 91.3902C389.553 91.7048 389.553 92.0195 389.474 92.3342C389.474 92.6488 389.474 93.0028 389.474 93.3962C389.474 95.9135 390.379 97.7622 392.188 98.9422C393.997 100.122 396.004 100.712 398.206 100.712C400.724 100.712 403.044 100.083 405.168 98.8242C407.371 97.5655 409.219 96.0709 410.714 94.3402V93.5142H410.832L411.54 92.5702C411.934 92.4128 412.288 92.2162 412.602 91.9802C412.917 91.7442 413.192 91.5082 413.428 91.2722V90.3282C414.53 89.7775 415.513 88.8729 416.378 87.6142C417.322 86.2769 418.109 85.0969 418.738 84.0742C419.368 84.0742 419.8 83.7202 420.036 83.0122C420.272 82.2255 420.43 81.5962 420.508 81.1242L420.626 81.0062L420.508 80.7702C418.856 80.7702 417.165 80.9669 415.434 81.3602C413.782 81.6749 412.091 81.9109 410.36 82.0682C408.866 83.3269 407.174 83.9562 405.286 83.9562C404.421 83.9562 403.516 83.7202 402.572 83.2482C401.628 82.7762 401.156 82.0289 401.156 81.0062C401.156 80.4555 401.353 79.7868 401.746 79.0002C402.218 78.2135 402.769 77.5055 403.398 76.8762C404.106 76.1682 404.736 75.8142 405.286 75.8142L405.522 76.5222H407.41C408.276 76.5222 409.102 76.4828 409.888 76.4042C410.754 76.3255 411.58 76.2862 412.366 76.2862L413.428 75.6962L414.49 76.2862C414.883 75.9715 415.67 75.8142 416.85 75.8142C417.952 75.8142 419.171 75.8928 420.508 76.0502C421.924 76.2075 422.986 76.2468 423.694 76.1682C424.324 74.8308 424.992 73.5722 425.7 72.3922C426.408 71.1335 426.998 69.8748 427.47 68.6162L428.296 67.9082C429.004 65.2335 429.87 62.6375 430.892 60.1202C431.915 57.5242 432.859 54.9282 433.724 52.3322H429.594C428.729 52.3322 427.824 52.3715 426.88 52.4502C426.015 52.5288 425.189 52.7648 424.402 53.1582L422.986 53.0402C421.885 52.8828 420.784 53.0008 419.682 53.3942C418.66 53.7875 417.676 54.2202 416.732 54.6922L416.26 54.5742L415.906 54.9282C411.737 55.6362 407.725 57.2488 403.87 59.7662C400.094 62.2835 396.908 65.1942 394.312 68.4982L395.492 69.2062L397.616 68.9702L397.97 69.3242C397.577 69.7175 397.105 70.0322 396.554 70.2682C396.004 70.5042 395.453 70.7008 394.902 70.8582L393.958 70.0322L393.014 70.3862C392.778 69.9142 392.66 69.4815 392.66 69.0882C392.66 67.6722 393.329 66.0989 394.666 64.3682C396.082 62.6375 397.262 61.2608 398.206 60.2382V59.5302C399.858 58.1928 401.943 56.8555 404.46 55.5182C407.056 54.1022 409.849 52.8435 412.838 51.7422C415.828 50.6408 418.817 49.7755 421.806 49.1462C424.796 48.4382 427.51 48.0842 429.948 48.0842C430.499 48.0842 431.01 48.1235 431.482 48.2022C431.954 48.2022 432.426 48.2415 432.898 48.3202C433.213 48.0842 433.567 47.9268 433.96 47.8482C434.354 47.7695 434.708 47.6908 435.022 47.6122L434.432 47.4942C435.062 46.4715 435.376 45.4095 435.376 44.3082C435.534 44.2295 435.691 44.1508 435.848 44.0722C436.084 43.9935 436.281 43.9542 436.438 43.9542C437.304 43.9542 438.444 44.0328 439.86 44.1902C441.355 44.3475 442.653 44.7408 443.754 45.3702C444.934 45.9208 445.446 46.8648 445.288 48.2022C446.626 48.0448 447.963 47.9662 449.3 47.9662C450.638 47.8875 451.975 47.8482 453.312 47.8482C455.672 47.8482 458.032 48.0055 460.392 48.3202C462.831 48.6348 465.112 49.4608 467.236 50.7982L466.882 51.2702C467.118 52.0568 467.59 52.5682 468.298 52.8042L468.652 53.7482L467.826 54.3382L468.298 55.6362C467.748 57.1308 467.197 58.1142 466.646 58.5862C466.096 59.0582 464.994 59.3729 463.342 59.5302L462.398 58.9402L458.386 60.7102L458.268 60.5922L458.74 59.5302V59.4122C458.268 59.8055 457.757 60.1595 457.206 60.4742C456.656 60.7888 456.066 60.9855 455.436 61.0642L455.082 60.8282L455.436 60.4742C456.931 60.0022 458.19 59.2548 459.212 58.2322C460.235 57.2095 461.139 56.0688 461.926 54.8102L461.69 52.9222L458.504 51.3882L458.386 51.0342C457.363 50.7195 456.301 50.5622 455.2 50.5622C454.099 50.4835 452.997 50.4442 451.896 50.4442C450.795 50.4442 449.694 50.5622 448.592 50.7982C447.57 51.0342 446.508 51.1915 445.406 51.2702L445.878 52.2142C445.799 52.5289 445.642 53.0795 445.406 53.8662C445.17 54.6528 444.856 55.0855 444.462 55.1642L443.046 54.2202L442.928 54.3382C442.85 55.3608 442.574 56.3835 442.102 57.4062C441.63 58.3502 441.08 59.2155 440.45 60.0022C439.113 60.0808 438.444 60.8282 438.444 62.2442L439.152 62.7162L439.624 62.0082L440.096 61.8902L440.332 62.2442C439.782 63.1095 439.192 63.7388 438.562 64.1322C437.933 64.1322 437.382 64.3682 436.91 64.8402C436.517 65.3122 436.006 65.5875 435.376 65.6662C434.747 65.9808 434.314 66.4135 434.078 66.9642C433.921 67.5148 433.41 68.0262 432.544 68.4982L432.662 68.7342C432.348 69.0489 431.836 69.6782 431.128 70.6222C430.499 71.4875 429.909 72.3922 429.358 73.3362C428.808 74.2015 428.493 74.8702 428.414 75.3422H428.65L429.004 76.0502C429.791 75.8142 430.538 75.6962 431.246 75.6962C431.954 75.6175 432.702 75.5782 433.488 75.5782C434.275 75.5782 435.022 75.5782 435.73 75.5782C436.438 75.5782 437.146 75.5388 437.854 75.4602C445.721 74.1228 453.43 73.0608 460.982 72.2742L461.572 72.0382L461.808 72.2742C461.572 72.9035 460.549 73.4935 458.74 74.0442C457.009 74.5948 454.886 75.1062 452.368 75.5782C449.851 75.9715 447.294 76.3255 444.698 76.6402C442.102 76.9548 439.742 77.1908 437.618 77.3482C435.573 77.5055 434.118 77.5842 433.252 77.5842C433.252 77.8988 432.623 78.2528 431.364 78.6462C430.106 79.0395 428.768 79.4722 427.352 79.9442C426.015 80.3375 425.071 80.8882 424.52 81.5962V83.1302L423.93 82.8942C423.301 82.9729 422.868 83.2875 422.632 83.8382C422.396 84.3102 422.239 84.8609 422.16 85.4902C421.374 85.9622 420.626 86.5522 419.918 87.2602C419.21 87.8895 418.463 88.5188 417.676 89.1482L417.794 90.4462H417.322C417.165 90.9969 416.693 91.5475 415.906 92.0982C415.198 92.5702 414.608 93.0028 414.136 93.3962L413.546 94.4582L414.136 94.9302L413.31 95.4022C412.602 96.4249 411.462 97.7229 409.888 99.2962C408.394 100.87 407.096 101.892 405.994 102.364C405.05 103.544 403.91 104.41 402.572 104.96C401.235 105.511 399.819 105.983 398.324 106.376ZM434.196 61.5362H435.494L435.612 60.9462L435.494 60.4742C435.101 60.5529 434.668 60.9069 434.196 61.5362ZM437.146 61.3002L437.5 60.8282L437.264 60.5922H437.028L436.792 60.9462L437.146 61.3002ZM434.432 63.4242L434.314 62.8342L433.842 63.1882L434.432 63.4242ZM434.786 65.5482L435.14 65.4302L435.258 64.8402L434.904 64.7222L434.668 65.4302L434.786 65.5482ZM399.268 68.6162L399.504 67.9082L399.858 68.0262L399.976 68.4982L399.858 68.6162H399.268Z" fill="white"/>
<path d="M464.146 99.0602C463.438 99.0602 462.573 98.5882 461.55 97.6442C460.606 96.7002 459.819 95.9922 459.19 95.5202C459.033 94.4975 458.757 93.5928 458.364 92.8062C457.971 91.9408 457.774 91.0362 457.774 90.0922C457.774 88.6762 458.285 87.0242 459.308 85.1362C460.409 83.1695 461.786 81.2422 463.438 79.3542C465.169 77.4662 466.899 75.8929 468.63 74.6342C470.439 73.3755 472.052 72.7462 473.468 72.7462V72.5102C474.569 72.7462 475.592 73.4542 476.536 74.6342C477.559 75.8142 478.07 76.9155 478.07 77.9382C478.07 78.8822 477.48 79.8655 476.3 80.8882C475.199 81.8322 473.822 82.7369 472.17 83.6022C470.597 84.3889 469.023 85.0182 467.45 85.4902C465.955 85.9622 464.775 86.1982 463.91 86.1982V86.4342C463.359 87.2995 462.809 88.4008 462.258 89.7382C461.786 90.9968 461.55 92.1768 461.55 93.2782C461.55 93.6715 461.668 94.1042 461.904 94.5762C462.455 94.9695 463.163 95.1662 464.028 95.1662C464.893 95.0875 465.601 95.0875 466.152 95.1662L466.27 95.2842L466.624 94.6942C467.647 94.6155 468.63 94.3795 469.574 93.9862V93.2782H470.282V92.9242L470.754 93.0422C471.147 92.8848 471.423 92.7275 471.58 92.5702C471.816 92.3342 472.091 92.1375 472.406 91.9802L473.114 92.3342V92.2162L475.238 90.2102H475.356L475.71 90.4462V90.3282C476.733 89.3842 477.834 88.5189 479.014 87.7322C480.194 86.9455 481.059 85.9229 481.61 84.6642L482.908 83.7202L483.144 83.9562C483.144 84.5069 482.947 85.0182 482.554 85.4902C482.161 85.9622 481.689 86.2769 481.138 86.4342C480.509 87.9289 479.565 89.1875 478.306 90.2102C477.126 91.2328 475.907 92.2948 474.648 93.3962H474.294L474.176 93.9862C472.681 95.0089 471.108 96.1102 469.456 97.2902C467.883 98.4702 466.113 99.0602 464.146 99.0602ZM466.388 83.9562H466.624V83.7202C467.175 83.5629 468.119 83.0909 469.456 82.3042C470.872 81.5175 472.209 80.6915 473.468 79.8262C474.727 78.8822 475.395 78.2135 475.474 77.8202H475.592L475.474 77.2302L475.592 76.6402C475.513 76.6402 475.356 76.6402 475.12 76.6402C474.884 76.5615 474.687 76.5222 474.53 76.5222C473.507 77.2302 472.485 77.8988 471.462 78.5282C470.439 79.1575 469.417 79.7868 468.394 80.4162H468.158L468.04 81.3602C467.568 81.6749 467.214 82.0682 466.978 82.5402C466.742 82.9335 466.545 83.4055 466.388 83.9562ZM484.324 83.6022L483.616 83.3662L483.498 82.6582L484.678 82.3042L484.796 82.6582L484.324 83.6022Z" fill="white"/>
<path d="M479.921 105.196C479.449 104.488 479.213 103.78 479.213 103.072C479.213 102.522 479.331 102.01 479.567 101.538C479.725 101.066 479.921 100.634 480.157 100.24H480.275L480.157 100.122C480.708 99.3355 481.573 98.3129 482.753 97.0542C484.012 95.7955 485.349 94.6549 486.765 93.6322C488.181 92.6095 489.322 92.0588 490.187 91.9802L490.895 91.5082C491.289 90.8788 491.879 90.2888 492.665 89.7382C493.531 89.1088 494.278 88.5975 494.907 88.2042L495.615 88.3222L495.497 87.8502L495.851 87.6142L495.497 86.4342C494.711 86.1195 493.688 85.7262 492.429 85.2542C491.249 84.7822 490.148 84.1922 489.125 83.4842C488.181 82.6975 487.709 81.7929 487.709 80.7702C487.709 79.9835 488.417 78.8822 489.833 77.4662C491.249 76.0502 492.941 74.6342 494.907 73.2182C496.953 71.7235 498.88 70.4648 500.689 69.4422C502.577 68.4195 503.915 67.9082 504.701 67.9082C505.724 67.5148 506.471 66.8855 506.943 66.0202C507.415 65.1549 507.848 64.3682 508.241 63.6602C508.713 62.8735 509.343 62.4802 510.129 62.4802C511.152 62.4802 512.017 62.9915 512.725 64.0142C513.512 65.0368 514.063 65.9415 514.377 66.7282C514.299 67.0428 514.063 67.3182 513.669 67.5542C513.355 67.7902 513.119 68.1049 512.961 68.4982C512.017 69.2849 511.231 70.2682 510.601 71.4482C510.051 72.5495 509.5 73.6508 508.949 74.7522L506.825 75.9322L506.471 75.4602H506.353C506.039 75.8535 505.724 76.2075 505.409 76.5222C505.095 76.8368 504.859 77.1908 504.701 77.5842C504.387 77.8988 504.072 78.3708 503.757 79.0002C503.521 79.5508 503.167 79.8655 502.695 79.9442L502.577 79.7082C502.971 78.4495 503.364 77.1908 503.757 75.9322C504.151 74.5948 504.583 73.2968 505.055 72.0382L505.291 71.9202L505.527 70.1502C504.741 70.1502 503.993 70.3468 503.285 70.7402C502.577 71.1335 501.791 71.2908 500.925 71.2122C500.611 71.4482 500.06 71.9202 499.273 72.6282C498.565 73.3362 497.857 73.9655 497.149 74.5162C496.441 75.0668 495.891 75.3815 495.497 75.4602C495.025 76.3255 494.317 77.1515 493.373 77.9382C492.508 78.7248 492.075 79.6688 492.075 80.7702C492.075 81.2422 492.311 81.5569 492.783 81.7142C493.255 81.7929 493.688 81.8322 494.081 81.8322V82.5402L494.317 82.4222L496.205 82.8942L496.559 82.5402C497.582 82.7762 498.841 83.1695 500.335 83.7202C501.909 84.1922 503.285 84.8609 504.465 85.7262C505.724 86.5915 506.353 87.7322 506.353 89.1482C506.353 89.6988 506.235 90.2495 505.999 90.8002C505.763 91.3508 505.449 91.9015 505.055 92.4522L503.167 94.3402L500.217 94.1042C499.667 94.4975 498.723 94.8515 497.385 95.1662C496.048 95.4022 494.789 95.6382 493.609 95.8742C492.508 96.1102 491.957 96.3855 491.957 96.7002L490.895 95.7562C490.502 96.4642 489.912 96.8182 489.125 96.8182C488.339 96.8182 487.552 96.8182 486.765 96.8182C486.057 96.8182 485.231 97.2509 484.287 98.1162C483.422 98.9815 482.635 99.9255 481.927 100.948C481.219 102.05 480.787 102.954 480.629 103.662L479.921 105.196Z" fill="white"/>
<path d="M516.376 103.19C515.117 103.19 514.094 102.64 513.308 101.538C512.521 100.516 512.128 99.3749 512.128 98.1162C512.128 97.1722 512.403 95.7562 512.954 93.8682C513.583 91.9015 514.33 89.8562 515.196 87.7322C516.061 85.5295 516.966 83.5629 517.91 81.8322C518.854 80.1015 519.719 78.9608 520.506 78.4102C521.607 76.6795 522.59 75.0668 523.456 73.5722C522.197 73.8082 520.938 74.0835 519.68 74.3982C518.421 74.6342 517.241 74.9882 516.14 75.4602C515.589 76.1682 514.96 76.5222 514.252 76.5222C514.016 76.3648 513.74 76.2075 513.426 76.0502C513.111 75.8928 512.836 75.6962 512.6 75.4602L512.718 75.2242H512.6V74.9882C512.6 74.5948 512.521 74.2408 512.364 73.9262C512.285 73.5328 512.206 73.1789 512.128 72.8642C512.049 72.7855 512.01 72.5888 512.01 72.2742C512.01 71.2515 512.482 70.5828 513.426 70.2682C514.448 69.9535 515.471 69.7962 516.494 69.7962C517.988 69.7962 519.011 69.9142 519.562 70.1502L520.742 69.9142H523.692C524.242 69.9142 524.754 69.9142 525.226 69.9142C525.698 69.9142 526.17 69.8748 526.642 69.7962L527.114 69.0882L526.996 68.6162C527.232 68.0655 527.743 67.1608 528.53 65.9022C529.316 64.6435 530.142 63.3062 531.008 61.8902C531.873 60.4742 532.62 59.2548 533.25 58.2322C533.958 57.1308 534.312 56.5802 534.312 56.5802C534.312 56.1082 534.705 55.8328 535.492 55.7542C536.278 55.6755 536.79 55.6362 537.026 55.6362C537.891 55.6362 539.071 55.9115 540.566 56.4622C542.06 56.9342 542.808 57.7602 542.808 58.9402C542.808 59.6482 542.532 60.2382 541.982 60.7102C541.431 61.1035 540.841 61.3788 540.212 61.5362V61.6542C540.212 62.1262 539.858 62.6768 539.15 63.3062C538.52 63.9355 537.773 64.4862 536.908 64.9582C536.042 65.4302 535.374 65.7448 534.902 65.9022C534.666 65.9809 534.351 66.2955 533.958 66.8462C533.643 67.3182 533.407 67.6722 533.25 67.9082V68.3802C532.935 68.6162 532.581 68.8915 532.188 69.2062C531.873 69.4422 531.598 69.7568 531.362 70.1502C531.755 70.2288 532.148 70.2682 532.542 70.2682C532.935 70.2682 533.328 70.2682 533.722 70.2682C534.351 70.2682 534.941 70.2682 535.492 70.2682C536.121 70.2682 536.711 70.3075 537.262 70.3862L540.92 70.8582C539.976 71.6448 538.914 72.1168 537.734 72.2742C536.554 72.3528 535.334 72.3922 534.076 72.3922C532.896 72.3135 531.755 72.5102 530.654 72.9822C530.103 73.1395 529.356 73.6115 528.412 74.3982C527.546 75.1848 526.76 76.0502 526.052 76.9942C525.344 77.8595 524.99 78.6068 524.99 79.2362L522.276 82.8942C521.489 83.2875 521.096 83.8775 521.096 84.6642C521.096 85.4509 520.663 85.8442 519.798 85.8442L518.146 89.6202C518.067 90.0922 517.949 90.8395 517.792 91.8622C517.713 92.8062 517.398 93.3568 516.848 93.5142C516.848 94.5368 516.808 95.5595 516.73 96.5822C516.651 97.5262 516.612 98.4702 516.612 99.4142L516.848 99.8862H517.792C519.365 98.3129 520.978 96.8182 522.63 95.4022C524.36 93.9075 525.973 92.3342 527.468 90.6822L528.058 90.4462H528.294L529.002 89.5022L529.474 89.2662L529.356 89.1482L530.064 88.5582C530.693 87.3782 531.716 86.3949 533.132 85.6082L533.25 85.8442C533.25 86.2375 532.738 87.1029 531.716 88.4402C530.693 89.6989 529.395 91.1935 527.822 92.9242C526.327 94.5762 524.754 96.1889 523.102 97.7622C521.528 99.3355 520.112 100.634 518.854 101.656C517.595 102.679 516.769 103.19 516.376 103.19Z" fill="white"/>
<ellipse cx="86.0869" cy="86.2337" rx="85.8528" ry="86" transform="rotate(-0.156185 86.0869 86.2337)" fill="#0B090A"/>
<ellipse cx="86.0869" cy="86.2337" rx="76.6543" ry="76.7857" transform="rotate(-0.156185 86.0869 86.2337)" fill="#EEEBE3"/>
<mask id="mask0_48_596" style="mask-type:alpha" maskUnits="userSpaceOnUse" x="24" y="24" width="124" height="124">
<ellipse cx="86.0869" cy="86.2337" rx="61.3234" ry="61.4286" transform="rotate(-0.156185 86.0869 86.2337)" fill="#C4C4C4"/>
</mask>
<g mask="url(#mask0_48_596)">
<path d="M-31.6792 160.411C-31.8825 154.351 -31.8825 148.483 -31.8825 142.257C-27.96 139.314 -23.224 139.394 -18.9143 138.075C-9.27364 135.124 -0.234619 130.93 8.50018 126.053C22.6035 118.178 35.4241 108.404 47.8602 98.1888C58.8159 89.1893 69.358 79.6703 80.2983 70.6568C95.3451 58.2599 110.583 46.0561 128.984 38.6139C135.697 35.8989 141.636 31.7206 146.271 25.9641C153.432 17.0715 151.681 7.01276 146.32 -1.58874C139.609 -12.3556 129.946 -20.1816 119.839 -27.4663C102.91 -39.6681 84.4406 -49.113 65.5566 -57.8947C51.9873 -64.205 38.1079 -69.7263 24.0665 -74.7543C9.92157 -79.8194 -4.50837 -84.1595 -19.2045 -87.4693C-20.5641 -87.7755 -21.9208 -88.0664 -23.206 -89.1997C-23.5179 -90.0744 -23.4339 -90.6531 -22.9115 -91.4361C-2.86036 -91.6766 17.0019 -91.6766 37.222 -91.6766C50.8328 -88.8589 63.2505 -83.6284 75.7188 -78.5268C89.0622 -73.0672 101.846 -66.5018 114.566 -59.1745C118.578 -56.4383 122.342 -53.8243 126.515 -51.3205C138.005 -42.717 148.384 -33.2475 158.706 -23.7046C165.712 -17.2268 174.02 -12.9958 183.554 -12.9162C190.007 -12.8623 196.578 -14.0939 202.861 -16.0987C208.73 -17.9717 214.589 -19.2309 220.599 -16.5274C227.261 -13.5309 232.484 -8.68063 236.943 -3.15421C250.176 13.2462 260.567 31.598 272.318 49.0195C281.369 62.4396 290.74 75.6359 301.374 87.9312C308.449 96.1116 315.805 103.987 323.628 111.401C333.373 120.636 343.958 128.827 355.25 136.181C368.176 144.598 381.804 151.503 396.228 156.812C405.813 160.34 415.404 163.998 425.656 165.279C426.414 165.374 427.098 165.767 428.092 166.136C433.066 167.511 437.887 168.148 442.669 168.975C443.845 169.178 444.845 169.423 445.743 170.674C446.423 173.237 444.653 172.404 443.684 172.407C431.02 172.445 418.356 172.432 405.693 172.432C395.435 172.432 385.177 172.432 374.562 172.432C356.649 167.641 341.903 157.687 327.667 146.884C321.312 142.062 315.084 137 309.684 131.104C301.562 122.236 293.479 113.361 286.134 103.77C272.626 86.1289 261.09 67.1946 248.791 48.7599C244.713 42.6477 240.793 36.2116 235.412 31.3494C226.442 23.2444 217.621 14.6011 206.278 9.74792C196.517 5.5718 187.397 7.60939 178.455 15.9366C173.504 20.5469 170.205 26.5456 165.409 31.2528C157.957 38.5665 149.329 44.3764 140.666 50.1172C130.102 57.1177 119.494 64.0699 109.338 71.6413C102.955 76.3994 96.9583 81.7114 91.1955 87.2299C79.9302 98.0176 67.9112 107.916 55.7893 117.705C45.5335 125.987 34.9532 133.863 23.7148 140.705C12.1257 147.76 0.0113849 153.904 -13.1967 157.579C-18.0618 158.932 -22.9806 159.991 -27.9023 161.074C-29.1814 161.355 -30.398 161.63 -31.6792 160.411Z" fill="#FC5231"/>
<path d="M43.6224 -91.3943C63.5486 -91.6766 83.4109 -91.6766 103.631 -91.6766C113.899 -87.9514 122.371 -81.7405 130.93 -75.7647C144.269 -66.4509 156.948 -56.1813 171.03 -47.947C176.443 -44.7815 181.743 -41.1392 188.756 -41.2803C197.499 -40.6041 205.969 -41.1149 214.743 -40.9094C226.111 -40.2024 234.248 -33.585 242.256 -27.0485C259.783 -12.7422 273.214 5.26163 286.758 23.1411C297.301 37.0578 307.737 51.0451 319.065 64.3651C329.49 76.6239 340.58 88.1698 352.798 98.6083C368.049 111.639 384.603 122.674 402.775 131.332C415.028 137.17 427.584 142.064 440.59 145.872C442.388 146.398 444.345 146.669 445.765 148.566C445.957 155.146 445.957 161.523 445.957 168.258C442.533 169.998 439.309 168.276 436.012 167.905C433.596 167.633 431.203 167.053 428.509 166.527C418.82 164.046 409.409 161.722 400.255 158.426C385.061 152.956 370.594 146.083 356.95 137.401C348.958 132.315 341.399 126.69 334.082 120.711C324.085 112.541 315.039 103.401 306.361 93.8554C293.907 80.155 283.068 65.2139 272.789 49.8904C264.682 37.8036 256.984 25.4314 248.925 13.3073C242.547 3.71233 236.087 -5.89553 226.638 -12.9163C220.608 -17.3959 214.124 -19.5139 206.627 -17.0335C199.502 -14.6759 192.122 -13.1226 184.681 -12.8275C177.856 -12.5568 171.213 -14.4261 165.496 -18.4578C159.316 -22.8152 153.916 -28.1051 148.316 -33.1672C141.614 -39.2251 134.939 -45.3627 127.056 -50.4365C123.211 -53.362 119.571 -56.0843 115.266 -58.3245C103.947 -65.6632 92.0515 -71.2812 80.0173 -76.6205C69.0327 -81.4941 57.8011 -85.7249 46.3569 -89.4014C45.368 -89.7191 44.0383 -89.8165 43.6224 -91.3943Z" fill="#FC5231"/>
<path d="M367.445 172.173C350.525 172.432 333.716 172.432 316.55 172.432C308.889 167.489 303.069 160.925 297.188 154.513C284.838 141.048 274.623 125.946 264.716 110.651C255.76 96.8243 247.829 82.3698 238.905 68.5128C232.08 57.9143 223.366 49.5721 212.119 43.4166C211.619 43.0477 211.349 42.819 210.873 42.4298C210.516 42.1846 210.37 42.0934 210.018 41.8472C208.556 40.4165 206.894 40.1115 205.001 39.6892C204.598 39.5385 204.436 39.4789 204.023 39.3535C201.361 38.1229 198.792 38.4173 195.99 38.4728C195.217 38.4799 194.703 38.49 193.97 38.7259C192.851 39.3179 191.805 39.3302 190.664 39.8516C190.098 39.9892 189.777 40.0733 189.239 40.2913C187.596 41.0174 185.687 40.2078 184.48 42.0912C184.2 42.386 184.081 42.4956 183.778 42.7639C183.472 43.024 183.349 43.1255 183.043 43.3791C182.735 43.6251 182.609 43.719 182.291 43.9442C181.847 44.2522 181.599 44.4345 181.176 44.7631C180.875 44.9919 180.753 45.081 180.447 45.299C180.148 45.5234 180.033 45.6188 179.761 45.8716C179.395 46.2365 179.172 46.428 178.752 46.72C178.209 47.0729 177.852 47.3129 177.323 47.6803C177.04 47.8947 176.929 47.9841 176.65 48.2064C176.363 48.4222 176.246 48.5049 175.953 48.7184C175.657 48.9329 175.536 49.0165 175.223 49.2166C174.766 49.4838 174.492 49.6169 173.979 49.7958C173.587 49.881 173.426 49.9043 173.021 49.9648C170.731 50.4275 170.066 51.8595 170.005 54.0051C169.89 54.5705 169.767 54.8704 169.451 55.3341C168.997 55.849 168.665 56.1583 168.22 56.6551C167.977 56.9123 167.879 57.0128 167.637 57.2614C167.396 57.5054 167.299 57.6014 166.918 57.9828C166.539 58.3624 166.445 58.4566 166.068 58.8346C165.692 59.2149 165.599 59.3113 165.369 59.5579C165.046 59.9077 164.853 60.1012 164.501 60.4322C164.144 60.7733 163.946 60.9769 163.603 61.3448C162.919 62.0184 162.418 62.5674 161.69 63.2076C161.276 63.5438 161.049 63.7472 160.676 64.1358C160.305 64.5388 160.069 64.7461 159.612 65.0649C159 65.479 158.586 65.7519 157.954 66.169C142.178 78.7408 124.607 88.3083 108.959 100.605C103.887 104.591 98.9691 108.761 94.2116 113.132C84.9738 121.619 75.4797 129.815 65.9026 137.923C57.0896 145.384 47.8936 152.329 38.4038 158.851C31.2301 163.781 24.1722 169.042 15.6469 172.251C0.775635 172.432 -13.8937 172.321 -28.5586 172.524C-31.6151 172.566 -32.242 171.617 -31.9249 168.922C-31.7048 167.051 -31.8825 165.134 -31.8825 162.873C-29.7893 160.539 -27.0102 160.844 -24.4949 160.329C-8.93124 157.138 5.53527 151.184 19.2101 143.177C32.9776 135.117 45.7175 125.631 58.1354 115.649C70.1939 105.956 81.9283 95.9215 93.1693 85.2819C107.618 71.606 124.306 60.9012 140.814 49.9635C149.465 44.2311 158.119 38.4313 165.51 31.0685C170.155 26.4409 173.521 20.6925 178.242 16.0768C188.385 6.16239 199.527 4.94344 211.631 12.3979C220.016 17.5618 227.582 23.8479 234.676 30.5138C241.563 36.9847 246.58 45.2043 251.795 53.1272C261.797 68.3236 271.41 83.7782 282.18 98.4645C293.191 113.479 305.323 127.535 319.227 139.884C331.753 151.009 345.621 160.344 360.854 167.528C363.261 168.663 366.121 169.239 367.445 172.173Z" fill="#FC5231"/>
<path d="M108.447 -91.4161C121.052 -91.6766 133.536 -91.6766 146.377 -91.6766C153.775 -85.7649 160.393 -79.3514 167.9 -73.9952C172.552 -70.6758 177.352 -67.5568 182.716 -65.5809C192.363 -62.0276 200.303 -64.4995 206.674 -72.9828C209.657 -76.9545 211.962 -81.3303 214.221 -85.732C215.261 -87.7574 216.184 -89.8666 218.285 -91.4873C225.627 -91.6766 232.767 -91.6766 240.265 -91.6766C241.733 -89.9208 240.304 -88.8308 239.51 -87.6174C236.31 -82.7259 233.455 -77.7729 232.465 -71.8073C231.489 -65.9258 233.706 -61.5731 238.177 -58.4247C244.69 -53.8384 251.963 -50.4023 258.175 -45.3078C265.944 -38.9353 272.953 -31.824 279.594 -24.2987C297.448 -4.06645 312.402 18.4266 329.37 39.3479C337.277 49.0977 345.572 58.5548 354.491 67.3346C371.499 84.0761 390.029 98.9519 411.416 109.928C421.784 115.249 432.258 120.321 443.314 124.087C444.17 124.378 444.918 124.848 445.758 125.678C445.957 132.501 445.957 139.133 445.957 146.122C442.4 147.942 439.429 145.512 436.413 144.627C418.824 139.464 402.119 132.048 386.315 122.806C374.288 115.773 363.077 107.495 352.456 98.4258C343.175 90.5004 334.48 81.9651 326.347 72.9114C316.255 61.6763 306.786 49.9016 297.693 37.8256C287.983 24.9312 278.314 12.0086 268.156 -0.551643C262.256 -7.84669 255.661 -14.399 249.08 -21.0094C242.423 -27.6963 234.708 -32.9788 226.625 -37.7372C223.344 -39.6689 219.633 -40.3623 215.532 -40.5276C208.13 -41.4311 201.034 -40.365 193.936 -40.515C192.423 -40.547 190.938 -40.7033 189.144 -40.9732C182.08 -41.0585 176.643 -44.5959 171.082 -47.7674C158.058 -55.1954 146.409 -64.6274 134.227 -73.2738C126.473 -78.7768 118.614 -84.0812 110.358 -88.7847C109.317 -89.3778 108.277 -89.7333 108.447 -91.4161Z" fill="#FC5231"/>
<path d="M57.6334 172.249C44.9425 172.432 32.459 172.432 19.6177 172.432C18.525 170.668 19.9529 170.268 21.0227 169.654C38.6762 159.532 54.7349 147.222 70.2501 134.12C81.3154 124.775 91.8592 114.849 102.828 105.409C113.941 95.8434 126.381 88.0542 138.558 79.9338C148.566 73.2601 158.738 66.7282 166.909 57.7819C171.126 53.1656 175.364 48.6939 180.472 45.0638C186.052 41.0985 191.981 38.1048 199.038 38.4965C204.903 38.8221 209.826 41.6694 214.722 44.6601C225.489 51.236 233.728 60.1011 240.458 70.7599C250.471 86.6187 259.55 103.047 269.997 118.638C279.939 133.477 290.614 147.731 302.953 160.673C305.658 163.51 308.743 165.985 311.442 168.844C312.282 169.735 313.542 170.4 313.263 172.183C302.945 172.432 292.752 172.432 282.2 172.432C278.541 170.892 276.945 167.662 275.04 164.953C261.973 146.371 251.03 126.498 239.989 106.682C234.506 96.841 229.501 86.5093 221.102 78.7772C214.665 72.8505 207.162 68.3998 197.701 69.0123C192.351 69.3587 187.812 71.6576 183.42 74.3471C175.499 79.1981 168.638 85.4377 161.727 91.5597C154.768 97.7232 147.039 102.772 139.386 107.954C126.703 116.543 113.781 124.788 102.186 134.892C90.5774 145.006 79.4441 155.67 67.3428 165.212C64.2802 167.627 61.53 170.508 57.6334 172.249Z" fill="#FC5231"/>
<path d="M-31.6776 -74.6863C-31.8825 -79.2254 -31.8825 -83.5672 -31.8825 -88.2661C-30.44 -90.1953 -28.7293 -89.7902 -26.9395 -89.4045C-2.61514 -84.1626 21.0086 -76.5926 44.046 -67.3043C61.6344 -60.2129 78.8302 -52.247 95.402 -42.8906C111.282 -33.925 126.537 -24.2319 139.171 -10.9608C143.966 -5.92377 148.262 -0.408493 150.148 6.61222C152.488 15.3259 150.277 22.7536 143.975 28.8713C139.505 33.212 134.236 36.5752 128.453 39.0079C112.659 45.6509 99.0676 55.6404 85.872 66.3775C74.8415 75.3529 64.2169 84.7967 53.2355 93.822C40.8622 103.991 28.4074 114.058 14.7269 122.458C1.50848 130.574 -12.2932 137.361 -27.6784 140.385C-28.9104 140.627 -30.1159 140.901 -31.627 140.507C-31.8825 135.014 -31.8825 129.655 -31.8825 123.938C-29.3578 121.701 -26.2168 121.725 -23.36 121.014C-9.4916 117.563 2.67632 110.718 14.4146 102.855C30.26 92.2421 44.2948 79.4234 58.6802 67.0167C66.1561 60.5691 73.6223 54.0961 81.6398 48.3032C89.1638 42.867 97.0728 38.0906 105.472 34.1287C109.278 32.3333 112.876 30.1739 115.897 27.2283C125.794 17.5757 124.941 8.87361 117.989 -1.58474C110.132 -13.4067 98.4036 -20.8719 86.7669 -28.3566C74.1315 -36.4836 60.6612 -43.0803 46.8973 -48.9679C22.6828 -59.3257 -2.06738 -68.1711 -28.0856 -72.9516C-29.4008 -73.1932 -30.5188 -73.5878 -31.6776 -74.6863Z" fill="#FB5232"/>
<path d="M91.9786 172.244C81.8364 172.432 71.8972 172.432 61.6004 172.432C60.1625 171.038 60.8939 170.243 62.0632 169.338C76.971 157.794 90.4422 144.584 104.82 132.432C113.593 125.017 123.155 118.573 132.769 112.257C143.664 105.1 154.673 98.0636 164.405 89.3407C170.284 84.0717 176.218 78.9273 182.826 74.5987C197.259 65.1429 208.117 67.7621 220.814 78.3979C228.381 84.736 232.748 93.7551 237.58 102.236C248.568 121.517 258.862 141.208 271.487 159.519C273.754 162.807 276.041 166.081 278.371 169.323C278.98 170.17 279.69 170.864 278.969 172.212C271.14 172.432 263.491 172.432 255.484 172.432C251.895 169.564 250.571 165.481 248.599 161.855C242.491 150.625 236.749 139.197 230.87 127.846C226.637 119.674 222.156 111.538 216.26 104.335C211.33 98.3134 199.84 95.6776 192.881 99.1665C185.365 102.934 178.782 108.16 172.29 113.358C151.907 129.676 128.786 142.055 108.323 158.228C102.762 162.623 97.823 167.75 91.9786 172.244Z" fill="#FC5231"/>
<path d="M-31.6691 121.488C-31.8825 116.185 -31.8825 111.08 -31.8825 105.618C-30.7184 103.839 -28.9198 103.741 -27.3872 103.494C-14.9475 101.489 -4.11358 95.7544 6.11974 88.8642C19.0727 80.1428 30.5741 69.6156 42.1485 59.169C52.2008 50.0961 62.3738 41.1062 74.029 34.0287C77.8223 31.7252 82.0306 30.1488 85.5395 27.3448C88.5199 24.9631 91.4371 22.5509 93.4297 19.2054C97.5181 12.3412 93.8614 3.07205 88.9725 -2.49347C78.9096 -13.9491 66.1558 -21.6527 52.837 -28.5158C30.8006 -39.8709 7.65459 -48.3373 -16.3932 -54.3087C-20.4217 -55.309 -24.4853 -56.2594 -28.5952 -56.9071C-29.8028 -57.0974 -30.8084 -57.3897 -31.688 -58.6456C-31.8825 -63.1956 -31.8825 -67.5374 -31.8825 -72.2364C-30.7662 -73.9449 -29.3351 -73.4716 -27.9912 -73.1996C-9.53391 -69.4642 8.42405 -64.0562 26.0526 -57.4344C41.284 -51.7129 56.221 -45.3555 70.5913 -37.7355C85.63 -29.7611 100.228 -21.0767 112.317 -8.84389C116.256 -4.85756 119.524 -0.320435 121.73 4.8958C125.783 14.4814 121.949 22.6158 113.8 29.1369C110.727 31.5959 107.304 33.5512 103.705 35.1891C90.3205 41.2812 78.7642 50.1227 67.6208 59.5166C52.3245 72.4115 37.735 86.157 21.5638 97.9961C6.73234 108.854 -8.85855 118.236 -27.1884 122.047C-28.6849 122.358 -30.114 122.79 -31.6691 121.488Z" fill="#FB5232"/>
<path d="M-31.668 103.169C-31.8825 97.8655 -31.8825 92.7606 -31.8825 87.2982C-29.8525 85.1311 -27.2109 85.2477 -24.785 84.7235C-12.3057 82.0271 -1.97432 75.2506 7.76433 67.4479C18.7188 58.6711 28.5052 48.5813 38.9936 39.2774C44.7757 34.1483 50.9039 29.4879 57.6103 25.6114C59.8153 24.3368 61.6985 22.6617 63.5338 20.8851C68.0581 16.5052 67.8241 7.17564 64.9742 3.26507C59.7272 -3.93478 52.9392 -9.30585 45.4137 -13.8111C35.0634 -20.0074 24.0881 -24.9083 12.7929 -29.1204C10.7691 -29.8751 8.57812 -30.0008 6.36332 -31.0853C-2.95382 -35.0483 -12.5038 -37.1684 -22.0235 -39.4066C-25.1612 -40.1443 -28.4393 -40.2991 -31.6573 -41.8521C-31.8825 -46.6568 -31.8825 -51.2529 -31.8825 -56.2064C-30.1155 -58.1092 -28.2433 -56.9549 -26.5196 -56.6037C-5.51834 -52.3247 14.7216 -45.7017 34.4245 -37.2438C49.746 -30.6667 64.5213 -23.1963 77.8287 -13.1043C84.9251 -7.72251 91.7053 -1.85532 94.4976 7.07954C96.1655 12.4165 95.5066 17.5049 91.6209 21.9062C88.3945 25.5608 84.7117 28.6699 80.3444 30.7842C67.4031 37.0494 56.8096 46.4944 46.1498 55.8332C30.7737 69.3039 16.1199 83.6725 -1.82102 93.904C-9.87652 98.498 -18.3013 102.145 -27.5043 103.756C-28.8591 103.993 -30.2372 104.519 -31.668 103.169Z" fill="#FB5232"/>
<path d="M253.017 172.211C246.714 172.433 240.591 172.433 234.111 172.433C230.144 168.536 228.815 163.427 226.563 158.815C221.906 149.276 217.63 139.535 211.304 130.909C208.991 127.755 206.156 125.393 202.256 124.393C198.344 123.39 194.814 123.923 191.994 126.893C177.708 141.932 160.45 152.906 142.696 163.241C138.993 165.397 135.205 167.466 131.846 170.178C130.52 171.249 128.884 171.566 127.112 172.268C116.186 172.433 105.483 172.433 94.4232 172.433C93.223 170.65 94.7093 169.896 95.6754 169.022C105.871 159.793 116.756 151.473 128.197 143.827C141.127 135.186 154.428 127.087 166.695 117.458C174.229 111.544 182.07 106.033 189.919 100.529C199.24 93.9932 211.309 98.354 217.219 105.678C223.234 113.132 227.585 121.581 231.991 130C238.659 142.739 245.105 155.595 252.072 168.176C252.73 169.364 253.869 170.41 253.017 172.211Z" fill="#FC5231"/>
<path d="M-31.6668 84.8502C-31.8825 79.2913 -31.8825 73.9321 -31.8825 68.2151C-31.1559 67.0531 -30.2497 66.7222 -29.1684 66.7228C-20.1359 66.7279 -12.7955 62.4874 -5.7899 57.3958C4.75183 49.7341 12.9461 39.5964 22.3445 30.7289C25.7591 27.5071 29.3909 24.5827 33.1514 21.7782C37.1043 18.8303 40.0626 15.0128 39.4487 9.80776C38.8288 4.55184 35.0526 1.10394 31.1186 -1.95933C21.9148 -9.12619 11.206 -13.3343 0.351341 -17.1662C-7.73694 -20.0216 -16.1114 -21.8544 -24.4642 -23.7746C-26.7994 -24.3114 -29.341 -23.2751 -31.6702 -25.0748C-31.8825 -29.8638 -31.8825 -34.4598 -31.8825 -39.4134C-30.87 -41.02 -29.485 -41.0631 -28.1054 -40.791C-16.5234 -38.5066 -5.08755 -35.6719 6.29678 -31.4972C22.0045 -26.2574 36.7578 -19.6463 50.4029 -10.7724C55.6885 -7.33496 60.416 -3.07536 64.1596 2.04661C69.8788 9.87153 68.0355 18.5501 59.7301 24.3597C56.6114 26.5412 53.216 28.279 50.1341 30.5119C41.9393 36.4493 34.4701 43.2231 27.0842 50.5023C26.7612 50.8058 26.632 50.9241 26.2961 51.196C25.9414 51.4309 25.7936 51.5122 25.4389 51.7329C25.1075 51.9797 24.983 52.087 24.5395 52.564C24.1097 53.0512 23.9988 53.1688 23.7164 53.4574C22.5128 54.4084 21.8101 55.526 20.5898 56.4468C19.4336 57.0744 18.3856 57.4447 17.6666 58.6404C17.4743 58.9794 17.397 59.115 17.1845 59.4421C16.7434 59.9857 16.4167 60.3183 15.9327 60.8188C15.5514 61.1936 15.3127 61.3806 14.8575 61.6524C14.2757 61.992 13.897 62.2302 13.4347 62.7217C13.1879 62.998 13.0856 63.105 12.8146 63.3558C12.293 63.7649 11.9822 64.0766 11.5114 64.535C11.1301 64.8683 10.895 65.0359 10.4599 65.2987C10.1572 65.5043 10.0415 65.5965 9.77722 65.8568C8.97386 66.6779 8.36131 67.3766 7.39077 68.0362C6.65073 68.5351 6.1543 68.9704 5.32129 69.3538C4.97073 69.6031 4.83543 69.7125 4.50606 70.0058C4.18392 70.3202 4.05586 70.4507 3.72475 70.7734C-5.05472 77.1581 -14.0714 82.4683 -24.5304 84.8472C-26.8119 85.3661 -29.1028 86.4457 -31.6668 84.8502Z" fill="#FB5232"/>
<path d="M-31.6719 -9.04214C-31.8825 -13.834 -31.8825 -18.4301 -31.8825 -23.3836C-28.0466 -25.3851 -24.3242 -23.8607 -20.6893 -23.0701C-5.27292 -19.7167 9.60466 -14.7442 23.5274 -7.21792C28.4915 -4.53447 32.9603 -1.07117 36.6687 3.19818C41.306 8.5368 40.4714 16.4303 34.1964 21.0614C24.7096 28.0629 16.7345 36.5671 8.52834 44.9018C2.01094 51.5212 -4.84281 57.8223 -13.1434 62.2697C-18.8558 65.3303 -24.746 67.6176 -31.6503 66.517C-31.8825 60.9716 -31.8825 55.6124 -31.8825 49.8955C-30.8947 48.3449 -29.5786 48.4145 -28.1845 48.4196C-21.554 48.4439 -15.9826 45.6649 -11.2149 41.3509C-3.19443 34.0936 2.78251 25.0654 9.42799 16.6414C13.4806 11.5042 12.1816 6.7238 6.66002 2.86495C-0.351841 -2.03536 -8.52011 -3.75023 -16.5816 -5.83894C-21.4948 -7.11192 -26.5911 -7.4074 -31.6719 -9.04214Z" fill="#FB5232"/>
<path d="M231.645 172.206C226.104 172.433 220.745 172.433 215.028 172.433C213.46 171.612 212.93 170.36 212.347 169.073C209.889 163.648 207.106 158.407 203.321 153.752C198.69 148.057 192.259 148.451 188.61 154.719C184.922 161.054 181.457 167.552 175.176 172.245C160.713 172.433 146.448 172.433 131.826 172.433C130.677 170.022 132.678 169.369 134.082 168.466C141.772 163.523 149.636 158.857 157.475 154.159C169.187 147.139 180.322 139.225 189.387 129.096C197.215 120.348 206.942 124.292 211.774 131.351C216.41 138.124 220.098 145.372 223.693 152.702C226.353 158.123 228.813 163.635 231.353 169.111C231.769 170.008 232.406 170.903 231.645 172.206Z" fill="#FB5232"/>
<path d="M367.678 172.433C359.933 168.311 352.417 164.382 345.151 160.034C322.235 146.322 303.773 127.728 287.39 106.884C272.829 88.3595 260.487 68.3126 247.683 48.6022C238.254 34.0874 225.869 22.8282 211.6 13.5507C199.259 5.52622 188.736 7.04044 178.242 17.4025C177.428 18.2059 176.528 18.9686 175.898 19.9047C165.815 34.8777 151.166 44.6436 136.357 54.0604C117.292 66.1839 99.9518 80.3645 83.2699 95.5496C61.814 115.08 39.3811 133.441 13.7141 147.37C-0.380339 155.018 -15.3444 160.158 -31.5685 162.469C-31.8825 161.937 -31.8825 161.364 -31.8825 160.506C-18.5464 158.938 -6.07562 154.699 5.94665 149.016C27.6416 138.761 46.358 124.116 64.8091 109.058C78.9051 97.5537 91.7462 84.6248 105.855 73.1477C117.914 63.3381 131.246 55.3367 144.052 46.5896C154.906 39.1758 165.096 31.1966 173.06 20.4304C179.097 12.2681 186.921 6.16892 198.068 6.65754C204.868 6.95563 210.366 10.2806 215.832 13.8793C233.446 25.4763 246.059 41.4933 257.044 59.1901C269.317 78.9621 282.202 98.3536 297.364 116.103C318.005 140.265 342.17 159.651 372.087 171.246C372.675 171.474 373.214 171.827 373.99 172.277C372.143 172.433 370.082 172.433 367.678 172.433Z" fill="#FEA088"/>
<path d="M-31.8825 140.627C-4.06792 135.249 18.6402 120.176 40.1992 103.045C51.7428 93.8722 62.959 84.279 74.1603 74.6855C92.1898 59.2439 110.895 44.8695 132.976 35.5199C136.037 34.2238 138.652 32.1268 141.227 30.0562C150.365 22.7088 152.57 12.1357 147.158 1.70577C142.731 -6.82463 136.016 -13.4112 128.753 -19.4587C110.816 -34.3954 90.3995 -45.2702 69.4264 -55.1547C45.1046 -66.6175 19.9941 -76.0274 -5.9369 -83.1735C-14.2615 -85.4675 -22.5897 -87.8322 -31.5576 -88.6675C-31.8825 -89.1958 -31.8825 -89.7683 -31.8825 -90.6271C-28.9028 -91.2163 -25.9596 -91.2189 -22.9378 -89.6457C13.1691 -81.1748 47.4203 -68.4314 80.332 -52.0741C99.1554 -42.7188 117.289 -32.2068 133.164 -18.2101C139.308 -12.7922 144.791 -6.81516 148.71 0.444351C154.78 11.6891 152.651 22.645 143.003 30.9539C138.424 34.8973 133.382 38.0884 127.848 40.3912C112.868 46.6236 100.027 56.1295 87.5369 66.2237C66.8801 82.9176 47.5015 101.195 25.6482 116.404C9.15451 127.883 -8.21335 137.561 -28.2295 141.513C-29.2227 141.71 -30.2363 141.802 -31.5615 141.921C-31.8825 141.56 -31.8825 141.221 -31.8825 140.627Z" fill="#FE9F87"/>
<path d="M313.444 172.432C309.108 166.994 303.584 163.028 299.056 158.045C283.245 140.644 270.177 121.306 257.907 101.352C249.325 87.3967 241.656 72.8494 231.436 59.9415C225.136 51.9849 216.748 46.6574 207.935 42.0801C199.904 37.9088 191.909 39.2292 184.319 43.7584C180.147 46.248 176.179 49.0997 173.02 52.7571C163.267 64.0525 151.554 72.9494 138.99 80.7455C116.951 94.4202 97.4775 111.28 78.2387 128.513C60.3156 144.567 41.2953 159.216 20.3479 171.212C20.0259 171.396 19.7806 171.714 19.3798 172.201C18.1999 172.432 17.1397 172.432 15.7615 172.432C19.5413 168.768 24.6356 166.676 29.2037 163.75C51.4433 149.506 71.5713 132.585 90.8809 114.708C104.567 102.037 119.613 91.2925 135.087 81.0388C142.604 76.0583 150.214 71.2052 157.304 65.2029C157.683 64.5627 158.104 64.4361 158.68 64.1649C159.026 63.8352 159.239 63.6847 159.578 63.3844C159.899 63.0916 160.083 62.9343 160.388 62.6407C161.191 61.9213 161.86 61.3241 162.665 60.5472C162.937 60.1181 163.109 59.8967 163.506 59.6032C163.875 59.4006 164.032 59.2684 164.24 58.9695C164.454 58.6116 164.608 58.4014 164.933 58.0811C165.083 57.9556 165.052 57.9376 165.065 57.951C165.221 57.7719 165.381 57.5948 165.694 57.3157C165.829 57.1983 165.833 57.1863 165.839 57.1839C165.964 57.0499 166.083 56.9183 166.391 56.599C166.58 56.4113 166.582 56.4086 166.583 56.4072C166.936 55.9586 167.195 55.4254 167.894 55.0074C168.259 54.718 168.449 54.5545 168.722 54.2069C169.875 52.084 171.08 50.2601 173.382 49.0943C173.607 48.9751 173.608 48.8759 173.558 48.8753C173.757 48.4413 174.213 48.4063 174.801 48.1576C174.975 48.0228 174.984 48.0195 174.987 48.0149C175.153 47.8349 175.322 47.6637 175.633 47.3805C175.771 47.2641 175.738 47.2663 175.754 47.2733C176.145 46.5209 176.726 46.0614 177.734 45.8384C178.084 45.5013 178.301 45.357 178.65 45.0692C178.982 44.7853 179.161 44.6224 179.461 44.3241C179.603 44.2112 179.558 44.2205 179.575 44.2366C180.052 43.57 180.8 43.3094 181.676 42.8223C181.864 42.6852 181.852 42.6665 181.854 42.6761C182.017 42.4984 182.188 42.321 182.52 42.0468C182.671 41.9404 182.645 42.0222 182.685 42.0358C184.241 40.2794 186.311 39.6003 188.747 39.0477C189.279 38.9299 189.547 38.8864 190.007 38.7803C191.051 37.9984 192.087 37.7507 193.411 37.5327C194.141 37.5322 194.606 37.5624 195.298 37.5389C198.461 35.9855 201.292 37.7093 204.438 37.9864C204.7 38.2082 204.688 38.1111 204.686 38.161C206.713 38.8565 208.723 39.5459 210.704 40.9365C210.91 41.1066 211.103 41.1935 211.209 41.202C211.604 41.2796 211.861 41.411 212.227 41.7782C221.98 48.2079 231.05 54.8748 237.6 64.7321C247.526 79.6691 256.254 95.3222 265.888 110.427C280.021 132.586 295.59 153.54 315.457 170.995C315.733 171.237 315.892 171.612 316.148 172.179C315.378 172.432 314.564 172.432 313.444 172.432Z" fill="#FE9F87"/>
<path d="M-31.8825 121.576C-24.6034 121.293 -17.9308 118.774 -11.3558 116.1C5.93644 109.068 20.6384 97.9644 34.9547 86.2761C50.3142 73.7361 64.626 59.9508 80.5355 48.0611C87.4883 42.8651 94.7791 38.2857 102.664 34.6403C108.003 32.1721 113 29.1686 117.023 24.7651C122.861 18.375 123.874 11.4198 120.084 3.65639C115.894 -4.92987 109.1 -11.2501 101.734 -16.9659C84.6318 -30.2366 65.5039 -40.0011 45.7231 -48.5059C21.9628 -58.7218 -2.41318 -67.1157 -27.8505 -72.1571C-28.9692 -72.3788 -30.1101 -72.4885 -31.5616 -72.6219C-31.8825 -73.1661 -31.8825 -73.7386 -31.8825 -74.5973C14.2357 -65.6349 57.4594 -49.1587 96.7525 -23.029C105.136 -17.4538 112.806 -10.9436 118.671 -2.5822C127.784 10.4099 125.617 22.1925 112.604 31.2116C105.879 35.8726 98.1196 38.5905 91.2601 43.0139C75.1481 53.4039 61.2393 66.4976 46.748 78.8781C30.9698 92.3581 15.0328 105.608 -3.75076 114.859C-12.4666 119.151 -21.5119 122.447 -31.5575 123.589C-31.8825 123.007 -31.8825 122.435 -31.8825 121.576Z" fill="#FE9F87"/>
<path d="M279.095 172.433C276.357 167.22 272.526 162.93 269.354 158.208C257.502 140.562 247.52 121.823 237.106 103.335C233.924 97.6859 230.45 92.2206 226.869 86.81C222.203 79.7589 215.797 75.0208 208.177 71.6954C200.658 68.4139 193.518 69.6755 186.607 73.4902C178.528 77.95 171.681 84.023 164.872 90.1511C153.575 100.317 140.64 108.216 128.023 116.539C112.26 126.936 98.1492 139.338 84.1861 151.961C77.592 157.921 70.6133 163.457 63.8114 169.188C62.852 169.996 61.6595 170.586 61.2359 172.166C60.1825 172.433 59.1224 172.433 57.7441 172.433C61.5337 167.706 66.8076 164.331 71.5861 160.402C85.0447 149.336 97.1795 136.754 111.111 126.232C123.907 116.567 137.526 108.112 150.697 98.9977C160.458 92.2433 168.406 83.306 178.185 76.6042C180.595 74.9524 183.04 73.3403 185.547 71.8419C194.82 66.3005 203.914 66.6799 213.377 71.891C222.143 76.7183 227.973 84.066 232.829 92.3478C242.862 109.457 252.595 126.741 262.574 143.882C268.273 153.671 274.899 162.856 281.704 172.218C281.028 172.433 280.214 172.433 279.095 172.433Z" fill="#FEA087"/>
<path d="M-31.8825 103.257C-24.1706 103.037 -17.1609 100.314 -10.3592 97.169C5.27988 89.9378 18.3956 79.0718 31.2454 67.8292C43.5751 57.0416 55.2538 45.4554 68.9373 36.304C73.1504 33.4864 77.6939 31.1604 82.105 28.6425C84.5519 27.2458 86.7316 25.523 88.7612 23.5779C94.93 17.6662 96.0817 10.6253 91.8512 3.20362C87.1261 -5.08583 79.8522 -10.8717 72.121 -16.0799C51.3838 -30.0499 28.5413 -39.538 4.90962 -47.2965C-6.93882 -51.1865 -18.9421 -54.4833 -31.5764 -56.5287C-31.8825 -57.1363 -31.8825 -57.7088 -31.8825 -58.5676C-15.0253 -55.4956 1.54093 -51.0749 17.6476 -45.0444C38.541 -37.2216 58.897 -28.2989 76.9979 -14.9721C83.1647 -10.4318 88.922 -5.40383 92.948 1.23823C98.5611 10.4987 97.3417 18.6068 89.2448 25.7798C87.1645 27.6228 84.9163 29.4352 82.4452 30.6523C66.4633 38.5237 53.6403 50.5477 40.5227 62.1952C25.592 75.4524 10.838 88.9455 -7.29802 97.9064C-14.8768 101.651 -22.7804 104.359 -31.5599 105.256C-31.8825 104.688 -31.8825 104.115 -31.8825 103.257Z" fill="#FE9F87"/>
<path d="M253.123 172.433C252.589 170.04 250.959 168.292 249.904 166.292C241.186 149.763 232.44 133.249 223.623 116.773C221.401 112.621 218.742 108.724 215.577 105.209C208.727 97.6028 199.131 96.1839 190.417 101.484C183.341 105.788 176.795 110.853 170.315 115.968C154.113 128.755 136.217 139.066 119.485 151.069C110.602 157.443 101.879 164.029 94.1784 172.203C93.493 172.433 92.9205 172.433 92.0618 172.433C94.116 167.881 98.4522 165.278 102.126 162.09C116.581 149.542 132.842 139.514 148.806 129.08C161.169 121 172.398 111.372 184.524 102.97C185.046 102.608 185.562 102.234 186.066 101.847C200.286 90.9472 213 97.3328 220.716 108.541C226.788 117.362 231.539 126.944 236.448 136.435C242.58 148.29 248.856 160.071 255.098 172.158C254.554 172.433 253.981 172.433 253.123 172.433Z" fill="#FE9F87"/>
<path d="M19.789 55.7811C20.9118 54.7591 21.8619 53.9124 22.9532 52.8724C23.2478 52.4734 23.4102 52.2752 23.7321 51.9641C23.881 51.8424 23.8402 51.8289 23.8479 51.849C24.0026 51.6692 24.168 51.4858 24.4929 51.1988C24.6342 51.0786 24.6025 51.0615 24.6091 51.0782C24.7877 50.8799 24.9839 50.6898 25.3918 50.4397C33.536 43.0781 41.1836 35.4371 50.1438 29.3374C53.3941 27.1247 56.8692 25.2131 59.9646 22.8074C68.0421 16.5297 68.6518 8.43002 61.9126 0.732887C52.9778 -9.472 41.2591 -15.5891 29.3013 -21.2407C22.1972 -24.5982 14.7894 -27.3129 7.282 -30.4455C6.75873 -30.8784 6.64335 -31.2376 6.87412 -31.8907C25.1982 -26.0463 42.6109 -18.5159 57.6438 -6.32449C60.3194 -4.15457 62.6633 -1.66178 64.6983 1.1207C70.2888 8.76483 69.4846 16.8739 62.5562 23.2943C58.9762 26.6119 54.5131 28.5991 50.5939 31.4033C39.187 39.5648 29.5518 49.7326 19.1844 59.0718C8.30409 68.8732 -2.88378 78.2198 -16.8214 83.5461C-21.4884 85.3295 -26.3085 86.3258 -31.5628 86.9158C-31.8825 86.368 -31.8825 85.7955 -31.8825 84.9368C-22.4984 84.7331 -14.3949 80.7624 -6.48146 76.4002C-3.16464 74.5718 -0.172995 72.1535 3.12722 69.8139C3.37927 69.3592 3.51791 69.1215 3.8704 68.786C4.03696 68.6606 4.01663 68.7598 4.06617 68.7703C4.55796 68.0297 5.35579 67.7566 6.28226 67.2647C7.6188 66.6731 8.50418 65.9558 8.79516 64.4378C9.43272 64.5853 10.0029 64.2627 10.7474 63.7486C11.0968 63.0797 11.5144 62.9137 12.1292 62.6354C12.2793 62.4584 12.3248 62.4515 12.3315 62.4295C12.8009 62.0726 13.0284 61.4818 13.7618 61.1242C14.1428 60.8832 14.3298 60.7428 14.5974 60.4288C15.0253 59.7868 15.2956 59.2393 16.0705 58.8552C16.2659 58.7438 16.2118 58.7504 16.2369 58.761C17.2138 57.6351 18.1887 56.5261 19.789 55.7811Z" fill="#FE9F87"/>
<path d="M-31.8825 66.5853C-19.388 66.1952 -9.64133 59.967 -0.609137 52.1886C4.98606 47.3701 10.1329 42.0853 15.1988 36.7244C20.537 31.0752 26.2712 25.89 32.4387 21.1441C40.3242 15.076 40.5981 8.16489 33.4058 1.22325C26.5774 -5.36715 18.1025 -9.19962 9.48333 -12.6878C-3.6376 -17.998 -17.0999 -22.1374 -31.5631 -23.7267C-31.8825 -24.0803 -31.8825 -24.4196 -31.8825 -25.0133C-24.3537 -25.72 -17.2797 -23.3873 -10.2019 -21.4416C4.43575 -17.4175 18.6831 -12.3807 31.1341 -3.31562C31.7508 -2.86667 32.3605 -2.40416 32.9401 -1.90899C43.4708 7.08725 43.1315 15.683 31.9914 23.966C22.5431 30.991 15.0656 40.0959 6.61492 48.1746C-0.209446 54.6986 -7.29241 60.8499 -16.027 64.7951C-20.8694 66.9822 -25.8668 68.191 -31.5363 67.9064C-31.8825 67.5182 -31.8825 67.179 -31.8825 66.5853Z" fill="#FEA088"/>
<path d="M231.75 172.432C225.364 158.196 219.226 143.972 210.337 131.172C208.262 128.184 205.447 126.016 201.784 125.185C198.491 124.438 195.36 124.743 192.947 127.306C176.774 144.48 156.614 156.111 136.631 168.006C134.81 169.091 132.772 170.001 131.505 172.169C130.16 172.432 128.851 172.432 127.215 172.432C134.089 166.536 142.264 162.127 150.249 157.481C164.708 149.071 178.019 139.253 189.915 127.462C196.516 120.919 203.685 121.274 210.201 128.031C214.036 132.009 216.683 136.828 219.225 141.641C224.441 151.52 229.184 161.638 233.694 172.161C233.181 172.432 232.608 172.432 231.75 172.432Z" fill="#FEA086"/>
<path d="M427.422 165.324C427.663 165.81 427.654 166.169 427.638 166.797C402.306 161.906 378.801 152.267 356.918 138.54C322.246 116.791 296.364 86.5322 273.753 53.0523C262.722 36.7191 252.738 19.6923 241.055 3.79362C236.9 -1.86058 232.374 -7.16216 226.826 -11.5375C220.632 -16.4232 213.91 -18.3687 206.144 -15.8771C201.054 -14.2441 195.816 -13.1756 190.525 -12.3726C177.897 -10.4562 167.238 -14.5037 157.995 -22.979C147.778 -32.3463 137.679 -41.8532 126.21 -50.1394C125.939 -50.8356 126.104 -51.2316 126.883 -51.472C135.102 -46.4423 141.95 -40.1793 148.858 -34.0021C153.972 -29.4288 158.899 -24.652 164.374 -20.4855C171.54 -15.0323 179.601 -13.1547 188.435 -14.1333C193.628 -14.7086 198.816 -15.5297 203.716 -17.3047C214.505 -21.2122 223.339 -17.9966 231.246 -10.4899C238.964 -3.16184 244.979 5.5006 250.797 14.3069C265.017 35.8289 278.431 57.8975 294.437 78.2007C316.984 106.8 343.425 130.763 376.251 147.172C392.484 155.286 409.534 161.065 427.422 165.324Z" fill="#FE9F88"/>
<path d="M25.3988 50.4515C25.3839 50.5465 25.1885 50.7381 24.8044 51.0123C24.8165 50.9127 25.0174 50.7305 25.3988 50.4515Z" fill="#F05C42"/>
</g>
</svg>
