<svg width="22" height="22" viewBox="0 0 22 22" fill="none" xmlns="http://www.w3.org/2000/svg">
<path d="M9.58219 21.2454C8.76446 21.5113 8.06022 21.165 7.37306 20.9165C4.44598 19.858 2.31014 17.8989 1.01484 15.0678C0.132208 13.1387 -0.207903 11.0989 0.126325 8.99189C0.594134 6.04283 2.00396 3.62458 4.36891 1.78387C4.95886 1.3247 5.44053 1.31077 5.72383 1.7059C6.01159 2.10723 5.84785 2.55309 5.27184 2.99426C3.51972 4.33626 2.36962 6.072 1.82508 8.21837C0.653239 12.8373 3.06394 17.5125 7.44495 19.3622C8.05103 19.6181 8.18449 19.5391 8.19947 18.8874C8.26757 15.926 8.3294 12.9645 8.39994 10.0032C8.4138 9.42148 8.45187 8.84021 8.48738 8.25926C8.50337 7.99773 8.42377 7.83489 8.16386 7.71689C7.26486 7.30876 6.8862 6.53155 6.81303 5.60336C6.74209 4.70343 6.99744 3.82159 7.04736 2.92467C7.08699 2.2128 7.21976 1.50657 7.28978 0.795721C7.3218 0.470628 7.37476 0.168883 7.77113 0.1695C8.17588 0.170129 8.22923 0.475131 8.22839 0.802552C8.2252 2.03442 8.22579 3.26629 8.22621 4.49816C8.22627 4.64783 8.22909 4.79783 8.23958 4.94705C8.24857 5.07495 8.31081 5.17908 8.44847 5.1845C8.5864 5.18992 8.65812 5.09084 8.67237 4.96359C8.68713 4.83178 8.68802 4.69797 8.68814 4.56503C8.68926 3.31651 8.69022 2.06798 8.68808 0.819461C8.68754 0.500303 8.71372 0.178501 9.12199 0.166154C9.54556 0.153344 9.6268 0.464245 9.62596 0.815219C9.62304 2.03044 9.62227 3.24566 9.62068 4.46088C9.62057 4.54411 9.61088 4.62865 9.62215 4.71031C9.64731 4.89271 9.56254 5.18399 9.85424 5.17085C10.114 5.15916 10.0813 4.88436 10.0816 4.68935C10.0839 3.40755 10.0829 2.12573 10.0798 0.843928C10.0791 0.5539 10.0557 0.240276 10.4388 0.18233C10.8565 0.119151 10.9457 0.449351 10.984 0.747686C11.1131 1.75275 11.2282 2.76 11.3232 3.76881C11.3559 4.11626 11.352 4.4659 11.4467 4.80617C11.6995 5.71564 11.1574 7.34126 10.1235 7.72292C9.87957 7.81298 9.8092 7.98576 9.8153 8.22836C9.87756 10.7064 9.93374 13.1845 9.99577 15.6625C10.0341 17.1928 10.0804 18.7229 10.1212 20.2531C10.1323 20.6685 9.95621 20.9911 9.58219 21.2454Z" fill="#F5F3F4"/>
<path d="M14.7156 8.24103C14.628 9.98662 14.6164 11.6839 14.6092 13.3815C14.6078 13.7009 14.6739 13.9321 14.955 14.1442C15.7575 14.7496 16.1423 15.634 16.2749 16.5854C16.4547 17.8756 16.349 19.1495 15.5535 20.2637C14.6125 21.5816 13.2599 21.5934 12.3019 20.2997C11.1489 18.7426 11.1589 15.7793 12.4922 14.5421C13.1647 13.918 13.2542 13.3301 13.2304 12.5158C13.1645 10.2542 13.0561 7.99326 13.0645 5.7286C13.07 4.26595 12.9763 2.80253 12.9114 1.34014C12.8632 0.253678 13.5206 -0.248118 14.5344 0.119336C17.697 1.26563 19.9664 3.37943 21.2156 6.49807C22.8833 10.6617 21.8525 15.4374 18.4977 18.5844C18.1325 18.9269 17.6814 18.9415 17.3822 18.6442C17.0729 18.3368 17.0976 17.8691 17.4784 17.4999C18.722 16.2944 19.631 14.8878 20.1132 13.2149C20.5154 11.8194 20.6189 10.4061 20.3692 8.97312C19.8548 6.02003 18.2603 3.81802 15.7051 2.28853C15.5912 2.22034 15.4695 2.16518 15.3539 2.09976C15.0599 1.93347 14.9196 2.03392 14.8998 2.35522C14.8743 2.77013 14.8333 3.18457 14.8223 3.59983C14.7817 5.13018 14.7508 6.66079 14.7156 8.24103Z" fill="#F5F3F4"/>
</svg>
