<svg width="94" height="7" viewBox="0 0 94 7" fill="none" xmlns="http://www.w3.org/2000/svg">
<path d="M3.57543 3.15954C3.57543 2.58759 3.48789 2.17126 3.3128 1.91057C3.13771 1.64988 2.90036 1.51954 2.60076 1.51954C2.30117 1.51954 2.02491 1.63821 1.77201 1.87555C1.5191 2.1129 1.3265 2.41055 1.19421 2.76851C1.06192 3.12258 0.995777 3.48638 0.995777 3.8599C0.995777 4.36183 1.08721 4.77426 1.27008 5.0972C1.45685 5.42015 1.73504 5.58162 2.10468 5.58162C2.40428 5.58162 2.66886 5.45906 2.89842 5.21393C3.12798 4.9688 3.29723 4.66532 3.40618 4.30346C3.51901 3.94161 3.57543 3.56031 3.57543 3.15954ZM3.49372 5.29564C3.32641 5.48629 3.11631 5.63998 2.8634 5.75671C2.61438 5.87343 2.34008 5.9318 2.04048 5.9318C1.74477 5.9318 1.48214 5.86176 1.25257 5.72169C1.0269 5.58162 0.847923 5.39486 0.715633 5.1614C0.447163 4.68672 0.312927 4.14394 0.312927 3.53307C0.312927 2.9222 0.462726 2.37942 0.762324 1.90474C1.06192 1.42616 1.45101 1.111 1.92959 0.959253C1.99573 0.974816 2.0327 1.00594 2.04048 1.05263C1.76812 1.21994 1.54439 1.41643 1.3693 1.6421C1.1981 1.86777 1.07943 2.17321 1.01329 2.5584C1.1767 2.10317 1.43156 1.74521 1.77784 1.48452C2.12413 1.22383 2.48598 1.09349 2.8634 1.09349C3.24471 1.09349 3.56765 1.2569 3.83223 1.58374C4.1007 1.90668 4.23493 2.37553 4.23493 2.99029C4.23493 3.58949 4.12794 4.13227 3.91394 4.61863C3.8011 4.87542 3.66103 5.10109 3.49372 5.29564Z" fill="white"/>
<path d="M9.97692 3.57392C9.87575 3.7568 9.79015 3.99025 9.72012 4.27428C9.65008 4.55832 9.61506 4.82679 9.61506 5.07969C9.61506 5.3326 9.62674 5.568 9.65008 5.78589C9.54892 5.79367 9.48861 5.79756 9.46916 5.79756C9.13065 5.79756 8.9614 5.6322 8.9614 5.30147C8.9614 5.18086 9.00225 4.88126 9.08396 4.40268C9.16956 3.9241 9.21236 3.56614 9.21236 3.3288C9.21236 3.08756 9.12287 2.96695 8.94389 2.96695C8.72211 2.96695 8.49644 3.18095 8.26687 3.60894C8.03731 4.03694 7.92253 4.55637 7.92253 5.16724C7.92253 5.36178 7.9342 5.568 7.95755 5.78589C7.85639 5.79367 7.79608 5.79756 7.77662 5.79756C7.43812 5.79756 7.26886 5.6322 7.26886 5.30147C7.26886 5.25868 7.30777 4.9688 7.38559 4.43186C7.4673 3.89492 7.50815 3.47082 7.50815 3.15954C7.50815 2.84438 7.47508 2.55646 7.40893 2.29577C7.64239 2.38526 7.80386 2.51366 7.89335 2.68097C7.98673 2.84827 8.03342 3.05449 8.03342 3.29962C8.03342 3.42413 8.0198 3.58171 7.99257 3.77236C8.12486 3.38327 8.30773 3.06033 8.54118 2.80353C8.77463 2.54673 8.98863 2.41833 9.18318 2.41833C9.61895 2.41833 9.83684 2.75489 9.83684 3.42802C9.98081 3.11675 10.1462 2.87162 10.3329 2.69264C10.5236 2.50977 10.7006 2.41833 10.864 2.41833C11.1014 2.41833 11.2687 2.49031 11.366 2.63428C11.4632 2.77435 11.5119 2.96695 11.5119 3.21207C11.5119 3.45331 11.473 3.79376 11.3951 4.23343C11.3212 4.6731 11.2843 4.9941 11.2843 5.19642C11.2843 5.39486 11.3095 5.54076 11.3601 5.63414C11.4107 5.72364 11.4963 5.80145 11.6169 5.8676C11.5663 5.87149 11.4944 5.87343 11.401 5.87343C11.152 5.87343 10.9671 5.82285 10.8465 5.72169C10.7298 5.61664 10.6714 5.4396 10.6714 5.19058C10.6714 5.04662 10.7103 4.75675 10.7882 4.32097C10.866 3.8813 10.9049 3.55836 10.9049 3.35214C10.9049 3.09535 10.8154 2.96695 10.6364 2.96695C10.5353 2.96695 10.4263 3.02142 10.3096 3.13036C10.1929 3.23931 10.082 3.38716 9.97692 3.57392Z" fill="white"/>
<path d="M14.0538 2.72182C13.8203 2.72182 13.6219 2.85606 13.4585 3.12453C13.2989 3.393 13.1919 3.70816 13.1375 4.07001H13.3009C13.5071 4.07001 13.6861 4.04083 13.8378 3.98247C13.9896 3.9241 14.1063 3.84823 14.188 3.75485C14.3436 3.57587 14.4215 3.37354 14.4215 3.14787C14.4215 3.01947 14.3903 2.91637 14.3281 2.83855C14.2697 2.76073 14.1783 2.72182 14.0538 2.72182ZM14.8767 5.08553C14.6977 5.37735 14.5012 5.58162 14.2872 5.69834C14.0732 5.81507 13.8242 5.87343 13.5402 5.87343C13.26 5.87343 13.0149 5.74893 12.8048 5.49991C12.5947 5.25089 12.4896 4.90071 12.4896 4.44937C12.4896 3.93578 12.6278 3.47665 12.904 3.072C13.0402 2.87746 13.2172 2.71988 13.4351 2.59926C13.6569 2.47864 13.9001 2.41833 14.1647 2.41833C14.7483 2.41833 15.0401 2.70042 15.0401 3.2646C15.0401 3.60311 14.9078 3.86963 14.6432 4.06417C14.3825 4.25483 14.0791 4.35015 13.7328 4.35015C13.5032 4.35015 13.297 4.32875 13.1141 4.28596C13.1102 4.32486 13.1083 4.38517 13.1083 4.46688C13.1083 5.15557 13.3126 5.49991 13.7211 5.49991C14.1063 5.49991 14.4195 5.30926 14.6607 4.92795C14.8047 4.9474 14.8767 4.99993 14.8767 5.08553Z" fill="white"/>
<path d="M15.8688 5.35984C15.8649 5.29758 15.863 5.19837 15.863 5.06219C15.863 4.92211 15.9272 4.3307 16.0556 3.28794C16.1879 2.24519 16.254 1.52927 16.254 1.14018C16.254 0.75109 16.2307 0.498183 16.184 0.381457C16.4019 0.463165 16.5556 0.583783 16.645 0.743309C16.7345 0.902835 16.7793 1.09543 16.7793 1.3211C16.7793 1.54678 16.7229 2.13041 16.61 3.072C16.4972 4.01359 16.4408 4.77232 16.4408 5.34817C16.4408 5.47267 16.4486 5.64776 16.4641 5.87343C16.2501 5.85787 16.0984 5.80729 16.0089 5.72169C15.935 5.65165 15.8883 5.53104 15.8688 5.35984Z" fill="white"/>
<path d="M18.4066 3.98247C18.535 3.5428 18.7315 3.17316 18.9961 2.87357C19.2646 2.57008 19.5155 2.41833 19.749 2.41833C19.9824 2.41833 20.1478 2.49031 20.2451 2.63428C20.3423 2.77435 20.391 2.96695 20.391 3.21207C20.391 3.45331 20.3521 3.79376 20.2742 4.23343C20.2003 4.6731 20.1633 4.9941 20.1633 5.19642C20.1633 5.39486 20.1886 5.54076 20.2392 5.63414C20.2898 5.72364 20.3754 5.80145 20.496 5.8676C20.4454 5.87149 20.3735 5.87343 20.2801 5.87343C20.0311 5.87343 19.8462 5.82285 19.7256 5.72169C19.6089 5.61664 19.5505 5.4396 19.5505 5.19058C19.5505 5.04662 19.5894 4.75675 19.6673 4.32097C19.7451 3.8813 19.784 3.55836 19.784 3.35214C19.784 3.09535 19.6945 2.96695 19.5155 2.96695C19.4105 2.96695 19.2937 3.02336 19.1653 3.1362C19.0369 3.24514 18.9124 3.39494 18.7918 3.5856C18.6751 3.77236 18.5759 4.01165 18.4942 4.30346C18.4163 4.59139 18.3774 4.87737 18.3774 5.1614C18.3774 5.44155 18.3891 5.64971 18.4124 5.78589C18.3191 5.79367 18.2665 5.79756 18.2549 5.79756C18.072 5.79756 17.9358 5.75865 17.8463 5.68084C17.7607 5.60302 17.7179 5.4824 17.7179 5.31898C17.7179 5.15168 17.7529 4.83262 17.823 4.36183C18.0292 2.91442 18.1323 1.81525 18.1323 1.06431C18.1323 0.7258 18.109 0.498183 18.0623 0.381457C18.2879 0.463165 18.4455 0.583783 18.535 0.743309C18.6284 0.902835 18.6751 1.12267 18.6751 1.40281C18.6751 1.59736 18.6362 2.0059 18.5584 2.62844C18.4844 3.25098 18.4338 3.70232 18.4066 3.98247Z" fill="white"/>
<path d="M23.6423 3.87158C23.6423 3.49027 23.5937 3.21791 23.4964 3.05449C23.403 2.88718 23.2669 2.80353 23.0879 2.80353C22.9128 2.80353 22.7358 2.89107 22.5568 3.06616C22.3778 3.23736 22.2358 3.45136 22.1307 3.70816C22.0296 3.96107 21.979 4.22565 21.979 4.5019C21.979 4.77426 22.0315 5.0116 22.1366 5.21393C22.2416 5.41236 22.4011 5.51158 22.6151 5.51158C22.9186 5.51158 23.1657 5.3326 23.3564 4.97464C23.547 4.61668 23.6423 4.24899 23.6423 3.87158ZM21.9498 3.64396C22.0977 3.22374 22.2961 2.91831 22.5451 2.72766C22.798 2.53311 23.0529 2.43584 23.3097 2.43584C23.5704 2.43584 23.7863 2.55062 23.9575 2.78018C24.1287 3.00586 24.2143 3.31324 24.2143 3.70232C24.2143 4.13032 24.1326 4.52719 23.9692 4.89293C23.7863 5.29758 23.5217 5.57967 23.1754 5.7392C22.9887 5.82869 22.7825 5.87343 22.5568 5.87343C22.2416 5.87343 21.9654 5.74309 21.728 5.4824C21.4907 5.21782 21.372 4.84235 21.372 4.35599C21.372 3.86574 21.4771 3.44163 21.6872 3.08367C21.8973 2.72571 22.1833 2.4767 22.5451 2.33662C22.6229 2.33662 22.6618 2.37553 22.6618 2.45335C22.2766 2.70626 22.0393 3.10313 21.9498 3.64396Z" fill="white"/>
<path d="M25.9196 3.88909C26.0597 3.38327 26.227 3.01169 26.4215 2.77435C26.62 2.53311 26.8028 2.4125 26.9701 2.4125C27.1413 2.4125 27.2697 2.4767 27.3553 2.60509C27.4409 2.7296 27.4837 2.88913 27.4837 3.08367C27.4837 3.27822 27.4331 3.44747 27.332 3.59143C27.2308 3.7315 27.083 3.80154 26.8884 3.80154C26.8262 3.80154 26.7775 3.79765 26.7425 3.78987C26.8748 3.59921 26.941 3.40467 26.941 3.20624C26.941 3.06616 26.8845 2.99613 26.7717 2.99613C26.6822 2.99613 26.5869 3.04866 26.4857 3.15371C26.3846 3.25876 26.2873 3.40467 26.1939 3.59143C26.1005 3.77819 26.0227 4.02137 25.9605 4.32097C25.8982 4.62057 25.8671 4.94351 25.8671 5.2898C25.8671 5.32871 25.8768 5.49407 25.8963 5.78589C25.7951 5.79367 25.7367 5.79756 25.7212 5.79756C25.3788 5.79756 25.2076 5.63025 25.2076 5.29564C25.2076 5.21782 25.2484 4.91822 25.3301 4.39684C25.4118 3.87547 25.4527 3.46109 25.4527 3.15371C25.4527 2.84244 25.4196 2.55646 25.3535 2.29577C25.583 2.38526 25.7426 2.51366 25.8321 2.68097C25.9254 2.84438 25.9721 3.03698 25.9721 3.25876C25.9721 3.47665 25.9546 3.68676 25.9196 3.88909Z" fill="white"/>
<path d="M30.5009 4.60695C30.5009 4.82873 30.5437 5.00966 30.6293 5.14973C30.7149 5.2898 30.8472 5.35984 31.0262 5.35984C31.2091 5.35984 31.3744 5.28007 31.5223 5.12055C31.674 4.95713 31.7946 4.73924 31.8841 4.46688C31.9775 4.19063 32.0573 3.89881 32.1234 3.59143C32.1935 3.28016 32.244 2.94944 32.2752 2.59926C32.3335 1.94948 32.3627 1.43394 32.3627 1.05263C32.3627 0.671327 32.3471 0.387293 32.316 0.200531C32.7168 0.32893 32.9172 0.731636 32.9172 1.40865C32.9172 1.6849 32.851 2.2413 32.7187 3.07784C32.5903 3.91438 32.5261 4.52524 32.5261 4.91044C32.5261 5.29564 32.5436 5.62247 32.5787 5.89094C32.3569 5.81702 32.2051 5.68473 32.1234 5.49407C32.0417 5.30342 32.0009 5.06024 32.0009 4.76453C31.8802 5.09915 31.7013 5.36373 31.4639 5.55827C31.2266 5.75282 30.9795 5.85009 30.7227 5.85009C30.4698 5.85009 30.2636 5.75282 30.1041 5.55827C29.9484 5.35984 29.8706 5.06997 29.8706 4.68866C29.8706 4.05445 30.036 3.53307 30.3667 3.12453C30.7013 2.71598 31.1157 2.51171 31.6098 2.51171C31.7499 2.51171 31.8997 2.53311 32.0592 2.57591C31.7946 2.61871 31.5573 2.71598 31.3472 2.86773C31.1371 3.01558 30.9737 3.19067 30.8569 3.393C30.6196 3.80543 30.5009 4.21008 30.5009 4.60695Z" fill="white"/>
<path d="M35.9358 3.87158C35.9358 3.49027 35.8871 3.21791 35.7899 3.05449C35.6965 2.88718 35.5603 2.80353 35.3813 2.80353C35.2062 2.80353 35.0292 2.89107 34.8502 3.06616C34.6712 3.23736 34.5292 3.45136 34.4242 3.70816C34.323 3.96107 34.2724 4.22565 34.2724 4.5019C34.2724 4.77426 34.3249 5.0116 34.43 5.21393C34.5351 5.41236 34.6946 5.51158 34.9086 5.51158C35.2121 5.51158 35.4591 5.3326 35.6498 4.97464C35.8404 4.61668 35.9358 4.24899 35.9358 3.87158ZM34.2432 3.64396C34.3911 3.22374 34.5895 2.91831 34.8385 2.72766C35.0914 2.53311 35.3463 2.43584 35.6031 2.43584C35.8638 2.43584 36.0797 2.55062 36.2509 2.78018C36.4221 3.00586 36.5077 3.31324 36.5077 3.70232C36.5077 4.13032 36.426 4.52719 36.2626 4.89293C36.0797 5.29758 35.8152 5.57967 35.4689 5.7392C35.2821 5.82869 35.0759 5.87343 34.8502 5.87343C34.5351 5.87343 34.2588 5.74309 34.0215 5.4824C33.7841 5.21782 33.6654 4.84235 33.6654 4.35599C33.6654 3.86574 33.7705 3.44163 33.9806 3.08367C34.1907 2.72571 34.4767 2.4767 34.8385 2.33662C34.9164 2.33662 34.9553 2.37553 34.9553 2.45335C34.5701 2.70626 34.3327 3.10313 34.2432 3.64396Z" fill="white"/>
<path d="M40.6356 2.89107C40.7523 2.99613 40.8807 3.10118 41.0208 3.20624C41.1647 3.3074 41.3067 3.41051 41.4468 3.51556C41.5908 3.62061 41.7211 3.72761 41.8378 3.83656C42.1024 4.08168 42.2347 4.3521 42.2347 4.64781C42.2347 5.01355 42.0946 5.31898 41.8145 5.56411C41.5382 5.80923 41.1725 5.9318 40.7173 5.9318C40.262 5.9318 39.9119 5.82869 39.6667 5.62247C39.4216 5.41626 39.299 5.17113 39.299 4.8871C39.299 4.67699 39.3613 4.50774 39.4858 4.37934C39.6103 4.24705 39.7718 4.1809 39.9702 4.1809C40.0247 4.1809 40.0772 4.18868 40.1278 4.20425C40.0072 4.38712 39.9469 4.58361 39.9469 4.79372C39.9469 4.99993 40.0189 5.17697 40.1628 5.32482C40.3068 5.47267 40.5227 5.5466 40.8106 5.5466C41.0169 5.5466 41.1997 5.48435 41.3593 5.35984C41.5227 5.23144 41.6044 5.0544 41.6044 4.82873C41.6044 4.68088 41.5558 4.53692 41.4585 4.39684C41.3612 4.25288 41.2406 4.12643 41.0966 4.01748C40.9527 3.90854 40.7951 3.78792 40.6239 3.65563C40.4527 3.51945 40.2951 3.38911 40.1511 3.2646C40.0072 3.14009 39.8866 2.98835 39.7893 2.80937C39.692 2.63039 39.6434 2.44362 39.6434 2.24908C39.6434 1.87945 39.7679 1.58763 40.0169 1.37363C40.2698 1.15574 40.6336 1.0468 41.1083 1.0468C41.4935 1.0468 41.795 1.14991 42.0129 1.35612C42.2347 1.55845 42.3456 1.7705 42.3456 1.99228C42.3456 2.21017 42.2853 2.38915 42.1647 2.52922C42.0479 2.66929 41.8865 2.73933 41.6803 2.73933C41.6102 2.73933 41.5421 2.73155 41.476 2.71598C41.6666 2.51366 41.762 2.29966 41.762 2.07399C41.762 1.84832 41.6919 1.67907 41.5519 1.56623C41.4118 1.4495 41.2328 1.39114 41.0149 1.39114C40.8009 1.39114 40.618 1.45339 40.4663 1.5779C40.3146 1.70241 40.2387 1.89112 40.2387 2.14403C40.2387 2.39693 40.371 2.64595 40.6356 2.89107Z" fill="white"/>
<path d="M45.4033 2.40666C45.7379 2.40666 45.9052 2.5798 45.9052 2.92609C45.9052 2.98835 45.8682 3.26265 45.7943 3.74901C45.7204 4.23148 45.6834 4.64586 45.6834 4.99215C45.6834 5.33844 45.7204 5.64387 45.7943 5.90845C45.557 5.81507 45.3916 5.68278 45.2982 5.51158C45.2087 5.34038 45.164 5.12833 45.164 4.87542C45.164 4.77815 45.1854 4.55832 45.2282 4.21592C45.1115 4.65948 44.9305 5.033 44.6854 5.33649C44.4403 5.63609 44.2127 5.78589 44.0026 5.78589C43.559 5.78589 43.3372 5.46295 43.3372 4.81706C43.3372 4.60306 43.3684 4.30541 43.4306 3.9241C43.4968 3.53891 43.5298 3.24709 43.5298 3.04866C43.5298 2.85022 43.5026 2.64984 43.4481 2.44751C43.6971 2.44751 43.8839 2.49031 44.0084 2.57591C44.1329 2.66151 44.1952 2.82687 44.1952 3.072C44.1952 3.20429 44.1543 3.47665 44.0726 3.88909C43.9909 4.30152 43.95 4.60695 43.95 4.80539C43.95 5.09331 44.0395 5.23728 44.2185 5.23728C44.3664 5.23728 44.5201 5.12249 44.6796 4.89293C44.843 4.65948 44.9792 4.35794 45.0881 3.9883C45.1971 3.61867 45.2515 3.25293 45.2515 2.89107C45.2515 2.72766 45.2399 2.57008 45.2165 2.41833C45.3021 2.41055 45.3644 2.40666 45.4033 2.40666Z" fill="white"/>
<path d="M48.1431 2.70431C48.0147 2.70431 47.898 2.74517 47.7929 2.82687C47.6918 2.90858 47.6412 3.02142 47.6412 3.16538C47.6412 3.30545 47.6879 3.43774 47.7813 3.56225C47.8785 3.68676 47.9953 3.79765 48.1314 3.89492C48.2676 3.99219 48.4058 4.09141 48.5458 4.19257C48.8727 4.43381 49.0361 4.69255 49.0361 4.9688C49.0361 5.24506 48.9252 5.47073 48.7034 5.64582C48.4816 5.81702 48.1976 5.90262 47.8513 5.90262C47.5089 5.90262 47.2424 5.83453 47.0517 5.69834C46.865 5.56216 46.7716 5.40264 46.7716 5.21977C46.7716 5.033 46.8183 4.8871 46.9117 4.78204C47.005 4.67699 47.1179 4.62446 47.2502 4.62446C47.3202 4.62446 47.3863 4.64003 47.4486 4.67115C47.363 4.7801 47.3202 4.9085 47.3202 5.05635C47.3202 5.2042 47.3649 5.32871 47.4544 5.42987C47.5478 5.53104 47.6743 5.58162 47.8338 5.58162C47.9972 5.58162 48.1353 5.54076 48.2482 5.45906C48.361 5.37346 48.4174 5.26646 48.4174 5.13806C48.4174 5.00966 48.3844 4.89682 48.3182 4.79955C48.2521 4.70228 48.1684 4.61863 48.0672 4.54859C47.97 4.47855 47.863 4.40074 47.7462 4.31514C47.6295 4.22954 47.5206 4.14588 47.4194 4.06417C47.3221 3.97858 47.2404 3.87352 47.1743 3.74901C47.1081 3.62061 47.0751 3.48054 47.0751 3.3288C47.0751 3.05255 47.1801 2.82687 47.3902 2.65179C47.6003 2.47281 47.8649 2.38331 48.184 2.38331C48.503 2.38331 48.7365 2.44946 48.8843 2.58175C49.0322 2.71404 49.1061 2.86384 49.1061 3.03115C49.1061 3.19456 49.0653 3.33074 48.9836 3.43969C48.9018 3.54474 48.7968 3.59727 48.6684 3.59727C48.6061 3.59727 48.5341 3.57976 48.4524 3.54474C48.5536 3.42023 48.6042 3.286 48.6042 3.14204C48.6042 2.99807 48.5594 2.88913 48.47 2.8152C48.3844 2.74128 48.2754 2.70431 48.1431 2.70431Z" fill="white"/>
<path d="M50.6933 3.98247C50.8217 3.5428 51.0182 3.17316 51.2828 2.87357C51.5513 2.57008 51.8022 2.41833 52.0357 2.41833C52.2691 2.41833 52.4345 2.49031 52.5318 2.63428C52.629 2.77435 52.6777 2.96695 52.6777 3.21207C52.6777 3.45331 52.6388 3.79376 52.5609 4.23343C52.487 4.6731 52.4501 4.9941 52.4501 5.19642C52.4501 5.39486 52.4753 5.54076 52.5259 5.63414C52.5765 5.72364 52.6621 5.80145 52.7827 5.8676C52.7321 5.87149 52.6602 5.87343 52.5668 5.87343C52.3178 5.87343 52.1329 5.82285 52.0123 5.72169C51.8956 5.61664 51.8372 5.4396 51.8372 5.19058C51.8372 5.04662 51.8761 4.75675 51.954 4.32097C52.0318 3.8813 52.0707 3.55836 52.0707 3.35214C52.0707 3.09535 51.9812 2.96695 51.8022 2.96695C51.6972 2.96695 51.5804 3.02336 51.452 3.1362C51.3236 3.24514 51.1991 3.39494 51.0785 3.5856C50.9618 3.77236 50.8626 4.01165 50.7809 4.30346C50.703 4.59139 50.6641 4.87737 50.6641 5.1614C50.6641 5.44155 50.6758 5.64971 50.6992 5.78589C50.6058 5.79367 50.5532 5.79756 50.5416 5.79756C50.3587 5.79756 50.2225 5.75865 50.133 5.68084C50.0474 5.60302 50.0046 5.4824 50.0046 5.31898C50.0046 5.15168 50.0396 4.83262 50.1097 4.36183C50.3159 2.91442 50.419 1.81525 50.419 1.06431C50.419 0.7258 50.3957 0.498183 50.349 0.381457C50.5746 0.463165 50.7322 0.583783 50.8217 0.743309C50.9151 0.902835 50.9618 1.12267 50.9618 1.40281C50.9618 1.59736 50.9229 2.0059 50.8451 2.62844C50.7711 3.25098 50.7206 3.70232 50.6933 3.98247Z" fill="white"/>
<path d="M54.47 5.87343C54.2482 5.79562 54.0925 5.67694 54.0031 5.51742C53.9175 5.354 53.8747 5.15751 53.8747 4.92795C53.8747 4.69839 53.9058 4.36961 53.968 3.94161C54.0303 3.51362 54.0614 3.18094 54.0614 2.9436C54.0614 2.70626 54.0497 2.52339 54.0264 2.39499C54.0964 2.38721 54.1529 2.38331 54.1957 2.38331C54.3707 2.38331 54.4972 2.42222 54.575 2.50004C54.6528 2.57786 54.6917 2.70626 54.6917 2.88524C54.6917 2.9436 54.6431 3.25098 54.5458 3.80738C54.4525 4.35988 54.4038 4.81706 54.3999 5.17891C54.3999 5.53687 54.4233 5.76838 54.47 5.87343ZM54.5575 1.80552C54.2307 1.80552 54.0673 1.69463 54.0673 1.47285C54.0673 1.39503 54.0964 1.28609 54.1548 1.14601C54.2404 1.13045 54.3143 1.12267 54.3766 1.12267C54.7034 1.12267 54.8668 1.23356 54.8668 1.45534C54.8668 1.53316 54.8377 1.6421 54.7793 1.78217C54.6937 1.79774 54.6198 1.80552 54.5575 1.80552Z" fill="white"/>
<path d="M55.9716 4.93379C56.2206 4.93379 56.3451 5.05246 56.3451 5.2898C56.3451 5.52715 56.2634 5.75476 56.1 5.97265C55.9366 6.19054 55.6992 6.38508 55.388 6.55628L55.2479 6.38119C55.5358 6.10494 55.6798 5.78978 55.6798 5.43571C55.6798 5.30731 55.6506 5.1614 55.5922 4.99799C55.7206 4.95519 55.8471 4.93379 55.9716 4.93379Z" fill="white"/>
<path d="M60.5943 2.72182C60.3609 2.72182 60.1624 2.85606 59.999 3.12453C59.8395 3.393 59.7325 3.70816 59.678 4.07001H59.8414C60.0476 4.07001 60.2266 4.04083 60.3784 3.98247C60.5301 3.9241 60.6468 3.84823 60.7286 3.75485C60.8842 3.57587 60.962 3.37354 60.962 3.14787C60.962 3.01947 60.9309 2.91637 60.8686 2.83855C60.8103 2.76073 60.7188 2.72182 60.5943 2.72182ZM61.4172 5.08553C61.2383 5.37735 61.0418 5.58162 60.8278 5.69834C60.6138 5.81507 60.3648 5.87343 60.0807 5.87343C59.8006 5.87343 59.5555 5.74893 59.3453 5.49991C59.1352 5.25089 59.0302 4.90071 59.0302 4.44937C59.0302 3.93578 59.1683 3.47665 59.4446 3.072C59.5807 2.87746 59.7578 2.71988 59.9757 2.59926C60.1974 2.47864 60.4406 2.41833 60.7052 2.41833C61.2888 2.41833 61.5807 2.70042 61.5807 3.2646C61.5807 3.60311 61.4484 3.86963 61.1838 4.06417C60.9231 4.25483 60.6196 4.35015 60.2733 4.35015C60.0438 4.35015 59.8375 4.32875 59.6547 4.28596C59.6508 4.32486 59.6488 4.38517 59.6488 4.46688C59.6488 5.15557 59.8531 5.49991 60.2616 5.49991C60.6468 5.49991 60.9601 5.30926 61.2013 4.92795C61.3453 4.9474 61.4172 4.99993 61.4172 5.08553Z" fill="white"/>
<path d="M65.1349 3.57392C65.0338 3.7568 64.9482 3.99025 64.8781 4.27428C64.8081 4.55832 64.7731 4.82679 64.7731 5.07969C64.7731 5.3326 64.7847 5.568 64.8081 5.78589C64.7069 5.79367 64.6466 5.79756 64.6272 5.79756C64.2887 5.79756 64.1194 5.6322 64.1194 5.30147C64.1194 5.18086 64.1603 4.88126 64.242 4.40268C64.3276 3.9241 64.3704 3.56614 64.3704 3.3288C64.3704 3.08756 64.2809 2.96695 64.1019 2.96695C63.8801 2.96695 63.6544 3.18095 63.4249 3.60894C63.1953 4.03694 63.0805 4.55637 63.0805 5.16724C63.0805 5.36178 63.0922 5.568 63.1156 5.78589C63.0144 5.79367 62.9541 5.79756 62.9346 5.79756C62.5961 5.79756 62.4269 5.6322 62.4269 5.30147C62.4269 5.25868 62.4658 4.9688 62.5436 4.43186C62.6253 3.89492 62.6662 3.47082 62.6662 3.15954C62.6662 2.84438 62.6331 2.55646 62.5669 2.29577C62.8004 2.38526 62.9619 2.51366 63.0514 2.68097C63.1447 2.84827 63.1914 3.05449 63.1914 3.29962C63.1914 3.42413 63.1778 3.58171 63.1506 3.77236C63.2829 3.38327 63.4657 3.06033 63.6992 2.80353C63.9326 2.54673 64.1466 2.41833 64.3412 2.41833C64.777 2.41833 64.9949 2.75489 64.9949 3.42802C65.1388 3.11675 65.3042 2.87162 65.4909 2.69264C65.6816 2.50977 65.8586 2.41833 66.022 2.41833C66.2594 2.41833 66.4267 2.49031 66.524 2.63428C66.6212 2.77435 66.6699 2.96695 66.6699 3.21207C66.6699 3.45331 66.631 3.79376 66.5532 4.23343C66.4792 4.6731 66.4423 4.9941 66.4423 5.19642C66.4423 5.39486 66.4676 5.54076 66.5181 5.63414C66.5687 5.72364 66.6543 5.80145 66.7749 5.8676C66.7243 5.87149 66.6524 5.87343 66.559 5.87343C66.31 5.87343 66.1252 5.82285 66.0045 5.72169C65.8878 5.61664 65.8294 5.4396 65.8294 5.19058C65.8294 5.04662 65.8684 4.75675 65.9462 4.32097C66.024 3.8813 66.0629 3.55836 66.0629 3.35214C66.0629 3.09535 65.9734 2.96695 65.7944 2.96695C65.6933 2.96695 65.5843 3.02142 65.4676 3.13036C65.3509 3.23931 65.24 3.38716 65.1349 3.57392Z" fill="white"/>
<path d="M71.6401 3.80154L71.1207 3.7957C70.9301 3.7957 70.7841 3.7996 70.683 3.80738C70.6207 4.36766 70.5896 4.81901 70.5896 5.1614C70.5896 5.49991 70.6013 5.73725 70.6246 5.87343C70.5235 5.88122 70.469 5.88511 70.4612 5.88511C70.2822 5.88511 70.148 5.8462 70.0585 5.76838C69.9729 5.69056 69.9301 5.55827 69.9301 5.37151C69.9301 5.18475 69.9865 4.69255 70.0993 3.89492C69.9904 3.92216 69.897 3.95134 69.8192 3.98247C69.8114 3.91243 69.8075 3.85601 69.8075 3.81321C69.8075 3.57587 69.9282 3.42802 70.1694 3.36965C70.2589 2.71598 70.3075 2.19655 70.3153 1.81136C70.1636 1.81136 70.0604 1.7919 70.006 1.75299C69.9515 1.71019 69.9243 1.63043 69.9243 1.5137C69.9243 1.39309 69.9398 1.28998 69.971 1.20438C70.3717 1.25885 70.8075 1.28609 71.2783 1.28609C71.7491 1.28609 72.1985 1.24329 72.6265 1.15769C72.5759 1.47285 72.3561 1.66156 71.967 1.72381C71.7374 1.76272 71.3892 1.78996 70.9223 1.80552C70.9223 1.98839 70.862 2.50199 70.7413 3.34631C70.9826 3.35409 71.1577 3.35798 71.2666 3.35798C71.609 3.35798 71.8522 3.30156 71.9962 3.18873C72.0039 3.25098 72.0078 3.30156 72.0078 3.34047C72.0078 3.64785 71.8853 3.80154 71.6401 3.80154Z" fill="white"/>
<path d="M74.2271 2.72182C73.9937 2.72182 73.7952 2.85606 73.6318 3.12453C73.4723 3.393 73.3653 3.70816 73.3108 4.07001H73.4743C73.6805 4.07001 73.8595 4.04083 74.0112 3.98247C74.1629 3.9241 74.2797 3.84823 74.3614 3.75485C74.517 3.57587 74.5948 3.37354 74.5948 3.14787C74.5948 3.01947 74.5637 2.91637 74.5014 2.83855C74.4431 2.76073 74.3516 2.72182 74.2271 2.72182ZM75.0501 5.08553C74.8711 5.37735 74.6746 5.58162 74.4606 5.69834C74.2466 5.81507 73.9976 5.87343 73.7135 5.87343C73.4334 5.87343 73.1883 5.74893 72.9782 5.49991C72.7681 5.25089 72.663 4.90071 72.663 4.44937C72.663 3.93578 72.8011 3.47665 73.0774 3.072C73.2136 2.87746 73.3906 2.71988 73.6085 2.59926C73.8303 2.47864 74.0734 2.41833 74.338 2.41833C74.9217 2.41833 75.2135 2.70042 75.2135 3.2646C75.2135 3.60311 75.0812 3.86963 74.8166 4.06417C74.5559 4.25483 74.2524 4.35015 73.9061 4.35015C73.6766 4.35015 73.4704 4.32875 73.2875 4.28596C73.2836 4.32486 73.2817 4.38517 73.2817 4.46688C73.2817 5.15557 73.4859 5.49991 73.8945 5.49991C74.2797 5.49991 74.5929 5.30926 74.8341 4.92795C74.9781 4.9474 75.0501 4.99993 75.0501 5.08553Z" fill="white"/>
<path d="M77.2153 2.70431C77.0869 2.70431 76.9702 2.74517 76.8651 2.82687C76.7639 2.90858 76.7134 3.02142 76.7134 3.16538C76.7134 3.30545 76.7601 3.43774 76.8534 3.56225C76.9507 3.68676 77.0674 3.79765 77.2036 3.89492C77.3398 3.99219 77.4779 4.09141 77.618 4.19257C77.9448 4.43381 78.1082 4.69255 78.1082 4.9688C78.1082 5.24506 77.9974 5.47073 77.7756 5.64582C77.5538 5.81702 77.2698 5.90262 76.9235 5.90262C76.5811 5.90262 76.3145 5.83453 76.1239 5.69834C75.9371 5.56216 75.8438 5.40264 75.8438 5.21977C75.8438 5.033 75.8904 4.8871 75.9838 4.78204C76.0772 4.67699 76.19 4.62446 76.3223 4.62446C76.3924 4.62446 76.4585 4.64003 76.5208 4.67115C76.4352 4.7801 76.3924 4.9085 76.3924 5.05635C76.3924 5.2042 76.4371 5.32871 76.5266 5.42987C76.62 5.53104 76.7464 5.58162 76.906 5.58162C77.0694 5.58162 77.2075 5.54076 77.3203 5.45906C77.4332 5.37346 77.4896 5.26646 77.4896 5.13806C77.4896 5.00966 77.4565 4.89682 77.3904 4.79955C77.3242 4.70228 77.2406 4.61863 77.1394 4.54859C77.0421 4.47855 76.9351 4.40074 76.8184 4.31514C76.7017 4.22954 76.5927 4.14588 76.4916 4.06417C76.3943 3.97858 76.3126 3.87352 76.2465 3.74901C76.1803 3.62061 76.1472 3.48054 76.1472 3.3288C76.1472 3.05255 76.2523 2.82687 76.4624 2.65179C76.6725 2.47281 76.9371 2.38331 77.2561 2.38331C77.5752 2.38331 77.8086 2.44946 77.9565 2.58175C78.1044 2.71404 78.1783 2.86384 78.1783 3.03115C78.1783 3.19456 78.1374 3.33074 78.0557 3.43969C77.974 3.54474 77.8689 3.59727 77.7406 3.59727C77.6783 3.59727 77.6063 3.57976 77.5246 3.54474C77.6258 3.42023 77.6764 3.286 77.6764 3.14204C77.6764 2.99807 77.6316 2.88913 77.5421 2.8152C77.4565 2.74128 77.3476 2.70431 77.2153 2.70431Z" fill="white"/>
<path d="M80.9211 2.58759C80.9211 2.751 80.8899 2.86384 80.8277 2.92609C80.7654 2.98835 80.674 3.01947 80.5534 3.01947H80.1332C80.1176 3.12064 80.0768 3.36187 80.0106 3.74318C79.8783 4.46688 79.8122 5.01355 79.8122 5.38318C79.8122 5.75282 79.8394 5.99794 79.8939 6.11856C79.6721 6.03685 79.5145 5.91429 79.4211 5.75087C79.3278 5.58356 79.2811 5.38124 79.2811 5.14389C79.2811 4.90655 79.2947 4.68282 79.3219 4.47272C79.3531 4.25872 79.3959 4.0097 79.4503 3.72567C79.5048 3.44163 79.5437 3.21402 79.5671 3.04282C79.3453 3.07395 79.1274 3.1362 78.9134 3.22958C78.9056 3.16733 78.9017 3.11091 78.9017 3.06033C78.9017 2.87357 78.964 2.74906 79.0885 2.6868C79.213 2.62066 79.392 2.58759 79.6254 2.58759C79.6526 2.29966 79.6663 2.08566 79.6663 1.94559C79.6663 1.80163 79.6643 1.68685 79.6604 1.60125C79.6604 1.51565 79.6604 1.45145 79.6604 1.40865C79.8394 1.43589 79.9775 1.51565 80.0748 1.64794C80.1721 1.77634 80.2207 1.95337 80.2207 2.17904C80.2207 2.29577 80.211 2.43779 80.1915 2.60509C80.53 2.60509 80.7693 2.54868 80.9094 2.43584C80.9172 2.49031 80.9211 2.5409 80.9211 2.58759Z" fill="white"/>
<path d="M82.1685 5.87343C81.9468 5.79562 81.7911 5.67694 81.7016 5.51742C81.616 5.354 81.5732 5.15751 81.5732 4.92795C81.5732 4.69839 81.6044 4.36961 81.6666 3.94161C81.7289 3.51362 81.76 3.18094 81.76 2.9436C81.76 2.70626 81.7483 2.52339 81.725 2.39499C81.795 2.38721 81.8514 2.38331 81.8942 2.38331C82.0693 2.38331 82.1958 2.42222 82.2736 2.50004C82.3514 2.57786 82.3903 2.70626 82.3903 2.88524C82.3903 2.9436 82.3417 3.25098 82.2444 3.80738C82.151 4.35988 82.1024 4.81706 82.0985 5.17891C82.0985 5.53687 82.1219 5.76838 82.1685 5.87343ZM82.2561 1.80552C81.9293 1.80552 81.7658 1.69463 81.7658 1.47285C81.7658 1.39503 81.795 1.28609 81.8534 1.14601C81.939 1.13045 82.0129 1.12267 82.0752 1.12267C82.402 1.12267 82.5654 1.23356 82.5654 1.45534C82.5654 1.53316 82.5362 1.6421 82.4779 1.78217C82.3923 1.79774 82.3184 1.80552 82.2561 1.80552Z" fill="white"/>
<path d="M84.4639 5.78589C84.3705 5.84036 84.2655 5.8676 84.1487 5.8676C84.0359 5.8676 83.9737 5.83842 83.962 5.78005C83.8997 5.53104 83.8277 5.15946 83.746 4.66532C83.6643 4.16728 83.5807 3.73345 83.4951 3.36382C83.4134 2.99029 83.3141 2.7082 83.1974 2.51755C83.3375 2.41639 83.4756 2.36581 83.6118 2.36581C83.7869 2.36581 83.9114 2.46697 83.9853 2.66929C84.0593 2.86773 84.1293 3.28794 84.1954 3.92994C84.2616 4.56804 84.3199 4.98242 84.3705 5.17308C85.1254 3.71789 85.5028 2.75684 85.5028 2.28993C85.744 2.45335 85.8646 2.6226 85.8646 2.79769C85.8646 2.96889 85.7829 3.20818 85.6195 3.51556C85.46 3.81905 85.2576 4.18868 85.0125 4.62446C84.7713 5.05635 84.5884 5.44349 84.4639 5.78589Z" fill="white"/>
<path d="M87.3857 3.50389C87.2729 3.69843 87.1853 3.89881 87.1231 4.10503C87.0647 4.30735 87.0355 4.5019 87.0355 4.68866C87.0355 4.87542 87.0764 5.03495 87.1581 5.16724C87.2437 5.29564 87.3643 5.35984 87.52 5.35984C87.7378 5.35984 87.9421 5.24117 88.1328 5.00382C88.3234 4.76259 88.4693 4.47272 88.5705 4.13421C88.6755 3.79181 88.7281 3.47665 88.7281 3.18873C88.7281 2.89691 88.7164 2.65762 88.6931 2.47086C88.7864 2.46308 88.8448 2.45919 88.8681 2.45919C89.1989 2.45919 89.3642 2.62844 89.3642 2.96695C89.3642 3.04087 89.3175 3.34242 89.2242 3.87158C89.1308 4.39684 89.0841 4.81901 89.0841 5.13806C89.0841 5.45322 89.1444 5.73336 89.265 5.97849C89.0199 5.92791 88.8409 5.82091 88.7281 5.65749C88.6191 5.49018 88.5647 5.25089 88.5647 4.93962C88.5647 4.88515 88.5724 4.7801 88.588 4.62446C88.4829 4.9941 88.2981 5.29175 88.0335 5.51742C87.769 5.74309 87.5083 5.85593 87.2515 5.85593C86.9986 5.85593 86.7943 5.7606 86.6387 5.56995C86.483 5.3754 86.4052 5.10888 86.4052 4.77037C86.4052 4.42797 86.4675 4.0953 86.592 3.77236C86.7204 3.44552 86.911 3.16344 87.1639 2.92609C87.4207 2.68875 87.7067 2.57008 88.0219 2.57008C88.1581 2.57008 88.3079 2.59731 88.4713 2.65179C88.2417 2.71015 88.0316 2.81715 87.841 2.97278C87.6503 3.12842 87.4986 3.30545 87.3857 3.50389Z" fill="white"/>
<path d="M90.3959 5.35984C90.392 5.29758 90.39 5.19837 90.39 5.06219C90.39 4.92211 90.4542 4.3307 90.5826 3.28794C90.7149 2.24519 90.7811 1.52927 90.7811 1.14018C90.7811 0.75109 90.7577 0.498183 90.711 0.381457C90.9289 0.463165 91.0826 0.583783 91.1721 0.743309C91.2616 0.902835 91.3064 1.09543 91.3064 1.3211C91.3064 1.54678 91.2499 2.13041 91.1371 3.072C91.0243 4.01359 90.9678 4.77232 90.9678 5.34817C90.9678 5.47267 90.9756 5.64776 90.9912 5.87343C90.7772 5.85787 90.6254 5.80729 90.536 5.72169C90.462 5.65165 90.4153 5.53104 90.3959 5.35984Z" fill="white"/>
<path d="M93.3831 1.68296C93.3831 1.80357 93.35 1.99423 93.2839 2.25492C93.0738 3.05255 92.9687 3.6712 92.9687 4.11087C92.9687 4.30541 92.9843 4.43964 93.0154 4.51357C92.8247 4.44354 92.6886 4.34043 92.6068 4.20425C92.5251 4.06807 92.4843 3.88519 92.4843 3.65563C92.4843 3.42218 92.5329 3.06227 92.6302 2.57591C92.7275 2.08955 92.7761 1.74326 92.7761 1.53705C92.7761 1.32694 92.7703 1.19076 92.7586 1.12851C92.887 1.12851 93.0232 1.17714 93.1671 1.27441C93.3111 1.36779 93.3831 1.50398 93.3831 1.68296ZM92.3209 5.16724C92.4259 5.12833 92.529 5.10888 92.6302 5.10888C92.7314 5.10888 92.817 5.13222 92.887 5.17891C92.957 5.2256 92.992 5.2898 92.992 5.37151C92.992 5.44933 92.957 5.5894 92.887 5.79173C92.7819 5.83063 92.6788 5.85009 92.5777 5.85009C92.4765 5.85009 92.3909 5.82674 92.3209 5.78005C92.2508 5.73336 92.2158 5.67111 92.2158 5.59329C92.2158 5.51158 92.2508 5.36957 92.3209 5.16724Z" fill="white"/>
</svg>
