<svg width="131" height="25" viewBox="0 0 131 25" fill="none" xmlns="http://www.w3.org/2000/svg">
<path d="M3.33689 24.5876C2.82038 24.5876 2.26082 24.3724 1.65822 23.942C1.08432 23.5116 0.797363 23.0094 0.797363 22.4355C0.797363 22.0051 0.883449 21.589 1.05562 21.1873C1.22779 20.7568 1.41431 20.3551 1.61518 19.982V19.8529C1.84474 19.5086 2.13169 19.2216 2.47603 18.9921C2.56212 18.8486 2.64821 18.6764 2.73429 18.4756C2.84907 18.246 2.99255 18.1169 3.16472 18.0882L3.37993 18.2173C3.06429 18.619 2.76299 19.0781 2.47603 19.5947L1.95952 22.2633C2.13169 22.5216 2.4043 22.6507 2.77733 22.6507C3.29385 22.6507 3.92514 22.5503 4.67122 22.3494C5.4173 22.1772 6.16337 21.9764 6.90945 21.7468C7.65553 21.5172 8.28682 21.3164 8.80334 21.1442V21.1012C8.94681 21.1012 9.09029 21.0868 9.23376 21.0581C9.40594 21.0007 9.52072 20.886 9.57811 20.7138L9.53506 20.5847L9.87941 20.6277C10.0516 20.5416 10.2237 20.4555 10.3959 20.3694C10.5681 20.2833 10.7546 20.226 10.9555 20.1973C11.0703 20.0825 11.3716 19.8386 11.8594 19.4655C12.3472 19.0638 12.8924 18.6477 13.495 18.2173C14.0976 17.7582 14.6428 17.3564 15.1306 17.0121C15.6185 16.6678 15.9198 16.4669 16.0345 16.4095L16.3358 15.936L16.6802 15.7639V15.3334C16.7376 14.903 16.5367 14.573 16.0776 14.3434C15.6185 14.0852 15.0159 13.87 14.2698 13.6978C13.5237 13.5256 12.7202 13.3534 11.8594 13.1813C11.0272 13.0091 10.2237 12.7795 9.44898 12.4926C8.7029 12.1769 8.08595 11.7752 7.59813 11.2874C7.13901 10.7996 6.90945 10.1539 6.90945 9.35046L6.69423 9.47959L6.60815 9.35046C6.60815 8.74786 6.95249 8.10222 7.64118 7.41354C8.35856 6.72485 9.26246 6.05051 10.3529 5.39052C11.4433 4.70183 12.5768 4.07054 13.7533 3.49663C14.9585 2.89403 16.0632 2.39187 17.0676 1.99013C18.1006 1.55971 18.8897 1.25841 19.4349 1.08623C19.9227 1.14362 20.3675 1.25841 20.7692 1.43058C21.1997 1.57405 21.4723 1.93274 21.5871 2.50665C21.9027 2.39187 22.0605 2.14796 22.0605 1.77492C22.0605 1.57405 22.0462 1.38753 22.0175 1.21536C21.9888 1.0145 21.9314 0.842324 21.8453 0.698848L22.0175 0.612762C22.161 0.612762 22.4192 0.670153 22.7923 0.784934C23.194 0.87102 23.6244 0.9858 24.0835 1.12928C24.5427 1.27275 24.9444 1.41623 25.2887 1.55971C25.6618 1.70318 25.877 1.83231 25.9344 1.94709L25.7622 2.59273L24.9874 2.89403L24.6861 2.76491C24.3992 2.87969 24.2701 3.1236 24.2988 3.49663C24.3275 3.86967 24.2414 4.08489 24.0405 4.14228L23.6531 3.97011V4.01315L23.9544 4.61575L23.8683 4.74488L23.9975 4.96009L23.8683 5.00313L23.567 4.87401C23.4523 5.10357 23.3662 5.43356 23.3088 5.86399C23.2514 6.26573 23.0649 6.48094 22.7492 6.50963C22.4336 6.79659 22.0892 7.16963 21.7162 7.62875C21.3432 8.05918 20.9127 8.30309 20.4249 8.36048V8.27439L20.554 7.41354L20.4249 7.19832C20.511 6.7105 20.6258 6.19399 20.7692 5.64878C20.9127 5.10357 21.0705 4.6301 21.2427 4.22836C21.0132 3.88402 20.7406 3.56837 20.4249 3.28142C20.138 2.99447 19.7793 2.85099 19.3488 2.85099C18.8323 2.85099 18.1149 3.00882 17.1967 3.32446C16.2784 3.61142 15.2741 4.01315 14.1837 4.52966C13.122 5.01748 12.1176 5.57704 11.1707 6.20834C10.2237 6.83963 9.46333 7.48527 8.88942 8.14526C8.31552 8.80525 8.07161 9.43655 8.15769 10.0391C8.04291 9.95306 7.97117 9.83828 7.94248 9.69481C7.91378 9.55133 7.89944 9.40785 7.89944 9.26438C7.89944 9.1209 7.89944 8.97743 7.89944 8.83395C7.92813 8.69047 7.95683 8.56134 7.98552 8.44656C7.78465 8.73352 7.68422 9.06351 7.68422 9.43655C7.68422 10.1252 7.97117 10.6561 8.54508 11.0291C9.11898 11.4022 9.86506 11.6891 10.7833 11.89C11.7016 12.0909 12.6772 12.2774 13.7102 12.4495C14.7432 12.593 15.7189 12.7652 16.6371 12.9661C17.5554 13.1669 18.3015 13.4682 18.8754 13.87C19.4493 14.243 19.7362 14.7739 19.7362 15.4626C19.7362 15.8356 19.6501 16.1799 19.478 16.4956C19.3058 16.7825 19.148 17.0838 19.0045 17.3995C18.6888 17.5143 18.488 17.6721 18.4019 17.8729C18.3158 18.0738 18.1867 18.3034 18.0145 18.5616C17.7849 18.619 17.4836 18.8199 17.1106 19.1642C16.7663 19.4799 16.508 19.6234 16.3358 19.5947C16.2211 19.6521 16.0919 19.7381 15.9484 19.8529C15.8337 19.939 15.7476 20.0538 15.6902 20.1973L15.5611 20.1112C15.2454 20.5416 14.7146 20.972 13.9685 21.4025C13.2224 21.8329 12.3472 22.2346 11.3429 22.6077C10.3672 22.9807 9.36289 23.3107 8.32986 23.5977C7.32553 23.9133 6.37859 24.1572 5.48903 24.3294C4.59948 24.5016 3.8821 24.5876 3.33689 24.5876ZM19.9514 9.13525L20.1666 8.48961L20.3819 8.66178L19.9514 9.13525ZM17.3689 14.5156L17.455 14.3004L17.3258 14.1282L17.0676 14.2573L17.3689 14.5156ZM19.2627 16.1082V16.0221L19.0045 15.6347L18.9614 15.8499V16.0221L19.2627 16.1082ZM18.4449 16.8399L18.7462 16.6678L18.7893 16.2804L18.7462 15.893C18.4593 16.1799 18.3015 16.4812 18.2728 16.7969L18.4449 16.8399ZM18.488 17.4425L18.9184 16.9691V16.926L18.2297 17.1412L18.3158 17.3995L18.488 17.4425ZM17.2828 18.2173L17.7563 18.1743L18.1006 17.4856L17.5841 17.959L17.4119 17.7869L17.2828 18.1743V18.2173Z" fill="white"/>
<path d="M30.9301 24.3724L30.2844 23.3394C30.2557 23.1672 30.1983 22.9951 30.1122 22.8229C30.0548 22.6507 30.0262 22.4642 30.0262 22.2633C30.0262 21.9764 30.0405 21.7181 30.0692 21.4886C30.0979 21.2303 30.1266 20.9577 30.1553 20.6707L30.4566 19.982L30.4135 19.896C30.4709 19.7812 30.514 19.6664 30.5427 19.5516C30.6001 19.4081 30.6431 19.279 30.6718 19.1642L30.4996 19.0351C30.2988 19.0351 30.0118 19.236 29.6388 19.6377C29.2944 20.0107 28.8927 20.3838 28.4336 20.7568C28.0031 21.1299 27.501 21.3164 26.9271 21.3164C26.554 21.3164 26.2097 21.2016 25.894 20.972C25.5784 20.7425 25.4349 20.3981 25.4636 19.939L25.4206 19.8529C25.7362 19.279 26.0088 18.6908 26.2384 18.0882C26.4679 17.4856 26.7119 16.8973 26.9701 16.3234L26.7119 15.8499L26.5827 15.893L26.3675 15.8069L25.9371 16.2373L25.3345 16.3665L25.4206 16.5817H25.3345L24.9041 16.7108L24.818 16.883H24.5597L24.5167 17.1412C24.3732 17.2847 24.2154 17.4425 24.0432 17.6147C23.871 17.7869 23.6702 17.8873 23.4406 17.916L20.858 20.3694L20.815 20.2403C20.815 20.0394 20.8867 19.8816 21.0302 19.7668C21.1737 19.6234 21.3028 19.4942 21.4176 19.3794L21.4606 19.2934L21.5898 19.2073L21.6328 19.2503L21.7619 18.949H21.7189C21.7763 18.8916 21.8337 18.8199 21.8911 18.7338C21.9771 18.619 22.0776 18.5616 22.1924 18.5616H22.2784C22.2784 18.5616 22.2784 18.5329 22.2784 18.4756C22.4506 18.2173 22.6802 17.9877 22.9671 17.7869H23.0963L23.2254 17.6577L23.1823 17.5717L23.6128 17.3995C23.5841 17.1125 23.8136 16.7969 24.3015 16.4525C24.7893 16.1082 25.3201 15.8069 25.894 15.5486C26.4679 15.2617 26.8697 15.1182 27.0992 15.1182C27.4149 15.1182 27.7879 15.2043 28.2184 15.3765C28.6488 15.5199 28.864 15.7925 28.864 16.1943C28.864 16.9977 28.7205 17.6434 28.4336 18.1312C28.1466 18.619 27.9888 18.9347 27.9601 19.0781L28.0892 19.1642C28.4336 19.1642 28.7062 19.0638 28.907 18.8629C29.1079 18.6334 29.3088 18.4038 29.5096 18.1743C29.7392 17.9447 30.0118 17.8156 30.3275 17.7869C30.2988 17.7582 30.3131 17.7438 30.3705 17.7438C30.4279 17.7151 30.4566 17.7295 30.4566 17.7869C30.5714 17.586 30.8296 17.2704 31.2314 16.8399C31.6331 16.3808 32.0492 15.9504 32.4796 15.5486C32.91 15.1469 33.2113 14.946 33.3835 14.946C33.6991 14.946 34.0578 15.0608 34.4596 15.2904C34.8613 15.5199 35.0622 15.8069 35.0622 16.1512C35.0622 16.2947 34.9474 16.5673 34.7178 16.9691C34.517 17.3421 34.273 17.7438 33.9861 18.1743C33.6991 18.6047 33.4122 18.9921 33.1252 19.3364C32.867 19.6521 32.6661 19.8386 32.5226 19.896C32.2644 20.3551 31.9057 20.886 31.4466 21.4886C31.0161 22.0625 30.8009 22.6364 30.8009 23.2103C30.8009 23.4111 30.8296 23.5977 30.887 23.7698C30.9444 23.942 30.9731 24.1142 30.9731 24.2863L30.9301 24.3724Z" fill="white"/>
<path d="M36.0666 24.3724C35.8944 24.1142 35.8084 23.8559 35.8084 23.5977C35.8084 23.3968 35.8514 23.2103 35.9375 23.0381C35.9949 22.8659 36.0666 22.7081 36.1527 22.5646H36.1957L36.1527 22.5216C36.3536 22.2346 36.6692 21.8616 37.0996 21.4025C37.5588 20.9433 38.0466 20.5273 38.5631 20.1542C39.0796 19.7812 39.4957 19.5803 39.8113 19.5516L40.0696 19.3794C40.2131 19.1499 40.4283 18.9347 40.7152 18.7338C41.0309 18.5042 41.3035 18.3177 41.5331 18.1743L41.7913 18.2173L41.7483 18.0451L41.8774 17.959L41.7483 17.5286C41.4613 17.4138 41.0883 17.2704 40.6292 17.0982C40.1987 16.926 39.797 16.7108 39.424 16.4525C39.0796 16.1656 38.9074 15.8356 38.9074 15.4626C38.9074 15.1756 39.1657 14.7739 39.6822 14.2573C40.1987 13.7408 40.8157 13.2243 41.5331 12.7078C42.2791 12.1626 42.9822 11.7035 43.6422 11.3304C44.3308 10.9574 44.8187 10.7709 45.1056 10.7709C45.4786 10.6274 45.7513 10.3978 45.9234 10.0822C46.0956 9.76654 46.2534 9.47959 46.3969 9.22134C46.5691 8.93438 46.7986 8.79091 47.0856 8.79091C47.4586 8.79091 47.7743 8.97743 48.0325 9.35046C48.3195 9.7235 48.5203 10.0535 48.6351 10.3404C48.6064 10.4552 48.5203 10.5557 48.3769 10.6417C48.2621 10.7278 48.176 10.8426 48.1186 10.9861C47.7743 11.273 47.4873 11.6317 47.2578 12.0622C47.0569 12.4639 46.856 12.8656 46.6552 13.2674L45.8804 13.6978L45.7513 13.5256H45.7082C45.5934 13.6691 45.4786 13.7982 45.3639 13.913C45.2491 14.0278 45.163 14.1569 45.1056 14.3004C44.9908 14.4152 44.876 14.5873 44.7613 14.8169C44.6752 15.0178 44.5461 15.1326 44.3739 15.1613L44.3308 15.0752C44.4743 14.616 44.6178 14.1569 44.7613 13.6978C44.9047 13.21 45.0626 12.7365 45.2347 12.2774L45.3208 12.2343L45.4069 11.5887C45.12 11.5887 44.8474 11.6604 44.5891 11.8039C44.3308 11.9474 44.0439 12.0048 43.7282 11.9761C43.6135 12.0622 43.4126 12.2343 43.1256 12.4926C42.8674 12.7508 42.6091 12.9804 42.3509 13.1813C42.0926 13.3821 41.8917 13.4969 41.7483 13.5256C41.5761 13.8413 41.3178 14.1426 40.9735 14.4295C40.6579 14.7165 40.5 15.0608 40.5 15.4626C40.5 15.6347 40.5861 15.7495 40.7583 15.8069C40.9305 15.8356 41.0883 15.8499 41.2318 15.8499V16.1082L41.3178 16.0652L42.0065 16.2373L42.1357 16.1082C42.5087 16.1943 42.9678 16.3378 43.513 16.5386C44.0869 16.7108 44.5891 16.9547 45.0195 17.2704C45.4786 17.586 45.7082 18.0021 45.7082 18.5186C45.7082 18.7195 45.6652 18.9203 45.5791 19.1212C45.493 19.3221 45.3782 19.5229 45.2347 19.7238L44.5461 20.4125L43.47 20.3264C43.2691 20.4699 42.9248 20.599 42.437 20.7138C41.9491 20.7999 41.49 20.886 41.0596 20.972C40.6579 21.0581 40.457 21.1586 40.457 21.2733L40.0696 20.929C39.9261 21.1873 39.7109 21.3164 39.424 21.3164C39.137 21.3164 38.8501 21.3164 38.5631 21.3164C38.3048 21.3164 38.0035 21.4742 37.6592 21.7899C37.3436 22.1055 37.0566 22.4498 36.7983 22.8229C36.5401 23.2246 36.3823 23.5546 36.3249 23.8129L36.0666 24.3724Z" fill="white"/>
<path d="M49.4072 22.8659C49.0342 22.8659 48.7903 22.6794 48.6755 22.3064C48.5894 21.962 48.5463 21.6464 48.5463 21.3594C48.5463 21.1586 48.5894 20.7712 48.6755 20.1973C48.7903 19.6234 48.9337 19.0781 49.1059 18.5616C49.2781 18.0164 49.4646 17.7438 49.6655 17.7438C49.6942 17.4282 49.8089 17.0264 50.0098 16.5386C50.2107 16.0508 50.4689 15.7639 50.7846 15.6778V15.6347C50.842 15.5486 50.9137 15.4626 50.9998 15.3765C51.0859 15.2904 51.172 15.2043 51.258 15.1182L51.3011 15.0321V15.0752L51.3441 14.4726C51.4876 14.3865 51.6024 14.243 51.6885 14.0421C51.7746 13.8126 51.8893 13.6404 52.0328 13.5256L52.1619 13.6547C52.3628 13.4252 52.578 13.1956 52.8076 12.9661C53.0658 12.7078 53.195 12.4065 53.195 12.0622C53.3385 11.8326 53.4963 11.6317 53.6684 11.4596C53.8693 11.2587 54.0558 11.0578 54.228 10.857H54.3571C54.5006 10.7135 54.6584 10.6417 54.8306 10.6417L55.0028 10.4265V9.95306L55.1749 9.82394C55.3184 9.62307 55.5049 9.33612 55.7345 8.96308C55.9641 8.59004 56.0788 8.30309 56.0788 8.10222C56.0788 8.01613 56.0071 7.97309 55.8636 7.97309C55.7488 7.97309 55.6197 8.00179 55.4762 8.05918C55.3328 8.08787 55.2323 8.10222 55.1749 8.10222V7.88701L57.3701 6.03616V5.99312C57.7432 5.73486 58.1019 5.46226 58.4462 5.17531C58.7905 4.85966 59.1492 4.58705 59.5223 4.35749C59.8379 4.41488 60.1823 4.51532 60.5553 4.65879C60.9283 4.77357 61.1866 4.98879 61.3301 5.30444V5.86399C61.1292 6.06486 60.7849 6.42355 60.297 6.94006C59.8092 7.45658 59.2497 8.04483 58.6184 8.70482C57.9871 9.33612 57.3558 9.96741 56.7245 10.5987C56.0932 11.2013 55.5336 11.7035 55.0458 12.1052C54.5867 12.5069 54.271 12.7222 54.0989 12.7508L53.5824 13.2243L53.7976 13.6117L53.5824 14.0421C53.3528 14.0995 53.1089 14.286 52.8506 14.6017C52.6211 14.8886 52.5063 15.1613 52.5063 15.4195C52.248 15.5343 52.0759 15.6634 51.9898 15.8069C51.9324 15.9504 51.8463 16.0938 51.7315 16.2373C51.6454 16.3808 51.4015 16.5243 50.9998 16.6678L50.8707 16.883V17.8299L51.0428 17.959L50.8276 17.8729L50.6554 18.2173H50.5694C50.4833 18.5042 50.4402 18.8055 50.4402 19.1212L50.6554 19.6377C50.7702 19.4942 50.9998 19.279 51.3441 18.9921C51.6885 18.6764 51.8463 18.4469 51.8176 18.3034L52.1619 17.959C52.248 17.6721 52.4489 17.3134 52.7645 16.883C53.1089 16.4238 53.4819 16.0078 53.8837 15.6347C54.2854 15.2617 54.6297 15.0752 54.9167 15.0752V15.0321L55.5623 15.0752C55.9641 15.276 56.208 15.6204 56.2941 16.1082C56.3801 16.596 56.5093 17.1699 56.6814 17.8299C56.8823 18.4612 57.3127 19.1212 57.9727 19.8099L58.6614 19.3794H58.7905C58.9053 19.236 59.0775 19.1068 59.3071 18.9921C59.5653 18.8773 59.7805 18.7768 59.9527 18.6908L59.9957 18.7338C59.9957 18.8773 59.7805 19.1212 59.3501 19.4655C58.9484 19.8099 58.5179 20.1255 58.0588 20.4125C57.5997 20.6994 57.2697 20.8716 57.0688 20.929L56.9397 20.8429L56.5093 20.929L56.3801 20.7138C55.6628 20.6277 55.1462 20.4412 54.8306 20.1542C54.515 19.8386 54.2997 19.4942 54.185 19.1212C54.0989 18.7482 54.0271 18.4038 53.9697 18.0882C53.9124 17.7725 53.7545 17.5717 53.4963 17.4856C53.2954 17.6864 53.1089 17.8873 52.9367 18.0882C52.7645 18.289 52.5924 18.5042 52.4202 18.7338C52.1619 18.8486 51.9037 19.1212 51.6454 19.5516C51.4159 19.982 51.1863 20.4555 50.9567 20.972C50.7559 21.4886 50.5263 21.9333 50.2681 22.3064C50.0098 22.6794 49.7229 22.8659 49.4072 22.8659ZM54.5723 8.48961L54.5293 8.36048L54.6584 8.05918L54.9167 8.10222L55.0028 8.40352L54.5723 8.48961Z" fill="white"/>
<path d="M67.1859 11.0722C67.0998 11.0722 66.8703 11.0435 66.4972 10.9861C66.1529 10.9 65.9807 10.7996 65.9807 10.6848C65.9807 10.2544 66.1959 9.93872 66.6264 9.73785C67.0855 9.53698 67.4585 9.33612 67.7455 9.13525H67.8316C68.2333 8.8196 68.7068 8.60439 69.252 8.48961C69.8259 8.37483 70.3568 8.30309 70.8446 8.27439L70.8015 8.31743C70.2563 8.48961 69.7685 8.80525 69.3381 9.26438C68.9076 9.69481 68.5059 10.1109 68.1329 10.5126C67.7885 10.8857 67.4729 11.0722 67.1859 11.0722ZM61.6334 23.0381L60.9447 22.0481C60.916 21.8472 60.873 21.6607 60.8156 21.4886C60.7582 21.2877 60.7295 21.0868 60.7295 20.886C60.7295 20.6277 60.7438 20.3694 60.7725 20.1112C60.8012 19.8529 60.8299 19.5947 60.8586 19.3364L61.1599 18.6047L61.1169 18.5616C61.2604 18.2173 61.4038 17.7725 61.5473 17.2273C61.6908 16.6821 61.863 16.1369 62.0638 15.5917C62.2934 15.0178 62.566 14.5443 62.8816 14.1713C63.1973 13.7695 63.5847 13.5687 64.0438 13.5687C64.3594 13.5687 64.7181 13.6834 65.1199 13.913C65.5216 14.1426 65.7225 14.4439 65.7225 14.8169C65.7225 14.9604 65.6077 15.2186 65.3781 15.5917C65.1773 15.9647 64.9333 16.3808 64.6464 16.8399C64.3594 17.2704 64.0725 17.6577 63.7855 18.0021C63.5273 18.3177 63.3408 18.5042 63.226 18.5616C62.9677 19.0208 62.609 19.5516 62.1499 20.1542C61.6908 20.7568 61.4612 21.3164 61.4612 21.8329C61.4612 22.0338 61.4899 22.2203 61.5473 22.3925C61.6334 22.5646 61.6764 22.7511 61.6764 22.952L61.6334 23.0381Z" fill="white"/>
<path d="M78.2967 24.8029C77.7515 24.602 77.1776 24.3437 76.575 24.0281C75.9724 23.7411 75.4559 23.3537 75.0254 22.8659C74.6237 22.3781 74.4228 21.7899 74.4228 21.1012C74.4228 20.7855 74.4659 20.4699 74.552 20.1542C74.6381 19.8099 74.8102 19.5373 75.0685 19.3364C75.0972 19.4512 75.0972 19.566 75.0685 19.6807C75.0685 19.7955 75.0685 19.9247 75.0685 20.0681C75.0685 20.9864 75.3985 21.6607 76.0585 22.0912C76.7185 22.5216 77.4502 22.7368 78.2537 22.7368C79.1719 22.7368 80.0184 22.5072 80.7932 22.0481C81.5966 21.589 82.271 21.0438 82.8162 20.4125V20.1112H82.8592L83.1175 19.7668C83.261 19.7094 83.3901 19.6377 83.5049 19.5516C83.6197 19.4655 83.7201 19.3794 83.8062 19.2934V18.949C84.2079 18.7482 84.5666 18.4182 84.8822 17.959C85.2266 17.4712 85.5135 17.0408 85.7431 16.6678C85.9727 16.6678 86.1305 16.5386 86.2166 16.2804C86.3027 15.9934 86.3601 15.7639 86.3888 15.5917L86.4318 15.5486L86.3888 15.4626C85.7862 15.4626 85.1692 15.5343 84.5379 15.6778C83.9353 15.7925 83.3184 15.8786 82.6871 15.936C82.1419 16.3951 81.5249 16.6247 80.8362 16.6247C80.5206 16.6247 80.1906 16.5386 79.8462 16.3665C79.5019 16.1943 79.3297 15.9217 79.3297 15.5486C79.3297 15.3478 79.4015 15.1039 79.5449 14.8169C79.7171 14.53 79.918 14.2717 80.1475 14.0421C80.4058 13.7839 80.6354 13.6547 80.8362 13.6547L80.9223 13.913H81.611C81.9266 13.913 82.2279 13.8987 82.5149 13.87C82.8305 13.8413 83.1318 13.8269 83.4188 13.8269L83.8062 13.6117L84.1936 13.8269C84.337 13.7121 84.624 13.6547 85.0544 13.6547C85.4562 13.6547 85.9009 13.6834 86.3888 13.7408C86.9053 13.7982 87.2927 13.8126 87.5509 13.7839C87.7805 13.2961 88.0244 12.8369 88.2826 12.4065C88.5409 11.9474 88.7561 11.4883 88.9283 11.0291L89.2296 10.7709C89.4878 9.79524 89.8035 8.8483 90.1765 7.93005C90.5496 6.98311 90.8939 6.03616 91.2096 5.08922H89.703C89.3874 5.08922 89.0574 5.10357 88.7131 5.13226C88.3974 5.16096 88.0961 5.24704 87.8092 5.39052L87.2926 5.34748C86.8909 5.29009 86.4892 5.33313 86.0874 5.47661C85.7144 5.62008 85.3557 5.77791 85.0114 5.95008L84.8392 5.90704L84.7101 6.03616C83.1892 6.29442 81.7258 6.88267 80.3197 7.80092C78.9423 8.71917 77.7802 9.78089 76.8332 10.9861L77.2637 11.2444L78.0384 11.1583L78.1676 11.2874C78.0241 11.4309 77.8519 11.5456 77.6511 11.6317C77.4502 11.7178 77.2493 11.7896 77.0485 11.8469L76.7041 11.5456L76.3598 11.6748C76.2737 11.5026 76.2306 11.3448 76.2306 11.2013C76.2306 10.6848 76.4745 10.1109 76.9624 9.47959C77.4789 8.8483 77.9093 8.34613 78.2537 7.97309V7.71484C78.8563 7.22702 79.6167 6.7392 80.5349 6.25138C81.4819 5.73486 82.5005 5.27574 83.591 4.87401C84.6814 4.47227 85.7718 4.15663 86.8622 3.92706C87.9526 3.66881 88.9426 3.53968 89.8322 3.53968C90.0331 3.53968 90.2196 3.55402 90.3917 3.58272C90.5639 3.58272 90.7361 3.59707 90.9082 3.62576C91.023 3.53968 91.1522 3.48229 91.2956 3.45359C91.4391 3.4249 91.5682 3.3962 91.683 3.36751L91.4678 3.32446C91.6974 2.95143 91.8121 2.56404 91.8121 2.16231C91.8695 2.13361 91.9269 2.10491 91.9843 2.07622C92.0704 2.04753 92.1421 2.03318 92.1995 2.03318C92.5152 2.03318 92.9313 2.06187 93.4478 2.11926C93.993 2.17665 94.4665 2.32013 94.8682 2.54969C95.2986 2.75056 95.4851 3.0949 95.4277 3.58272C95.9156 3.52533 96.4034 3.49663 96.8912 3.49663C97.379 3.46794 97.8669 3.45359 98.3547 3.45359C99.2155 3.45359 100.076 3.51098 100.937 3.62576C101.827 3.74054 102.659 4.04184 103.434 4.52966L103.305 4.70183C103.391 4.98879 103.563 5.17531 103.821 5.26139L103.95 5.60574L103.649 5.82095L103.821 6.29442C103.62 6.83963 103.419 7.19832 103.219 7.37049C103.018 7.54266 102.616 7.65744 102.013 7.71484L101.669 7.49962L100.206 8.14526L100.162 8.10222L100.335 7.71484V7.67179C100.162 7.81527 99.9759 7.9444 99.7751 8.05918C99.5742 8.17396 99.359 8.2457 99.1294 8.27439L99.0003 8.18831L99.1294 8.05918C99.6747 7.88701 100.134 7.6144 100.507 7.24136C100.88 6.86832 101.21 6.45224 101.497 5.99312L101.411 5.30444L100.249 4.74488L100.206 4.61575C99.8325 4.50097 99.4451 4.44358 99.0434 4.44358C98.6416 4.41488 98.2399 4.40053 97.8382 4.40053C97.4364 4.40053 97.0347 4.44358 96.633 4.52966C96.2599 4.61575 95.8725 4.67314 95.4708 4.70183L95.643 5.04618C95.6143 5.16096 95.5569 5.36183 95.4708 5.64878C95.3847 5.93573 95.2699 6.09355 95.1265 6.12225L94.6099 5.77791L94.5669 5.82095C94.5382 6.19399 94.4378 6.56703 94.2656 6.94006C94.0934 7.28441 93.8926 7.60005 93.663 7.88701C93.1752 7.9157 92.9313 8.18831 92.9313 8.70482L93.1895 8.87699L93.3617 8.61874L93.5339 8.57569L93.62 8.70482C93.4191 9.02047 93.2039 9.25003 92.9743 9.39351C92.7448 9.39351 92.5439 9.47959 92.3717 9.65176C92.2282 9.82393 92.0417 9.92437 91.8121 9.95306C91.5826 10.0678 91.4248 10.2257 91.3387 10.4265C91.2813 10.6274 91.0948 10.8139 90.7791 10.9861L90.8222 11.0722C90.7074 11.187 90.5209 11.4165 90.2626 11.7609C90.033 12.0765 89.8178 12.4065 89.617 12.7508C89.4161 13.0665 89.3013 13.3104 89.2726 13.4826H89.3587L89.4878 13.7408C89.7748 13.6547 90.0474 13.6117 90.3057 13.6117C90.5639 13.583 90.8365 13.5687 91.1235 13.5687C91.4104 13.5687 91.683 13.5687 91.9413 13.5687C92.1995 13.5687 92.4578 13.5543 92.7161 13.5256C95.5856 13.0378 98.3977 12.6504 101.152 12.3635L101.368 12.2774L101.454 12.3635C101.368 12.593 100.995 12.8082 100.335 13.0091C99.7033 13.21 98.9286 13.3965 98.0103 13.5687C97.0921 13.7121 96.1595 13.8413 95.2125 13.956C94.2656 14.0708 93.4047 14.1569 92.63 14.2143C91.8839 14.2717 91.353 14.3004 91.0374 14.3004C91.0374 14.4152 90.8078 14.5443 90.3487 14.6878C89.8896 14.8313 89.4017 14.9891 88.8852 15.1613C88.3974 15.3047 88.0531 15.5056 87.8522 15.7639V16.3234L87.637 16.2373C87.4074 16.266 87.2496 16.3808 87.1635 16.5817C87.0774 16.7538 87.0201 16.9547 86.9914 17.1843C86.7044 17.3564 86.4318 17.5717 86.1735 17.8299C85.9153 18.0595 85.6427 18.289 85.3557 18.5186L85.3988 18.9921H85.2266C85.1692 19.1929 84.997 19.3938 84.7101 19.5947C84.4518 19.7668 84.2366 19.9247 84.0644 20.0681L83.8492 20.4555L84.0644 20.6277L83.7631 20.7999C83.5049 21.1729 83.0888 21.6464 82.5149 22.2203C81.9697 22.7942 81.4962 23.1672 81.0945 23.3394C80.7501 23.7698 80.3341 24.0855 79.8462 24.2863C79.3584 24.4872 78.8419 24.6594 78.2967 24.8029ZM91.3817 8.44656H91.8552L91.8982 8.23135L91.8552 8.05918C91.7117 8.08787 91.5539 8.217 91.3817 8.44656ZM92.4578 8.36048L92.5869 8.18831L92.5008 8.10222H92.4148L92.3287 8.23135L92.4578 8.36048ZM91.4678 9.13525L91.4248 8.92004L91.2526 9.04916L91.4678 9.13525ZM91.5969 9.91002L91.7261 9.86698L91.7691 9.65176L91.64 9.60872L91.5539 9.86698L91.5969 9.91002ZM78.641 11.0291L78.7271 10.7709L78.8563 10.8139L78.8993 10.9861L78.8563 11.0291H78.641Z" fill="white"/>
<path d="M102.307 22.1342C102.048 22.1342 101.733 21.962 101.36 21.6177C101.015 21.2733 100.728 21.0151 100.499 20.8429C100.441 20.4699 100.341 20.1399 100.197 19.8529C100.054 19.5373 99.9822 19.2073 99.9822 18.8629C99.9822 18.3464 100.169 17.7438 100.542 17.0551C100.944 16.3378 101.446 15.6347 102.048 14.946C102.68 14.2573 103.311 13.6834 103.942 13.2243C104.602 12.7652 105.19 12.5356 105.707 12.5356V12.4495C106.109 12.5356 106.482 12.7939 106.826 13.2243C107.199 13.6548 107.386 14.0565 107.386 14.4295C107.386 14.7739 107.17 15.1326 106.74 15.5056C106.338 15.8499 105.836 16.1799 105.233 16.4956C104.66 16.7825 104.086 17.0121 103.512 17.1843C102.967 17.3564 102.536 17.4425 102.22 17.4425V17.5286C102.02 17.8443 101.819 18.246 101.618 18.7338C101.446 19.1929 101.36 19.6234 101.36 20.0251C101.36 20.1686 101.403 20.3264 101.489 20.4986C101.69 20.642 101.948 20.7138 102.263 20.7138C102.579 20.6851 102.837 20.6851 103.038 20.7138L103.081 20.7568L103.21 20.5416C103.583 20.5129 103.942 20.4268 104.287 20.2833V20.0251H104.545V19.896L104.717 19.939C104.86 19.8816 104.961 19.8242 105.018 19.7668C105.104 19.6807 105.205 19.609 105.32 19.5516L105.578 19.6807V19.6377L106.353 18.906H106.396L106.525 18.9921V18.949C106.898 18.6047 107.3 18.289 107.73 18.0021C108.16 17.7151 108.476 17.3421 108.677 16.883L109.15 16.5386L109.236 16.6247C109.236 16.8256 109.165 17.0121 109.021 17.1843C108.878 17.3564 108.706 17.4712 108.505 17.5286C108.275 18.0738 107.931 18.5329 107.472 18.906C107.041 19.279 106.596 19.6664 106.137 20.0681H106.008L105.965 20.2833C105.42 20.6564 104.846 21.0581 104.243 21.4886C103.67 21.919 103.024 22.1342 102.307 22.1342ZM103.124 16.6247H103.21V16.5386C103.411 16.4812 103.756 16.3091 104.243 16.0221C104.76 15.7352 105.248 15.4339 105.707 15.1182C106.166 14.7739 106.41 14.53 106.439 14.3865H106.482L106.439 14.1713L106.482 13.956C106.453 13.956 106.396 13.956 106.31 13.956C106.223 13.9274 106.152 13.913 106.094 13.913C105.721 14.1713 105.348 14.4152 104.975 14.6447C104.602 14.8743 104.229 15.1039 103.856 15.3334H103.77L103.727 15.6778C103.555 15.7925 103.426 15.936 103.34 16.1082C103.253 16.2517 103.182 16.4238 103.124 16.6247ZM109.667 16.4956L109.409 16.4095L109.366 16.1512L109.796 16.0221L109.839 16.1512L109.667 16.4956Z" fill="white"/>
<path d="M108.061 24.3724C107.889 24.1142 107.803 23.8559 107.803 23.5977C107.803 23.3968 107.846 23.2103 107.932 23.0381C107.989 22.8659 108.061 22.7081 108.147 22.5646H108.19L108.147 22.5216C108.348 22.2346 108.663 21.8616 109.094 21.4025C109.553 20.9433 110.041 20.5273 110.557 20.1542C111.074 19.7812 111.49 19.5803 111.806 19.5516L112.064 19.3794C112.207 19.1499 112.423 18.9347 112.709 18.7338C113.025 18.5042 113.298 18.3177 113.527 18.1743L113.786 18.2173L113.743 18.0451L113.872 17.959L113.743 17.5286C113.456 17.4138 113.083 17.2704 112.623 17.0982C112.193 16.926 111.791 16.7108 111.418 16.4525C111.074 16.1656 110.902 15.8356 110.902 15.4626C110.902 15.1756 111.16 14.7739 111.676 14.2573C112.193 13.7408 112.81 13.2243 113.527 12.7078C114.273 12.1626 114.976 11.7035 115.636 11.3304C116.325 10.9574 116.813 10.7709 117.1 10.7709C117.473 10.6274 117.745 10.3978 117.918 10.0822C118.09 9.76654 118.248 9.47959 118.391 9.22134C118.563 8.93438 118.793 8.79091 119.08 8.79091C119.453 8.79091 119.769 8.97743 120.027 9.35046C120.314 9.7235 120.515 10.0535 120.629 10.3404C120.601 10.4552 120.515 10.5557 120.371 10.6417C120.256 10.7278 120.17 10.8426 120.113 10.9861C119.769 11.273 119.482 11.6317 119.252 12.0622C119.051 12.4639 118.85 12.8656 118.649 13.2674L117.875 13.6978L117.745 13.5256H117.702C117.588 13.6691 117.473 13.7982 117.358 13.913C117.243 14.0278 117.157 14.1569 117.1 14.3004C116.985 14.4152 116.87 14.5873 116.755 14.8169C116.669 15.0178 116.54 15.1326 116.368 15.1613L116.325 15.0752C116.469 14.616 116.612 14.1569 116.755 13.6978C116.899 13.21 117.057 12.7365 117.229 12.2774L117.315 12.2343L117.401 11.5887C117.114 11.5887 116.842 11.6604 116.583 11.8039C116.325 11.9474 116.038 12.0048 115.722 11.9761C115.608 12.0622 115.407 12.2343 115.12 12.4926C114.862 12.7508 114.603 12.9804 114.345 13.1813C114.087 13.3821 113.886 13.4969 113.743 13.5256C113.57 13.8413 113.312 14.1426 112.968 14.4295C112.652 14.7165 112.494 15.0608 112.494 15.4626C112.494 15.6347 112.58 15.7495 112.753 15.8069C112.925 15.8356 113.083 15.8499 113.226 15.8499V16.1082L113.312 16.0652L114.001 16.2373L114.13 16.1082C114.503 16.1943 114.962 16.3378 115.507 16.5386C116.081 16.7108 116.583 16.9547 117.014 17.2704C117.473 17.586 117.702 18.0021 117.702 18.5186C117.702 18.7195 117.659 18.9203 117.573 19.1212C117.487 19.3221 117.372 19.5229 117.229 19.7238L116.54 20.4125L115.464 20.3264C115.263 20.4699 114.919 20.599 114.431 20.7138C113.943 20.7999 113.484 20.886 113.054 20.972C112.652 21.0581 112.451 21.1586 112.451 21.2733L112.064 20.929C111.92 21.1873 111.705 21.3164 111.418 21.3164C111.131 21.3164 110.844 21.3164 110.557 21.3164C110.299 21.3164 109.998 21.4742 109.653 21.7899C109.338 22.1055 109.051 22.4498 108.793 22.8229C108.534 23.2246 108.376 23.5546 108.319 23.8129L108.061 24.3724Z" fill="white"/>
<path d="M121.358 23.6407C120.899 23.6407 120.526 23.4398 120.239 23.0381C119.952 22.6651 119.809 22.249 119.809 21.7899C119.809 21.4455 119.909 20.929 120.11 20.2403C120.34 19.5229 120.612 18.7769 120.928 18.0021C121.244 17.1986 121.574 16.4812 121.918 15.8499C122.262 15.2186 122.578 14.8026 122.865 14.6017C123.267 13.9704 123.625 13.3821 123.941 12.8369C123.482 12.923 123.023 13.0235 122.564 13.1382C122.104 13.2243 121.674 13.3534 121.272 13.5256C121.071 13.7839 120.842 13.913 120.584 13.913C120.498 13.8556 120.397 13.7982 120.282 13.7408C120.168 13.6834 120.067 13.6117 119.981 13.5256L120.024 13.4395H119.981V13.3534C119.981 13.21 119.952 13.0808 119.895 12.9661C119.866 12.8226 119.838 12.6935 119.809 12.5787C119.78 12.55 119.766 12.4782 119.766 12.3635C119.766 11.9904 119.938 11.7465 120.282 11.6317C120.655 11.517 121.028 11.4596 121.401 11.4596C121.947 11.4596 122.32 11.5026 122.521 11.5887L122.951 11.5026H124.027C124.228 11.5026 124.414 11.5026 124.587 11.5026C124.759 11.5026 124.931 11.4883 125.103 11.4596L125.275 11.2013L125.232 11.0291C125.318 10.8283 125.505 10.4983 125.792 10.0391C126.079 9.58002 126.38 9.09221 126.696 8.57569C127.011 8.05918 127.284 7.6144 127.514 7.24136C127.772 6.83963 127.901 6.63876 127.901 6.63876C127.901 6.46659 128.044 6.36616 128.331 6.33746C128.618 6.30877 128.805 6.29442 128.891 6.29442C129.207 6.29442 129.637 6.39485 130.182 6.59572C130.727 6.76789 131 7.06919 131 7.49962C131 7.75788 130.9 7.97309 130.699 8.14526C130.498 8.28874 130.283 8.38917 130.053 8.44656V8.48961C130.053 8.66178 129.924 8.86264 129.666 9.09221C129.436 9.32177 129.163 9.52263 128.848 9.69481C128.532 9.86698 128.288 9.98176 128.116 10.0391C128.03 10.0678 127.915 10.1826 127.772 10.3835C127.657 10.5557 127.571 10.6848 127.514 10.7709V10.943C127.399 11.0291 127.27 11.1296 127.126 11.2444C127.011 11.3304 126.911 11.4452 126.825 11.5887C126.968 11.6174 127.112 11.6317 127.255 11.6317C127.399 11.6317 127.542 11.6317 127.686 11.6317C127.915 11.6317 128.13 11.6317 128.331 11.6317C128.561 11.6317 128.776 11.6461 128.977 11.6748L130.311 11.8469C129.967 12.1339 129.58 12.3061 129.149 12.3635C128.719 12.3922 128.274 12.4065 127.815 12.4065C127.384 12.3778 126.968 12.4495 126.567 12.6217C126.366 12.6791 126.093 12.8513 125.749 13.1382C125.433 13.4252 125.146 13.7408 124.888 14.0852C124.63 14.4008 124.501 14.6734 124.501 14.903L123.511 16.2373C123.224 16.3808 123.08 16.596 123.08 16.883C123.08 17.1699 122.922 17.3134 122.607 17.3134L122.004 18.6908C121.975 18.8629 121.932 19.1355 121.875 19.5086C121.846 19.8529 121.731 20.0538 121.531 20.1112C121.531 20.4842 121.516 20.8573 121.488 21.2303C121.459 21.5746 121.444 21.919 121.444 22.2633L121.531 22.4355H121.875C122.449 21.8616 123.037 21.3164 123.64 20.7999C124.271 20.2547 124.859 19.6807 125.404 19.0781L125.62 18.9921H125.706L125.964 18.6477L126.136 18.5616L126.093 18.5186L126.351 18.3034C126.581 17.873 126.954 17.5143 127.47 17.2273L127.514 17.3134C127.514 17.4569 127.327 17.7725 126.954 18.2603C126.581 18.7195 126.107 19.2647 125.534 19.896C124.988 20.4986 124.414 21.0868 123.812 21.6607C123.238 22.2346 122.721 22.7081 122.262 23.0811C121.803 23.4542 121.502 23.6407 121.358 23.6407Z" fill="white"/>
</svg>
